<svg xmlns="http://www.w3.org/2000/svg" width="46.456" height="45.827" viewBox="0 0 46.456 45.827">
  <g id="Group_8293" data-name="Group 8293" transform="translate(0.001 0)" style="mix-blend-mode: normal;isolation: isolate">
    <path id="Path_9306" data-name="Path 9306" d="M13.656,34.575l-.138.011a1.828,1.828,0,0,1-1.6-.346c-.878-.8-.908-2.7-.842-3.44V3.078h2.261L10.187,0,7.042,3.078h2.3V9.767H0v1.689H9.346l0,19.263c-.032.327-.264,3.241,1.382,4.751a3.478,3.478,0,0,0,2.989.793l20.688.033v7.53h1.728V36.3l10.317.016,0-1.689Z" transform="translate(0 0)" fill="#ed8935"/>
    <path id="Path_9307" data-name="Path 9307" d="M42.753,15.934a2.236,2.236,0,0,1,.63,1.791l0,12.29h1.726l0-12.272a3.659,3.659,0,0,0-1.143-2.933,5.1,5.1,0,0,0-3.207-1.142h-13.1v1.578H40.774a3.167,3.167,0,0,1,1.98.687" transform="translate(-8.514 -4.542)" fill="#ed8935"/>
    <path id="Path_9308" data-name="Path 9308" d="M49.561,64.208l3.145-2.875h-6.29Z" transform="translate(-14.289 -18.38)" fill="#ed8935"/>
  </g>
</svg>
