<svg xmlns="http://www.w3.org/2000/svg" xmlns:xlink="http://www.w3.org/1999/xlink" width="45" height="45" viewBox="0 0 45 45">
  <defs>
    <clipPath id="clip-path">
      <rect id="Rectangle_5857" data-name="Rectangle 5857" width="45" height="45" transform="translate(-0.001 0.35)" fill="#ed8935"/>
    </clipPath>
  </defs>
  <g id="Group_8280" data-name="Group 8280" transform="translate(0.001 -0.35)" clip-path="url(#clip-path)">
    <path id="Path_9309" data-name="Path 9309" d="M34.255,30.042c1.858,0,2.841-.949,2.842-2.725a2.365,2.365,0,0,0,.011-.34,2.523,2.523,0,0,0-2.6-2.435H30.843v5.5h3.412ZM32.23,25.9l.324-.009c.341-.009.786-.022,1.219-.022,1.736,0,2,.905,2,1.453a1.4,1.4,0,0,1-.012.268,1.422,1.422,0,0,1-1.617,1.2H32.258Z" transform="translate(-10.456 -8.276)" fill="#ed8935"/>
    <path id="Path_9310" data-name="Path 9310" d="M34.12,34.4H30.791l.035,6.1.616,0c.05.01.341.02,3.214.02h1.326l-.343-.086A2.868,2.868,0,0,0,38.1,37.474c0-2.677-2.495-3.077-3.982-3.077m.269,4.807H32.106V35.746h2.147c1.655,0,2.566.6,2.566,1.7,0,1.59-1.7,1.762-2.431,1.762" transform="translate(-10.438 -11.685)" fill="#ed8935"/>
    <path id="Path_9311" data-name="Path 9311" d="M36.363,26.715a3.468,3.468,0,0,0,1.391-3.148c0-2.546-2.217-4.395-5.275-4.4V15.684H28.937v3.484h-.443V15.685H24.884v3.5l-4.337-.018v3.662H22.72c.657,0,.724.118.724.621v8.94c0,.356-.061.356-.138.356H20.564V36.64l4.337-.065v3.5h3.642V36.594l.444.009L29,40.073l3.511.018-.07-3.519c1.135-.033,6.145-.457,6.145-5.336,0-2.858-1.3-4.041-2.228-4.521m-4.012,8.511c-.116,0-.984-.016-.984-.016l-.167,0v3.569h-.912V35.228H27.279v3.516H26.232V35.225l-4.287.066V34.064l1.4,0a1.344,1.344,0,0,0,1.186-.43,2.012,2.012,0,0,0,.275-1.307v-.551c0-1.954.013-7.9,0-8.363A1.809,1.809,0,0,0,22.794,21.5c-.317-.014-.617-.016-.865-.008V20.481l4.287-.016V16.982h1.047v3.465l3.008.02.018-3.473.912-.024v3.512h.4c4.526,0,4.877,2.412,4.877,3.148A3.475,3.475,0,0,1,34.3,26.765L33.722,27l.617.081c.123.016,3.006.436,3.006,4.125,0,.672-.241,4.022-4.994,4.022" transform="translate(-6.895 -5.212)" fill="#ed8935"/>
    <path id="Path_9312" data-name="Path 9312" d="M22.462,0A22.462,22.462,0,1,0,44.924,22.462,22.488,22.488,0,0,0,22.462,0m0,43.616A21.154,21.154,0,1,1,43.616,22.462,21.178,21.178,0,0,1,22.462,43.616" transform="translate(0.213 0.213)" fill="#ed8935"/>
  </g>
</svg>
