<?xml version="1.0" encoding="utf-8"?>
<!-- Generator: Adobe Illustrator 26.3.1, SVG Export Plug-In . SVG Version: 6.00 Build 0)  -->
<svg version="1.1" id="Layer_1" xmlns="http://www.w3.org/2000/svg" xmlns:xlink="http://www.w3.org/1999/xlink" x="0px" y="0px"
	 viewBox="0 0 612 792" style="enable-background:new 0 0 612 792;" xml:space="preserve">
<style type="text/css">
	.st0{clip-path:url(#SVGID_00000068674610671583424010000004706186871255075262_);}
	.st1{fill:#4A8ECC;}
	.st2{fill:#375E7D;}
</style>
<g>
	<defs>
		<rect id="SVGID_1_" x="216.33" y="230.81" width="144" height="144"/>
	</defs>
	<clipPath id="SVGID_00000085212530591193465640000007279340356940497829_">
		<use xlink:href="#SVGID_1_"  style="overflow:visible;"/>
	</clipPath>
	<g id="Group_6389" style="clip-path:url(#SVGID_00000085212530591193465640000007279340356940497829_);">
		<path id="Path_7242" class="st1" d="M300.06,318.58l30.9,18.94c0.15-0.55,0.22-1.13,0.22-1.7v-36.58c-0.01-1.66-0.61-3.25-1.7-4.5
			L300.06,318.58z"/>
		<path id="Path_7243" class="st1" d="M246.95,340.14c1.72,2.06,4.28,3.24,6.97,3.19h68.73c2.69,0.04,5.25-1.13,6.97-3.19
			l-41.34-25.34L246.95,340.14z"/>
		<path id="Path_7244" class="st1" d="M246.25,295.98c-0.56,1-0.85,2.12-0.85,3.26v36.58c0,0.57,0.07,1.15,0.22,1.7l31.23-19.15
			L246.25,295.98z"/>
		<path id="Path_7245" class="st2" d="M288.33,230.81c-39.76,0-72,32.24-72,72s32.24,72,72,72s72-32.24,72-72
			S328.1,230.81,288.33,230.81 M287.84,254.38l8.82,7.62h-5.05l-3.73-3.22l-3.63,3.22h-4.99L287.84,254.38z M334.91,335.83
			c0,5.95-5.5,10.79-12.25,10.79h-68.73c-6.76,0-12.25-4.84-12.25-10.79v-36.58c0.01-2.16,0.74-4.26,2.06-5.97h0.29l5.91-5.25v4.43
			l-2.2,1.95l2.2,1.61l2.44,1.79l0.17,0.12l-1.39-1.02v-24.06c0.05-5.38,4.45-9.7,9.83-9.66h52.2c5.38-0.04,9.78,4.28,9.83,9.66
			v24.33l-2.43,1.97v-26.3c-0.04-4.05-3.35-7.3-7.41-7.27h-52.2c-4.05-0.03-7.36,3.22-7.41,7.27v25.83l25.26,18.49l9.46-5.8
			l9.81,6.01l21.27-17.23l4.86-3.93l3.61-2.92l-0.03-0.02h0.05l-3.63-3.13v-4.36l8.87,7.66l-0.08,0.06
			c1.22,1.67,1.88,3.68,1.89,5.75L334.91,335.83z M292.67,295.22c0.03,0.6,0.25,1.18,0.63,1.65c0.4,0.42,0.97,0.63,1.55,0.57
			c0.93-0.11,1.8-0.48,2.54-1.05c1.25-0.93,2.3-2.11,3.07-3.47c0.95-1.56,1.57-3.29,1.85-5.09c0.28-1.88,0.16-3.8-0.36-5.63
			c-0.62-2.05-1.84-3.86-3.5-5.21c-1.43-1.24-3.11-2.16-4.92-2.69c-1.67-0.5-3.4-0.78-5.15-0.84c-1.53-0.05-3.05,0.07-4.56,0.36
			c-1.08,0.18-2.14,0.51-3.14,0.96c-0.78,0.42-1.54,0.88-2.28,1.38c-1.16,0.79-2.2,1.74-3.1,2.81c-1.11,1.32-2.02,2.79-2.71,4.37
			c-0.81,1.89-1.2,3.93-1.15,5.99c-0.01,1.72,0.3,3.43,0.92,5.03c1.22,3.11,3.43,5.73,6.3,7.45c1.48,0.9,3.1,1.56,4.79,1.95
			c2.26,0.56,4.6,0.69,6.9,0.39c2.71-0.42,5.34-1.21,7.82-2.36l0.13,3.41c-2.11,0.98-4.34,1.67-6.64,2.04
			c-2.23,0.36-4.49,0.41-6.73,0.15c-2.18-0.25-4.32-0.81-6.34-1.68c-2-0.85-3.84-2.04-5.45-3.5c-0.74-0.69-1.42-1.45-2.01-2.27
			c-0.71-0.96-1.32-2-1.82-3.08c-0.54-1.18-0.98-2.4-1.32-3.65c-0.35-1.3-0.53-2.64-0.53-3.98c0-1.83,0.28-3.64,0.83-5.39
			c0.55-1.79,1.35-3.49,2.38-5.06c1.04-1.58,2.31-3.01,3.76-4.22c1.49-1.25,3.18-2.24,4.99-2.93c1.78-0.64,3.63-1.07,5.51-1.29
			c1.9-0.22,3.82-0.21,5.71,0.03c1.88,0.24,3.72,0.71,5.48,1.41c1.71,0.67,3.31,1.59,4.75,2.72c1.7,1.43,3.04,3.23,3.93,5.27
			c0.87,2.04,1.31,4.24,1.29,6.46c-0.01,1.13-0.15,2.26-0.43,3.35c-0.29,1.17-0.71,2.3-1.25,3.38c-0.55,1.09-1.21,2.13-1.98,3.08
			c-0.75,0.94-1.63,1.76-2.61,2.45c-0.75,0.58-1.62,0.99-2.54,1.2c-0.97,0.24-1.97,0.32-2.97,0.24c-0.98-0.08-1.93-0.34-2.81-0.78
			c-0.85-0.41-1.54-1.08-1.98-1.92c0-0.03-0.01-0.07-0.03-0.09c-0.02-0.02-0.04-0.06-0.03-0.09l-0.07,0.12
			c-1.15,1.16-2.64,1.94-4.26,2.21c-1.65,0.33-3.35,0.09-4.85-0.66c-1.05-0.55-1.94-1.35-2.61-2.33c-0.58-0.89-0.99-1.89-1.19-2.93
			c-0.2-1.07-0.24-2.15-0.13-3.23c0.11-1.11,0.3-2.21,0.56-3.29c0.32-1.15,0.77-2.25,1.35-3.29c0.59-1.06,1.32-2.04,2.18-2.9
			c0.86-0.86,1.87-1.57,2.97-2.1c1.17-0.55,2.44-0.82,3.73-0.81c0.9,0,1.8,0.18,2.64,0.51c0.83,0.31,1.58,0.81,2.18,1.46l0.4-1.74
			h3.96c-0.88,3.87-1.61,7.09-2.18,9.67c-0.57,2.57-0.99,4.34-1.25,5.3C292.69,293.75,292.62,294.49,292.67,295.22"/>
		<path id="Path_7246" class="st2" d="M287.16,281.19c-1.01,0-1.98,0.36-2.74,1.02c-0.8,0.66-1.49,1.43-2.05,2.3
			c-0.53,0.81-0.97,1.67-1.32,2.57c-0.24,0.6-0.45,1.21-0.63,1.83c-0.23,0.62-0.35,1.28-0.36,1.95c-0.02,0.68,0.03,1.37,0.17,2.04
			c0.12,0.62,0.34,1.22,0.66,1.77c0.28,0.49,0.69,0.88,1.19,1.14c0.73,0.42,1.58,0.57,2.41,0.42c0.75-0.15,1.46-0.47,2.08-0.93
			c0.62-0.46,1.16-1.03,1.58-1.68c0.39-0.57,0.72-1.18,0.99-1.83c0.44-1.15,0.8-2.33,1.09-3.53c0.28-1.18,0.43-2.38,0.43-3.59
			c0.02-0.91-0.33-1.79-0.96-2.45C289.04,281.51,288.12,281.14,287.16,281.19"/>
	</g>
</g>
</svg>
