<svg xmlns="http://www.w3.org/2000/svg" width="355.456" height="76.314" viewBox="0 0 355.456 76.314">
  <path id="Union_69" data-name="Union 69" d="M-11966.061,74.324a21.221,21.221,0,0,1-6.475-2.673l2.907-8.221a21.027,21.027,0,0,0,3.542,1.66,27.509,27.509,0,0,0,4.09,1.136,21.415,21.415,0,0,0,4.185.423,8.169,8.169,0,0,0,3.892-.62,1.776,1.776,0,0,0,.984-1.509,1.621,1.621,0,0,0-.614-1.336,6.564,6.564,0,0,0-2.536-.892l-6.256-1.29a13.293,13.293,0,0,1-7.163-3.515,9.113,9.113,0,0,1-2.389-6.54,10.186,10.186,0,0,1,1.92-6.188,12.465,12.465,0,0,1,5.416-4.089,21.119,21.119,0,0,1,8.175-1.46,24.2,24.2,0,0,1,6.993.991,15.419,15.419,0,0,1,5.367,2.676l-2.9,7.725a15.081,15.081,0,0,0-4.309-2.006,19.065,19.065,0,0,0-5.392-.719,8.692,8.692,0,0,0-3.672.6,1.875,1.875,0,0,0-1.2,1.734,1.7,1.7,0,0,0,.688,1.287,6.149,6.149,0,0,0,2.66.991l6.154,1.238a12.963,12.963,0,0,1,7.067,3.469,9.057,9.057,0,0,1,2.389,6.487,10.118,10.118,0,0,1-1.92,6.141,12.341,12.341,0,0,1-5.37,4.061,20.9,20.9,0,0,1-8.076,1.435A33.1,33.1,0,0,1-11966.061,74.324Zm-66.577-1.262a16.175,16.175,0,0,1-6.6-6.314,18.721,18.721,0,0,1-2.34-9.508,18.588,18.588,0,0,1,2.34-9.484,16.223,16.223,0,0,1,6.6-6.293,21.264,21.264,0,0,1,10.069-2.253,22.091,22.091,0,0,1,6.524.917,13.757,13.757,0,0,1,4.95,2.6l-3.1,8.373a16.43,16.43,0,0,0-3.99-2.055,13.018,13.018,0,0,0-3.987-.571,8.068,8.068,0,0,0-6.132,2.253q-2.145,2.254-2.143,6.515,0,4.31,2.143,6.561a8.056,8.056,0,0,0,6.132,2.253,13.021,13.021,0,0,0,3.987-.568,16.43,16.43,0,0,0,3.99-2.055l3.1,8.37a13.661,13.661,0,0,1-4.95,2.6,22.091,22.091,0,0,1-6.524.917A21.228,21.228,0,0,1-12032.638,73.061Zm49.319,1.66-12.706-15.554h-.1V74.722h-10.638V39.805h10.638V54.514h.1l12.262-14.709h12.311l-14.379,16.5,15.218,18.421Zm-74.019,0V39.805h10.639V74.722Zm-34.419,0V39.805h17.924q6.157,0,9.259,3.046a10.956,10.956,0,0,1,3.1,8.2,10.979,10.979,0,0,1-3.1,8.172q-3.1,3.069-9.259,3.071h-7.289V74.722Zm16.5-20.554a3.967,3.967,0,0,0,2.756-.818,2.969,2.969,0,0,0,.886-2.3,2.976,2.976,0,0,0-.886-2.305,3.967,3.967,0,0,0-2.756-.815h-5.863v6.24Zm-49.486,20.554v-26.3h-10.045V39.805h30.729v8.617h-10.046v26.3Zm-21.812,0-5.96-11a2.26,2.26,0,0,0-1.28-1.065,5.339,5.339,0,0,0-1.821-.321h-.987V74.722h-10.635V39.805h17.088q6.157,0,9.5,2.972A10.419,10.419,0,0,1-12137.3,51a11.39,11.39,0,0,1-1.5,5.969,9.87,9.87,0,0,1-4.406,3.861c-.367.173-.75.327-1.146.469a6.557,6.557,0,0,1,1.244.719,10.15,10.15,0,0,1,2.854,3.3l5.367,9.41Zm-5.519-19.862a5.8,5.8,0,0,0,3.451-.864,3.078,3.078,0,0,0,1.179-2.651,2.957,2.957,0,0,0-1.179-2.577,5.947,5.947,0,0,0-3.451-.839h-4.53v6.931Zm-45.354,19.862V39.805h25.757v8.123h-15.612v5h14.431v8.12h-14.431V66.6h15.612v8.123Zm-34.42,0V39.805h17.925q6.157,0,9.258,3.046a10.962,10.962,0,0,1,3.1,8.2,10.985,10.985,0,0,1-3.1,8.172q-3.1,3.069-9.258,3.071h-7.29V74.722Zm16.5-20.554a3.98,3.98,0,0,0,2.76-.818,2.983,2.983,0,0,0,.886-2.3,2.99,2.99,0,0,0-.886-2.305,3.98,3.98,0,0,0-2.76-.815h-5.86v6.24Zm-30.086,20.554-6.92-9.8-6.919,9.8H-12297V39.805h37.969l6.657,9.61,6.736-9.61h12.41l-13.07,17.35,13.316,17.566Zm-25.807-8.123v7.6l12.832-17.039-12.832-17.091v7.86h-15.609v5h14.428v8.123h-14.428V66.6Zm42-31.374V0h24.208V3.4h-19.851v12.24h18.668v3.447h-18.668v12.69h19.851v3.45Zm-11.779,0-5.167-11.644a4.818,4.818,0,0,0-2.743-2.923,13.394,13.394,0,0,0-4.573-.673h-8.5V35.225h-4.466V0h15.5q5.972,0,9.252,2.623a8.851,8.851,0,0,1,3.281,7.32,9.162,9.162,0,0,1-1.479,5.271,9.36,9.36,0,0,1-4.142,3.321,13.352,13.352,0,0,1-2.269.716,7.421,7.421,0,0,1,2.053.784,6.807,6.807,0,0,1,2.771,3.348l5.38,11.842Zm-10.6-18.489q4.3,0,6.534-1.722a5.9,5.9,0,0,0,2.234-4.972,5.835,5.835,0,0,0-2.234-4.947q-2.232-1.694-6.534-1.7h-10.385V16.736Zm-45.082,18.489V0h23.671V3.4h-19.205V15.739h18.02v3.4h-18.02V35.225Zm99.093,0V0h24.208V3.4h-19.851v12.24h18.669v3.447h-18.669v12.69h19.851v3.447Z" transform="translate(12297.5 0.5)" fill="#0ec7e3" stroke="rgba(0,0,0,0)" stroke-width="1"/>
</svg>
