<svg xmlns="http://www.w3.org/2000/svg" xmlns:xlink="http://www.w3.org/1999/xlink" width="152.896" height="92.937" viewBox="0 0 152.896 92.937">
  <defs>
    <clipPath id="clip-path">
      <rect id="Rectangle_9123" data-name="Rectangle 9123" width="152.896" height="92.937" fill="none"/>
    </clipPath>
  </defs>
  <g id="Group_10722" data-name="Group 10722" clip-path="url(#clip-path)">
    <path id="Union_68" data-name="Union 68" d="M128.977,91.926a23.324,23.324,0,0,1-6.712-2.744l2.747-6.835a21.074,21.074,0,0,0,3.68,1.757,25.5,25.5,0,0,0,4.249,1.155,24.648,24.648,0,0,0,4.458.41q3.421,0,4.743-.867a2.506,2.506,0,0,0,1.321-2.118,2.169,2.169,0,0,0-.829-1.805,8.54,8.54,0,0,0-3.317-1.131l-6.324-1.2q-5.028-.962-7.541-3.345a8.191,8.191,0,0,1-2.514-6.233,9.2,9.2,0,0,1,1.943-5.849,12.668,12.668,0,0,1,5.495-3.875,22.506,22.506,0,0,1,8.267-1.4,25.765,25.765,0,0,1,7.282,1.011,16.341,16.341,0,0,1,5.623,2.743l-2.7,6.5a16.149,16.149,0,0,0-4.665-2.215,20.176,20.176,0,0,0-5.753-.77,9.646,9.646,0,0,0-4.535.842,2.613,2.613,0,0,0-1.529,2.383,2.375,2.375,0,0,0,.907,1.877,7.106,7.106,0,0,0,3.343,1.155l6.271,1.2a14.608,14.608,0,0,1,7.489,3.273A8.062,8.062,0,0,1,152.9,82.01a9.057,9.057,0,0,1-1.944,5.752,12.389,12.389,0,0,1-5.39,3.827,22.562,22.562,0,0,1-8.215,1.348A33.774,33.774,0,0,1,128.977,91.926ZM60.639,90.747a16.013,16.013,0,0,1-6.712-6.113,17.638,17.638,0,0,1-2.358-9.265,17.516,17.516,0,0,1,2.358-9.242,16.073,16.073,0,0,1,6.712-6.089,22.7,22.7,0,0,1,10.313-2.19,22.993,22.993,0,0,1,6.868.962,16.041,16.041,0,0,1,5.26,2.7l-2.9,6.98a17.585,17.585,0,0,0-4.38-2.214,15.148,15.148,0,0,0-4.535-.626q-4.664,0-7.179,2.5t-2.513,7.221q0,4.717,2.513,7.244t7.179,2.527a15.117,15.117,0,0,0,4.535-.626,17.582,17.582,0,0,0,4.38-2.214l2.9,6.979a15.977,15.977,0,0,1-5.286,2.7,23.063,23.063,0,0,1-6.843.962A22.693,22.693,0,0,1,60.639,90.747Zm51.778,1.613L97.749,77h-.1V92.36H88.057V58.424h9.588V72.961h.1l13.942-14.537h11.247L106.923,74.559l17,17.8Zm-76.188,0V58.424h9.588V92.359Zm-35.451,0V58.424H18.71q6.271,0,9.511,2.864a9.851,9.851,0,0,1,3.24,7.774,9.867,9.867,0,0,1-3.24,7.75Q24.982,79.7,18.71,79.7H10.366V92.359Zm9.588-19.494h7.1a5.6,5.6,0,0,0,3.627-.987,3.447,3.447,0,0,0,1.192-2.816,3.522,3.522,0,0,0-1.192-2.84,5.511,5.511,0,0,0-3.627-1.011h-7.1Zm112.083-21.2V32.348h-8.024V28.1h21.733v4.244H128.1V51.663Zm-14.681,0-3.922-7.586a2.267,2.267,0,0,0-1.349-1.253,6.433,6.433,0,0,0-2.105-.317H97.44v9.157H91.827V28.1h11.514a10.218,10.218,0,0,1,6.6,1.888,6.409,6.409,0,0,1,2.32,5.263,6.748,6.748,0,0,1-1.043,3.793,6.65,6.65,0,0,1-3.023,2.44,9.507,9.507,0,0,1-1.09.386,4.888,4.888,0,0,1,1.09.5,5.63,5.63,0,0,1,1.979,2.206l3.779,7.085ZM97.44,38.7h4.929a5.653,5.653,0,0,0,3.347-.836,2.861,2.861,0,0,0,1.151-2.473,2.775,2.775,0,0,0-1.151-2.44,5.84,5.84,0,0,0-3.347-.8H97.44ZM70.273,51.663V28.1H87.9v4.043H75.634v5.514H87.078V41.7H75.634V47.62H87.9v4.044Zm-24.287,0V28.1h11.8q4.28,0,6.512,1.938a6.635,6.635,0,0,1,2.231,5.28A6.658,6.658,0,0,1,64.3,40.568q-2.232,1.972-6.512,1.972H51.6v9.123Zm5.613-13.2h5.541a4.565,4.565,0,0,0,2.986-.819,2.908,2.908,0,0,0,.971-2.356,2.869,2.869,0,0,0-.971-2.322,4.565,4.565,0,0,0-2.986-.819H51.6Zm-14.177,13.2-6.33-8.121-6.3,8.121H18.207l9.683-11.95L18.531,28.1h6.513l6.077,7.854L37.134,28.1h6.585l-9.392,11.61,9.716,11.95ZM0,51.663V28.1H17.631v4.043H5.361v5.514H16.8V41.7H5.361V47.62h12.27v4.044Zm.576-28.1V0H16.408V2.273H3.562v8.254H15.616V12.8H3.562V23.56Zm66.279,0V0H83.047V2.272H69.769V10.46H82.255v2.306H69.769v8.488H83.047v2.306Zm-21.158,0V0H61.889V2.273H48.611V10.46H61.1v2.306H48.611v8.488H61.889v2.306Zm-7.88,0-3.454-7.786a3.219,3.219,0,0,0-1.835-1.955,8.924,8.924,0,0,0-3.059-.451H23.784V23.559H20.8V0H31.16A9.686,9.686,0,0,1,37.35,1.754a5.918,5.918,0,0,1,2.194,4.9,6.115,6.115,0,0,1-.989,3.525A6.249,6.249,0,0,1,35.784,12.4a8.819,8.819,0,0,1-1.517.478,4.953,4.953,0,0,1,1.373.525,4.55,4.55,0,0,1,1.853,2.239l3.6,7.92ZM23.784,11.2h6.945A7.06,7.06,0,0,0,35.1,10.042a3.95,3.95,0,0,0,1.494-3.325A3.9,3.9,0,0,0,35.1,3.409a7.139,7.139,0,0,0-4.372-1.136H23.784Z" transform="translate(0 0)" fill="#0ec7e3" stroke="rgba(0,0,0,0)" stroke-width="1"/>
  </g>
</svg>
