<?xml version="1.0" encoding="utf-8"?>
<!-- Generator: Adobe Illustrator 26.3.1, SVG Export Plug-In . SVG Version: 6.00 Build 0)  -->
<svg version="1.1" id="Layer_1" xmlns="http://www.w3.org/2000/svg" xmlns:xlink="http://www.w3.org/1999/xlink" x="0px" y="0px"
	 viewBox="0 0 612 792" style="enable-background:new 0 0 612 792;" xml:space="preserve">
<style type="text/css">
	.st0{fill:#FFFFFF;}
	.st1{clip-path:url(#SVGID_00000172405235107968613410000007050824137202964915_);}
	.st2{fill:#4A8ECC;}
</style>
<g id="Group_6383" transform="translate(-16 -13)">
	<rect id="Rectangle_7" x="386.03" y="379.55" class="st0" width="132.95" height="60.51"/>
	<g id="Group_2" transform="translate(16 13)">
		<g>
			<defs>
				<rect id="SVGID_1_" x="105.89" y="364.36" width="399.29" height="64"/>
			</defs>
			<clipPath id="SVGID_00000101789283212399644810000010958390185867261836_">
				<use xlink:href="#SVGID_1_"  style="overflow:visible;"/>
			</clipPath>
			
				<g id="Group_1" transform="translate(0 0)" style="clip-path:url(#SVGID_00000101789283212399644810000010958390185867261836_);">
				<path id="Path_1" d="M307.68,393.56l-8.89-1.99c-0.7-0.1-1.19-0.73-1.13-1.43v-3.27c-0.09-0.62,0.34-1.19,0.96-1.28
					c0.1-0.01,0.21-0.01,0.32,0h4.85c0.62-0.09,1.19,0.34,1.27,0.95c0.02,0.11,0.02,0.22,0,0.32v2.5h8.43v-4.29
					c0.12-1.88-0.52-3.72-1.79-5.11c-1.39-1.26-3.23-1.91-5.1-1.79h-10.48c-1.87-0.12-3.72,0.53-5.11,1.79
					c-1.27,1.39-1.91,3.23-1.78,5.11v5.72c0,4.12,2.02,6.64,6.07,7.56l8.89,1.99c0.7,0.1,1.19,0.73,1.12,1.43v3.98
					c0.09,0.62-0.34,1.19-0.96,1.28c-0.11,0.02-0.21,0.02-0.32,0h-5.11c-0.62,0.09-1.19-0.34-1.28-0.96c-0.02-0.11-0.02-0.21,0-0.32
					v-2.96h-8.42v4.75c-0.13,1.87,0.52,3.72,1.78,5.11c1.39,1.26,3.23,1.91,5.11,1.79h10.73c1.87,0.12,3.72-0.52,5.11-1.79
					c1.27-1.39,1.91-3.23,1.79-5.11v-6.44C313.76,396.99,311.73,394.47,307.68,393.56"/>
				<path id="Path_2" d="M336.23,378.44h-17.37v35.76h8.43v-11.09h8.93c1.88,0.12,3.72-0.52,5.11-1.78
					c1.26-1.39,1.91-3.23,1.79-5.11v-10.89c0.12-1.87-0.53-3.71-1.79-5.1C339.95,378.96,338.11,378.32,336.23,378.44 M334.7,394.43
					c0.09,0.61-0.34,1.19-0.95,1.27c-0.11,0.02-0.21,0.02-0.32,0h-6.13v-9.86h6.13c0.62-0.09,1.19,0.34,1.27,0.96
					c0.01,0.11,0.01,0.21,0,0.32L334.7,394.43z"/>
				<path id="Path_3" d="M372.5,396.22v-10.89c0.12-1.87-0.53-3.71-1.79-5.1c-1.39-1.27-3.24-1.91-5.11-1.79h-17.37v35.75h8.43
					v-11.09h3.83l3.83,11.09h8.68l-4.03-11.7C371.32,401.51,372.5,399.42,372.5,396.22 M364.07,394.43
					c0.09,0.61-0.34,1.19-0.95,1.27c-0.11,0.02-0.21,0.02-0.32,0h-6.13v-9.86h6.13c0.62-0.09,1.19,0.34,1.27,0.96
					c0.01,0.11,0.01,0.21,0,0.32L364.07,394.43z"/>
				<path id="Path_4" d="M410.41,378.44l-8.69,35.76h8.69l1.42-7.41h8.38l1.43,7.41h8.68l-8.68-35.76H410.41z M413.26,399.38
					l2.61-13.54h0.3l2.61,13.54H413.26z"/>
				<path id="Path_5" d="M451.26,378.44h-17.37v35.75h17.37c1.88,0.13,3.72-0.52,5.11-1.78c1.26-1.39,1.91-3.23,1.79-5.11v-21.97
					c0.12-1.87-0.53-3.71-1.79-5.1C454.98,378.96,453.13,378.32,451.26,378.44 M449.73,405.51c0.09,0.61-0.34,1.19-0.95,1.27
					c-0.11,0.02-0.21,0.02-0.32,0h-6.13v-20.94h6.13c0.62-0.09,1.19,0.34,1.27,0.96c0.01,0.11,0.01,0.21,0,0.32L449.73,405.51z"/>
				<path id="Path_6" d="M481.44,393.56l-8.89-1.99c-0.7-0.1-1.19-0.73-1.12-1.43v-3.27c-0.09-0.62,0.34-1.19,0.96-1.28
					c0.11-0.02,0.21-0.02,0.32,0h4.85c0.62-0.09,1.19,0.34,1.27,0.96c0.01,0.11,0.01,0.21,0,0.32v2.5h8.43v-4.29
					c0.12-1.87-0.52-3.72-1.79-5.11c-1.39-1.26-3.23-1.91-5.11-1.79H469.9c-1.88-0.12-3.72,0.52-5.11,1.79
					c-1.26,1.39-1.91,3.23-1.78,5.11v5.72c0,4.12,2.03,6.64,6.08,7.56l8.89,1.99c0.69,0.1,1.18,0.73,1.12,1.43v3.98
					c0.09,0.62-0.34,1.19-0.96,1.28c-0.11,0.02-0.21,0.02-0.32,0h-5.11c-0.62,0.09-1.19-0.34-1.28-0.96c-0.01-0.11-0.01-0.21,0-0.32
					v-2.96h-8.43v4.75c-0.12,1.87,0.52,3.72,1.78,5.11c1.39,1.26,3.24,1.91,5.11,1.79h10.72c1.88,0.12,3.72-0.52,5.11-1.79
					c1.27-1.39,1.91-3.23,1.79-5.11v-6.44C487.52,396.99,485.5,394.47,481.44,393.56"/>
				<path id="Path_7" d="M386.29,406.79v-7.15h9.98l1.8-7.4h-11.78v-6.39h12.5l1.8-7.4h-22.73v35.75h20.94l1.8-7.41H386.29z"/>
				<path id="Path_8" d="M505.18,368.18c0-2.07-1.68-3.75-3.74-3.75c0,0,0,0,0,0H269.7c1.15,1.49,2.2,3.05,3.14,4.68h225.74
					c1.06,0,1.92,0.86,1.92,1.92v50.64c0,1.06-0.86,1.92-1.92,1.92H272.84c-0.93,1.63-1.98,3.2-3.14,4.68h231.73
					c2.07,0,3.75-1.68,3.75-3.74c0,0,0,0,0,0L505.18,368.18z"/>
				<path id="Path_9" class="st2" d="M279.22,428.35h-169.5c-2.11,0-3.83-1.72-3.83-3.83v-56.34c0-2.11,1.71-3.82,3.83-3.83h169.5
					l-9.19,32.26L279.22,428.35z"/>
				<path id="Path_10" class="st0" d="M144.43,378.62h-17.36v35.75h8.43v-11.08h8.93c1.88,0.12,3.72-0.52,5.12-1.78
					c1.26-1.39,1.91-3.23,1.79-5.11v-10.88c0.12-1.87-0.52-3.72-1.79-5.11C148.16,379.14,146.31,378.49,144.43,378.62 M142.9,394.61
					c0.09,0.62-0.34,1.19-0.95,1.27c-0.11,0.02-0.22,0.02-0.32,0h-6.13v-9.86h6.13c0.62-0.09,1.19,0.34,1.28,0.96
					c0.02,0.11,0.02,0.21,0,0.32V394.61z"/>
				<path id="Path_11" class="st0" d="M173.04,378.36h-10.47c-1.88-0.12-3.72,0.52-5.11,1.79c-1.27,1.39-1.91,3.23-1.79,5.11v22.47
					c-0.12,1.88,0.52,3.72,1.79,5.11c1.39,1.26,3.23,1.91,5.11,1.78h10.47c1.87,0.12,3.72-0.52,5.11-1.78
					c1.27-1.39,1.91-3.23,1.79-5.11v-22.47c0.12-1.88-0.52-3.72-1.79-5.11C176.76,378.88,174.91,378.24,173.04,378.36
					 M171.51,405.94c0.09,0.61-0.34,1.19-0.95,1.27c-0.11,0.02-0.21,0.02-0.32,0h-4.86c-0.61,0.09-1.19-0.34-1.27-0.95
					c-0.02-0.11-0.02-0.21,0-0.32v-18.9c-0.09-0.62,0.34-1.19,0.96-1.27c0.1-0.01,0.21-0.01,0.32,0h4.86
					c0.62-0.09,1.19,0.34,1.27,0.96c0.01,0.1,0.01,0.21,0,0.32V405.94z"/>
				<rect id="Rectangle_3" x="185.55" y="378.62" class="st0" width="8.43" height="35.75"/>
				<path id="Path_12" class="st0" d="M217.22,397.1l-9.2-18.49h-7.91v35.75h8.43v-18.49l9.18,18.49h7.92v-35.75h-8.43V397.1z"/>
				<path id="Path_13" class="st0" d="M229.48,386.02h7.91v28.35h8.43v-28.35h7.92v-7.41h-24.26V386.02z"/>
			</g>
		</g>
	</g>
</g>
</svg>
