<svg xmlns="http://www.w3.org/2000/svg" xmlns:xlink="http://www.w3.org/1999/xlink" width="32" height="32" viewBox="0 0 32 32">
  <defs>
    <clipPath id="clip-path">
      <rect id="Rectangle_6416" data-name="Rectangle 6416" width="22" height="22" transform="translate(-0.209 -0.209)" fill="none"/>
    </clipPath>
  </defs>
  <g id="Group_8320" data-name="Group 8320" transform="translate(-1220 -376)">
    <g id="Group_8283" data-name="Group 8283" transform="translate(1220 376)">
      <g id="Group_8208" data-name="Group 8208" transform="translate(0 0)">
        <path id="Path_182" data-name="Path 182" d="M809.249,651.073h0a16,16,0,0,1-16-16h0a16,16,0,0,1,16-16h0a16,16,0,0,1,16,16h0A16,16,0,0,1,809.249,651.073Z" transform="translate(-793.249 -619.073)" fill="#fff"/>
      </g>
    </g>
    <g id="Group_8318" data-name="Group 8318" transform="translate(1225.209 381.209)">
      <g id="Group_8318-2" data-name="Group 8318" clip-path="url(#clip-path)">
        <path id="Path_10801" data-name="Path 10801" d="M10.594,0A10.792,10.792,0,1,1,0,10.963,10.789,10.789,0,0,1,10.594,0m5.868,16.466c0-.074.012-.129.011-.183,0-1.377.013-2.754-.009-4.13a8.445,8.445,0,0,0-.163-1.525A2.119,2.119,0,0,0,14.72,8.843a4.291,4.291,0,0,0-1.185-.134,2.4,2.4,0,0,0-2.069,1.136.688.688,0,0,1-.088.081V8.906H9.147v7.559H11.47v-.258c0-1.18,0-2.36,0-3.54A2.656,2.656,0,0,1,11.72,11.4a1.3,1.3,0,0,1,1.432-.606,1.021,1.021,0,0,1,.877.9,4.793,4.793,0,0,1,.086.878c.01,1.222,0,2.444.005,3.666,0,.074,0,.149,0,.232ZM5.316,16.46H7.639V8.9H5.316ZM6.458,7.848A1.369,1.369,0,1,0,5.1,6.479a1.37,1.37,0,0,0,1.358,1.37" transform="translate(0 0)" fill="#294254"/>
        <path id="Path_10802" data-name="Path 10802" d="M115.786,111.02h-2.342v-.232c0-1.222,0-2.444-.005-3.667a4.785,4.785,0,0,0-.086-.878,1.02,1.02,0,0,0-.877-.9,1.3,1.3,0,0,0-1.432.606,2.657,2.657,0,0,0-.248,1.269c-.005,1.18,0,2.36,0,3.54v.258h-2.323v-7.559h2.23v1.019a.678.678,0,0,0,.088-.08,2.4,2.4,0,0,1,2.07-1.136,4.3,4.3,0,0,1,1.185.134,2.12,2.12,0,0,1,1.582,1.787,8.445,8.445,0,0,1,.163,1.525c.022,1.376.009,2.753.009,4.13,0,.055-.007.11-.012.183" transform="translate(-99.325 -94.552)" fill="#fff"/>
        <rect id="Rectangle_6415" data-name="Rectangle 6415" width="2.323" height="7.561" transform="translate(5.316 8.9)" fill="#fff"/>
        <path id="Path_10803" data-name="Path 10803" d="M61.829,63.349a1.362,1.362,0,0,1-1.358-1.37,1.369,1.369,0,1,1,1.358,1.37" transform="translate(-55.372 -55.5)" fill="#fff"/>
      </g>
    </g>
  </g>
</svg>
