<svg id="Group_8290" data-name="Group 8290" xmlns="http://www.w3.org/2000/svg" width="32" height="32" viewBox="0 0 32 32">
  <path id="Path_139" data-name="Path 139" d="M1024.92,1084.41h0a16,16,0,0,1-16-16h0a16,16,0,0,1,16-16h0a16,16,0,0,1,16,16h0A16,16,0,0,1,1024.92,1084.41Z" transform="translate(-1008.92 -1052.41)" fill="#fff"/>
  <path id="Path_10788" data-name="Path 10788" d="M1034.1,1066.436a11.1,11.1,0,0,1,9.654,5.517,10.835,10.835,0,0,1,1.52,5.645,11.182,11.182,0,0,1-1.52,5.644,11.183,11.183,0,0,1-19.309,0,11.168,11.168,0,0,1-1.52-5.644,10.839,10.839,0,0,1,1.52-5.645,11.039,11.039,0,0,1,4.01-4.01,11.272,11.272,0,0,1,5.644-1.532Zm5.441,6.4c0-.2-.077-.323-.229-.357a.877.877,0,0,0-.46.026l-.229.077-11.34,4.445a1.007,1.007,0,0,0-.269.191.292.292,0,0,0-.089.268.512.512,0,0,0,.256.357l.229.128,2.81.944,6.768-4.291.179-.076c.136-.051.2-.025.2.076l-.153.23-5.312,4.8v.051l1.737,1.379,2.86,2.171a.779.779,0,0,0,.613.051.7.7,0,0,0,.333-.229,1.659,1.659,0,0,1,.1-.179Z" transform="translate(-1017.922 -1061.41)" fill="#294254"/>
</svg>
