<svg id="Group_8296" data-name="Group 8296" xmlns="http://www.w3.org/2000/svg" xmlns:xlink="http://www.w3.org/1999/xlink" width="32" height="32" viewBox="0 0 32 32">
  <defs>
    <clipPath id="clip-path">
      <rect id="Rectangle_6409" data-name="Rectangle 6409" width="20" height="20" fill="none"/>
    </clipPath>
  </defs>
  <g id="Group_8282" data-name="Group 8282">
    <path id="Path_139" data-name="Path 139" d="M1024.92,1084.41h0a16,16,0,0,1-16-16h0a16,16,0,0,1,16-16h0a16,16,0,0,1,16,16h0A16,16,0,0,1,1024.92,1084.41Z" transform="translate(-1008.92 -1052.41)" fill="#fff"/>
  </g>
  <g id="Group_8294" data-name="Group 8294" transform="translate(6.705 6)">
    <g id="Group_8285" data-name="Group 8285" clip-path="url(#clip-path)">
      <path id="Path_10789" data-name="Path 10789" d="M10.192,0h-.005A10.183,10.183,0,0,0,1.94,16.162L.67,19.947,4.587,18.7A10.188,10.188,0,1,0,10.192,0m5.929,14.389a2.875,2.875,0,0,1-2,1.438c-.532.113-1.228.2-3.569-.767a12.765,12.765,0,0,1-5.073-4.481,5.82,5.82,0,0,1-1.21-3.073,3.253,3.253,0,0,1,1.042-2.48A1.48,1.48,0,0,1,6.353,4.66c.126,0,.239.006.341.011.3.013.45.031.647.5.246.592.844,2.054.916,2.2a.606.606,0,0,1,.043.552,1.761,1.761,0,0,1-.33.467c-.15.173-.293.306-.443.492-.138.162-.293.335-.12.634a9.044,9.044,0,0,0,1.653,2.054,7.491,7.491,0,0,0,2.389,1.474.644.644,0,0,0,.718-.113,12.329,12.329,0,0,0,.8-1.055.569.569,0,0,1,.731-.222c.275.1,1.731.815,2.03.964s.5.222.569.348a2.538,2.538,0,0,1-.174,1.414" transform="translate(-0.453)" fill="#294254"/>
    </g>
  </g>
</svg>
