<svg xmlns="http://www.w3.org/2000/svg" width="30" height="30" viewBox="0 0 30 30">
  <g id="Group_8289" data-name="Group 8289" transform="translate(-0.469)">
    <g id="Group_8284" data-name="Group 8284" transform="translate(0 0)">
      <path id="Path_450" data-name="Path 450" d="M952.25,1153.57h0a15,15,0,0,1-15-15h0a15,15,0,0,1,15-15h0a15,15,0,0,1,15,15h0A15,15,0,0,1,952.25,1153.57Z" transform="translate(-936.781 -1123.57)" fill="#fff"/>
      <g id="Twitter_X_Icon" data-name="Twitter X Icon" transform="translate(-348.481 -125.269)">
        <ellipse id="Ellipse_87" data-name="Ellipse 87" cx="10.835" cy="11.269" rx="10.835" ry="11.269" transform="translate(352.95 129.27)" fill="#294254" stroke="#fff" stroke-miterlimit="10" stroke-width="1"/>
        <g id="layer1" transform="translate(357.078 134.01)">
          <path id="path1009" d="M483.973,356.79l5.179,7.2-5.211,5.856h1.173l4.563-5.127,3.686,5.127h3.991l-5.47-7.607,4.851-5.451h-1.173l-4.2,4.722-3.4-4.722Zm1.725.9h1.834l8.1,11.261h-1.834Z" transform="translate(-483.94 -356.79)" fill="#fff"/>
        </g>
      </g>
    </g>
  </g>
</svg>
