<svg xmlns="http://www.w3.org/2000/svg" xmlns:xlink="http://www.w3.org/1999/xlink" width="32" height="32" viewBox="0 0 32 32">
  <defs>
    <clipPath id="clip-path">
      <rect id="Rectangle_6414" data-name="Rectangle 6414" width="24" height="24" transform="translate(-0.398 -0.398)" fill="none"/>
    </clipPath>
  </defs>
  <g id="Group_8321" data-name="Group 8321" transform="translate(0)">
    <path id="Path_188" data-name="Path 188" d="M809.043,580.574h0a16,16,0,0,1-16-16h0a16,16,0,0,1,16-16h0a16,16,0,0,1,16,16h0A16,16,0,0,1,809.043,580.574Z" transform="translate(-793.043 -548.574)" fill="#fff"/>
    <g id="Group_8317" data-name="Group 8317" transform="translate(4.574 4.396)">
      <g id="Group_8316" data-name="Group 8316" transform="translate(0 0.003)" clip-path="url(#clip-path)">
        <path id="Path_10795" data-name="Path 10795" d="M0,11.466a11.481,11.481,0,1,1,11.46,11.5A11.486,11.486,0,0,1,0,11.466m4.855.029c.041,1.081.043,2.181.133,3.274a3.384,3.384,0,0,0,2.954,3.162,18.041,18.041,0,0,0,2.525.134c1.426,0,2.857.006,4.278-.094a3.313,3.313,0,0,0,2.9-1.989,4.058,4.058,0,0,0,.377-1.694q.036-2.331.038-4.663a14.119,14.119,0,0,0-.082-1.431,3.412,3.412,0,0,0-2.961-3.16,17.61,17.61,0,0,0-2.5-.133c-1.426,0-2.857-.009-4.278.089A3.413,3.413,0,0,0,4.985,8.23C4.9,9.309,4.9,10.394,4.855,11.5" transform="translate(0 -0.003)" fill="#294254"/>
        <path id="Path_10796" data-name="Path 10796" d="M54.135,61.237c.041-1.1.04-2.187.13-3.265a3.412,3.412,0,0,1,3.254-3.24c1.421-.1,2.852-.09,4.278-.089a17.639,17.639,0,0,1,2.5.133,3.413,3.413,0,0,1,2.961,3.16,14.1,14.1,0,0,1,.082,1.431q0,2.332-.038,4.663a4.058,4.058,0,0,1-.377,1.694,3.313,3.313,0,0,1-2.9,1.989c-1.421.1-2.851.094-4.278.094a18.039,18.039,0,0,1-2.525-.134,3.384,3.384,0,0,1-2.954-3.162c-.09-1.093-.092-2.194-.133-3.274M60.743,55.8c-.986.029-2,.033-3,.094A2.318,2.318,0,0,0,55.429,58.2a51.568,51.568,0,0,0,0,6.05,2.317,2.317,0,0,0,2.315,2.308,51.89,51.89,0,0,0,6,0,2.294,2.294,0,0,0,2.341-2.347q.08-2.989,0-5.982a2.291,2.291,0,0,0-2.343-2.342c-.991-.06-1.986-.063-3-.092" transform="translate(-49.28 -49.745)" fill="#fff"/>
        <path id="Path_10797" data-name="Path 10797" d="M72.972,67.527c1.016.029,2.011.032,3,.092a2.291,2.291,0,0,1,2.343,2.342q.08,2.989,0,5.982a2.294,2.294,0,0,1-2.341,2.347,51.892,51.892,0,0,1-6,0,2.317,2.317,0,0,1-2.315-2.308,51.591,51.591,0,0,1,0-6.05,2.318,2.318,0,0,1,2.313-2.309c1.006-.061,2.016-.065,3-.094m3.4,5.435a3.382,3.382,0,1,0-3.4,3.374,3.375,3.375,0,0,0,3.4-3.374m.925-3.538a.787.787,0,1,0-.767.8.785.785,0,0,0,.767-.8" transform="translate(-61.51 -61.474)" fill="#294254"/>
        <path id="Path_10798" data-name="Path 10798" d="M97.073,93.716a3.382,3.382,0,1,1-3.362-3.39,3.377,3.377,0,0,1,3.362,3.39m-5.579-.04a2.2,2.2,0,1,0,2.224-2.165,2.2,2.2,0,0,0-2.224,2.165" transform="translate(-82.21 -82.228)" fill="#fff"/>
        <path id="Path_10799" data-name="Path 10799" d="M160.067,80.789a.787.787,0,1,1-.786-.777.783.783,0,0,1,.786.777" transform="translate(-144.278 -72.84)" fill="#fff"/>
        <path id="Path_10800" data-name="Path 10800" d="M103.523,105.7a2.2,2.2,0,1,1,2.159,2.23,2.2,2.2,0,0,1-2.159-2.23" transform="translate(-94.238 -94.252)" fill="#294254"/>
      </g>
    </g>
  </g>
</svg>
