<svg id="Group_8288" data-name="Group 8288" xmlns="http://www.w3.org/2000/svg" width="32" height="32" viewBox="0 0 32 32">
  <path id="Path_449" data-name="Path 449" d="M952.75,363.407h0a16,16,0,0,1-16-16h0a16,16,0,0,1,16-16h0a16,16,0,0,1,16,16h0A16,16,0,0,1,952.75,363.407Z" transform="translate(-936.75 -331.407)" fill="#fff"/>
  <g id="Group_336" data-name="Group 336" transform="translate(10.881 4.969)">
    <path id="Path_237" data-name="Path 237" d="M969.964,356.451h-3.076V367.47H962.3V356.451H960.13v-3.883H962.3v-2.521a5.455,5.455,0,0,1,.353-1.992,3.869,3.869,0,0,1,1.387-1.841,4.842,4.842,0,0,1,2.875-.807l3.4.025v3.782h-2.471a.977.977,0,0,0-.63.2,1.061,1.061,0,0,0-.328.857v2.295h3.48Z" transform="translate(-960.13 -345.407)" fill="#294254"/>
  </g>
</svg>
