<svg xmlns="http://www.w3.org/2000/svg" xmlns:xlink="http://www.w3.org/1999/xlink" width="35.134" height="24" viewBox="0 0 35.134 24">
  <defs>
    <clipPath id="clip-path">
      <rect id="Rectangle_75" data-name="Rectangle 75" width="35.134" height="24" fill="#57e0ce"/>
    </clipPath>
  </defs>
  <g id="Group_48" data-name="Group 48" clip-path="url(#clip-path)">
    <path id="Path_3957" data-name="Path 3957" d="M35.125,23.995Q17.72,23.995.315,24C.058,24,0,23.943,0,23.686Q.012,11.848.006.009q17.35,0,34.7-.008c.342,0,.428.077.428.424q-.017,11.785-.009,23.569M3.839,2.08c.1.1.168.18.242.244q6.641,5.783,13.279,11.568c.17.148.26.129.418-.009Q24.4,8.108,31.034,2.34l.3-.26ZM31.574,21.926c-.068-.081-.1-.118-.127-.149q-4.471-4.47-8.938-8.943c-.173-.174-.262-.121-.411.009-1.417,1.242-2.843,2.474-4.257,3.72-.2.173-.315.209-.532.017-1.411-1.249-2.841-2.477-4.254-3.723-.184-.162-.279-.176-.462.008q-4.4,4.418-8.816,8.823c-.064.065-.178.108-.159.238ZM2.084,20.444c.1-.086.155-.136.209-.19q4.378-4.373,8.758-8.742c.17-.169.173-.248-.014-.41Q7.371,7.926,3.718,4.735c-.531-.462-1.063-.923-1.634-1.419ZM33.048,3.371c-.123.007-.171.094-.237.151Q28.467,7.3,24.12,11.078c-.21.182-.2.269-.015.458q4.349,4.328,8.687,8.669c.073.073.128.184.257.193Z" transform="translate(0 -0.001)" fill="#57e0ce"/>
  </g>
</svg>
