<svg id="baseline-video_library-24px" xmlns="http://www.w3.org/2000/svg" width="16" height="16" viewBox="0 0 16 16">
  <path id="Path_759" data-name="Path 759" d="M0,0H16V16H0Z" fill="none"/>
  <path id="Path_760" data-name="Path 760" d="M3.24,4.48H2v8.68A1.244,1.244,0,0,0,3.24,14.4h8.68V13.16H3.24ZM13.16,2H5.72A1.244,1.244,0,0,0,4.48,3.24v7.44a1.244,1.244,0,0,0,1.24,1.24h7.44a1.244,1.244,0,0,0,1.24-1.24V3.24A1.244,1.244,0,0,0,13.16,2ZM8.2,9.75V4.17l3.72,2.79Z" transform="translate(-0.2 -0.2)" fill="#1798ff"/>
</svg>
