<?xml version="1.0" encoding="utf-8"?>
<!-- Generator: Adobe Illustrator 27.9.0, SVG Export Plug-In . SVG Version: 6.00 Build 0)  -->
<svg version="1.1" id="Layer_1" xmlns="http://www.w3.org/2000/svg" xmlns:xlink="http://www.w3.org/1999/xlink" x="0px" y="0px"
	 viewBox="0 0 16 16" style="enable-background:new 0 0 16 16;" xml:space="preserve">
<style type="text/css">
	.st0{clip-path:url(#SVGID_00000156588376494262188480000012168680113763157669_);}
	.st1{fill:#FFFFFF;}
	.st2{fill:#ED1C24;}
</style>
<g id="Group_7146" transform="translate(8 463.604)">
	<g>
		<g>
			<defs>
				<rect id="SVGID_1_" x="-8" y="-462.9" width="15.9" height="14.1"/>
			</defs>
			<clipPath id="SVGID_00000033338673424801636770000013263548627441642634_">
				<use xlink:href="#SVGID_1_"  style="overflow:visible;"/>
			</clipPath>
			
				<g id="Group_7145" transform="translate(0 0)" style="clip-path:url(#SVGID_00000033338673424801636770000013263548627441642634_);">
				<path id="Path_8561" class="st1" d="M2-458.3c0.1,0,0.2,0.1,0.3,0.1c0.3,0.1,0.4,0.2,0.4,0.5c0,0.3,0,0.7,0,1
					c0,0.3-0.2,0.5-0.4,0.6c-0.2,0.1-0.3,0.1-0.5,0.1c-1.2,0-2.4,0-3.6,0c-0.1,0-0.1,0-0.1-0.1c0-1,0-2,0-2.9c0-0.1,0-0.1,0.1-0.1
					c0.5,0,1,0,1.5,0c0.1,0,0.1,0,0.1,0.1c0,0.1,0,0.3,0,0.4c0,0.1,0,0.1,0.1,0.1c0.3,0,0.6,0,0.9,0c0.2,0,0.2-0.1,0.2-0.2
					s0-0.3,0-0.5c0-0.2-0.1-0.2-0.3-0.2c-0.3,0-0.6,0-0.9,0c-0.5,0-1.1,0-1.6,0c-0.1,0-0.1,0-0.1-0.1c0-0.2-0.1-0.3-0.1-0.5
					c0-0.1,0-0.1,0.1-0.1c0.1,0,0.1,0,0.2,0h3.4c0.2,0,0.3,0,0.5,0c0.3,0,0.6,0.3,0.6,0.6c0,0.3,0,0.6,0,0.9c0,0.2-0.2,0.4-0.4,0.4
					L2-458.3 M0.3-457.9L0.3-457.9c-0.2,0-0.3,0-0.4,0c-0.1,0-0.1,0-0.1,0.1c0,0.3,0,0.6,0,1c0,0.1,0,0.1,0.1,0.1c0.3,0,0.6,0,0.9,0
					c0.1,0,0.2-0.1,0.2-0.2c0-0.2,0-0.5,0-0.7c0-0.1-0.1-0.2-0.2-0.2h0C0.6-457.9,0.4-457.9,0.3-457.9"/>
				<path id="Path_8562" class="st2" d="M-4.8-458.3c0.1-2.3,1.8-4.3,4.1-4.6c1-0.2,2,0,3,0.4c0.1,0,0.1,0.1,0.1,0.2
					c-0.1,0.1-0.2,0.3-0.2,0.4c0,0.1-0.1,0.1-0.2,0.1c-0.4-0.2-0.9-0.3-1.3-0.4c-1.2-0.2-2.4,0.2-3.3,1.1c-1.3,1.2-1.6,3.1-0.8,4.6
					c0,0.1,0.1,0.2,0.2,0.3c0,0.1,0,0.1,0,0.2c-0.1,0.1-0.3,0.2-0.4,0.3c-0.1,0.1-0.1,0-0.2,0c-0.3-0.4-0.5-0.8-0.6-1.3
					C-4.8-457.4-4.8-457.8-4.8-458.3"/>
				<path id="Path_8563" class="st1" d="M4.8-458.2c-0.1,2.3-1.7,4.1-4,4.4c-1.5,0.2-3-0.2-4.1-1.3c0,0-0.1-0.1-0.1-0.1
					c-0.1-0.1-0.1-0.1,0-0.2c0.1-0.1,0.1,0,0.2,0c0.6,0.6,1.3,1,2.1,1.2c2.3,0.6,4.8-0.8,5.4-3.1c0-0.1,0.1-0.2,0.1-0.3
					c0.3-1.6-0.4-3.3-1.8-4.2c-0.1-0.1-0.1-0.1,0-0.2c0.1,0,0.1,0,0.1,0c0.4,0.2,0.8,0.6,1.1,1C4.4-460.2,4.8-459.2,4.8-458.2"/>
				<path id="Path_8564" class="st2" d="M-0.8-450.2c0,0.4,0,0.8,0,1.2c0,0.1-0.1,0.1-0.2,0.1c-0.1,0-0.2,0-0.1-0.1
					c0-0.4,0-0.9,0-1.3c0-0.1-0.1-0.3,0-0.3c0.1,0,0.2,0,0.4,0c0.1,0,0.3,0,0.4,0c0.1,0,0.2,0,0.2,0.1c0.1,0.2,0.2,0.5,0.3,0.8
					c0,0,0,0.1,0.1,0.1c0.1-0.2,0.2-0.4,0.2-0.6c0.1-0.3,0.1-0.3,0.5-0.3c0.1,0,0.3,0,0.4,0c0.1,0,0.1,0,0.1,0.1c0,0.5,0,1.1,0,1.6
					c0,0.1,0,0.1-0.1,0.1c-0.2,0-0.4,0-0.6,0c-0.1,0-0.1-0.1-0.1-0.1c0-0.4,0-0.8,0-1.1c0,0,0,0,0-0.1c-0.1,0-0.1,0.1-0.1,0.2
					c-0.1,0.3-0.2,0.7-0.4,1c0,0.1-0.1,0.1-0.2,0.1c-0.4,0-0.3,0.1-0.4-0.3c-0.1-0.3-0.2-0.6-0.3-0.9
					C-0.7-450.1-0.7-450.1-0.8-450.2"/>
				<path id="Path_8565" class="st2" d="M-3.7-450.2c0,0.4,0,0.8,0,1.2c0,0.1,0,0.1-0.2,0.1c-0.1,0-0.2,0-0.2-0.1c0-0.5,0-0.9,0-1.4
					c0,0,0-0.1,0-0.1c0-0.2,0-0.2,0.2-0.2s0.4,0,0.6,0c0.1,0,0.2,0,0.2,0.1v0c0.1,0.3,0.2,0.5,0.3,0.8c0.1,0,0.1-0.1,0.1-0.1
					c0.1-0.2,0.2-0.5,0.3-0.7c0-0.1,0.1-0.1,0.2-0.1c0.2,0,0.5,0,0.7,0c0.1,0,0.1,0,0.1,0.1c0,0.5,0,1,0,1.6c0,0.1,0,0.1-0.1,0.1
					c-0.2,0-0.3,0-0.5,0c-0.1,0-0.1,0-0.1-0.1c0-0.4,0-0.8,0-1.2c-0.1,0-0.1,0.1-0.1,0.2c-0.1,0.4-0.3,0.7-0.4,1
					c0,0.1-0.1,0.2-0.2,0.1c-0.3,0-0.3,0-0.4-0.3c-0.1-0.3-0.2-0.6-0.3-0.9C-3.6-450.1-3.6-450.1-3.7-450.2"/>
				<path id="Path_8566" class="st1" d="M-6.3-452c0.3,0.1,0.3,0.1,0.3,0.4c0,0.1,0,0.1,0,0.2c0,0.2-0.1,0.4-0.3,0.4
					c-0.5,0-1.1,0-1.6,0c0,0-0.1,0-0.1-0.1c0-0.4,0.1-0.8,0-1.2c0-0.1,0-0.1,0.1-0.1c0.2,0,0.3,0,0.5,0c0.1,0,0.1,0,0.1,0.1
					c0,0.1,0,0.2,0.2,0.2c0.1,0,0.1,0,0.2,0c0.2,0,0.2,0,0.2-0.2c0-0.2,0-0.2-0.2-0.2c-0.3,0-0.6,0-0.9,0c-0.2,0-0.1-0.2-0.2-0.2
					c0-0.1,0.1-0.1,0.1-0.1c0.5,0,1,0,1.5,0c0.3,0,0.4,0.1,0.4,0.4c0,0,0,0,0,0.1C-6-452.1-6-452-6.3-452 M-7-451.3
					c0.3,0,0.3,0,0.3-0.3c0-0.2,0-0.2-0.2-0.2c-0.1,0-0.1,0-0.2,0c-0.1,0-0.1,0-0.1,0.1c0,0,0,0.1,0,0.1
					C-7.2-451.3-7.2-451.3-7-451.3"/>
				<path id="Path_8567" class="st1" d="M8-451c-0.2,0-0.5,0-0.7,0c-0.1,0-0.1,0-0.1-0.1c-0.1-0.2-0.2-0.4-0.2-0.6
					c0-0.1-0.1-0.1-0.2-0.1c-0.1,0-0.1,0.1-0.1,0.1c0,0.2,0,0.4,0,0.5c0,0.1,0,0.1-0.1,0.1c-0.2,0-0.4,0-0.6,0c-0.1,0-0.1,0-0.1-0.1
					c0-0.4,0-0.8,0-1.1c0-0.1,0-0.1,0.1-0.1c0.2,0,0.3,0,0.4,0c0.1,0,0.2,0,0.1,0.1c0,0.1,0,0.1,0.1,0.1c0.1,0,0.1,0,0.1,0
					c0.3,0,0.3,0,0.3-0.3c0-0.1-0.1-0.1-0.2-0.1c-0.3,0-0.6,0-0.9,0c-0.1,0-0.2-0.1-0.2-0.3c0,0,0.1,0,0.1,0c0.5,0,1,0,1.5,0
					c0.3,0,0.4,0.1,0.4,0.4c0,0.1,0,0.2,0,0.3c0,0.1,0,0.2-0.2,0.3c-0.1,0-0.1,0.1,0,0.1c0.1,0.2,0.2,0.4,0.3,0.6
					C8-451.1,8-451.1,8-451"/>
				<path id="Path_8568" class="st1" d="M4.7-451c-0.2,0-0.3,0-0.5,0c-0.3,0-0.5-0.1-0.5-0.4c0-0.2,0-0.5,0-0.8c0-0.1,0-0.2,0.2-0.1
					c0.2,0,0.3,0,0.4,0c0.1,0,0.1,0,0.1,0.1c0,0.2,0,0.5,0,0.8c0,0.1,0,0.2,0.2,0.2c0.5,0,0.4,0,0.4-0.4c0-0.2,0-0.4,0-0.7
					c0-0.1-0.1-0.2-0.2-0.2c-0.3,0-0.7,0-1,0c-0.1,0-0.1,0-0.1-0.1c0-0.1,0.2-0.2,0.3-0.2c0.4,0,0.9,0,1.3,0c0.2,0,0.3,0.2,0.3,0.4
					c0,0.4,0,0.7,0,1.1c0,0.2-0.1,0.3-0.4,0.4c0,0,0,0-0.1,0L4.7-451L4.7-451"/>
				<path id="Path_8569" class="st1" d="M-0.4-451c0.3-0.5,0.5-1,0.8-1.5c0,0,0.1-0.1,0.1-0.1c-0.1-0.2,0.1-0.1,0.2-0.1
					c0.2,0,0.3,0,0.5,0c0.1,0,0.2,0,0.2,0.1c0.2,0.4,0.4,0.9,0.6,1.3c0,0.1,0.1,0.2,0.2,0.4c-0.3,0-0.5,0-0.8,0c-0.1,0-0.1,0,0-0.1
					c0-0.1,0-0.2-0.1-0.3c0,0-0.1-0.1-0.1-0.1c-0.2,0-0.4,0-0.6,0c-0.1,0-0.2,0.2-0.2,0.4c0,0.1,0,0.1-0.1,0.1S-0.3-451-0.4-451
					C-0.4-451-0.4-451-0.4-451 M0.6-452.4l-0.3,0.6h0.5L0.6-452.4"/>
				<path id="Path_8570" class="st2" d="M1.6-448.9c0.3-0.5,0.5-1,0.8-1.5c0.1-0.1,0.1-0.2,0-0.2h0.7c0.1,0,0.1,0.1,0.1,0.1
					c0.2,0.5,0.4,0.9,0.6,1.4c0,0.1,0.1,0.2,0.1,0.3H3.2c0,0-0.1,0-0.1-0.1c0,0,0-0.1,0-0.1c0-0.2-0.1-0.3-0.4-0.3H2.4
					c-0.2,0-0.4,0.1-0.4,0.3c0,0,0,0,0,0.1c0,0.1,0,0.1-0.1,0.1C1.8-448.9,1.7-448.9,1.6-448.9 M2.3-449.6c0.2,0,0.3,0,0.5,0
					c0.1,0,0.1,0,0.1-0.1l-0.2-0.5L2.3-449.6"/>
				<path id="Path_8571" class="st1" d="M1.7-452.5C1.7-452.5,1.7-452.5,1.7-452.5c0-0.4,0-0.3,0.4-0.3c0.4,0,0.8,0,1.3,0
					c0.1,0,0.2,0,0.2,0.2c0,0.1,0,0.1,0,0.2c-0.2,0-0.3-0.1-0.5,0c-0.1,0-0.1,0-0.1,0.1c0,0.4,0,0.9,0,1.3c0,0.1,0,0.1-0.1,0.1
					c-0.2,0-0.4,0-0.6,0c-0.1,0-0.1,0-0.1-0.1c0.1-0.4,0-0.9,0-1.3c0-0.1,0-0.1-0.1-0.1C2-452.5,1.9-452.5,1.7-452.5"/>
				<path id="Path_8572" class="st1" d="M-1.3-452.8c0,0.5,0,1,0,1.4c0,0.1,0,0.1,0.1,0.1c0.2,0,0.5,0,0.7,0c0.1,0,0.1,0,0.1,0.1
					c0,0,0,0.1,0,0.2c0,0.1,0,0.1-0.1,0.1c-0.5,0-1,0-1.5,0c0-0.6,0-1.1,0-1.7c0-0.1,0-0.1,0.1-0.1C-1.8-452.8-1.6-452.8-1.3-452.8"
					/>
				<path id="Path_8573" class="st1" d="M-3.9-451c0-0.6,0-1.1,0-1.7c0-0.1,0-0.1,0.1-0.1c0.2,0,0.3,0,0.5,0c0.1,0,0.1,0,0.1,0.1
					c0,0.4,0,0.8,0,1.2c0,0.1,0,0.1,0.1,0.1c0.2,0,0.5,0,0.7,0c0,0,0,0,0,0c0,0.1,0,0.2,0,0.3c0,0,0,0-0.1,0L-3.9-451"/>
				<path id="Path_8574" class="st1" d="M-4.2-452.1v0.4c-0.2,0-0.5,0-0.7,0c-0.1,0-0.1,0-0.1,0.1c0,0.4,0,0.4,0.4,0.4
					c0.2,0,0.3,0,0.5,0c0.1,0,0.1,0,0.1,0.1c0,0,0,0.1,0,0.2c0,0.1,0,0.1-0.1,0.1c-0.5,0-1,0-1.4,0c-0.1,0-0.1,0-0.1-0.1
					c0-0.4,0-0.7,0-1.1c0-0.1,0-0.2,0.2-0.2c0.1,0,0.2,0,0.3,0c0.2,0,0.3,0,0.2,0.2c0,0.1,0,0.1,0.1,0.1
					C-4.7-452.1-4.5-452.1-4.2-452.1"/>
				<path id="Path_8575" class="st1" d="M-4.9-452.5c-0.2,0-0.5,0-0.7,0c-0.2,0-0.1-0.2-0.1-0.2c0-0.1,0.1-0.1,0.1-0.1
					c0.4,0,0.9,0,1.3,0c0.1,0,0.2,0.1,0.2,0.3c0,0,0,0,0,0c0,0-0.1,0-0.1,0C-4.5-452.5-4.7-452.5-4.9-452.5"/>
				<path id="Path_8576" class="st1" d="M0.3-457.9c0.2,0,0.3,0,0.4,0c0.1,0,0.2,0.1,0.2,0.2v0c0,0.2,0,0.5,0,0.7
					c0,0.1-0.1,0.2-0.2,0.2c-0.3,0-0.6,0-0.9,0c-0.1,0-0.1,0-0.1-0.1c0-0.3,0-0.6,0-1c0-0.1,0-0.1,0.1-0.1
					C0-457.9,0.1-457.9,0.3-457.9L0.3-457.9"/>
				<path id="Path_8577" class="st1" d="M-7-451.3c-0.2,0-0.2,0-0.2-0.2c0,0,0-0.1,0-0.1c0-0.1,0-0.1,0.1-0.1c0.1,0,0.1,0,0.2,0
					c0.2,0,0.2,0,0.2,0.2C-6.7-451.3-6.7-451.3-7-451.3"/>
				<path id="Path_8578" class="st1" d="M0.6-452.4l0.2,0.6H0.3L0.6-452.4"/>
				<path id="Path_8579" class="st1" d="M2.3-449.6l0.3-0.6l0.2,0.5c0,0.1,0,0.1-0.1,0.1C2.6-449.6,2.5-449.6,2.3-449.6"/>
			</g>
		</g>
	</g>
</g>
</svg>
