<?xml version="1.0" encoding="utf-8"?>
<!-- Generator: Adobe Illustrator 27.9.0, SVG Export Plug-In . SVG Version: 6.00 Build 0)  -->
<svg version="1.1" id="Layer_1" xmlns="http://www.w3.org/2000/svg" xmlns:xlink="http://www.w3.org/1999/xlink" x="0px" y="0px"
	 viewBox="0 0 16 16" style="enable-background:new 0 0 16 16;" xml:space="preserve">
<style type="text/css">
	.st0{fill:none;}
	.st1{fill:#FFFFFF;}
	.st2{fill:#D71F27;}
	.st3{fill:#898888;}
</style>
<g>
	<path class="st0" d="M1.3,14.1H0.7v0.6h0.5c0.1,0,0.1,0,0.2-0.1c0.1-0.1,0.1-0.2,0.1-0.2c0-0.1,0-0.2-0.1-0.2
		C1.4,14.1,1.4,14.1,1.3,14.1z"/>
	<path class="st0" d="M6,14.1H5.7v1.6H6c0.1,0,0.2,0,0.3-0.1c0.1-0.2,0.2-0.4,0.2-0.6c0-0.2-0.1-0.5-0.2-0.6
		C6.3,14.1,6.2,14.1,6,14.1z"/>
	<path class="st0" d="M1.2,15H0.7v0.7h0.5c0.1,0,0.2,0,0.2-0.1c0.1-0.1,0.1-0.4,0-0.5C1.4,15,1.3,15,1.2,15z"/>
	<path class="st0" d="M14.8,14.6c0-0.1-0.1-0.3-0.1-0.4h0c0,0.1,0,0.3-0.1,0.4l-0.1,0.5h0.4L14.8,14.6z"/>
	<path class="st1" d="M1.3,11.4c0,0,0,0.1,0,0.1c0,0.2,0.1,0.2,0.2,0.1c0.3-0.3,0.6-0.5,0.8-0.7c0.5-0.1,1.9-0.2,2.3-0.2
		c0.2,0,0.8-0.6,0.8-0.8c0-0.4,0-0.7,0-1c0-0.2,0-0.5-0.1-1l0.1,0l0-0.9l0.2,0c0,0,0-0.1,0-0.1c0.7,0.1,1.4,0.2,2,0.2
		c0.1,0,0.2,0,0.3,0.1c0.7,0.2,1.5,0.3,2.3,0.3c0,0.2,0.2,0.4,0.4,0.5c0,0,0,0,0.1,0c0,0,0,0,0.1,0c0,0,0-0.1,0-0.1l0,0
		c0,0,0,0,0.1,0c0,0,0,0,0-0.1c0.1-0.1,0.7-0.6,0.7-0.6c0,0,0,0,0.1,0c0,0,0.1,0,0.1-0.1c0,0,0,0,0-0.1l0.1-0.1c0,0,0,0,0,0
		c0,0,0.1,0,0.1-0.1c0,0,0,0,0-0.1L12.1,7c0-0.1-0.1-0.1-0.2-0.1c-0.2,0-0.9,0.1-1.2,0.1c-0.5-0.2-2.4-1-2.5-1.1
		c-0.1,0-0.2-0.1-0.3-0.1c-0.5-0.3-1-0.5-1.5-0.6c0,0,0-0.1,0-0.1C6,5.1,5.8,5.1,5.5,5.1c0.1-0.5,0.1-0.9,0.2-1.4
		c0,0,0.1,0.1,0.1,0.1c0.1,0,0.2-0.1,0.4-0.2c0.1,0,0.1,0,0.1,0c0.1-0.1,0.1-0.3,0.3-0.4C6.7,3,6.8,3.1,6.8,3c0.1-0.1,0.1-0.3,0-0.5
		c0-0.2-0.1-0.5-0.3-0.6C6.5,1.7,6.3,1.7,6.1,1.7c-0.2,0-0.6,0.1-0.8,0.7C5.2,2.3,5,2.2,4.8,2.1c-0.7-0.1-1.3,0-2,0.2
		c0,0,0,0.1,0,0.2c-0.1,0-0.2,0-0.2,0.1C2.3,3.2,1.9,3.9,1.9,3.9C1.8,4,1.7,4.1,1.7,4.2C1.6,4.4,1.5,4.4,1.4,4.5
		c-0.1,0-0.1,0.2,0,0.1c0.1,0,0.2-0.1,0.3-0.2c0,0.2-0.2,0.3-0.2,0.4c0,0.1,0.2,0.3,0.5,0C2,4.9,2.1,4.8,2.2,4.7
		c0-0.1,0.1-0.3,0.1-0.4C2.6,4,2.8,3.7,3.1,3.3c0,0,0.7-0.2,1-0.2C4,3.2,3.8,3.3,3.6,3.3C3.2,5.2,3.2,6,3.5,6.1
		c0,0.8,0.1,1.7,0.4,2.5l0.1,0L4.1,9l0.2,0.6C4,9.4,3,10,2.6,10.1C2.5,10,2.4,9.9,2.3,9.8c-0.1,0-0.2,0-0.3,0.1c0,0-0.1-0.1-0.1,0
		c0,0,0,0.1,0,0.1c0,0,0,0.1,0,0.1c0,0,0,0-0.1,0c0,0.1,0,0.1,0,0.1c-0.1,0.2-0.3,0.4-0.4,0.6c0,0-0.1,0-0.1,0.1c0,0.1,0,0.1,0,0.1
		c0,0.1,0,0.1,0,0.2c0,0-0.1,0-0.1,0C1.3,11.4,1.3,11.4,1.3,11.4z"/>
	<path class="st2" d="M1.3,12.5h12.9c0.6,0,1-0.5,0.9-1.1V6.2c0,0,0,0-0.1,0c-0.8-0.1-1.4-0.8-1.3-1.6c-0.1-0.8,0.5-1.5,1.3-1.6h0.1
		V1.6c0-0.5-0.4-1-0.9-1.1H1.3c-0.6,0-1,0.5-0.9,1.1v9.8C0.4,12,0.8,12.5,1.3,12.5z M1.4,11.3c0-0.1,0-0.1,0-0.2c0,0-0.1,0,0-0.1
		c0-0.1,0.1-0.1,0.1-0.1c0.1-0.2,0.3-0.4,0.4-0.6c0,0-0.1,0,0-0.1c0-0.1,0.1,0,0.1,0c0,0,0-0.1,0-0.1c0,0,0,0,0-0.1
		c0-0.1,0.1,0,0.1,0c0.1-0.1,0.2-0.1,0.3-0.1c0.1,0.1,0.2,0.2,0.3,0.3C3,10,4,9.4,4.3,9.6L4.1,9L4,8.6l-0.1,0
		C3.6,7.8,3.4,6.9,3.5,6.1C3.2,6,3.2,5.2,3.6,3.3C3.8,3.3,4,3.2,4.1,3.1c-0.3,0.1-1,0.2-1,0.2C2.8,3.7,2.6,4,2.3,4.3
		c0,0.1-0.1,0.3-0.1,0.4C2.1,4.8,2,4.9,1.9,4.9C1.7,5.2,1.5,5,1.4,4.9c0-0.1,0.2-0.2,0.2-0.4C1.6,4.6,1.5,4.6,1.4,4.7
		c-0.1,0-0.1-0.1,0-0.1c0.1-0.1,0.2-0.1,0.3-0.3c0-0.1,0.2-0.2,0.3-0.3c0,0,0.4-0.8,0.7-1.3c0-0.1,0.1-0.1,0.2-0.1c0,0,0-0.1,0-0.2
		c0.6-0.2,1.3-0.3,2-0.2C5,2.2,5.2,2.3,5.3,2.4c0.2-0.6,0.6-0.7,0.8-0.7c0.2,0,0.3,0.1,0.5,0.2C6.8,2,6.8,2.3,6.9,2.5
		c0,0.1,0,0.3,0,0.5c0,0.1-0.1,0.1-0.2,0.2C6.5,3.3,6.4,3.5,6.3,3.6c0,0-0.1,0-0.1,0C6,3.6,5.9,3.7,5.8,3.7c-0.1,0-0.1,0-0.1-0.1
		c0,0.5-0.1,1-0.2,1.4c0.2,0,0.5,0,0.8,0.1c0,0,0,0.1,0,0.1c0.5,0.1,1.1,0.3,1.5,0.6c0.1,0,0.2,0,0.3,0.1c0.1,0,2,0.9,2.5,1.1
		c0.3,0,1-0.1,1.2-0.1c0.1,0,0.2,0,0.2,0.1L12,7.1c0,0,0,0,0,0.1c0,0,0,0-0.1,0.1c0,0,0,0,0,0l-0.1,0.1c0,0,0,0,0,0.1
		c0,0,0,0.1-0.1,0.1c0,0,0,0-0.1,0c0,0-0.6,0.5-0.7,0.6c0,0.1,0,0.1,0,0.1c0,0-0.1,0-0.1,0l0,0c0,0,0,0.1,0,0.1c0,0-0.1,0-0.1,0
		c-0.1,0-0.1,0-0.1,0c-0.2-0.1-0.3-0.2-0.4-0.5C9.5,7.8,8.8,7.7,8,7.4C8,7.3,7.8,7.3,7.7,7.3c-0.7,0-1.4-0.1-2-0.2c0,0,0,0.1,0,0.1
		l-0.2,0l0,0.9l-0.1,0c0,0.4,0,0.7,0.1,1c0,0.3,0,0.6,0,1c0,0.2-0.6,0.8-0.8,0.8c-0.4,0-1.8,0.1-2.3,0.2c-0.2,0.2-0.5,0.4-0.8,0.7
		c-0.1,0.1-0.2,0-0.2-0.1c0,0,0-0.1,0-0.1C1.3,11.4,1.3,11.4,1.4,11.3C1.3,11.3,1.3,11.3,1.4,11.3z"/>
	<path class="st3" d="M16,4.5c0-0.5-0.3-0.8-0.8-0.9c-0.5,0.1-0.9,0.5-0.8,1c0,0.5,0.3,0.9,0.8,1C15.7,5.5,16,5.1,16,4.7V4.5z"/>
	<path class="st1" d="M1.8,14.4c0-0.1,0-0.3-0.1-0.4c-0.1-0.1-0.2-0.2-0.3-0.1H0.5v2h0.8c0.1,0,0.3,0,0.4-0.1
		c0.1-0.1,0.2-0.3,0.2-0.4c0-0.1,0-0.3-0.1-0.4c0-0.1-0.1-0.1-0.2-0.1c0.1,0,0.1-0.1,0.2-0.1C1.7,14.6,1.8,14.5,1.8,14.4z M1.5,15.6
		c-0.1,0.1-0.1,0.1-0.2,0.1H0.7V15h0.5c0.1,0,0.2,0,0.2,0.1C1.6,15.2,1.6,15.4,1.5,15.6z M1.5,14.6c0,0-0.1,0.1-0.2,0.1H0.7v-0.6
		h0.6c0.1,0,0.1,0,0.2,0.1c0,0.1,0.1,0.1,0.1,0.2C1.5,14.5,1.5,14.6,1.5,14.6z"/>
	<path class="st1" d="M2.2,13.9v1.4c0,0.1,0,0.3,0.1,0.4c0.1,0.1,0.3,0.2,0.5,0.2c0.2,0,0.4-0.1,0.5-0.2c0.1-0.1,0.2-0.3,0.1-0.4
		v-1.4H3.2v1.4c0,0.1,0,0.2-0.1,0.3c-0.1,0.1-0.2,0.1-0.3,0.1c-0.1,0-0.2,0-0.3-0.1c-0.1-0.1-0.1-0.2-0.1-0.3v-1.4H2.2z"/>
	<polygon class="st1" points="4.8,15.9 5.1,15.9 5.1,13.9 4.8,13.9 4.8,15.5 4,13.9 3.8,13.9 3.8,15.9 4,15.9 4,14.3 	"/>
	<path class="st1" d="M6.8,14.9c0-0.3-0.1-0.6-0.2-0.8c-0.1-0.2-0.3-0.3-0.5-0.2H5.4v2H6c0.2,0,0.4-0.1,0.5-0.2
		C6.7,15.4,6.8,15.2,6.8,14.9z M6.3,15.5c-0.1,0.1-0.2,0.1-0.3,0.1H5.7v-1.6H6c0.1,0,0.2,0.1,0.3,0.2c0.1,0.2,0.2,0.4,0.2,0.6
		C6.5,15.1,6.5,15.3,6.3,15.5z"/>
	<polygon class="st1" points="8.2,14.1 8.2,13.9 7.1,13.9 7.1,15.9 8.2,15.9 8.2,15.7 7.3,15.7 7.3,14.9 8.1,14.9 8.1,14.7 
		7.3,14.7 7.3,14.1 	"/>
	<path class="st1" d="M9.2,15.7c-0.1,0-0.2,0-0.3-0.1c-0.1-0.1-0.1-0.2-0.1-0.3H8.5c0,0.2,0,0.3,0.1,0.5c0.1,0.1,0.3,0.2,0.5,0.2
		c0.2,0,0.4,0,0.5-0.2c0.1-0.1,0.1-0.3,0.1-0.4c0-0.1,0-0.2-0.1-0.3c0,0-0.1-0.1-0.2-0.1c-0.2-0.1-0.4-0.2-0.5-0.3
		c-0.1,0-0.1-0.1-0.2-0.1c0,0,0-0.1,0-0.1c0-0.1,0-0.1,0.1-0.2c0.1-0.1,0.2-0.1,0.3-0.1c0.1,0,0.2,0,0.3,0.1c0,0.1,0.1,0.2,0.1,0.2
		h0.2c0-0.1,0-0.3-0.1-0.4c-0.1-0.1-0.3-0.2-0.5-0.2c-0.2,0-0.3,0-0.4,0.2c-0.1,0.1-0.1,0.2-0.1,0.4c0,0.1,0,0.2,0.1,0.3
		c0,0,0.1,0.1,0.1,0.1c0.1,0,0.2,0.1,0.3,0.2C9.2,15,9.3,15,9.3,15.1c0.1,0,0.1,0.1,0.2,0.1c0,0,0.1,0.1,0.1,0.2s0,0.1-0.1,0.2
		C9.4,15.7,9.3,15.7,9.2,15.7z"/>
	<polygon class="st1" points="10.1,13.8 10.1,15.9 11.2,15.9 11.2,15.6 10.5,15.6 10.5,13.8 	"/>
	<rect x="11.5" y="13.8" class="st1" width="0.4" height="2.1"/>
	<path class="st1" d="M13.7,14.8h-0.6v0.3h0.3v0.5c-0.1,0-0.1,0-0.2,0c-0.3,0-0.5-0.2-0.5-0.7c0-0.5,0.3-0.7,0.6-0.7
		c0.1,0,0.2,0,0.4,0.1l0.1-0.3c-0.1-0.1-0.3-0.1-0.4-0.1c-0.5,0-1,0.4-1,1c0,0,0,0.1,0,0.1c0,0.3,0.1,0.6,0.3,0.8
		c0.2,0.2,0.4,0.3,0.7,0.3c0.2,0,0.4,0,0.5-0.1V14.8z"/>
	<path class="st1" d="M15,15.4l0.1,0.6h0.4L15,13.8h-0.5L14,15.9h0.4l0.1-0.6H15z M14.6,14.6c0-0.1,0.1-0.3,0.1-0.4h0
		c0,0.1,0.1,0.3,0.1,0.4l0.1,0.5h-0.4L14.6,14.6z"/>
</g>
</svg>
