<?xml version="1.0" encoding="utf-8"?>
<!-- Generator: Adobe Illustrator 27.9.0, SVG Export Plug-In . SVG Version: 6.00 Build 0)  -->
<svg version="1.1" id="Layer_1" xmlns="http://www.w3.org/2000/svg" xmlns:xlink="http://www.w3.org/1999/xlink" x="0px" y="0px"
	 viewBox="0 0 16 16" style="enable-background:new 0 0 16 16;" xml:space="preserve">
<style type="text/css">
	.st0{clip-path:url(#SVGID_00000134236722896036683790000012708115437223027353_);}
	.st1{fill:#D7D8D9;}
	.st2{fill:#FFFFFF;}
	.st3{fill:#2F2F30;}
	.st4{fill:#B72C27;}
</style>
<g id="Group_6420" transform="translate(9 189.604)">
	<g>
		<g>
			<defs>
				<rect id="SVGID_1_" x="-9" y="-189.6" width="16" height="16"/>
			</defs>
			<clipPath id="SVGID_00000070814391426989041650000005733054858482461882_">
				<use xlink:href="#SVGID_1_"  style="overflow:visible;"/>
			</clipPath>
			<g id="Group_6419" style="clip-path:url(#SVGID_00000070814391426989041650000005733054858482461882_);">
				<path id="Path_7437" class="st1" d="M7-186.7v10.2c0,0,0,0,0,0c0,0-0.1,0.1-0.1,0.1c-0.3,0.2-0.5,0.4-0.8,0.6
					c-0.3,0.2-0.6,0.4-0.9,0.6c-0.2,0.1-0.3,0.2-0.5,0.3c-0.2,0.1-0.3,0.1-0.5,0.2c-0.4,0.2-0.7,0.3-1.1,0.4
					c-0.2,0.1-0.5,0.1-0.7,0.2c-0.2,0.1-0.4,0.1-0.7,0.2c-0.2,0-0.4,0.1-0.6,0.1c-0.1,0-0.3,0.1-0.4,0.1c-0.1,0-0.2,0-0.3,0.1
					l-0.3,0c-0.2,0-0.3,0-0.4,0c-0.1,0-0.2,0-0.3,0c0,0,0,0,0,0h-0.5c0,0,0,0,0,0c-0.1,0-0.1,0-0.2,0c-0.2,0-0.3,0-0.5,0
					c-0.1,0-0.2,0-0.3,0c-0.2,0-0.4,0-0.5-0.1c-0.2,0-0.5-0.1-0.7-0.1S-4-174-4.2-174c-0.3-0.1-0.7-0.2-1-0.3s-0.7-0.2-1-0.4
					c-0.3-0.1-0.5-0.2-0.8-0.4c-0.1-0.1-0.2-0.1-0.3-0.2c-0.1-0.1-0.2-0.1-0.3-0.2c-0.2-0.1-0.3-0.2-0.5-0.3
					c-0.2-0.2-0.5-0.3-0.7-0.5c-0.1-0.1-0.1-0.1-0.2-0.1v-10.3c0,0,0.1,0,0.1-0.1c0.3-0.2,0.6-0.5,0.9-0.7c0.3-0.2,0.7-0.4,1.1-0.6
					c0.2-0.1,0.3-0.2,0.5-0.3c0.2-0.1,0.4-0.2,0.7-0.3c0.3-0.1,0.7-0.2,1-0.4c0.3-0.1,0.5-0.2,0.8-0.2c0.2,0,0.3-0.1,0.5-0.1
					c0.2,0,0.4-0.1,0.5-0.1c0.1,0,0.3-0.1,0.4-0.1s0.3,0,0.4,0c0.2,0,0.3,0,0.5,0c0,0,0,0,0,0h0.2c0,0,0,0,0,0h0.7c0,0,0,0,0,0h0.2
					c0,0,0,0,0,0c0.1,0,0.2,0,0.3,0c0.2,0,0.3,0,0.5,0.1c0.1,0,0.3,0,0.4,0.1c0.2,0,0.3,0.1,0.5,0.1c0.3,0.1,0.6,0.1,0.9,0.2
					c0.3,0.1,0.5,0.1,0.8,0.2c0.3,0.1,0.7,0.2,1,0.4c0.3,0.1,0.5,0.2,0.8,0.4s0.5,0.3,0.8,0.4c0.2,0.1,0.4,0.2,0.6,0.4
					c0.2,0.2,0.5,0.4,0.7,0.5C6.9-186.8,6.9-186.8,7-186.7 M-1.4-175.5c-0.1-0.1-0.2-0.3-0.3-0.4l-0.1,0.2c0,0,0,0,0,0
					c-0.1,0-0.2-0.1-0.3-0.1c0,0,0,0,0,0c0,0.1,0.1,0.3,0.1,0.4c0,0,0,0.1,0,0.1c0,0,0,0-0.1,0c0.8,0.2,1.5,0.2,2.3,0c0,0,0,0-0.1,0
					c0,0,0,0,0,0c0-0.1,0.1-0.3,0.1-0.4c0,0,0,0,0,0c-0.1,0-0.2,0-0.3,0.1c0,0,0,0,0,0c0-0.1-0.1-0.1-0.1-0.2l-0.1,0.1
					c-0.1,0.1-0.2,0.2-0.3,0.3l0,0c0,0,0-0.1,0-0.1c0-0.1,0-0.2,0.1-0.4l0-0.3c0,0,0,0,0,0c-0.1,0-0.1,0.1-0.2,0.1c0,0,0,0-0.1,0
					c0-0.1-0.1-0.2-0.1-0.3c0-0.1-0.1-0.1-0.1-0.2c0,0,0,0,0,0c-0.1,0.1-0.1,0.3-0.2,0.4c0,0.1,0,0.1-0.1,0c-0.1,0-0.1-0.1-0.2-0.1
					c0,0.1,0,0.1,0,0.1c0,0.1,0,0.2,0.1,0.4C-1.4-175.7-1.4-175.6-1.4-175.5L-1.4-175.5 M-2.5-181.2c0,1,0,2,0,3c0,0,0,0.1,0,0.1
					c0.5,0,0.9,0,1.3,0c0,0,0,0,0-0.1c0-0.8,0-1.5,0-2.3c0,0,0-0.1,0.1-0.1c0.4,0,0.9,0,1.4,0c0,0,0.1,0,0.1-0.1c0-0.4,0-0.8,0-1.2
					c0,0,0-0.1,0-0.1H-1c0,0,0,0,0-0.1c0-0.4,0-0.7,0-1.1c0,0,0-0.1,0.1-0.1c0.5,0,1,0,1.5,0c0,0,0,0,0-0.1c0-0.4,0-0.8,0-1.2
					c0,0,0-0.1-0.1-0.1c-1,0-2,0-3,0c0,0,0,0,0,0.1C-2.5-183.2-2.5-182.2-2.5-181.2 M-6.4-181.2c0,0.4,0,0.9,0,1.3
					c0,0.2,0,0.4,0,0.7c0,0.1,0,0.2,0,0.3c0,0.2,0.1,0.3,0.2,0.5c0.1,0.1,0.2,0.2,0.3,0.2c0.2,0.1,0.4,0.1,0.6,0.1
					c0.6,0,1.1,0,1.7,0c0.1,0,0.1,0,0.1-0.1c0-0.4,0-0.8,0-1.1c0,0,0-0.1,0-0.1h-1.5c0,0-0.1,0-0.1-0.1c0-1.2,0-2.4,0-3.6
					c0,0,0-0.1,0.1-0.1c0.5,0,1,0,1.5,0c0,0,0,0,0-0.1c0-0.4,0-0.7,0-1.1c0-0.1,0-0.1-0.1-0.1h-1.8c-0.1,0-0.1,0-0.2,0
					c-0.1,0-0.3,0.1-0.4,0.1c-0.2,0.1-0.3,0.2-0.4,0.4c-0.1,0.2-0.1,0.4-0.1,0.7C-6.4-182.5-6.4-181.9-6.4-181.2 M1.5-181.2
					c0,1,0,2,0,3c0,0,0,0.1,0,0.1c1,0,2,0,3,0c0,0,0.1,0,0.1-0.1c0-0.4,0-0.8,0-1.2c0,0,0-0.1-0.1-0.1c-0.5,0-1,0-1.5,0
					c0,0,0,0,0-0.1c0-1.6,0-3.2,0-4.8c0,0,0-0.1,0-0.1c-0.5,0-0.9,0-1.3,0c0,0,0,0,0,0.1C1.5-183.2,1.5-182.2,1.5-181.2 M-2.1-187.7
					c0,0.1-0.1,0.1-0.1,0.2c0,0.1-0.1,0.3-0.1,0.4c0,0,0,0,0,0c-0.1,0-0.2,0-0.2,0c-0.1,0-0.3,0-0.4,0.1s-0.3,0-0.4,0.1
					c-0.2,0-0.3,0.1-0.5,0.1c-0.2,0-0.3,0.1-0.5,0.1c-0.3,0.1-0.5,0.1-0.8,0.2c0,0-0.1,0-0.1,0c0,0,0.1,0,0.1,0c0.1,0,0.2,0,0.3,0
					c0.1,0,0.1,0,0.2,0c0.1,0,0.2,0,0.3,0c0.1,0,0.1,0,0.2,0c0.1,0,0.2,0,0.3,0c0.1,0,0.2,0,0.2,0c0.1,0,0.3,0,0.4,0
					c0.1,0,0.2,0,0.2,0c0.2,0,0.3,0,0.5,0c0.1,0,0.2,0,0.3,0c0,0,0,0,0,0s0,0.1,0,0.1c0,0.1,0,0.3,0.1,0.4c0,0,0,0.1,0,0.1
					s0,0,0-0.1c0.1-0.1,0.1-0.3,0.1-0.4c0-0.1,0-0.1,0.1-0.1c0.1,0,0.3,0,0.4,0c0.1,0,0.2,0,0.3,0c0,0,0,0,0,0c0,0.1,0,0.2,0,0.3
					c0,0.1,0,0.2,0.1,0.2c0,0,0,0,0,0s0-0.1,0-0.1c0.1-0.1,0.1-0.3,0.1-0.4c0,0,0-0.1,0.1-0.1c0.1,0,0.2,0,0.3,0c0.1,0,0.2,0,0.4,0
					c0,0,0,0,0,0s0,0,0,0c0,0,0,0.1,0,0.1c0,0.1,0.1,0.3,0.1,0.4c0,0,0,0,0,0s0,0,0,0c0.1-0.2,0.1-0.3,0.1-0.5c0,0,0,0,0,0
					c0.1,0,0.1,0,0.2,0c0.2,0,0.3,0,0.5,0c0.1,0,0.2,0,0.3,0c0,0,0.1,0,0.1,0c0.1,0,0.3,0,0.4,0c0.1,0,0.1,0,0.2,0
					c0.1,0,0.2,0,0.3,0c0.1,0,0.1,0,0.2,0c0.1,0,0.2,0,0.3,0l0.2,0l0.2,0c0,0,0,0,0,0c-0.2-0.1-0.4-0.1-0.6-0.1
					c-0.2,0-0.3-0.1-0.5-0.1c-0.2,0-0.4-0.1-0.5-0.1c-0.1,0-0.3,0-0.4-0.1c-0.1,0-0.3,0-0.4-0.1c-0.1,0-0.3,0-0.4,0
					c-0.1,0-0.1,0-0.2,0c0,0,0,0,0,0c0,0,0-0.1,0-0.1c0-0.1,0-0.3-0.1-0.4c0-0.1,0-0.1-0.1-0.1C0-187.6,0-187.4,0-187.2
					c0,0,0,0.1,0,0.1c0,0,0,0-0.1,0c-0.1,0-0.2,0-0.3,0c-0.1,0-0.2,0-0.4,0h0c0,0,0,0,0,0c0-0.1,0-0.2-0.1-0.3
					c0-0.1-0.1-0.2-0.1-0.2c0,0,0,0,0,0.1c-0.1,0.1-0.1,0.3-0.1,0.5c0,0,0,0,0,0c-0.1,0-0.2,0-0.3,0s-0.2,0-0.3,0
					c-0.1,0-0.1,0-0.2,0c0,0,0,0,0,0c0-0.1,0-0.3-0.1-0.4C-2-187.6-2.1-187.7-2.1-187.7"/>
				<path id="Path_7438" class="st2" d="M-1.4-189.6L-1.4-189.6L-1.4-189.6z"/>
				<path id="Path_7439" class="st2" d="M-0.6-189.6C-0.6-189.6-0.6-189.6-0.6-189.6L-0.6-189.6z"/>
				<path id="Path_7440" class="st3" d="M-2.5-181.2c0-1,0-2,0-3c0,0,0-0.1,0-0.1c1,0,2,0,3,0c0,0,0.1,0,0.1,0.1c0,0.4,0,0.8,0,1.2
					c0,0,0,0.1,0,0.1c-0.5,0-1,0-1.5,0c0,0,0,0,0,0.1c0,0.4,0,0.7,0,1.1c0,0,0,0.1,0,0.1h1.4c0,0,0,0,0,0.1c0,0.4,0,0.8,0,1.2
					c0,0,0,0.1-0.1,0.1c-0.5,0-0.9,0-1.4,0c0,0,0,0,0,0.1c0,0.8,0,1.5,0,2.3c0,0,0,0.1,0,0.1c-0.5,0-0.9,0-1.3,0c0,0,0,0,0-0.1
					C-2.5-179.2-2.5-180.2-2.5-181.2"/>
				<path id="Path_7441" class="st3" d="M-6.4-181.2c0-0.6,0-1.3,0-1.9c0-0.2,0-0.5,0.1-0.7c0.1-0.2,0.2-0.3,0.4-0.4
					c0.1-0.1,0.3-0.1,0.4-0.1c0.1,0,0.1,0,0.2,0h1.8c0.1,0,0.1,0,0.1,0.1c0,0.4,0,0.7,0,1.1c0,0,0,0.1,0,0.1c-0.5,0-1,0-1.5,0
					c0,0-0.1,0-0.1,0.1c0,1.2,0,2.4,0,3.6c0,0,0,0.1,0.1,0.1h1.5c0,0,0,0,0,0.1c0,0.4,0,0.8,0,1.1c0,0.1,0,0.1-0.1,0.1
					c-0.6,0-1.1,0-1.7,0c-0.2,0-0.4,0-0.6-0.1c-0.1-0.1-0.2-0.1-0.3-0.2c-0.1-0.1-0.2-0.3-0.2-0.5c0-0.1,0-0.2,0-0.3
					c0-0.2,0-0.4,0-0.7C-6.4-180.3-6.4-180.8-6.4-181.2"/>
				<path id="Path_7442" class="st3" d="M1.5-181.2c0-1,0-2,0-3c0,0,0-0.1,0-0.1c0.5,0,0.9,0,1.3,0c0,0,0,0,0,0.1c0,1.6,0,3.2,0,4.8
					c0,0,0,0.1,0,0.1c0.5,0,1,0,1.5,0c0,0,0.1,0,0.1,0.1c0,0.4,0,0.8,0,1.2c0,0,0,0.1-0.1,0.1c-1,0-2,0-3,0c0,0,0,0,0-0.1
					C1.5-179.2,1.5-180.2,1.5-181.2"/>
				<path id="Path_7443" class="st3" d="M-2.1-187.7c0,0.1,0.1,0.1,0.1,0.2c0,0.1,0.1,0.3,0.1,0.4c0,0,0,0,0,0c0.1,0,0.1,0,0.2,0
					c0.1,0,0.2,0,0.3,0c0.1,0,0.2,0,0.3,0c0,0,0,0,0,0c0-0.2,0-0.3,0.1-0.5c0,0,0,0,0-0.1c0.1,0.1,0.1,0.1,0.1,0.2
					c0,0.1,0.1,0.2,0.1,0.3c0,0,0,0,0,0h0c0.1,0,0.2,0,0.4,0c0.1,0,0.2,0,0.3,0c0,0,0,0,0,0c0,0,0-0.1,0-0.1c0-0.2,0.1-0.4,0.2-0.5
					c0,0,0.1,0.1,0.1,0.1c0,0.1,0.1,0.3,0.1,0.4c0,0,0,0.1,0,0.1c0,0,0,0,0,0c0.1,0,0.1,0,0.2,0c0.1,0,0.3,0,0.4,0
					c0.2,0,0.3,0,0.4,0.1c0.1,0,0.3,0,0.4,0.1c0.2,0,0.4,0.1,0.5,0.1s0.3,0.1,0.5,0.1c0.2,0,0.4,0.1,0.6,0.1c0,0,0,0,0,0l-0.2,0
					l-0.2,0c-0.1,0-0.2,0-0.3,0c-0.1,0-0.1,0-0.2,0c-0.1,0-0.2,0-0.3,0c-0.1,0-0.1,0-0.2,0c-0.1,0-0.3,0-0.4,0c0,0-0.1,0-0.1,0
					c-0.1,0-0.2,0-0.3,0c-0.1,0-0.3,0-0.5,0c-0.1,0-0.1,0-0.2,0c0,0,0,0,0,0c0,0.2,0,0.3-0.1,0.5c0,0,0,0,0,0s0,0,0,0
					c-0.1-0.1-0.1-0.3-0.1-0.4c0,0,0-0.1,0-0.1c0,0,0,0,0,0s0,0,0,0c-0.1,0-0.2,0-0.4,0c-0.1,0-0.2,0-0.3,0c-0.1,0-0.1,0-0.1,0.1
					c0,0.1,0,0.3-0.1,0.4c0,0,0,0.1,0,0.1c0,0,0,0,0,0c0-0.1-0.1-0.1-0.1-0.2c0-0.1,0-0.2,0-0.3c0,0,0,0,0,0c-0.1,0-0.2,0-0.3,0
					c-0.1,0-0.3,0-0.4,0c0,0-0.1,0-0.1,0.1c0,0.1,0,0.3-0.1,0.4c0,0,0,0.1,0,0.1s0,0,0-0.1c0-0.1-0.1-0.3-0.1-0.4c0,0,0-0.1,0-0.1
					s0,0,0,0c-0.1,0-0.2,0-0.3,0c-0.2,0-0.3,0-0.5,0c-0.1,0-0.2,0-0.2,0c-0.1,0-0.3,0-0.4,0c-0.1,0-0.2,0-0.2,0c-0.1,0-0.2,0-0.3,0
					c-0.1,0-0.1,0-0.2,0c-0.1,0-0.2,0-0.3,0c-0.1,0-0.1,0-0.2,0c-0.1,0-0.2,0-0.3,0c0,0-0.1,0-0.1,0c0,0,0.1,0,0.1,0
					c0.3-0.1,0.5-0.1,0.8-0.2c0.2,0,0.3-0.1,0.5-0.1s0.3-0.1,0.5-0.1c0.1,0,0.3,0,0.4-0.1s0.3,0,0.4-0.1c0.1,0,0.2,0,0.2,0
					c0,0,0,0,0,0c0-0.1,0-0.3,0.1-0.4C-2.2-187.6-2.2-187.6-2.1-187.7"/>
				<path id="Path_7444" class="st4" d="M-0.6-175.5c0.1-0.1,0.2-0.2,0.3-0.3l0.1-0.1c0,0.1,0.1,0.1,0.1,0.2c0,0,0,0,0,0
					c0.1,0,0.2,0,0.3-0.1c0,0,0,0,0,0c0,0.1-0.1,0.3-0.1,0.4c0,0,0,0,0,0c0,0,0.1,0,0.1,0c-0.8,0.2-1.5,0.2-2.3,0c0,0,0,0,0.1,0
					c0,0,0,0,0-0.1c0-0.1-0.1-0.3-0.1-0.4c0,0,0,0,0,0c0.1,0,0.2,0,0.3,0.1c0,0,0,0,0,0l0.1-0.2c0.1,0.1,0.2,0.3,0.3,0.4
					c0,0,0,0,0,0s0,0,0,0c0-0.1,0-0.2,0-0.3c0-0.1,0-0.2-0.1-0.4c0,0,0-0.1,0-0.1c0.1,0,0.1,0.1,0.2,0.1c0.1,0.1,0.1,0.1,0.1,0
					c0.1-0.1,0.1-0.3,0.2-0.4c0,0,0,0,0,0c0,0.1,0.1,0.1,0.1,0.2c0.1,0.1,0.1,0.2,0.1,0.3c0,0,0,0,0.1,0c0.1,0,0.1-0.1,0.2-0.1
					c0,0,0,0,0,0l0,0.3c0,0.1,0,0.2-0.1,0.4C-0.6-175.5-0.6-175.5-0.6-175.5C-0.7-175.4-0.7-175.4-0.6-175.5L-0.6-175.5"/>
				<path id="Path_7445" class="st1" d="M-1.4-175.5C-1.4-175.5-1.4-175.4-1.4-175.5C-1.4-175.4-1.4-175.5-1.4-175.5L-1.4-175.5"/>
				<path id="Path_7446" class="st1" d="M-0.6-175.5L-0.6-175.5C-0.6-175.4-0.6-175.5-0.6-175.5L-0.6-175.5"/>
			</g>
		</g>
	</g>
</g>
</svg>
