<?xml version="1.0" encoding="utf-8"?>
<!-- Generator: Adobe Illustrator 27.9.0, SVG Export Plug-In . SVG Version: 6.00 Build 0)  -->
<svg version="1.1" id="Layer_1" xmlns="http://www.w3.org/2000/svg" xmlns:xlink="http://www.w3.org/1999/xlink" x="0px" y="0px"
	 viewBox="0 0 16 16" style="enable-background:new 0 0 16 16;" xml:space="preserve">
<style type="text/css">
	.st0{clip-path:url(#SVGID_00000000906138690277863580000015960882978240094364_);}
	.st1{fill:#3B2050;}
	.st2{fill:#FFFFFF;}
</style>
<g id="Group_6422" transform="translate(9 229.604)">
	<g>
		<g>
			<defs>
				<rect id="SVGID_1_" x="-9" y="-229.6" width="16" height="16"/>
			</defs>
			<clipPath id="SVGID_00000047768770906773243550000000829200376554449299_">
				<use xlink:href="#SVGID_1_"  style="overflow:visible;"/>
			</clipPath>
			<g id="Group_6421" style="clip-path:url(#SVGID_00000047768770906773243550000000829200376554449299_);">
				<path id="Path_7447" class="st1" d="M-1-229.6c-4.4,0-8,3.6-8,8s3.6,8,8,8s8-3.6,8-8C7-226,3.4-229.6-1-229.6 M2.8-214.7
					c0,0-0.1,0.1-0.2,0.1v0h0c0-0.2,0.1-0.4,0.1-0.6c0,0-0.1,0.1-0.1,0.1c-3.6,2-8.1,0.7-10.1-2.9c-0.3-0.5-0.5-1.1-0.7-1.7
					c-0.2-1-0.3-2.1-0.2-3.1c0.1-1.5,0.7-2.9,1.7-4c0.5-0.6,1.2-1.2,1.9-1.6c0,0,0.1,0,0.2-0.1v0l0,0c-0.1,0.2-0.1,0.4-0.1,0.6
					c0.1,0,0.2-0.1,0.2-0.1c3.1-1.7,7.1-0.9,9.3,1.8c0.7,0.9,1.2,1.9,1.5,3.1c0.4,1.8,0.2,3.8-0.6,5.5C5-216.5,4-215.4,2.8-214.7"/>
				<path id="Path_7448" class="st2" d="M-6.8-221.5c0-0.1,0.1-0.2,0.1-0.3h-0.4c0,0.1,0.1,0.2,0.1,0.3
					C-7-221.5-6.9-221.5-6.8-221.5"/>
				<path id="Path_7449" class="st2" d="M-7.1-220.4c0,0.1,0.1,0.2,0.1,0.3C-6.9-220.2-6.9-220.3-7.1-220.4"/>
				<path id="Path_7450" class="st2" d="M1.5-222.5c0,0-0.1,0.1-0.1,0.1c0,0.1,0,0.1,0,0.2c0,0.3,0.2,0.6,0.5,0.9
					c0.2-0.4,0.1-1,0-1.4C1.7-222.6,1.6-222.5,1.5-222.5"/>
				<path id="Path_7451" class="st2" d="M-2.7-215.8c-0.1,0-0.2,0.1-0.2,0.2c0,0.1,0,0.2,0.1,0.2c0,0,0,0,0.1,0
					c0.1,0,0.2-0.1,0.2-0.1l0,0v-0.1C-2.6-215.7-2.7-215.8-2.7-215.8"/>
				<path id="Path_7452" class="st2" d="M-6-218c0-0.1,0-0.1,0-0.2c-0.1,0-0.1-0.1-0.2-0.1c0,0,0,0,0,0.1
					C-6.1-218.2-6.1-218.1-6-218L-6-218z"/>
				<path id="Path_7453" class="st2" d="M-1.2-215.4h0.3C-1-215.6-1.1-215.6-1.2-215.4"/>
				<path id="Path_7454" class="st2" d="M-4.4-216.5c0.1,0.1,0.2,0.1,0.3,0.2C-4.2-216.5-4.3-216.6-4.4-216.5"/>
				<path id="Path_7455" class="st2" d="M-3.6-216.1c-0.1,0-0.2,0.1-0.2,0.1c0,0,0,0,0,0.1c0,0.1,0.1,0.1,0.2,0.2
					c0.1,0,0.1-0.1,0.2-0.1v-0.1C-3.4-216-3.5-216.1-3.6-216.1"/>
				<path id="Path_7456" class="st2" d="M6.2-223.2c-0.2-1.1-0.8-2.2-1.5-3.1c-2.3-2.8-6.2-3.5-9.3-1.8c-0.1,0-0.1,0.1-0.2,0.1v0
					c0.1-0.2,0.1-0.4,0.1-0.6l0,0c-0.1,0-0.1,0-0.1,0.1c-0.7,0.4-1.4,1-1.9,1.6c-1,1.1-1.6,2.5-1.7,4c-0.1,1.1-0.1,2.1,0.2,3.1
					c1,4,5.1,6.3,9.1,5.3c0.6-0.2,1.2-0.4,1.7-0.7c0,0,0.1-0.1,0.1-0.1l0,0c0,0.2-0.1,0.4-0.1,0.6v0c0.1,0,0.1,0,0.2-0.1
					c1.2-0.7,2.2-1.8,2.9-3.1C6.5-219.5,6.7-221.4,6.2-223.2 M-3-227c0.4,0.3,0.7,0.5,1,0.7c0.1-0.4,0.2-0.7,0.4-1.1
					c0.2,0.3,0.4,0.6,0.6,0.9c0.3-0.3,0.6-0.6,0.9-0.9c0,0.4,0.1,0.6,0.1,1c0.2-0.2,0.4-0.4,0.5-0.6l0,0c-0.1,0.3-0.2,0.7-0.2,1
					c-1.1-0.3-2.3-0.1-3.4,0.4c-0.2-0.3-0.3-0.6-0.5-1c0.2,0.1,0.5,0.3,0.7,0.4C-2.9-226.4-2.9-226.6-3-227 M-6-219
					c0.1,0.1,0.1,0.1,0.1,0.2s-0.1,0.1-0.1,0.1c0,0-0.1-0.1-0.1-0.1S-6-218.9-6-219 M-7.7-222h1.1c0,0.1,0,0.3,0,0.4
					c0,0.2-0.2,0.3-0.4,0.3c-0.2,0-0.3-0.2-0.3-0.3c0-0.1,0-0.1,0-0.2c-0.1,0-0.2,0-0.3,0V-222z M-7.6-221.1c0.2,0,0.5-0.1,0.7-0.1
					c0,0.1,0,0.3,0.1,0.4c-0.1,0-0.1,0-0.1,0c-0.1-0.4-0.4-0.1-0.6-0.2C-7.6-220.9-7.6-221-7.6-221.1 M-7.5-220.4
					c0.1-0.2,0.3-0.2,0.4-0.2c0.2,0,0.3,0.2,0.3,0.4c0,0.2-0.1,0.3-0.3,0.4c-0.1-0.2-0.1-0.3-0.1-0.5c-0.2,0.1-0.1,0.3,0,0.4
					c0,0-0.1,0.1-0.1,0.1C-7.5-220-7.6-220.2-7.5-220.4 M-7.1-218.8c0.1-0.1,0.2-0.1,0.4-0.2c0.1,0,0.1-0.1,0.1-0.1
					c-0.1,0-0.1-0.1-0.2-0.1c-0.1,0-0.2,0.1-0.4,0.1c0-0.1-0.1-0.1-0.1-0.2c0.1-0.1,0.2-0.1,0.4-0.2c0-0.1,0.1-0.1,0.1-0.2
					c-0.1,0-0.1-0.1-0.2-0.1c-0.1,0.1-0.2,0.1-0.3,0.1c0-0.1-0.1-0.1-0.1-0.2c0.2-0.1,0.4-0.2,0.7-0.3c0.1,0.2,0.1,0.4,0.2,0.6
					c0.1,0.1,0.1,0.2,0.1,0.3c0,0.1-0.1,0.2-0.2,0.2s-0.2,0.1-0.3,0.1C-7-218.7-7-218.8-7.1-218.8 M-6.9-218.5
					c0.2-0.1,0.4-0.2,0.6-0.4c0,0.1,0.1,0.1,0.1,0.2c-0.2,0.1-0.4,0.2-0.6,0.4C-6.8-218.4-6.8-218.4-6.9-218.5 M-6.6-218
					c0-0.2,0.1-0.4,0.3-0.4c0.2,0,0.3,0.1,0.4,0.2c0.1,0.2,0,0.3-0.2,0.5c-0.1-0.1-0.2-0.3-0.3-0.4c-0.1,0.1-0.1,0.2,0.1,0.3
					c0.1,0,0.1,0.1,0.1,0.2C-6.4-217.7-6.6-217.8-6.6-218 M-6.1-217.3c0,0-0.1-0.1-0.1-0.1l0.5-0.5l0.3,0.3c0,0-0.1,0.1-0.1,0.1
					C-5.8-217.8-5.9-217.4-6.1-217.3 M-4.9-216.3l-0.5-0.4c0.2-0.3,0.5-0.6,0.7-0.9c0.1,0.1,0.1,0.1,0.2,0.1
					c-0.2,0.2-0.4,0.5-0.6,0.7c0.1,0.1,0.2,0.2,0.3,0.3C-4.9-216.4-4.9-216.4-4.9-216.3 M-4.3-216.1c0.1,0,0.1,0.1,0.2,0.1
					c-0.2,0.1-0.4,0.1-0.5-0.1c-0.1-0.2-0.1-0.4,0.1-0.5c0.2-0.1,0.4-0.1,0.5,0.1s0.1,0.4,0,0.5c-0.2-0.1-0.3-0.2-0.4-0.3
					C-4.6-216.2-4.5-216.1-4.3-216.1 M-3.8-215.6c-0.1-0.1-0.2-0.2-0.2-0.3c0-0.2,0.1-0.3,0.2-0.4c0.1-0.1,0.3,0,0.4,0.1
					c0.1,0.1,0.2,0.1,0.3,0.1c-0.1,0.2-0.2,0.4-0.3,0.6C-3.5-215.5-3.7-215.5-3.8-215.6 M-2.5-215.1c-0.1,0.3-0.5,0.3-0.7-0.1
					c0-0.1,0.1-0.1,0.1-0.1c0.3,0.2,0.4,0.2,0.5,0h-0.1c-0.2,0-0.3-0.1-0.3-0.2c0-0.2,0-0.4,0.2-0.4c0.1-0.1,0.3-0.1,0.4,0
					c0.1,0.1,0.2,0,0.2,0.1C-2.4-215.6-2.4-215.3-2.5-215.1 M-1.9-215.2c0.1,0.1,0.2,0,0.2-0.1c0-0.1,0.1-0.2,0.1-0.4
					c0.1,0,0.2,0,0.2,0.1l0,0.2c0,0.2-0.2,0.3-0.4,0.3c0,0,0,0,0,0c-0.2,0-0.3-0.2-0.3-0.4c0,0,0,0,0,0c0-0.1,0-0.3,0-0.4
					c0.1,0,0.1,0,0.2,0c0,0.1,0,0.2,0,0.4C-2-215.4-2-215.3-1.9-215.2 M-0.9-215.2c0.1-0.1,0.1,0,0.2,0.1c-0.1,0.2-0.4,0.2-0.5,0.1
					c-0.1-0.1-0.2-0.3-0.1-0.5c0.1-0.2,0.2-0.2,0.4-0.2c0.2,0,0.3,0.2,0.3,0.4h-0.5C-1.1-215.2-1-215.1-0.9-215.2 M2.5-219.5
					c-0.1-0.1-0.2-0.2-0.3-0.4c-0.1,0.5-0.2,1-0.5,1.5c-0.3,0.4-0.6,0.8-1,1.1c-0.1-0.2-0.1-0.4-0.1-0.5c-0.4,0.2-0.8,0.4-1.1,0.5
					c-0.7,0.2-1.4,0.2-2.1-0.1c-0.1,0-0.2-0.2-0.2-0.3v0c0.2-0.7,0.2-1.4,0-2c0,0,0-0.1,0-0.1c0,0,0,0,0-0.1c-0.3,0.5-0.8,1-1.2,1.4
					c-0.3-0.9-0.4-1.8-0.3-2.7c-0.2,0.1-0.5,0.1-0.7,0.2c0.1-0.8,0.4-1.5,0.9-2.2c-0.2,0-0.3-0.1-0.4-0.1c0.3-0.6,0.8-1.1,1.3-1.6
					c-0.2,0.4,0,0.8,0.3,1.1c0-0.1-0.1-0.3-0.1-0.4c0-0.1,0-0.2,0-0.3c0-0.3,0.3-0.5,0.5-0.5c0.1,0,0.1,0,0.2,0
					c0.1,0,0.2,0.1,0.2,0.1c-0.1-0.2-0.3-0.4-0.5-0.5c0,0,0,0,0-0.1c0.3-0.1,0.7-0.2,1-0.3c0.3-0.1,0.6-0.1,0.9-0.1
					c0.3,0,0.6,0.1,0.7,0.3c0.1,0.1,0.1,0.1,0.2,0.2c0,0,0,0,0,0c0-0.1,0-0.2-0.1-0.4c0,0,0.1,0,0.1,0c0.4,0.1,0.7,0.3,1,0.5
					c0,0,0.1,0.1,0.1,0.1c0.1,0.2,0.1,0.5,0.2,0.7c-0.3-0.2-0.7-0.5-1.1-0.7c-0.1,0.2-0.1,0.3-0.1,0.4c-0.3-0.2-0.5-0.3-0.8-0.4
					c-0.1-0.1-0.2-0.1-0.3-0.1c-0.4,0.1-0.8,0.2-1.1,0.5c0.1,0.1,0.1,0.1,0.2,0.1c-0.3,0.1-0.5,0.3-0.7,0.5c0.3-0.1,0.3,0.1,0.4,0.3
					c0.1,0.3,0.4,0.5,0.8,0.5c0.4,0,0.8,0,1.2,0c-0.1-0.1-0.3-0.3-0.4-0.4c-0.1-0.2-0.3-0.2-0.5-0.2c-0.3,0-0.6-0.1-0.8-0.2
					c0.3-0.4,0.6-0.4,1.3-0.1c0.1-0.1,0.2-0.1,0.3-0.2c0,0,0,0,0,0.1c-0.1,0.3-0.1,0.3,0.1,0.5c0.1,0.1,0.3,0.3,0.4,0.4
					c0.2,0,0.3-0.1,0.5-0.1c0.2,0,0.4,0,0.5,0c-0.3-0.3-0.5-0.5-0.8-0.8c0,0,0-0.1,0.1-0.1c0.1,0.1,0.2,0.1,0.3,0.2
					c0.1,0,0.2-0.3,0.4-0.1c0.1,0.1,0.1,0.2,0,0.4c0.1,0.1,0.2,0.2,0.3,0.3c0-0.1,0-0.1,0.1-0.2h0C2.8-222.3,3-220.8,2.5-219.5"/>
				<path id="Path_7457" class="st1" d="M1.9-223.4c0,0.1,0,0.1-0.1,0.2c-0.1-0.1-0.2-0.2-0.3-0.3c0.1-0.1,0.1-0.3,0-0.4
					c-0.2-0.2-0.2,0.1-0.4,0.1C1.1-223.9,1-224,0.9-224c0,0,0,0.1-0.1,0.1c0.3,0.3,0.5,0.5,0.8,0.8c-0.2,0-0.4,0-0.5,0
					c-0.2,0-0.4,0-0.5,0.1c-0.1-0.1-0.3-0.3-0.4-0.4c-0.2-0.2-0.2-0.2-0.1-0.5c0,0,0,0,0-0.1c-0.1,0.1-0.2,0.1-0.3,0.2
					c-0.7-0.4-1-0.3-1.3,0.1c0.2,0.2,0.5,0.3,0.8,0.2c0.2,0,0.4,0,0.5,0.2c0.1,0.1,0.3,0.3,0.4,0.4c-0.4,0-0.8,0-1.2,0
					c-0.3,0-0.6-0.2-0.8-0.5c-0.1-0.2-0.1-0.4-0.4-0.3c0.2-0.2,0.4-0.4,0.7-0.5c-0.1-0.1-0.1-0.1-0.2-0.1c0.3-0.3,0.7-0.4,1.1-0.5
					c0.1,0,0.2,0,0.3,0.1c0.2,0.1,0.5,0.3,0.8,0.4c0.1-0.1,0.1-0.3,0.1-0.4c0.4,0.3,0.7,0.5,1.1,0.7c-0.1-0.2-0.1-0.5-0.2-0.7
					c0-0.1-0.1-0.1-0.1-0.1c-0.3-0.2-0.6-0.4-1-0.5c0,0-0.1,0-0.1,0c0,0.1,0,0.2,0.1,0.4c0,0,0,0,0,0c-0.1-0.1-0.2-0.1-0.2-0.2
					c-0.2-0.2-0.5-0.3-0.7-0.3c-0.3,0-0.6,0.1-0.9,0.1c-0.4,0.1-0.7,0.2-1,0.3c0,0,0,0,0,0.1c0.2,0.1,0.4,0.2,0.5,0.5
					c-0.1,0-0.2-0.1-0.2-0.1c-0.2-0.1-0.5,0-0.7,0.3c0,0.1,0,0.1,0,0.2c0,0.1,0,0.2,0,0.3c0,0.1,0.1,0.3,0.1,0.4
					c-0.3-0.2-0.5-0.7-0.3-1.1c-0.5,0.4-1,0.9-1.3,1.6c0.2,0,0.3,0.1,0.4,0.1c-0.5,0.6-0.8,1.4-0.9,2.2c0.3-0.1,0.5-0.1,0.7-0.2
					c-0.2,0.9-0.1,1.8,0.3,2.7c0.5-0.4,0.9-0.9,1.2-1.4c0,0.1,0,0.1,0,0.1c0,0,0,0.1,0,0.1c0.2,0.7,0.1,1.4,0,2c0,0.1,0,0.2,0.1,0.3
					h0c0.6,0.3,1.4,0.4,2.1,0.1c0.4-0.1,0.8-0.3,1.1-0.5c0,0.1,0.1,0.3,0.1,0.5c0.4-0.3,0.8-0.6,1-1.1c0.3-0.4,0.4-0.9,0.5-1.5
					c0.1,0.1,0.2,0.2,0.3,0.4C3-220.8,2.8-222.2,1.9-223.4L1.9-223.4z M-0.3-221.3c-0.1-0.2-0.2-0.3-0.2-0.5
					c-0.1-0.1-0.1-0.2-0.2-0.3c0.1-0.1,0.2-0.2,0.4-0.3c0.2-0.1,0.4-0.3,0.7-0.3c0.1,0,0.2,0,0.3,0c0.1,0,0.1,0.1,0.2,0.1
					c0.1,0.1,0.2,0.1,0.2,0.2c0,0.1,0,0.1,0,0.2c0,0.1,0,0.2,0,0.3c0,0,0,0.1,0,0.1c-0.3,0.3-0.7,0.5-1,0.6
					C-0.1-221.1-0.2-221.2-0.3-221.3C-0.3-221.3-0.3-221.3-0.3-221.3 M1.6-220.8c0,0.3-0.2,0.6-0.5,0.8c0,0,0,0-0.1,0L1-220.5
					c-0.2,0.1-0.4,0.2-0.6,0.3c-0.1,0.1-0.2,0-0.2-0.1c-0.1-0.1-0.1-0.3-0.2-0.4c0.2-0.1,0.3-0.2,0.5-0.3c0.1-0.1,0.2-0.1,0.3-0.2
					c0.1-0.1,0.3-0.1,0.5,0C1.5-221.1,1.6-221,1.6-220.8C1.6-220.8,1.6-220.8,1.6-220.8 M1.9-221.3c-0.3-0.2-0.4-0.5-0.5-0.9
					c0-0.1,0-0.1,0-0.2c0,0,0-0.1,0.1-0.1c0.1-0.1,0.2-0.1,0.3-0.2C2-222.2,2-221.7,1.9-221.3"/>
				<path id="Path_7458" class="st1" d="M-7-220.7c0.1,0,0.1,0,0.1,0c0-0.1,0-0.3-0.1-0.4c-0.2,0-0.5,0.1-0.7,0.1c0,0.1,0,0.1,0,0.2
					C-7.4-220.8-7.1-221.1-7-220.7"/>
				<path id="Path_7459" class="st1" d="M-6.4-219c0-0.1-0.1-0.2-0.1-0.3c-0.1-0.2-0.2-0.4-0.2-0.6c-0.2,0.1-0.4,0.2-0.7,0.3
					c0,0.1,0.1,0.1,0.1,0.2c0.1,0,0.2-0.1,0.3-0.1c0.1,0,0.1,0,0.2,0.1c0,0.1-0.1,0.1-0.1,0.2c-0.1,0.1-0.2,0.1-0.4,0.2
					c0,0.1,0.1,0.1,0.1,0.2c0.1-0.1,0.2-0.1,0.4-0.1c0.1,0,0.1,0,0.2,0.1c0,0.1-0.1,0.1-0.1,0.1c-0.1,0.1-0.2,0.1-0.4,0.2
					c0,0.1,0.1,0.1,0.1,0.2c0.1-0.1,0.2-0.1,0.3-0.1S-6.3-218.9-6.4-219"/>
				<path id="Path_7460" class="st1" d="M-6.2-218.8c-0.2,0.1-0.4,0.2-0.6,0.4c0,0.1,0.1,0.1,0.1,0.2c0.2-0.1,0.4-0.2,0.6-0.4
					C-6.2-218.7-6.2-218.8-6.2-218.8"/>
				<path id="Path_7461" class="st1" d="M-5.3-217.6l-0.3-0.3l-0.5,0.5c0.1,0.1,0.1,0.1,0.1,0.1c0.2-0.1,0.3-0.4,0.6-0.2
					C-5.4-217.5-5.4-217.6-5.3-217.6"/>
				<path id="Path_7462" class="st1" d="M-2.2-215.8c0,0.1,0,0.3,0,0.4c0,0.2,0.1,0.4,0.3,0.4c0,0,0,0,0,0c0.2,0,0.4-0.1,0.4-0.3
					c0,0,0,0,0,0l0-0.2c0-0.1,0-0.2-0.2-0.1c0,0.1,0,0.2-0.1,0.4c0,0.1-0.1,0.2-0.2,0.1c-0.1,0-0.1-0.1-0.1-0.2c0-0.1,0-0.2,0-0.4
					C-2.1-215.8-2.1-215.8-2.2-215.8"/>
				<path id="Path_7463" class="st1" d="M-4.6-217.4c-0.1-0.1-0.1-0.1-0.2-0.1c-0.2,0.3-0.5,0.6-0.7,0.9l0.5,0.4
					c0.1-0.1,0.1-0.1,0.1-0.1c-0.1-0.1-0.2-0.2-0.3-0.3C-5-217-4.8-217.2-4.6-217.4"/>
				<path id="Path_7464" class="st1" d="M-3-225.4c1-0.6,2.2-0.7,3.4-0.4c0.1-0.4,0.2-0.7,0.2-1l0,0c-0.2,0.2-0.3,0.4-0.5,0.6
					c0-0.3-0.1-0.6-0.1-1c-0.3,0.3-0.6,0.6-0.9,0.9c-0.2-0.3-0.4-0.6-0.6-0.9c-0.1,0.4-0.2,0.7-0.4,1.1c-0.4-0.2-0.7-0.5-1.1-0.7
					c0.1,0.3,0.1,0.6,0.2,1c-0.2-0.1-0.5-0.3-0.7-0.4C-3.3-226.1-3.2-225.8-3-225.4"/>
				<path id="Path_7465" class="st1" d="M-6-218.7c0,0,0.1-0.1,0.1-0.1s-0.1-0.1-0.1-0.2c-0.1,0.1-0.1,0.1-0.1,0.2
					C-6.1-218.8-6-218.8-6-218.7"/>
				<path id="Path_7466" class="st2" d="M1.1-221.9c0-0.1,0-0.2,0-0.3c0-0.1,0-0.1,0-0.2c0-0.1-0.2-0.1-0.2-0.2
					c-0.1,0-0.1-0.1-0.2-0.1c-0.1,0-0.2-0.1-0.3,0c-0.2,0.1-0.5,0.2-0.7,0.3c-0.1,0.1-0.2,0.2-0.4,0.3c0.1,0.1,0.1,0.2,0.2,0.3
					c0.1,0.2,0.2,0.3,0.2,0.5c0,0.1,0.1,0.2,0.2,0.1c0,0,0,0,0,0C0.4-221.3,0.8-221.5,1.1-221.9C1.1-221.8,1.1-221.9,1.1-221.9"/>
				<path id="Path_7467" class="st2" d="M1.4-221.2c-0.1-0.1-0.3,0-0.5,0c-0.1,0.1-0.2,0.1-0.3,0.2c-0.2,0.1-0.3,0.2-0.5,0.3
					c0,0.1,0.1,0.2,0.2,0.4c0.1,0.1,0.1,0.1,0.2,0.1c0.2-0.1,0.4-0.2,0.6-0.3l0.1,0.6c0,0,0,0,0.1,0c0.3-0.2,0.4-0.5,0.5-0.8
					c0,0,0,0,0,0C1.6-221,1.5-221.1,1.4-221.2"/>
				<path id="Path_7468" class="st1" d="M-7.2-220c-0.1-0.1-0.2-0.2,0-0.4c0.1,0.2,0.1,0.3,0.1,0.5c0.3-0.1,0.4-0.2,0.3-0.4
					c0-0.2-0.1-0.3-0.3-0.4c-0.2,0-0.3,0.1-0.4,0.2c-0.1,0.2,0,0.4,0.2,0.5C-7.3-219.9-7.2-219.9-7.2-220 M-7-220.1
					c0-0.1-0.1-0.2-0.1-0.3C-6.9-220.3-6.9-220.2-7-220.1"/>
				<path id="Path_7469" class="st1" d="M-6.3-217.9c-0.1-0.1-0.2-0.2-0.1-0.3c0.1,0.1,0.2,0.3,0.3,0.4c0.2-0.1,0.3-0.3,0.2-0.5
					c-0.1-0.2-0.3-0.3-0.5-0.2c-0.2,0.1-0.2,0.2-0.2,0.4c0,0.2,0.2,0.4,0.4,0.4C-6.2-217.8-6.2-217.8-6.3-217.9 M-6.2-218.3
					c0.1,0,0.1,0.1,0.2,0.1c0,0.1,0,0.1,0,0.2h-0.1C-6.1-218.1-6.2-218.1-6.2-218.3C-6.2-218.2-6.2-218.2-6.2-218.3"/>
				<path id="Path_7470" class="st1" d="M-0.9-215.7c-0.2,0-0.3,0.1-0.4,0.2c-0.1,0.2,0,0.4,0.2,0.5c0.2,0.1,0.4,0,0.5-0.1
					c-0.1-0.1-0.1-0.1-0.2-0.1c-0.1,0.1-0.2,0-0.3-0.1h0.5C-0.7-215.6-0.8-215.7-0.9-215.7 M-1.2-215.5c0.1-0.2,0.2-0.2,0.3,0H-1.2z
					"/>
				<path id="Path_7471" class="st1" d="M-3-215.9c-0.1,0.1-0.2,0.3-0.2,0.4c0,0.1,0.2,0.3,0.3,0.2h0.1c-0.1,0.2-0.2,0.2-0.5,0
					c0,0-0.1,0.1-0.1,0.1c0.2,0.3,0.6,0.3,0.7,0.1c0.1-0.2,0.2-0.5,0.2-0.8c-0.1,0-0.2,0-0.2-0.1C-2.7-216-2.8-216-3-215.9
					 M-2.5-215.6c-0.1,0.1-0.2,0.1-0.2,0.1s-0.2-0.1-0.2-0.1c0,0,0,0,0-0.1c0-0.1,0.1-0.2,0.2-0.2C-2.7-215.8-2.6-215.7-2.5-215.6
					L-2.5-215.6L-2.5-215.6z"/>
				<path id="Path_7472" class="st1" d="M-7.3-221.6c0,0.2,0.2,0.4,0.4,0.3c0.2,0,0.3-0.1,0.3-0.3c0-0.1,0-0.3,0-0.4h-1.1v0.2
					c0.1,0,0.2,0,0.3,0C-7.3-221.7-7.3-221.7-7.3-221.6 M-6.7-221.8c0,0.1-0.1,0.2-0.1,0.3c0,0-0.2,0-0.2,0
					c-0.1-0.1-0.1-0.2-0.1-0.3H-6.7z"/>
				<path id="Path_7473" class="st1" d="M-4.1-216.1c0.1-0.1,0.1-0.4,0-0.5c-0.1-0.1-0.3-0.2-0.5-0.1c-0.2,0.1-0.2,0.4-0.1,0.5
					C-4.5-215.9-4.3-215.9-4.1-216.1c-0.1,0.1-0.2,0-0.3,0c-0.1,0-0.2-0.1-0.2-0.3C-4.4-216.3-4.2-216.2-4.1-216.1 M-4.2-216.3
					c-0.1-0.1-0.2-0.1-0.3-0.2C-4.3-216.6-4.2-216.5-4.2-216.3"/>
				<path id="Path_7474" class="st1" d="M-3.3-216.2c-0.1-0.1-0.2-0.1-0.4-0.1c-0.2,0.1-0.2,0.2-0.2,0.4c0,0.1,0.1,0.3,0.2,0.3
					c0.1,0.1,0.3,0.1,0.4,0.1c0.1-0.2,0.2-0.4,0.3-0.6C-3.2-216.1-3.3-216.1-3.3-216.2 M-3.6-215.7c-0.1,0-0.2-0.1-0.2-0.2
					c0-0.1,0-0.2,0.1-0.2c0,0,0,0,0.1,0c0.1,0,0.2,0.1,0.2,0.1v0.1C-3.4-215.8-3.5-215.7-3.6-215.7"/>
			</g>
		</g>
	</g>
</g>
</svg>
