<?xml version="1.0" encoding="utf-8"?>
<!-- Generator: Adobe Illustrator 27.9.0, SVG Export Plug-In . SVG Version: 6.00 Build 0)  -->
<svg version="1.1" id="Layer_1" xmlns="http://www.w3.org/2000/svg" xmlns:xlink="http://www.w3.org/1999/xlink" x="0px" y="0px"
	 viewBox="0 0 16 16" style="enable-background:new 0 0 16 16;" xml:space="preserve">
<style type="text/css">
	.st0{clip-path:url(#SVGID_00000157298928652924739890000014661281128943196296_);}
	.st1{fill:#FFFFFF;}
	.st2{fill:#EC2427;}
</style>
<g id="Group_7150" transform="translate(2 509.046)">
	<g>
		<g>
			<defs>
				<rect id="SVGID_1_" x="-1.7" y="-506" width="15.6" height="9.9"/>
			</defs>
			<clipPath id="SVGID_00000019655491146234229720000001666004327961492635_">
				<use xlink:href="#SVGID_1_"  style="overflow:visible;"/>
			</clipPath>
			
				<g id="Group_7149" transform="translate(0 0)" style="clip-path:url(#SVGID_00000019655491146234229720000001666004327961492635_);">
				<path id="Path_8594" class="st1" d="M3.4-506l-4,7.8h2.1l1.1-2.2h1.5l1.1-2.1H3.7l0.8-1.5c1.3,0,2.2-1,3-2L3.4-506z"/>
				<path id="Path_8595" class="st2" d="M10.8-499.6L10.8-499.6L8-499.9l0,0l3-0.3l0,0l-3.2-0.3l-1.2,2.3l3.5-0.3l0,0l-2.8-0.2l0,0
					l3-0.3l0,0l-2.8-0.2l0,0L10.8-499.6z"/>
				<path id="Path_8596" class="st2" d="M11.9-501.8L11.9-501.8l-4.3-0.2l0,0l4.6-0.3l0,0l-4.3-0.2l0,0l4.6-0.3l0,0l-4.4-0.2l0,0
					l4.6-0.3l0,0l-4.3-0.2l0,0l4.6-0.3l0,0l-4.4-0.2l0,0l4.6-0.3l0,0L9-504.9l0,0l4.6-0.3l0,0l-4.4-0.2l0,0l4.6-0.3l0,0L9.2-506
					l-2.9,5.6l5.1-0.3l0,0L7-500.9l0,0l4.6-0.3l0,0l-4.3-0.2l0,0L11.9-501.8z"/>
				<path id="Path_8597" class="st1" d="M6-497.4c-0.1,0.1-0.2,0.2-0.4,0.2l-0.2,0.3h0.2l-0.2,0.4H5.3l-0.2,0.3h0.7l0.2-0.3H5.8
					l0.5-1H6z"/>
				<path id="Path_8598" class="st1" d="M4.2-497.3H3.8l-0.6,1.2h0.3L4.2-497.3z"/>
				<path id="Path_8599" class="st1" d="M2.7-496.1c0.2,0,0.4-0.1,0.5-0.3l0.3-0.6H3.2l-0.3,0.6c-0.1,0.1-0.2,0.1-0.1,0
					c0,0,0.3-0.5,0.3-0.5H2.7c0,0-0.2,0.4-0.3,0.5C2.3-496.3,2.5-496.1,2.7-496.1"/>
				<path id="Path_8600" class="st1" d="M-1.7-496.1h0.3l0.2-0.4h0.3l0.2-0.3h-0.3l0.1-0.3c0.2,0,0.3-0.1,0.5-0.3H-1L-1.7-496.1z"/>
				<path id="Path_8601" class="st1" d="M0-497.1c-0.2,0-0.4,0.2-0.5,0.4c-0.1,0.3-0.1,0.6,0.2,0.6c0.2,0,0.5-0.2,0.6-0.5
					C0.3-496.9,0.2-497.1,0-497.1 M-0.3-496.4c-0.1,0,0.1-0.5,0.2-0.4C0-496.8-0.2-496.4-0.3-496.4"/>
				<path id="Path_8602" class="st1" d="M0.6-496.6c0.1-0.1,0.2-0.2,0.3-0.1l0.2-0.3c0,0-0.1-0.2-0.4,0.1l0.1-0.1H0.6l-0.5,0.9h0.3
					L0.6-496.6"/>
				<path id="Path_8603" class="st1" d="M1.8-496.1h0.3c0,0,0.3-0.5,0.3-0.6c0.2-0.3-0.1-0.5-0.4-0.2c0-0.2-0.3-0.1-0.4,0l0.1-0.1
					H1.4l-0.5,0.9h0.3l0.3-0.6c0.1-0.1,0.2-0.1,0.1,0l-0.3,0.6h0.3l0.3-0.6c0.1-0.1,0.2-0.1,0.1,0C2-496.6,1.8-496.1,1.8-496.1"/>
				<path id="Path_8604" class="st1" d="M4.6-496.1l0.5-0.9H4.7l0,0.1c0-0.1-0.1-0.1-0.2-0.1c-0.3,0-0.5,0.2-0.6,0.5
					c-0.1,0.3,0,0.5,0.1,0.5c0.1,0,0.2,0,0.2-0.1l-0.1,0.1L4.6-496.1L4.6-496.1z M4.3-496.4c-0.1,0-0.1-0.1,0-0.2
					c0.1-0.1,0.2-0.2,0.2-0.2C4.6-496.8,4.4-496.4,4.3-496.4"/>
			</g>
		</g>
	</g>
</g>
</svg>
