<svg width="15" height="16" viewBox="0 0 15 16" fill="none" xmlns="http://www.w3.org/2000/svg">
<path d="M7.5 0.968506C3.36757 0.968506 0 4.33607 0 8.46851C0 12.6009 3.36757 15.9686 7.5 15.9686C11.6324 15.9686 15 12.6009 15 8.46851C15 4.33607 11.6324 0.968506 7.5 0.968506ZM7.5 15.2285C3.77464 15.2285 0.752454 12.2062 0.752454 8.48085C0.752454 4.7555 3.77464 1.73331 7.5 1.73331C11.2254 1.73331 14.2475 4.7555 14.2475 8.48085C14.2475 12.2062 11.2254 15.2285 7.5 15.2285ZM8.90628 9.36906C8.98029 9.49241 9.01726 9.65279 9.01726 9.85016C9.01726 10.0722 8.9803 10.2572 8.91863 10.3929C8.85695 10.5286 8.75829 10.6273 8.63493 10.689C8.51157 10.7507 8.36358 10.7876 8.20321 10.7876H6.72285V8.96196H8.20321C8.36358 8.96196 8.51157 8.999 8.63493 9.07301C8.75829 9.14703 8.85696 9.2457 8.93097 9.36906H8.90628ZM7.5 2.20207C4.04603 2.20207 1.23356 5.01453 1.23356 8.46851C1.23356 11.9225 4.04603 14.735 7.5 14.735C10.954 14.735 13.7664 11.9225 13.7664 8.46851C13.7664 5.01453 10.954 2.20207 7.5 2.20207ZM10.1275 11.2564C9.96713 11.5524 9.72046 11.7621 9.39973 11.8855C9.07901 12.0089 8.68416 12.0706 8.21541 12.0706H8.14148V13.3411H7.40137V12.0706H6.66126V13.3411H5.921V12.0829H4.62586V10.7876H5.26733V6.19879H4.62586V4.90357H5.26733H5.90866V3.60835H6.64891V4.90357H7.38902V3.60835H8.12913V4.90357C8.80759 4.90357 9.31331 5.07622 9.63404 5.39695C9.95476 5.71768 10.1275 6.18643 10.1275 6.79088C10.1275 7.0746 10.0905 7.32129 10.0042 7.54333C9.91782 7.76538 9.80676 7.93814 9.65873 8.07383C9.51071 8.20952 9.33809 8.30818 9.12839 8.35753C9.28875 8.39453 9.43677 8.45624 9.5848 8.54259C9.73282 8.62894 9.86845 8.73992 9.97947 8.88795C10.1028 9.03598 10.1892 9.20865 10.2632 9.40602C10.3372 9.61573 10.3619 9.85012 10.3619 10.1092C10.3619 10.5903 10.2755 10.985 10.1151 11.2687L10.1275 11.2564ZM8.10443 7.85172H6.7105V6.18645H8.09209C8.28946 6.18645 8.44985 6.24816 8.58554 6.37151C8.72123 6.49487 8.78295 6.71687 8.78295 7.02526C8.78295 7.27197 8.72124 7.46939 8.59789 7.61742C8.47453 7.76545 8.31414 7.83945 8.10443 7.83945V7.85172Z" fill="white"/>
</svg>
