<?xml version="1.0" encoding="utf-8"?>
<!-- Generator: Adobe Illustrator 27.9.0, SVG Export Plug-In . SVG Version: 6.00 Build 0)  -->
<svg version="1.1" id="Layer_1" xmlns="http://www.w3.org/2000/svg" xmlns:xlink="http://www.w3.org/1999/xlink" x="0px" y="0px"
	 viewBox="0 0 16 16" style="enable-background:new 0 0 16 16;" xml:space="preserve">
<style type="text/css">
	.st0{clip-path:url(#SVGID_00000082338984638467305780000005167106553054377390_);}
	.st1{fill:#FFFFFF;}
	.st2{fill:#ED1B31;}
</style>
<g id="Group_7154" transform="translate(5.078 561.03)">
	<g>
		<g>
			<defs>
				<rect id="SVGID_1_" x="-4.9" y="-559.1" width="15.7" height="12.1"/>
			</defs>
			<clipPath id="SVGID_00000150794570724156635730000015560689729968198027_">
				<use xlink:href="#SVGID_1_"  style="overflow:visible;"/>
			</clipPath>
			<g id="Mask_Group_7153" style="clip-path:url(#SVGID_00000150794570724156635730000015560689729968198027_);">
				<path id="Path_8633" class="st1" d="M10.8-558.3L10.8-558.3C10.8-558.3,10.8-558.3,10.8-558.3c-0.1,0.3-0.1,0.5-0.1,0.7
					c-0.2,0.9-0.4,1.9-0.5,2.8c0,0,0,0.1,0,0.1c0.3,0.1,0.4,0.4,0.4,0.7c0,0.2-0.1,0.4-0.1,0.7c-0.2,1.1-0.4,2.2-0.6,3.2
					c0,0.4-0.4,0.7-0.7,0.6c0,0-0.1,0-0.1,0c0,0-0.1,0-0.1,0c-0.2,0.2-0.5,0.3-0.8,0.3c-3.9,0-7.9,0-11.8,0c0,0-0.1,0-0.1,0
					c-0.2,0-0.3-0.1-0.4-0.2c-0.1-0.2-0.2-0.4-0.1-0.6c0.2-0.8,0.3-1.6,0.5-2.4c0,0,0-0.1,0-0.1h0c-0.3-0.1-0.4-0.4-0.4-0.8
					c0-0.2,0.1-0.4,0.1-0.7c0.2-1.1,0.4-2.2,0.6-3.2c0-0.3,0.3-0.6,0.7-0.6c0,0,0,0,0,0c0-0.1,0-0.2,0-0.3c0.1-0.5,0.5-1,1-1
					c3.9,0,7.8,0,11.8,0c0,0,0.1,0,0.1,0c0.3,0,0.6,0.3,0.6,0.6C10.8-558.4,10.7-558.4,10.8-558.3 M9.9-554.7
					c0.2-1.2,0.5-2.4,0.7-3.6c0-0.1,0-0.2,0-0.3c-0.1-0.2-0.3-0.3-0.5-0.3H-1.8c-0.4,0-0.8,0.3-0.8,0.7c0,0.2-0.1,0.4-0.1,0.5
					c0,0,0,0-0.1,0c-0.3-0.1-0.5,0.1-0.6,0.4c0,0,0,0,0,0c-0.1,0.3-0.1,0.7-0.2,1c-0.2,1-0.4,1.9-0.6,2.8c-0.1,0.3,0.1,0.6,0.3,0.7
					c0,0,0,0,0,0c0.5,0.1,1,0.2,1.5,0.4c0.3,0.1,0.5-0.1,0.6-0.4c0,0,0,0,0,0c0,0,0,0,0,0c0.6,0.1,1.2,0.2,1.8,0.4
					c0.1,0,0.2,0,0.2,0s0.1,0.2,0.1,0.2c0,0.1,0.1,0.2,0.2,0.2l1.3,0.3l2.5,0.6c0.1,0,0.2,0,0.3-0.1c0,0,0.1-0.1,0.1-0.1
					c0,0,0.1,0,0.1,0c0.7,0.2,1.3,0.4,2,0.5c0,0,0.1,0,0.1,0.1c0,0.3,0.1,0.5,0.4,0.6c0.5,0.1,1,0.2,1.6,0.4
					c0.3,0.1,0.5-0.1,0.6-0.4c0-0.1,0.1-0.2,0.1-0.4c0.2-1.2,0.4-2.3,0.7-3.5c0.1-0.2,0-0.4-0.1-0.5
					C10.2-554.6,10.1-554.6,9.9-554.7"/>
				<path id="Path_8635" class="st1" d="M0.4-552.6c0-0.1,0-0.1-0.1-0.1c-0.6-0.2-1.2-0.3-1.8-0.5c0,0-0.1,0-0.1,0
					c0,0.1,0,0.1,0,0.2c0,0,0,0.1,0,0.1c0.5,0.1,1,0.2,1.6,0.3C0.2-552.6,0.3-552.6,0.4-552.6 M5.2-551.5l0.8,0.2
					c0.4,0.1,0.8,0.2,1.2,0.3c0,0,0.1,0,0.1,0c0-0.1,0-0.1,0-0.2c0,0,0-0.1,0-0.1c-0.1,0-0.2,0-0.3,0c-0.5-0.1-1-0.2-1.5-0.3
					C5.2-551.6,5.2-551.6,5.2-551.5"/>
				<path id="Path_8636" class="st2" d="M9.9-554.7c-0.5-0.1-1-0.2-1.5-0.3c-0.3-0.1-0.5,0.1-0.6,0.4c0,0,0,0,0,0.1
					c0,0.2-0.1,0.4-0.1,0.6c0,0,0,0.1-0.1,0c-0.5-0.1-0.9-0.2-1.4-0.4c-0.1,0-0.1,0-0.1-0.1c0-0.1,0.1-0.2,0.1-0.3c0,0,0,0,0.1,0
					c0.1,0,0.2,0,0.3,0.1c0.1,0,0.1,0,0.1-0.1c0-0.1,0-0.2,0.1-0.3c0,0,0-0.1,0-0.1c0,0,0,0,0,0c-0.3-0.1-0.6-0.1-0.9-0.2
					c0,0-0.1,0-0.1,0c0,0,0,0,0,0c0,0.1,0,0.2-0.1,0.3c0,0,0,0.1,0,0.1c0,0,0,0,0,0c0.1,0,0.1,0,0.2,0c0,0,0,0,0,0
					c0,0.1-0.1,0.2-0.1,0.3c0,0,0,0-0.1,0c-0.1,0-0.2-0.1-0.3-0.1c-0.2-0.1-0.4-0.3-0.5-0.5c-0.1-0.3-0.2-0.6-0.2-0.8
					c0-0.1,0-0.2-0.1-0.2l0.7,0.2c0.7,0.2,1.3,0.3,1.9,0.5c0.1,0,0.1,0,0.1,0.1c-0.1,0.3-0.1,0.5-0.2,0.8c0,0,0,0.1,0,0.1
					s0.1,0,0.1-0.1c0.1-0.7,0.3-1.4,0.4-2c0,0,0-0.1,0-0.1c0,0-0.1,0-0.1,0c0,0.1-0.1,0.3-0.1,0.4c0,0,0,0.1-0.1,0
					c-0.8-0.2-1.5-0.4-2.3-0.5c-0.2,0-0.4-0.1-0.6-0.1c-0.1,0-0.1,0-0.1-0.1c0-0.2-0.1-0.4-0.2-0.5c-0.3-0.3-0.8-0.3-1.1,0
					c0,0,0,0-0.1,0.1s0,0-0.1,0.1c-0.1,0.1-0.1,0.1-0.2,0.1c-0.8-0.2-1.7-0.4-2.5-0.6c-0.1,0-0.2,0-0.3-0.1c0,0,0,0,0-0.1
					c0-0.1,0.1-0.3,0.1-0.4c0,0,0-0.1,0-0.1c-0.1,0-0.1,0-0.1,0c-0.1,0.7-0.3,1.3-0.4,2c0,0,0,0,0,0.1c0,0,0,0,0,0.1s0.1,0,0.1,0
					c0.1-0.3,0.1-0.6,0.2-0.8c0,0,0,0,0.1,0c0.9,0.2,1.7,0.4,2.6,0.6c0,0,0,0,0.1,0c-0.1,0.1-0.2,0.2-0.2,0.3
					c-0.1,0.2-0.3,0.4-0.4,0.5c-0.2,0.3-0.5,0.4-0.9,0.3c-0.1,0-0.1,0-0.1,0c0,0-0.1,0,0-0.1c0-0.1,0.1-0.2,0.1-0.3c0,0,0,0,0,0
					c0.1,0,0.1,0,0.2,0c0,0,0.1,0,0.1-0.1c0-0.1,0-0.2,0.1-0.3c0,0,0-0.1,0-0.1h0l-0.9-0.2c0,0-0.1,0-0.1,0.1c0,0.1,0,0.2-0.1,0.3
					c0,0.1,0,0.1,0.1,0.1c0.1,0,0.2,0.1,0.3,0.1c0,0,0.1,0,0,0.1c0,0.1,0,0.2-0.1,0.3c0,0,0,0.1-0.1,0c-0.4-0.1-0.9-0.2-1.4-0.3
					c-0.1,0-0.1,0-0.1-0.1c0-0.2,0.1-0.4,0.1-0.6c0.1-0.3-0.1-0.6-0.4-0.7c0,0,0,0,0,0c-0.5-0.1-1-0.2-1.5-0.3
					c0-0.2,0.1-0.3,0.1-0.5c0.1-0.4,0.4-0.7,0.8-0.7H10c0.2,0,0.4,0.1,0.5,0.3c0.1,0.1,0.1,0.2,0,0.3C10.4-557,10.1-555.8,9.9-554.7
					"/>
				<path id="Path_8637" class="st1" d="M-3.1-548.1c-0.1,0.3-0.1,0.7-0.2,1c0,0,0,0.1,0,0.1c-0.2,0-0.4,0-0.6,0
					c0-0.2,0.1-0.5,0.1-0.7c0.1-0.4,0.1-0.7,0.2-1.1c0,0,0-0.1,0.1-0.1c0.2,0,0.4,0,0.6,0c0,0,0.1,0,0.1,0.1
					c0.1,0.3,0.3,0.6,0.4,0.9c0,0,0,0,0,0.1c0-0.2,0.1-0.3,0.1-0.5c0-0.2,0.1-0.3,0.1-0.5c0,0,0-0.1,0.1-0.1c0.2,0,0.4,0,0.5,0
					c0,0,0,0,0,0.1c-0.1,0.6-0.2,1.2-0.3,1.7c0,0,0,0,0,0c-0.2,0-0.4,0-0.6,0c0,0,0,0-0.1-0.1L-3.1-548.1L-3.1-548.1"/>
				<path id="Path_8638" class="st1" d="M-0.4-548.9c0.2,0,0.4,0,0.6,0c0.1,0,0.2,0,0.2,0c0.2,0.1,0.3,0.3,0.3,0.5
					c0,0.3-0.1,0.6-0.2,0.8c-0.1,0.3-0.4,0.4-0.7,0.5c-0.2,0-0.5,0-0.7,0c-0.2,0-0.5,0-0.7,0c-0.1,0-0.1,0-0.1-0.1
					c0.1-0.6,0.2-1.1,0.3-1.7c0,0,0-0.1,0.1-0.1C-0.9-548.9-0.7-548.9-0.4-548.9 M-0.8-547.5c0.1,0,0.2,0,0.4,0
					c0.3,0,0.5-0.2,0.5-0.5c0,0,0,0,0,0c0-0.3,0-0.4-0.3-0.4c-0.1,0-0.2,0-0.4,0c0,0,0,0-0.1,0C-0.7-548.1-0.8-547.8-0.8-547.5"/>
				<path id="Path_8639" class="st1" d="M9.1-548c0.1,0,0.1,0.2,0.1,0.3c0,0.1,0,0.2-0.1,0.4c0,0.1,0,0.2,0,0.3c-0.2,0-0.5,0-0.7,0
					c0,0,0,0,0,0c0-0.1,0-0.2,0-0.3c0,0,0-0.1,0-0.1c0-0.1,0-0.1-0.1-0.1c-0.1,0-0.3,0-0.4,0c0,0,0,0-0.1,0c0,0.2-0.1,0.3-0.1,0.5
					c0,0,0,0,0,0c-0.2,0-0.4,0-0.6,0c0-0.2,0.1-0.4,0.1-0.5c0.1-0.4,0.2-0.8,0.2-1.2c0,0,0-0.1,0.1-0.1c0.5,0,1,0,1.4,0
					c0,0,0.1,0,0.1,0c0.2,0,0.4,0.2,0.4,0.4c0,0,0,0.1,0,0.2C9.4-548.2,9.2-548,9.1-548 M8-548.1h0.5c0,0,0.1,0,0.1,0
					c0.1,0,0.1-0.1,0.1-0.2c0-0.1-0.1-0.1-0.1-0.1c-0.1,0-0.3,0-0.4,0c0,0,0,0-0.1,0C8-548.3,8-548.2,8-548.1"/>
				<path id="Path_8640" class="st1" d="M5-547.8c-0.1,0.4-0.4,0.7-0.8,0.7c-0.3,0.1-0.7,0.1-1,0c-0.2,0-0.4-0.2-0.5-0.5
					c-0.1-0.6,0.2-1.1,0.8-1.3c0.4-0.1,0.8-0.1,1.1,0c0.3,0.1,0.4,0.4,0.4,0.7c0,0,0,0-0.1,0c-0.2,0-0.4,0-0.7,0c0,0-0.1,0-0.1,0
					c0-0.2-0.1-0.3-0.2-0.3c0,0,0,0,0,0c-0.2,0-0.4,0.1-0.5,0.4c0,0.1-0.1,0.2,0,0.4c0,0.2,0.1,0.3,0.2,0.3c0.2,0,0.4-0.1,0.5-0.3
					c0,0,0,0,0.1,0C4.5-547.8,4.8-547.8,5-547.8"/>
				<path id="Path_8641" class="st1" d="M4.9-547.1l0.3-0.5c0.2-0.4,0.5-0.8,0.7-1.2c0,0,0.1-0.1,0.1-0.1c0.2,0,0.4,0,0.7,0
					c0,0,0.1,0,0.1,0.1c0.1,0.6,0.2,1.2,0.3,1.7c0,0,0,0,0,0c-0.2,0-0.4,0-0.6,0c0,0,0,0-0.1,0c0,0,0-0.1,0-0.2s-0.1,0-0.2,0
					c-0.2,0-0.3,0-0.5,0c0,0-0.1,0-0.1,0c0,0.1-0.1,0.2-0.2,0.2l0,0C5.2-547.1,5-547.1,4.9-547.1 M5.9-547.7c0.1,0,0.2,0,0.3,0
					c0,0,0.1,0,0,0c0-0.2-0.1-0.4-0.1-0.6L5.9-547.7"/>
				<path id="Path_8642" class="st1" d="M3-548.9C3-548.9,3-548.8,3-548.9c-0.3,0.5-0.6,0.9-0.9,1.3c0,0,0,0.1,0,0.1
					c0,0.1,0,0.3-0.1,0.4c0,0,0,0,0,0c-0.2,0-0.4,0-0.6,0c0-0.2,0-0.3,0.1-0.4c0,0,0-0.1,0-0.2c-0.1-0.4-0.3-0.8-0.4-1.2
					c0-0.1,0-0.1,0-0.1c0.2,0,0.4,0,0.6,0c0.1,0,0.1,0,0.1,0.1c0,0.2,0.1,0.4,0.2,0.6l0.1-0.1c0.1-0.2,0.2-0.4,0.4-0.6
					c0,0,0,0,0.1,0C2.5-548.9,2.8-548.9,3-548.9C3-548.9,3-548.9,3-548.9"/>
				<path id="Path_8643" class="st1" d="M-4.9-547.1c0.1-0.6,0.2-1.2,0.3-1.8c0,0,0-0.1,0.1-0.1c0.2,0,0.4,0,0.5,0c0,0,0,0,0,0.1
					c-0.1,0.6-0.2,1.2-0.3,1.7c0,0,0,0-0.1,0C-4.5-547.1-4.7-547.1-4.9-547.1"/>
				<path id="Path_8644" class="st1" d="M9.4-549.3C9.4-549.3,9.4-549.3,9.4-549.3C9.4-549.2,9.4-549.2,9.4-549.3
					C9.4-549.2,9.4-549.2,9.4-549.3C9.4-549.3,9.4-549.3,9.4-549.3c-0.1-0.1-0.1-0.1,0-0.1S9.5-549.4,9.4-549.3
					C9.5-549.3,9.5-549.3,9.4-549.3C9.5-549.3,9.5-549.3,9.4-549.3c0.1-0.1,0.1-0.1,0.2-0.1l0,0c0,0,0,0.1,0,0.1c0,0,0,0,0,0
					C9.5-549.2,9.6-549.3,9.4-549.3C9.5-549.3,9.5-549.2,9.4-549.3C9.4-549.2,9.5-549.3,9.4-549.3"/>
				<path id="Path_8645" class="st1" d="M9.3-549.4L9.3-549.4C9.4-549.4,9.4-549.4,9.3-549.4C9.4-549.4,9.4-549.3,9.3-549.4
					c0,0.1,0,0.1,0,0.1s0,0.1-0.1,0c0,0,0,0,0-0.1S9.3-549.3,9.3-549.4C9.2-549.3,9.2-549.4,9.3-549.4
					C9.3-549.4,9.3-549.4,9.3-549.4L9.3-549.4"/>
				<path id="Path_8646" class="st1" d="M0.4-552.6c-0.1,0-0.2,0-0.4-0.1c-0.5-0.1-1-0.2-1.6-0.3c0,0,0,0,0-0.1c0-0.1,0-0.1,0-0.2
					c0,0,0,0,0.1,0c0.6,0.2,1.2,0.3,1.8,0.5C0.4-552.7,0.4-552.7,0.4-552.6"/>
				<path id="Path_8647" class="st1" d="M5.2-551.5c0-0.1,0.1-0.1,0.2-0.1c0.5,0.1,1,0.2,1.5,0.3c0.1,0,0.2,0,0.3,0c0,0,0.1,0,0,0.1
					c0,0.1,0,0.1,0,0.2c0,0,0,0-0.1,0c-0.4-0.1-0.8-0.2-1.2-0.3L5.2-551.5"/>
				<path id="Path_8648" class="st2" d="M4.2-556.9l-0.8-0.2c0.1-0.2,0.2-0.3,0.5-0.3C4-557.4,4.2-557.2,4.2-556.9"/>
			</g>
		</g>
	</g>
</g>
</svg>
