<?xml version="1.0" encoding="utf-8"?>
<!-- Generator: Adobe Illustrator 27.9.0, SVG Export Plug-In . SVG Version: 6.00 Build 0)  -->
<svg version="1.1" id="Layer_1" xmlns="http://www.w3.org/2000/svg" xmlns:xlink="http://www.w3.org/1999/xlink" x="0px" y="0px"
	 viewBox="0 0 16 16" style="enable-background:new 0 0 16 16;" xml:space="preserve">
<style type="text/css">
	.st0{clip-path:url(#SVGID_00000182487045194250357320000014820575056592424589_);}
	.st1{fill:#822C7C;}
	.st2{fill:#005192;}
	.st3{fill:#0990C9;}
	.st4{fill:#039949;}
	.st5{fill:#FCEE1F;}
	.st6{fill:#E9822A;}
	.st7{fill:#D8262A;}
	.st8{fill:#FFFFFF;}
</style>
<g id="Group_6429" transform="translate(11 301.604)">
	<g>
		<g>
			<defs>
				<rect id="SVGID_1_" x="-8.9" y="-301.6" width="11.5" height="16"/>
			</defs>
			<clipPath id="SVGID_00000054971683227767673730000004582808930007271582_">
				<use xlink:href="#SVGID_1_"  style="overflow:visible;"/>
			</clipPath>
			
				<g id="Group_6428" transform="translate(0 0)" style="clip-path:url(#SVGID_00000054971683227767673730000004582808930007271582_);">
				<path id="Path_7887" class="st1" d="M-7.3-299L-7.3-299l2,1.2l0,0c0,0,0.1,0,0.1,0l0,0l0,0c0.4-0.7,1.1-1.2,1.8-1.3
					c0,0,0.1,0,0-0.1l0,0l-0.4-2.3l0,0c0,0,0-0.1-0.1-0.1h0c-0.7,0.1-1.4,0.4-2,0.9C-6.4-300.3-6.9-299.8-7.3-299L-7.3-299
					C-7.3-299.1-7.3-299.1-7.3-299"/>
				<path id="Path_7888" class="st2" d="M-8.4-294.8C-8.4-294.7-8.4-294.7-8.4-294.8l2.3-0.8l0,0c0,0,0.1,0,0-0.1v0
					c-0.3-0.7-0.2-1.5,0.1-2.2c0,0,0,0,0,0c0,0,0,0,0-0.1l0,0l-2.1-1.1l0,0c0,0-0.1,0-0.1,0l0,0l0,0C-8.9-297.7-9-296.1-8.4-294.8z"
					/>
				<path id="Path_7889" class="st3" d="M-5.7-291.2L-5.7-291.2C-5.7-291.1-5.7-291.2-5.7-291.2C-5.6-291.2-5.6-291.2-5.7-291.2
					l0.8-2.2l0,0c0,0,0-0.1,0-0.1c-0.4-0.1-0.7-0.3-1-0.6c-0.3-0.3-0.5-0.6-0.7-0.9c0,0-0.1,0-0.1,0l0,0l-2.1,0.9l0,0
					c0,0-0.1,0,0,0.1l0,0l0,0C-8.3-292.6-7.2-291.6-5.7-291.2"/>
				<path id="Path_7890" class="st4" d="M-1.1-291C-1.1-291.1-1.1-291.1-1.1-291L-1.1-291L-1.1-291l-1.3-2l0,0c0,0-0.1,0-0.1,0l0,0
					c-0.7,0.4-1.5,0.6-2.2,0.4c0,0,0,0,0,0c0,0-0.1,0-0.1,0v0l-0.6,2.2l0,0c0,0,0,0,0,0c0,0,0,0,0,0h0c0.7,0.2,1.5,0.2,2.2,0.1
					C-2.5-290.3-1.8-290.6-1.1-291L-1.1-291z"/>
				<path id="Path_7891" class="st5" d="M1.8-294.5l-2.3-0.2h0c0,0-0.1,0-0.1,0.1l0,0v0c0,0.4-0.1,0.8-0.3,1.1
					c-0.2,0.3-0.5,0.6-0.8,0.9c0,0,0,0.1,0,0.1l0,0l1.4,1.9l0,0c0,0,0.1,0,0.1,0l0,0c0.6-0.4,1.1-1,1.5-1.6
					C1.5-293,1.8-293.7,1.8-294.5C1.8-294.5,1.8-294.5,1.8-294.5L1.8-294.5L1.8-294.5"/>
				<path id="Path_7892" class="st6" d="M0.9-298.9C0.9-298.9,0.9-298.9,0.9-298.9l-1.7,1.7l0,0c0,0,0,0.1,0,0.1l0,0h0
					c0.3,0.3,0.5,0.6,0.6,0.9c0.2,0.4,0.2,0.8,0.2,1.1c0,0,0,0,0,0c0,0,0,0,0.1,0h0l2.3,0.1l0,0c0,0,0,0,0,0c0,0,0,0,0,0l0,0
					C2.6-296.4,2-297.9,0.9-298.9L0.9-298.9z"/>
				<path id="Path_7893" class="st7" d="M-2.8-298.6L-2.8-298.6C-2.8-298.6-2.8-298.6-2.8-298.6C-2.8-298.6-2.8-298.6-2.8-298.6
					c0.9-0.1,1.7,0.2,2.3,0.7c0,0,0.1,0,0.1,0l0,0l1.5-1.8l0,0c0,0,0,0,0,0c0,0,0,0,0-0.1l0,0c-1.1-1-2.7-1.4-4.2-1.2
					c0,0-0.1,0,0,0.1l0,0L-2.8-298.6z"/>
				<path id="Path_7894" class="st8" d="M-5.2-295.8c0,1,0.8,1.9,1.9,1.9s1.9-0.9,1.9-1.9c0-1-0.8-1.9-1.9-1.9c0,0,0,0,0,0
					C-4.3-297.7-5.2-296.8-5.2-295.8 M-3.7-297.5L-3.7-297.5c-0.1,0-0.1,0.1-0.2,0.2c0.1,0,0.1,0,0.2,0c0.2,0,0.3,0,0.5,0.1l0.1,0.5
					h0l0.1-0.5c0.1-0.1,0.3-0.1,0.5-0.1c0,0,0.1,0,0.2,0c-0.1-0.1-0.1-0.1-0.2-0.2l0,0c0.4,0.1,0.8,0.4,1,0.7l0,0
					c-0.1,0-0.2-0.1-0.2-0.1c0,0,0,0.1,0.1,0.1c0,0.1,0,0.1,0,0.2s0,0.1,0,0.2l-0.5,0.2v0l0.5-0.1c0.1,0.1,0.2,0.2,0.2,0.4
					c0,0,0,0.1,0,0.2c0-0.1,0.1-0.1,0.1-0.2c0,0,0,0,0,0.1l0,0c0,0.4-0.1,0.8-0.4,1.1l0,0c0-0.1,0-0.2,0-0.2c0,0-0.1,0.1-0.1,0.1
					c-0.1,0.1-0.3,0.1-0.4,0.2l-0.4-0.4h0l0.3,0.5l0,0c-0.1,0.1-0.2,0.2-0.3,0.3c0,0-0.1,0.1-0.1,0.1c0.1,0,0.2,0,0.2,0l0,0
					c-0.4,0.1-0.8,0.1-1.2,0l0,0c0.1,0,0.2,0,0.2,0c0,0-0.1,0-0.1-0.1c-0.1-0.1-0.2-0.2-0.3-0.3l0,0l0.3-0.5h0l-0.4,0.4
					c-0.1,0-0.3-0.1-0.4-0.2c0,0-0.1-0.1-0.1-0.1c0,0.1,0,0.2,0.1,0.2l0,0c0,0-0.1-0.1-0.1-0.1l0,0c0,0,0,0,0-0.1s0,0,0-0.1
					s0,0,0-0.1s0,0,0-0.1l0,0c0,0,0-0.1,0-0.1s0,0,0,0s0-0.1,0-0.1s0,0,0,0c0,0,0-0.1,0-0.1c0,0,0,0,0,0c0,0,0-0.1,0-0.1
					c0,0,0,0,0,0s0,0,0-0.1s0,0,0-0.1c0,0.1,0.1,0.2,0.1,0.2c0,0,0-0.1,0-0.2c0.1-0.1,0.1-0.3,0.2-0.4l0.5,0.1l0,0l-0.5-0.2
					c0,0,0-0.1,0-0.1c0-0.1,0-0.2,0.1-0.3c0,0,0-0.1,0.1-0.1c-0.1,0-0.2,0.1-0.2,0.1l0,0C-4.5-297.1-4.1-297.4-3.7-297.5"/>
				<path id="Path_7895" class="st8" d="M-3.3-296.6l-0.8,0.6l0.3,0.9h1l0.3-0.9L-3.3-296.6z"/>
				<path id="Path_7897" class="st8" d="M-0.5-288.2c-0.2-0.2-0.4-0.3-0.6-0.3c-0.5,0-0.9,0.5-0.9,1c0,0,0,0,0,0l0,0
					c0,0.5,0.3,1,0.8,1c0,0,0,0,0,0c0.2,0,0.4-0.1,0.6-0.2c0,0,0,0.1,0,0.1c0,0.2-0.2,0.3-0.4,0.3c-0.1,0-0.3,0-0.3-0.2H-2
					c0.1,0.5,0.5,0.8,1,0.7c0.5,0,1-0.3,1-0.9c0,0,0-0.1,0-0.1v-1.8h-0.6L-0.5-288.2z M-0.5-287.4c0,0.3-0.2,0.5-0.5,0.5h0
					c-0.2,0-0.4-0.2-0.4-0.5c0,0,0,0,0,0c0-0.2,0.2-0.5,0.4-0.5l0,0c0,0,0,0,0.1,0C-0.7-287.9-0.5-287.6-0.5-287.4L-0.5-287.4"/>
				<path id="Path_7898" class="st8" d="M1.9-288.2c-0.2-0.2-0.4-0.2-0.6-0.2c-0.6,0-1,0.5-1,1.1l0,0c-0.1,0.5,0.3,1,0.9,1
					c0,0,0.1,0,0.1,0c0.2,0,0.5-0.1,0.6-0.2v0.2h0.6v-2H1.9V-288.2z M2-287.3c0,0.3-0.2,0.5-0.5,0.5c-0.3,0-0.5-0.2-0.5-0.5
					c0-0.3,0.2-0.5,0.5-0.5h0C1.8-287.9,2-287.6,2-287.3L2-287.3"/>
				<path id="Path_7899" class="st8" d="M-2.6-289.3c-0.2,0-0.4,0.2-0.4,0.4l0,0v0c0,0.2,0.2,0.4,0.4,0.4l0,0c0.2,0,0.4-0.2,0.4-0.4
					C-2.3-289.1-2.4-289.3-2.6-289.3"/>
				<path id="Path_7900" class="st8" d="M-4-288.9h-0.7v2.6h1.5v-0.6H-4V-288.9z"/>
				<path id="Path_7901" class="st8" d="M-5.7-288.2c-0.2-0.2-0.4-0.2-0.6-0.2c-0.6,0-1,0.5-1,1.1l0,0c-0.1,0.5,0.3,1,0.8,1
					c0,0,0.1,0,0.1,0c0.2,0,0.5-0.1,0.6-0.2v0.2h0.6v-2h-0.6V-288.2z M-5.7-287.3c0,0.3-0.2,0.5-0.5,0.5c-0.3,0-0.5-0.2-0.5-0.5
					c0-0.3,0.2-0.5,0.5-0.5h0C-5.9-287.9-5.7-287.6-5.7-287.3L-5.7-287.3"/>
				<rect id="Rectangle_4895" x="-2.9" y="-288.4" class="st8" width="0.6" height="2"/>
				<path id="Path_7902" class="st8" d="M-8.2-288.9h-0.7v2.6h1.5v-0.6h-0.8L-8.2-288.9L-8.2-288.9z"/>
			</g>
		</g>
	</g>
</g>
</svg>
