<?xml version="1.0" encoding="utf-8"?>
<!-- Generator: Adobe Illustrator 27.9.0, SVG Export Plug-In . SVG Version: 6.00 Build 0)  -->
<svg version="1.1" id="Layer_1" xmlns="http://www.w3.org/2000/svg" xmlns:xlink="http://www.w3.org/1999/xlink" x="0px" y="0px"
	 viewBox="0 0 16 16" style="enable-background:new 0 0 16 16;" xml:space="preserve">
<style type="text/css">
	.st0{clip-path:url(#SVGID_00000029727901229049641570000016514767654472596361_);}
	.st1{fill:#0A1D3D;}
	.st2{fill:#CCDB2A;}
	.st3{fill:#FFFFFF;}
</style>
<g id="Group_6427" transform="translate(9 277.604)">
	<g>
		<g>
			<defs>
				<rect id="SVGID_1_" x="-8.9" y="-277.6" width="15.8" height="16"/>
			</defs>
			<clipPath id="SVGID_00000103958608164759367810000009818151549777697200_">
				<use xlink:href="#SVGID_1_"  style="overflow:visible;"/>
			</clipPath>
			
				<g id="Group_6426" transform="translate(0 0)" style="clip-path:url(#SVGID_00000103958608164759367810000009818151549777697200_);">
				<path id="Path_7884" class="st1" d="M-8.9-261.6H6.9v-16H-8.9V-261.6z M4.6-271.3c-0.8,1.7-1.8,3.3-2.9,4.7
					c-1.7,0.2-3.4,0.2-5.1,0l1.2-1.9c0.9,0.1,1.9,0,2.8,0c0.7-0.9,1.3-1.9,1.8-2.9c-0.4-0.8-0.9-1.5-1.4-2.2l1.2-1.9
					C3.1-274.1,3.9-272.8,4.6-271.3 M3-263.8l-0.1-0.4l0.6-0.4h0.2v1.7H3.4v-1.2L3-263.8z M-2.4-263.1c0.1,0,0.2,0,0.3-0.1v-0.4
					l0.4,0v0.7c-0.2,0.1-0.4,0.2-0.7,0.2c-0.5,0-0.9-0.3-1-0.8c0-0.5,0.3-0.9,0.8-1c0.1,0,0.1,0,0.2,0c0.2,0,0.4,0,0.6,0.1l-0.1,0.4
					c-0.2-0.1-0.3-0.1-0.5-0.1c-0.3,0-0.5,0.2-0.5,0.4c0,0,0,0,0,0.1C-3-263.4-2.7-263.1-2.4-263.1C-2.4-263.1-2.4-263.1-2.4-263.1z
					 M-2.5-271.6c0-0.8,0.7-1.5,1.5-1.5s1.5,0.7,1.5,1.5c0,0.8-0.7,1.5-1.5,1.5C-1.8-270.1-2.5-270.8-2.5-271.6 M-3.7-276.7
					c1.7-0.2,3.4-0.2,5.1,0l-1.2,1.9c-0.9-0.1-1.9,0-2.8,0c-0.7,0.9-1.3,1.9-1.8,2.9c0.4,0.8,0.9,1.5,1.4,2.3l-1.2,1.9
					c-1-1.3-1.8-2.6-2.5-4.1C-5.8-273.7-4.8-275.3-3.7-276.7z M-3.8-262.8h-0.4v-1.7h0.4C-3.8-264.5-3.8-262.8-3.8-262.8z
					 M-4.6-263.1v0.4h-1.2v-1.7h0.4v1.4L-4.6-263.1z M-1.4-263.5v-1h0.4v1c0,0.2,0.2,0.4,0.4,0.4c0.2,0,0.3-0.2,0.4-0.4v-1h0.4v1
					c0,0.4-0.3,0.8-0.7,0.8c0,0-0.1,0-0.1,0c-0.4,0-0.8-0.2-0.8-0.6C-1.4-263.5-1.4-263.5-1.4-263.5 M0.7-264.5H2v0.4H1.2v0.3h0.7
					v0.3H1.2v0.4H2v0.4H0.7V-264.5L0.7-264.5z"/>
				<path id="Path_7885" class="st2" d="M2.3-271.3c-0.5,1-1.1,2-1.8,2.9c-0.9,0.1-1.9,0.1-2.8,0l-1.2,1.9c1.7,0.2,3.4,0.2,5.1,0
					c1.2-1.4,2.2-3,2.9-4.7c-0.7-1.5-1.5-2.9-2.5-4.1L1-273.6C1.5-272.8,1.9-272.1,2.3-271.3 M-3-269.7c-0.5-0.7-1-1.5-1.4-2.3
					c0.5-1,1.1-2,1.8-2.9c0.9-0.1,1.9-0.1,2.8,0l1.2-1.9c-1.7-0.2-3.4-0.2-5.1,0c-1.2,1.4-2.2,3-2.9,4.7c0.7,1.5,1.5,2.9,2.5,4.1
					L-3-269.7z"/>
				<path id="Path_7886" class="st3" d="M-1-270.1c0.8,0,1.5-0.7,1.5-1.5s-0.7-1.5-1.5-1.5s-1.5,0.7-1.5,1.5l0,0
					C-2.5-270.8-1.8-270.1-1-270.1"/>
			</g>
		</g>
	</g>
</g>
</svg>
