<?xml version="1.0" encoding="utf-8"?>
<!-- Generator: Adobe Illustrator 27.9.0, SVG Export Plug-In . SVG Version: 6.00 Build 0)  -->
<svg version="1.1" id="Layer_1" xmlns="http://www.w3.org/2000/svg" xmlns:xlink="http://www.w3.org/1999/xlink" x="0px" y="0px"
	 viewBox="0 0 16 16" style="enable-background:new 0 0 16 16;" xml:space="preserve">
<style type="text/css">
	.st0{fill-rule:evenodd;clip-rule:evenodd;fill:#FFFFFF;}
	.st1{fill-rule:evenodd;clip-rule:evenodd;fill:#2B568C;}
	.st2{fill-rule:evenodd;clip-rule:evenodd;fill:#C82F55;}
	.st3{fill:#FFFFFF;}
</style>
<g>
	<path class="st0" d="M0.9,1.5h14.2v7.4H0.9V1.5z"/>
	<path class="st1" d="M6.6,9H1.1C0.7,9,0.4,8.7,0.4,8.3V2.1c0-0.4,0.3-0.7,0.7-0.7h8.5l2.7,3.4l-0.1,0.4c0,0-0.3-0.2-0.6-0.2
		c-0.2,0-1.1,0-1.4,0c-0.1,0-0.2-0.1-0.2-0.1l0-0.4h0.1C10,3.4,9.8,2.2,8,2.1c-0.8,0-1.6,0.4-1.6,1.4l-1,0.7h1.2l0.1,0.1L6.5,4.9
		L6.4,5.1c0,0.1,0.1,0.2,0.1,0.2h0.4c0.1,0,0.1,0.4,0,0.4c0,0-0.2,0-0.5,0.4C6.1,6.4,6,6.6,6,6.6C5.5,7.7,5.7,8.4,5.7,8.4h0.6L6.6,9
		L6.6,9z"/>
	<path class="st0" d="M2.1,7.8c0.4,0,0.6-0.3,0.6-0.6c0-0.4-0.3-0.6-0.6-0.6c-0.3,0-0.6,0.2-0.6,0.6C1.5,7.5,1.7,7.8,2.1,7.8z"/>
	<path class="st2" d="M12.9,4.9c0,0,0.2,0,0.2,0c0,0,0.1,0.2,0.2,0.3c0,0-0.1,0.2-0.1,0.2h0.2c0,0,0.1,0.2,0.1,0.2
		c0,0.1,0,0.2,0,0.2s0.1,0,0.2,0c0,0,0.1,0.1,0.1,0.2c0,0-0.1,0.2-0.1,0.2c0.1,0.1,0.6,0.2,0.8,0.5c0.1,0.1,0.1,0.2,0.2,0.4
		c0,0.1,0.2,0.2,0.2,0.4s0,0.2-0.1,0.5c-0.1,0.1-0.2,0.3-0.2,0.3c-0.1,0.2-0.3,0.2-0.3,0.2h-1.4V9h1.9c0.4,0,0.7-0.3,0.7-0.7V2.1
		c0-0.4-0.3-0.7-0.7-0.7h-3.9L12.9,4.9L12.9,4.9z"/>
</g>
<g>
	<g>
		<polygon class="st3" points="3.2,13.7 2,10 0.5,10 0.5,15.1 1.6,15.1 1.6,13.6 1.5,11.2 2.8,15.1 3.5,15.1 4.9,11.2 4.8,13.6 
			4.8,15.1 5.8,15.1 5.8,10 4.5,10 		"/>
		<polygon class="st3" points="7.7,9.9 6.3,9.9 6.3,10 6.3,15.1 10.6,15.1 10.6,14.2 7.7,14.2 		"/>
		<path class="st3" d="M15.2,12.9c-0.2-0.2-0.5-0.3-0.8-0.4c0.3,0,0.5-0.2,0.7-0.4c0.2-0.2,0.2-0.4,0.2-0.7c0-0.5-0.2-0.9-0.6-1.1
			c-0.5-0.3-1.1-0.4-1.6-0.4H11v5.1h2.3c0.6,0,1.1-0.1,1.6-0.4c0.4-0.3,0.6-0.7,0.6-1.2C15.5,13.3,15.4,13.1,15.2,12.9z M12.1,10.8
			L12.1,10.8h1c0.3,0,0.5,0,0.8,0.2c0.1,0.1,0.2,0.3,0.2,0.5c0,0.4-0.3,0.7-1,0.7h-1V10.8z M14,14.1c-0.2,0.1-0.5,0.2-0.7,0.2h-1.1
			V13h1.2c0.6,0,0.9,0.3,0.9,0.7C14.2,13.8,14.1,14,14,14.1z"/>
	</g>
</g>
</svg>
