<?xml version="1.0" encoding="utf-8"?>
<!-- Generator: Adobe Illustrator 27.9.0, SVG Export Plug-In . SVG Version: 6.00 Build 0)  -->
<svg version="1.1" id="Layer_1" xmlns="http://www.w3.org/2000/svg" xmlns:xlink="http://www.w3.org/1999/xlink" x="0px" y="0px"
	 viewBox="0 0 16 16" style="enable-background:new 0 0 16 16;" xml:space="preserve">
<style type="text/css">
	.st0{clip-path:url(#SVGID_00000122712657529221713340000003854450697830632893_);}
	.st1{fill:#FFFFFF;}
	.st2{clip-path:url(#SVGID_00000098933477889264647690000000335712995441003653_);}
	.st3{fill:url(#Rectangle_4900_00000097490684040082882760000003260456393940093091_);}
	.st4{clip-path:url(#SVGID_00000063617903547716062680000000865681341985162940_);}
	.st5{fill:#1F2A57;}
	.st6{clip-path:url(#SVGID_00000145030244733573971360000005276778625341918099_);}
	.st7{fill:url(#Rectangle_4902_00000090296311752887466520000000490758715213875337_);}
	.st8{clip-path:url(#SVGID_00000098902850027937500840000005040867916507323015_);}
	.st9{clip-path:url(#SVGID_00000141430367771035401110000006349350441558134947_);}
	.st10{fill:url(#Rectangle_4904_00000135673053508353994190000013058051124388809638_);}
	.st11{clip-path:url(#SVGID_00000088829942093891056200000000779451693816061610_);}
	.st12{fill:url(#Rectangle_4905_00000133494182312487367790000009847284694885087645_);}
</style>
<g id="Group_6446" transform="translate(10 349.836)">
	<g id="Group_6433" transform="translate(0 0)">
		<g>
			<g>
				<defs>
					<rect id="SVGID_1_" x="-9.5" y="-349.6" width="14.9" height="15.8"/>
				</defs>
				<clipPath id="SVGID_00000162322721385838205080000004529422483017706401_">
					<use xlink:href="#SVGID_1_"  style="overflow:visible;"/>
				</clipPath>
				<g id="Group_6432" style="clip-path:url(#SVGID_00000162322721385838205080000004529422483017706401_);">
					<path id="Path_7914" class="st1" d="M5.5-348.7v-0.9H-9.4v6.1c0,2,0.6,4,1.8,5.7l-1.8,1.9l1.3,1.3l1.7-1.7
						c0.4,0.4,0.9,0.8,1.3,1.1c0.9,0.6,1.8,1.1,2.9,1.4l0.3,0.1l0.3-0.1c2-0.6,3.8-1.9,5.1-3.6c1.3-1.7,2-3.9,2-6V-348.7 M4.3-340.5
						c-0.3,1-0.8,1.8-1.4,2.6c-0.6,0.8-1.3,1.5-2.1,2c-0.8,0.6-1.7,1-2.7,1.3l-0.1,0l-0.1,0c-1.7-0.5-3.2-1.5-4.4-2.8l-1.7,1.8
						l-0.4-0.4l1.8-1.8l-0.1-0.1c-1.2-1.6-1.9-3.6-1.9-5.7v-5.5H4.8v5.5C4.8-342.5,4.7-341.4,4.3-340.5"/>
					<path id="Path_7915" class="st1" d="M3.8-348.4h-12v4.9c0,1.9,0.6,3.8,1.8,5.3l0,0L3.8-348.4z M-5.8-339.3l-0.2-0.2l0,0
						L-5.8-339.3l-0.1,0.1l-0.3-0.1l0,0l0.2,0.2l-0.1,0l-0.3-0.3l0.1-0.1l0.3,0.1l-0.1-0.3l0.1-0.1L-5.8-339.3L-5.8-339.3z
						 M-3.4-343l-0.4-0.3l-0.4,0.3l0.2-0.5l-0.4-0.3H-4l0.2-0.5l0.2,0.5h0.5l-0.4,0.3L-3.4-343z M-2.7-345.5l0.3-0.3c0,0,0,0,0,0
						l0,0c0.2,0.2,0.4,0.3,0.7,0.3c0.3,0,0.4-0.1,0.4-0.3c0-0.2-0.1-0.2-0.4-0.3l-0.1,0c-0.5-0.1-0.8-0.3-0.8-0.8
						c0-0.5,0.4-0.8,0.8-0.8c0,0,0.1,0,0.1,0c0.3,0,0.6,0.1,0.9,0.3c0,0,0,0,0,0.1l-0.2,0.4c0,0,0,0-0.1,0c-0.2-0.1-0.4-0.2-0.6-0.2
						c-0.2,0-0.4,0.1-0.4,0.3s0.1,0.2,0.4,0.3l0.1,0c0.6,0.1,0.8,0.3,0.8,0.8c0,0.5-0.4,0.8-1,0.8C-2.1-345-2.4-345.2-2.7-345.5
						C-2.7-345.4-2.7-345.5-2.7-345.5 M-4.7-347.7C-4.7-347.7-4.7-347.8-4.7-347.7C-4.7-347.8-4.7-347.8-4.7-347.7l0.5,0
						c0,0,0,0,0,0l0,0v2.1c0,0,0,0,0,0c0,0,0,0,0,0h1.2c0,0,0,0,0,0l0,0v0.4c0,0,0,0,0,0c0,0,0,0,0,0h-1.7c0,0,0,0,0,0c0,0,0,0,0,0
						L-4.7-347.7L-4.7-347.7z M-4.9-342.2h0.5l-0.4,0.3l0.2,0.5l-0.4-0.3l-0.4,0.3l0.2-0.5l-0.4-0.3h0.5l0.2-0.5L-4.9-342.2z
						 M-7-345.1C-7-345.1-7.1-345.1-7-345.1L-7-345.1l-0.5,0c0,0,0,0,0,0c0,0,0,0,0,0v-2.6c0,0,0,0,0,0l0,0H-7c0,0,0.1,0,0.1,0
						l0.7,1.5h0l0.7-1.5c0,0,0,0,0.1,0h0.5c0,0,0,0,0,0c0,0,0,0,0,0v2.6c0,0,0,0,0,0c0,0,0,0,0,0h-0.4c0,0,0,0,0,0l0,0v-1.5h0
						l-0.5,1.1c0,0,0,0-0.1,0h-0.3c0,0-0.1,0-0.1,0l-0.5-1.1h0L-7-345.1L-7-345.1z M-7-343.8h0.5l0.2-0.5l0.2,0.5h0.5l-0.4,0.3
						l0.2,0.5l-0.4-0.3l-0.5,0.3l0.2-0.5L-7-343.8z M-6.5-339.1L-6.5-339.1l-0.1,0l0.2-0.2l0,0L-6.5-339.1l0.3,0.2l-0.1,0
						L-6.5-339.1z"/>
				</g>
			</g>
		</g>
	</g>
	<g id="Group_6435" transform="translate(1.3 1.206)">
		<g>
			<g>
				<defs>
					<path id="SVGID_00000169551062242193713170000006651357272273104062_" d="M-7.9-340.2l0.2-0.2l0,0l-0.1,0.1l0.2,0.2l-0.1,0
						l-0.2-0.2L-7.9-340.2L-7.9-340.2z M-7.4-340.7L-7.4-340.7l0.3,0.2l-0.1,0L-7.4-340.7L-7.4-340.7l0.2,0.3l0,0l-0.3-0.1l0,0
						l0.2,0.2l-0.1,0l-0.3-0.3l0.1-0.1l0.3,0.1L-7.4-340.7z M-6.6-343l-0.4-0.3h0.5l0.2-0.5l0.2,0.5h0.5l-0.4,0.3l0.2,0.5l-0.4-0.3
						l-0.4,0.3L-6.6-343z M-7.9-344.7l-0.4-0.3h0.5l0.2-0.5l0.2,0.5h0.5l-0.4,0.3l0.2,0.5l-0.4-0.3l-0.4,0.3L-7.9-344.7z
						 M-5.4-344.7l-0.4-0.3h0.5l0.2-0.5l0.2,0.5h0.5l-0.4,0.3l0.2,0.5l-0.4-0.3l-0.4,0.3L-5.4-344.7z M-7.6-347.4l0.7-1.5
						c0,0,0,0,0.1,0h0.5c0,0,0,0,0,0c0,0,0,0,0,0v2.6c0,0,0,0,0,0l0,0h-0.4c0,0,0,0,0,0c0,0,0,0,0,0v-1.5h0l-0.5,1.1c0,0,0,0-0.1,0
						h-0.3c0,0-0.1,0-0.1,0l-0.5-1.1h0v1.5c0,0,0,0,0,0c0,0,0,0,0,0h-0.4c0,0,0,0,0,0v0v-2.6c0,0,0,0,0,0c0,0,0,0,0,0h0.5
						c0,0,0.1,0,0.1,0L-7.6-347.4L-7.6-347.4z M-6-346.3v-2.6c0,0,0,0,0,0c0,0,0,0,0,0h0.5c0,0,0,0,0,0c0,0,0,0,0,0v2.1c0,0,0,0,0,0
						c0,0,0,0,0,0h1.2c0,0,0,0,0,0l0,0v0.4c0,0,0,0,0,0c0,0,0,0,0,0L-6-346.3C-6-346.3-6-346.3-6-346.3L-6-346.3 M-2.5-347.1
						c0-0.2-0.1-0.2-0.4-0.3l-0.1,0c-0.5-0.1-0.8-0.3-0.8-0.8c0-0.5,0.4-0.8,0.8-0.8c0,0,0.1,0,0.1,0c0.3,0,0.6,0.1,0.9,0.3
						c0,0,0,0,0,0.1l-0.2,0.4c0,0,0,0-0.1,0c-0.2-0.1-0.4-0.2-0.6-0.2c-0.2,0-0.4,0.1-0.4,0.3s0.1,0.2,0.4,0.3l0.1,0
						c0.5,0.1,0.8,0.3,0.8,0.8s-0.4,0.8-1,0.8c-0.4,0-0.7-0.1-1-0.4c0,0,0,0,0-0.1l0.3-0.3c0,0,0,0,0.1,0l0,0
						c0.2,0.2,0.4,0.3,0.7,0.3C-2.7-346.7-2.5-346.9-2.5-347.1 M-9.5-349.6c0,1.1,0,4.9,0,4.9c0,1.9,0.6,3.8,1.8,5.3l0,0l10.2-10.2
						H-9.5z"/>
				</defs>
				<clipPath id="SVGID_00000090281513756844176780000017711517768659675053_">
					<use xlink:href="#SVGID_00000169551062242193713170000006651357272273104062_"  style="overflow:visible;"/>
				</clipPath>
				<g id="Group_6434" style="clip-path:url(#SVGID_00000090281513756844176780000017711517768659675053_);">
					
						<linearGradient id="Rectangle_4900_00000121249736860674372270000016105819861386102187_" gradientUnits="userSpaceOnUse" x1="-1167.282" y1="200.2877" x2="-1167.1599" y2="200.2877" gradientTransform="matrix(11.975 0 0 10.189 13967.4355 -2385.2161)">
						<stop  offset="0" style="stop-color:#E22E28"/>
						<stop  offset="0.159" style="stop-color:#DB2D27"/>
						<stop  offset="0.404" style="stop-color:#C52A2A"/>
						<stop  offset="0.702" style="stop-color:#A3262C"/>
						<stop  offset="1" style="stop-color:#7A2430"/>
					</linearGradient>
					
						<rect id="Rectangle_4900" x="-9.5" y="-349.6" style="fill:url(#Rectangle_4900_00000121249736860674372270000016105819861386102187_);" width="12" height="10.2"/>
				</g>
			</g>
		</g>
	</g>
	<g id="Group_6437" transform="translate(0 0)">
		<g>
			<g>
				<defs>
					<rect id="SVGID_00000153666063817758295920000015389174753665106613_" x="-9.5" y="-349.6" width="14.9" height="15.8"/>
				</defs>
				<clipPath id="SVGID_00000026124165441097457220000003374285458223685524_">
					<use xlink:href="#SVGID_00000153666063817758295920000015389174753665106613_"  style="overflow:visible;"/>
				</clipPath>
				<g id="Group_6436" style="clip-path:url(#SVGID_00000026124165441097457220000003374285458223685524_);">
					<path id="Path_7917" class="st1" d="M-6-337.7c0.5,0.5,1,1,1.6,1.4c0.7,0.5,1.6,0.9,2.4,1.2c0.9-0.3,1.7-0.7,2.4-1.2
						c0.8-0.5,1.4-1.2,2-1.9c1.2-1.5,1.8-3.4,1.8-5.3v-4.4L-6-337.7z"/>
					<path id="Path_7918" class="st5" d="M-6.1-339.5l0.1,0.3l-0.3-0.1l-0.1,0.1l0.3,0.3l0.1,0l-0.2-0.2l0,0l0.3,0.1l0,0L-6.1-339.5
						L-6.1-339.5l0.3,0.2l0.1,0L-6.1-339.5L-6.1-339.5z"/>
					<path id="Path_7919" class="st5" d="M-6.2-338.9l-0.2-0.2l0.1-0.1l0,0l-0.2,0.2l0,0l0.1-0.1L-6.2-338.9L-6.2-338.9z"/>
					<path id="Path_7920" class="st1" d="M-3.6-343.8l-0.2-0.5l-0.2,0.5h-0.5l0.4,0.3l-0.2,0.5l0.4-0.3l0.4,0.3l-0.2-0.5l0.4-0.3
						L-3.6-343.8L-3.6-343.8z"/>
					<path id="Path_7921" class="st1" d="M-6.3-343.3l0.4,0.3l-0.2-0.5l0.4-0.3h-0.5l-0.2-0.5l-0.2,0.5H-7l0.4,0.3l-0.1,0.5
						L-6.3-343.3z"/>
					<path id="Path_7922" class="st1" d="M-5.8-342.2l0.4,0.3l-0.2,0.5l0.4-0.3l0.4,0.3l-0.2-0.5l0.4-0.3h-0.5l-0.2-0.5l-0.2,0.5
						H-5.8z"/>
					<path id="Path_7923" class="st1" d="M-6.5-345.5C-6.5-345.5-6.5-345.5-6.5-345.5l0.3,0c0,0,0.1,0,0.1,0l0.5-1.1h0v1.5
						c0,0,0,0,0,0h0.4c0,0,0,0,0,0c0,0,0,0,0,0v-2.6c0,0,0,0,0,0l0,0h-0.4c0,0-0.1,0-0.1,0l-0.7,1.5h0l-0.7-1.5c0,0,0,0-0.1,0h-0.5
						c0,0,0,0,0,0l0,0v2.6c0,0,0,0,0,0c0,0,0,0,0,0h0.4c0,0,0,0,0,0c0,0,0,0,0,0v-1.5h0L-6.5-345.5z"/>
					<path id="Path_7924" class="st1" d="M-4.7-345.1h1.7c0,0,0,0,0,0c0,0,0,0,0,0v-0.4c0,0,0,0,0,0l0,0h-1.2c0,0,0,0,0,0l0,0v-2.1
						c0,0,0,0,0,0l0,0h-0.5c0,0,0,0,0,0l0,0L-4.7-345.1C-4.7-345.1-4.7-345.1-4.7-345.1L-4.7-345.1"/>
					<path id="Path_7925" class="st1" d="M-1.7-345c0.7,0,1-0.4,1-0.8s-0.3-0.7-0.8-0.8l-0.1,0c-0.3,0-0.4-0.1-0.4-0.3
						c0-0.2,0.1-0.3,0.4-0.3c0.2,0,0.4,0.1,0.6,0.2c0,0,0,0,0.1,0l0,0l0.2-0.4c0,0,0,0,0-0.1c-0.3-0.2-0.6-0.3-0.9-0.3
						c-0.5-0.1-0.9,0.3-0.9,0.7c0,0,0,0.1,0,0.1c0,0.5,0.3,0.7,0.8,0.8l0.1,0c0.3,0,0.4,0.1,0.4,0.3c0,0.2-0.2,0.3-0.4,0.3
						c-0.3,0-0.5-0.1-0.7-0.3c0,0,0,0-0.1,0l0,0l-0.3,0.3c0,0,0,0,0,0.1C-2.4-345.2-2-345-1.7-345"/>
					<path id="Path_7926" class="st1" d="M4.8-348.7v-0.3H-8.8v5.5c0,2,0.7,4,1.9,5.7l0.1,0.1l-1.8,1.8l0.4,0.4l1.8-1.8
						c0.5,0.6,1.1,1.1,1.7,1.5c0.8,0.6,1.7,1,2.7,1.3l0.1,0l0.1,0c1-0.3,1.9-0.7,2.7-1.3c2.5-1.8,4-4.6,4-7.7v0
						C4.9-344,4.9-348.7,4.8-348.7 M-8.5-343.5L-8.5-343.5c0-0.3,0-5.2,0-5.2h13v0l-5,5l-5.9,5.9C-7.7-339.4-8.5-341.4-8.5-343.5
						 M3.8-340.6c-0.9,2.7-3,4.7-5.7,5.6c-1.6-0.5-2.9-1.4-4-2.6l10.2-10.2v4.4C4.2-342.5,4.1-341.6,3.8-340.6"/>
				</g>
			</g>
		</g>
	</g>
	<g id="Group_6439" transform="translate(0.69 0.597)">
		<g>
			<g>
				<defs>
					<path id="SVGID_00000140692647293405085840000008253530621295801766_" d="M-5.1-336.9c-0.6-0.4-1.1-0.9-1.6-1.4l10.2-10.2v4.4
						c0,1-0.2,1.9-0.5,2.9c-0.3,0.9-0.8,1.7-1.3,2.5s-1.2,1.4-2,1.9c-0.7,0.5-1.6,0.9-2.4,1.2C-3.5-336-4.3-336.4-5.1-336.9
						 M-9.2-344.1v-5.2h13v0l-5,5l-5.9,5.9C-8.4-340-9.2-342-9.2-344.1 M-9.5-349.6v5.5c0,2,0.7,4,1.9,5.7c0,0,0,0,0.1,0.1l-1.8,1.8
						l0.4,0.4l1.8-1.8c1.2,1.3,2.7,2.3,4.4,2.8l0.1,0l0.1,0c1-0.3,1.9-0.7,2.7-1.3c0.8-0.6,1.5-1.3,2.1-2c1.2-1.6,1.9-3.6,1.9-5.7
						v-5.5L-9.5-349.6L-9.5-349.6z"/>
				</defs>
				<clipPath id="SVGID_00000179648291088422902190000010527948222072312492_">
					<use xlink:href="#SVGID_00000140692647293405085840000008253530621295801766_"  style="overflow:visible;"/>
				</clipPath>
				<g id="Group_6438" style="clip-path:url(#SVGID_00000179648291088422902190000010527948222072312492_);">
					
						<radialGradient id="Rectangle_4902_00000030467911842686159580000002732097415349272242_" cx="-1183.661" cy="183.6177" r="0.485" gradientTransform="matrix(14.5336 0 0 14.531 17200.7051 -3010.4641)" gradientUnits="userSpaceOnUse">
						<stop  offset="0" style="stop-color:#1697D4"/>
						<stop  offset="0.141" style="stop-color:#1491CC"/>
						<stop  offset="0.357" style="stop-color:#167EB7"/>
						<stop  offset="0.622" style="stop-color:#175F93"/>
						<stop  offset="0.922" style="stop-color:#1C3563"/>
						<stop  offset="1" style="stop-color:#1D2956"/>
					</radialGradient>
					
						<rect id="Rectangle_4902" x="-9.5" y="-349.6" style="fill:url(#Rectangle_4902_00000030467911842686159580000002732097415349272242_);" width="13.6" height="14.5"/>
				</g>
			</g>
		</g>
	</g>
	<g id="Group_6441" transform="translate(0 0)">
		<g>
			<g>
				<defs>
					<rect id="SVGID_00000096744245305556925120000015649061921905367964_" x="-9.5" y="-349.6" width="14.9" height="15.8"/>
				</defs>
				<clipPath id="SVGID_00000098927635963137168530000006240691596308756916_">
					<use xlink:href="#SVGID_00000096744245305556925120000015649061921905367964_"  style="overflow:visible;"/>
				</clipPath>
				<g id="Group_6440" style="clip-path:url(#SVGID_00000098927635963137168530000006240691596308756916_);">
					<path id="Path_7928" class="st1" d="M4.5-348.7L4.5-348.7L4.5-348.7l-13,0v5.2c0,2.1,0.7,4.1,2.1,5.8l5.9-5.9L4.5-348.7z
						 M-7.7-340.6c-0.3-0.9-0.5-1.9-0.5-2.9v-4.9h12l-10.2,10.2l0,0C-6.9-338.9-7.4-339.8-7.7-340.6"/>
				</g>
			</g>
		</g>
	</g>
	<g id="Group_6443" transform="translate(0.995 0.902)">
		<g>
			<g>
				<defs>
					<path id="SVGID_00000168113497918533734280000000173550138511526800_" d="M-7.4-339.1c-1.2-1.5-1.8-3.4-1.8-5.3
						c0,0,0-3.8,0-4.9h12L-7.4-339.1L-7.4-339.1 M-9.5-349.6v5.2c0,2.1,0.7,4.1,2.1,5.8l5.9-5.9l5-5v0L-9.5-349.6L-9.5-349.6z"/>
				</defs>
				<clipPath id="SVGID_00000044894283993488149600000012024082931448579718_">
					<use xlink:href="#SVGID_00000168113497918533734280000000173550138511526800_"  style="overflow:visible;"/>
				</clipPath>
				<g id="Group_6442" style="clip-path:url(#SVGID_00000044894283993488149600000012024082931448579718_);">
					
						<linearGradient id="Rectangle_4904_00000084495602329827867290000005159166336534695590_" gradientUnits="userSpaceOnUse" x1="-1174.8669" y1="196.3961" x2="-1174.755" y2="196.3961" gradientTransform="matrix(13.01 0 0 10.953 15274.5703 -2495.2319)">
						<stop  offset="0" style="stop-color:#E22E28"/>
						<stop  offset="0.159" style="stop-color:#DB2D27"/>
						<stop  offset="0.404" style="stop-color:#C52A2A"/>
						<stop  offset="0.702" style="stop-color:#A3262C"/>
						<stop  offset="1" style="stop-color:#7A2430"/>
					</linearGradient>
					
						<rect id="Rectangle_4904" x="-9.5" y="-349.6" style="fill:url(#Rectangle_4904_00000084495602329827867290000005159166336534695590_);" width="13" height="11"/>
				</g>
			</g>
		</g>
	</g>
	<g id="Group_6445" transform="translate(0.995 0.902)">
		<g>
			<g>
				<defs>
					<path id="SVGID_00000096049469548572058040000008673399038388221844_" d="M-7.4-339.1c-1.2-1.5-1.8-3.4-1.8-5.3
						c0,0,0-3.8,0-4.9h12L-7.4-339.1L-7.4-339.1 M-9.5-349.6v5.2c0,2.1,0.7,4.1,2.1,5.8l5.9-5.9l5-5v0L-9.5-349.6L-9.5-349.6z"/>
				</defs>
				<clipPath id="SVGID_00000173150794196494487560000003392785452560833981_">
					<use xlink:href="#SVGID_00000096049469548572058040000008673399038388221844_"  style="overflow:visible;"/>
				</clipPath>
				<g id="Group_6444" style="clip-path:url(#SVGID_00000173150794196494487560000003392785452560833981_);">
					
						<radialGradient id="Rectangle_4905_00000112600141568492573810000018377550626989868461_" cx="-1156.4269" cy="196.5313" r="0.643" gradientTransform="matrix(10.9544 0 0 10.953 12663.8281 -2495.2319)" gradientUnits="userSpaceOnUse">
						<stop  offset="0" style="stop-color:#1697D4"/>
						<stop  offset="0.141" style="stop-color:#1491CC"/>
						<stop  offset="0.357" style="stop-color:#167EB7"/>
						<stop  offset="0.622" style="stop-color:#175F93"/>
						<stop  offset="0.922" style="stop-color:#1C3563"/>
						<stop  offset="1" style="stop-color:#1D2956"/>
					</radialGradient>
					
						<rect id="Rectangle_4905" x="-9.5" y="-349.6" style="fill:url(#Rectangle_4905_00000112600141568492573810000018377550626989868461_);" width="13" height="11"/>
				</g>
			</g>
		</g>
	</g>
</g>
</svg>
