<?xml version="1.0" encoding="utf-8"?>
<!-- Generator: Adobe Illustrator 27.9.0, SVG Export Plug-In . SVG Version: 6.00 Build 0)  -->
<svg version="1.1" id="Layer_1" xmlns="http://www.w3.org/2000/svg" xmlns:xlink="http://www.w3.org/1999/xlink" x="0px" y="0px"
	 viewBox="0 0 16 16" style="enable-background:new 0 0 16 16;" xml:space="preserve">
<style type="text/css">
	.st0{clip-path:url(#SVGID_00000093178229965184669910000003088560398817657517_);}
	.st1{fill:#231F20;}
	.st2{fill:#FFFFFF;}
	.st3{fill:#137CC1;}
	.st4{fill:#E3212F;}
	.st5{fill:#FFD75B;}
</style>
<g id="Group_7147" transform="translate(6 487.046)">
	<g id="Group_7148">
		<g>
			<g>
				<defs>
					<rect id="SVGID_1_" x="-6" y="-484.7" width="16.3" height="11.3"/>
				</defs>
				<clipPath id="SVGID_00000059296503727528091930000008707464911038253493_">
					<use xlink:href="#SVGID_1_"  style="overflow:visible;"/>
				</clipPath>
				<g id="Mask_Group_5" style="clip-path:url(#SVGID_00000059296503727528091930000008707464911038253493_);">
					<path id="Path_8581" class="st1" d="M10.1-477v-0.2h0L10.1-477c0.1-0.1,0.1,0,0.1,0c0,0,0,0,0,0l0.1-0.2h0v0.2h0v-0.2l-0.1,0.2
						L10.1-477l0-0.2L10.1-477L10.1-477L10.1-477z"/>
					<path id="Path_8582" class="st2" d="M0.6-477.3l-0.6,0.5l-0.3,1.2L0-475h1l-0.2,0.8h-0.8l0.1-0.4h-0.7l-0.1,0.6l0.4,0.5h1.2
						l0.6-0.5l0.3-1.2l-0.4-0.5h-1l0.2-0.8h0.8l-0.1,0.4h0.7l0.2-0.6l-0.4-0.5L0.6-477.3z"/>
					<path id="Path_8583" class="st2" d="M3.1-477.3l-0.6,0.5l-0.7,2.8l0.4,0.5h1.2l0.6-0.5l0.2-0.8H3.5l-0.2,0.6H2.5l0.6-2.4h0.8
						l-0.2,0.6h0.7l0.2-0.8l-0.3-0.5L3.1-477.3z"/>
					<path id="Path_8584" class="st2" d="M7.7-477.3l-1,3.9h0.7l0.3-1.2h0.5l0.1,1.2H9l-0.1-1.3l0.5-0.4l0.4-1.6l-0.4-0.5L7.7-477.3
						z M8.2-476.5H9l-0.3,1.2H7.9L8.2-476.5z"/>
					<path id="Path_8585" class="st2" d="M-3.5-477.3l-0.5,2.2l-0.3-2.2H-5l-1,3.9h0.7l0.6-2.2l0.3,2.2h0.7l1-3.9H-3.5z"/>
					<path id="Path_8586" class="st2" d="M-2-477.3l-0.6,0.5l-0.8,3.4h0.7l0.3-1.2h0.8l-0.3,1.2h0.7l0.8-3.4l-0.3-0.5L-2-477.3z
						 M-2-476.5h0.8l-0.3,1.2h-0.8L-2-476.5z"/>
					<path id="Path_8587" class="st2" d="M5.6-477.3L5-476.7l-0.8,3.4h0.7l0.3-1.2H6l-0.3,1.2h0.7l0.8-3.4l-0.3-0.5L5.6-477.3z
						 M5.6-476.5h0.8l-0.3,1.2H5.3L5.6-476.5z"/>
					<path id="Path_8588" class="st3" d="M6.3-484.7l-2.6,7.1h3.6l2.6-7.1H6.3z"/>
					<path id="Path_8589" class="st4" d="M1.2-484.7l-2.6,7.2h1.7l2.6-7.2H1.2z"/>
					<path id="Path_8590" class="st4" d="M3.7-484.7l-2.6,7.2h1.7l2.6-7.2H3.7z"/>
					<path id="Path_8591" class="st5" d="M-2.5-484.7l-2.6,7.2H-4l2.6-7.2H-2.5z"/>
					<path id="Path_8592" class="st5" d="M-0.8-484.7l-2.6,7.2h1.1l2.6-7.2H-0.8z"/>
				</g>
			</g>
		</g>
	</g>
</g>
</svg>
