<?xml version="1.0" encoding="utf-8"?>
<!-- Generator: Adobe Illustrator 27.9.0, SVG Export Plug-In . SVG Version: 6.00 Build 0)  -->
<svg version="1.1" id="Layer_1" xmlns="http://www.w3.org/2000/svg" xmlns:xlink="http://www.w3.org/1999/xlink" x="0px" y="0px"
	 viewBox="0 0 16 16" style="enable-background:new 0 0 16 16;" xml:space="preserve">
<style type="text/css">
	.st0{fill:none;stroke:#FFFFFF;stroke-width:0.25;stroke-linejoin:round;stroke-miterlimit:10;}
	.st1{fill:#FFFFFF;}
	.st2{clip-path:url(#SVGID_00000181803361086831261990000001809452713349806477_);}
	.st3{fill:#104C9B;}
	.st4{fill:#D3202B;}
</style>
<path class="st0" d="M11,1.2c0,0,0-0.1-0.1-0.1c0-0.1-0.1-0.1-0.1-0.2c-0.1-0.1-0.2-0.2-0.3-0.2c0,0,0,0,0,0
	c-0.1-0.1-0.2-0.1-0.3-0.2c-0.1,0-0.1,0-0.2,0c0,0-0.1,0-0.1,0H8.8c0,0,0,0,0,0H8.1H6.2H6.1c0,0-0.1,0-0.1,0c0,0-0.1,0-0.1,0
	c-0.5,0.1-1,0.5-1,1.1v12.8c0,0.6,0.5,1.1,1.1,1.1h0.2h3.6h0.1c0.1,0,0.2,0,0.4-0.1c0,0,0,0,0,0c0,0,0,0,0,0c0.1,0,0.2-0.1,0.3-0.1
	c0.1,0,0.1-0.1,0.1-0.1c0,0,0.1-0.1,0.1-0.1c0.2-0.2,0.3-0.4,0.3-0.6c0,0,0-0.1,0-0.1c0,0,0,0,0,0v0c0,0,0-0.1,0-0.1V1.7
	C11.1,1.6,11.1,1.4,11,1.2z"/>
<path class="st1" d="M9.8,15.6H6.3c-0.8,0-1.4-0.6-1.4-1.4V1.8c0-0.8,0.6-1.4,1.4-1.4h3.5c0.8,0,1.4,0.6,1.4,1.4v12.4
	C11.1,14.9,10.5,15.6,9.8,15.6z"/>
<g id="Group_6400" transform="translate(14 46.033)">
	<g>
		<g>
			<defs>
				<rect id="SVGID_1_" x="-9.1" y="-45.6" width="6.2" height="15.1"/>
			</defs>
			<clipPath id="SVGID_00000183938165131780779360000009785506179955593903_">
				<use xlink:href="#SVGID_1_"  style="overflow:visible;"/>
			</clipPath>
			
				<g id="Group_6399" transform="translate(0 -0.003)" style="clip-path:url(#SVGID_00000183938165131780779360000009785506179955593903_);">
				<path id="Path_7338" class="st3" d="M-6.7-32.1h-0.1v0.5h0.1c0.1,0,0.2-0.1,0.2-0.3C-6.5-32-6.6-32.1-6.7-32.1"/>
				<path id="Path_7339" class="st3" d="M-6.6-32.7c0-0.1,0-0.2-0.1-0.2h-0.1v0.4h0.1C-6.6-32.5-6.6-32.5-6.6-32.7"/>
				<path id="Path_7340" class="st3" d="M-5.3-32.8L-5.5-32h0.3L-5.3-32.8L-5.3-32.8z"/>
				<path id="Path_7341" class="st3" d="M-4.3-31.6c0-0.2,0-0.3,0-0.3c0-0.1,0-0.1,0-0.2c0-0.2,0-0.2-0.2-0.6
					c-0.2-0.4-0.2-0.4-0.2-0.5c0-0.1,0-0.1,0-0.3c0-0.1-0.2-0.3-0.3-0.3c-0.4-0.3-0.8-0.6-1.2-1c-0.6-0.6-1-1.2-1.4-1.9
					C-7.8-37-7.8-37-7.9-37c-0.1,0-0.2-0.1-0.2-0.2c0,0-0.1-0.3-0.3-0.6c-0.4-0.8-0.4-0.9-0.3-1.5c0.1-0.3,0.1-0.4,0.2-0.5
					s0.1-0.2-0.1-0.2c-0.3,0-0.3,0-0.4-0.2c0-0.1,0-0.2-0.1-0.3c0.1-0.3,0.2-0.7,0.4-1c0.1-0.2,0.3-0.6,0.3-0.7
					c0.1-0.5,0.4-0.9,0.8-1.2c0.3-0.1,0.6-0.2,0.9-0.2c0.3,0,0.3-0.1,0.4-0.4c0-0.2,0-0.2,0-0.3c0-0.1-0.1-0.2-0.1-0.2
					c0-0.1,0-0.2,0.1-0.2c0.1,0,0.1-0.1,0.1-0.2c0-0.2,0.1-0.4,0.2-0.6c0,0,0.1-0.1,0.1-0.1h-2c-0.7,0-1.2,0.5-1.2,1.2v12.6
					c0,0.7,0.5,1.2,1.2,1.2l0,0h3.7c0,0,0-0.1-0.1-0.1C-4.4-30.7-4.4-30.7-4.3-31.6 M-7.5-31.2H-8l-0.3-1.3h0v1.3h-0.4v-2.1h0.5
					l0.3,1.3h0v-1.3h0.4V-31.2z M-6.6-31.2h-0.7v-2.1h0.7c0.3,0,0.5,0.2,0.5,0.5c0,0.2-0.1,0.4-0.3,0.5v0c0.2,0,0.3,0.3,0.3,0.5
					C-6.1-31.5-6.2-31.2-6.6-31.2 M-5.1-31.2l-0.1-0.4h-0.3l0,0.4H-6l0.4-2.1H-5l0.4,2.1L-5.1-31.2z"/>
				<path id="Path_7342" class="st4" d="M-2.9-37.3L-2.9-37.3c0,0.1-0.1,0.1-0.1,0.2c-0.4,0.5-1.1,0.5-1.6,0.1
					c-0.1-0.1-0.2-0.2-0.3-0.4C-5-37.7-5-38-4.9-38.3c0.1-0.2,0.3-0.4,0.5-0.6c0.1,0,0.1-0.1,0.2-0.1c-0.1-0.2-0.1-0.3-0.2-0.5
					c-0.2-0.4-0.4-0.9-0.4-1.3c-0.1-0.3-0.1-0.6-0.1-0.6c0-0.1-0.1,0-0.3,0.1l-0.2,0.1l-0.2,0.5c-0.1,0.2-0.1,0.3-0.2,0.5
					c0,0.1,0,0.1,0.1,0.2c0.1,0.1,0.2,0.2,0.3,0.9c0.1,0.5,0.2,0.7,0.2,0.7s0,0.2,0.1,0.4c0.1,0.4,0.2,0.7,0.2,1.1
					c0,0.4,0.1,0.8,0.4,1.1c0.2,0.4,0.3,0.8,0.4,1.2c0.1,0.3,0.1,0.6,0.1,0.6S-4-33.8-4-33.7c0.1,0.2,0.2,0.4,0.1,0.6
					c0,0.1,0,0.2-0.1,0.3c0,0.3,0,0.5,0.1,0.8c0,0,0,0.1,0,0.2c0,0.1,0,0.2,0.1,0.3c0.2,0.5,0.2,0.7,0,0.9c0,0,0,0.1-0.1,0.1
					c0.5-0.1,0.9-0.6,0.9-1.2L-2.9-37.3C-2.9-37.3-2.9-37.3-2.9-37.3"/>
				<path id="Path_7343" class="st4" d="M-4.1-45.6h-1.1c0,0,0,0,0,0c0.1,0.1,0.3,0.2,0.4,0.4c0,0.2,0,0.3,0,0.5c0,0.1,0,0.2,0,0.3
					c0,0.2-0.1,0.3-0.2,0.4c-0.1,0.1-0.1,0.1-0.1,0.2c0,0.1-0.1,0.2-0.2,0.2c-0.1,0-0.1,0.1-0.1,0.2c0,0.1,0.1,0.1,0.2,0.1
					c0.1,0.1,0.2,0.1,0.3,0.2c0.1,0.1,0.2,0.2,0.3,0.3c0.4,0.4,0.6,0.9,0.6,1.5c0,0.4,0.1,0.9,0.3,1.3c0.1,0.2,0.2,0.5,0.3,0.8
					c0.1,0.4,0.1,0.4,0.2,0.4c0.2,0.1,0.3,0.2,0.4,0.3c0,0,0,0.1,0.1,0.1l0,0.1v-6C-2.9-45-3.4-45.6-4.1-45.6"/>
				<path id="Path_7344" class="st1" d="M-5.6-33.3L-6-31.2h0.5l0-0.4h0.4l0,0.4h0.5L-5-33.3H-5.6z M-5.5-32l0.1-0.9h0l0.1,0.9
					C-5.2-32-5.5-32-5.5-32z"/>
				<path id="Path_7345" class="st1" d="M-7.9-32L-7.9-32l-0.3-1.3h-0.5v2.1h0.4v-1.3l0,0l0.3,1.3h0.5v-2.1h-0.4
					C-7.9-33.3-7.9-32-7.9-32z"/>
				<path id="Path_7346" class="st1" d="M-6.4-32.3L-6.4-32.3c0.2,0,0.3-0.2,0.3-0.5c0-0.3-0.2-0.5-0.5-0.5h-0.7v2.1h0.7
					c0.4,0,0.5-0.3,0.5-0.6C-6.1-32-6.2-32.3-6.4-32.3 M-6.8-32.9h0.1c0.1,0,0.1,0.1,0.1,0.2s0,0.2-0.1,0.2h-0.1V-32.9z M-6.7-31.6
					h-0.1v-0.5h0.1c0.1,0,0.2,0.1,0.2,0.2S-6.6-31.6-6.7-31.6"/>
			</g>
		</g>
	</g>
</g>
</svg>
