<?xml version="1.0" encoding="utf-8"?>
<!-- Generator: Adobe Illustrator 27.9.0, SVG Export Plug-In . SVG Version: 6.00 Build 0)  -->
<svg version="1.1" id="Layer_1" xmlns="http://www.w3.org/2000/svg" xmlns:xlink="http://www.w3.org/1999/xlink" x="0px" y="0px"
	 viewBox="0 0 16 16" style="enable-background:new 0 0 16 16;" xml:space="preserve">
<style type="text/css">
	.st0{fill-rule:evenodd;clip-rule:evenodd;fill:#3C4A78;}
	.st1{fill-rule:evenodd;clip-rule:evenodd;fill:#CC5142;}
	.st2{fill-rule:evenodd;clip-rule:evenodd;fill:#FFFFFF;}
	.st3{fill:none;stroke:#FFFFFF;stroke-width:0.25;stroke-miterlimit:10;}
</style>
<g id="ncaa" transform="translate(0.496 -18.062)">
	<path id="Path_7280" class="st0" d="M-0.3,18.8c1,0.9,15.5,2.9,15.5,2.9C3.8,29.6,0.9,33.4,0.9,33.4c0.3-1.7,0.4-3.5,0.4-5.3
		c1.2,0.6,2.7,0.8,4,0.5l0.7-1.3L1.3,26C1.2,23.5,0.7,21.1-0.3,18.8z"/>
	<path id="Path_7281" class="st1" d="M0.6,19.2c0.9,2.2,1.5,4.6,1.5,6.9L1.5,26c-0.1-2.5-0.7-4.9-1.7-7.1C0,19,0.3,19.1,0.6,19.2
		L0.6,19.2z M2.2,28.2c0,1.2-0.1,2.6-0.2,4.1c-0.6,0.6-0.9,0.9-0.9,0.9c0.3-1.7,0.5-3.5,0.5-5.3C1.7,28.1,2,28.2,2.2,28.2L2.2,28.2z
		"/>
	<path id="Path_7282" class="st1" d="M2.1,22.9c0,0,3.9-5.5,9-1.6c1.1,0.9,1.2,2.4,0.3,3.5c0,0-3.9,6.2-9.3,2.6c0,0-0.9-1.1-0.9-1.6
		c-0.1-0.6,0-1.2,0.3-1.8C1.8,23.7,2,23.3,2.1,22.9z"/>
	<path id="Path_7283" class="st0" d="M2.5,27.6c0,0-2.2-1.2-1.7-2.6c0.8-2.6,3-4.6,5.8-5.4c2.4-0.3,4.7,0.9,5.7,3
		c-0.5,3.2-3.2,5.8-6.6,6.4c0,0-3.9,0.5-5.2-1.8c0,0,1.6,2,6,1c2.5-0.7,4.5-2.5,5.3-4.9c0.1-0.5-0.1-1.1-0.5-1.4
		c0,0-3.5-4.6-8.5,0.6c1.4-0.8,2.9-1.4,4.5-1.8l0.6,0.6c1.3,0.1,2.6,0.6,3.6,1.4c0,0-2.4-1.2-3.6-0.7l-0.7,0.7c0,0-3.1-0.3-4.6,0.8
		c-0.7,0.4-1.2,1.2-1.2,2c0,0.1,0,0.1,0,0.2C1.5,26.4,1.9,27,2.5,27.6z"/>
	<path id="Path_7284" class="st2" d="M2.9,22.7c1-0.7,2.2-1.2,3.5-1.5l0.5,0.3l-0.4,0.5C5.3,22.1,4.1,22.3,2.9,22.7z"/>
	<path id="Path_7285" class="st0" d="M9.9,22.5c0,0,0.7,0.5,0.4,1C10,23.7,9.8,24,9.5,24.3c0.4-0.3,0.7-0.7,0.9-1.2c0,0,0-0.2,0.2,0
		c0,0,0.1-0.8-0.2-0.9c0,0,0.3,0.7-0.1,0.5C10.2,22.6,10,22.5,9.9,22.5z"/>
	<path id="Path_7286" class="st2" d="M8.7,25.9L8.7,25.9c0-0.1,0.1,0,0.1,0c0,0,0.1,0.1,0.1,0.1s0,0.1,0,0.2c0,0.1,0,0.1,0,0.2
		c0,0-0.1,0.1-0.1,0.1s-0.1,0-0.1,0v-0.1c0,0,0.1,0,0.1,0c0,0,0.1-0.1,0.1-0.1c0,0,0-0.1,0-0.1s0-0.1,0-0.1C8.8,26,8.8,26,8.7,25.9
		C8.7,25.9,8.7,25.9,8.7,25.9z M8.7,26.2C8.7,26.2,8.7,26.3,8.7,26.2l0.1,0.1h0L8.7,26.2C8.7,26.3,8.7,26.3,8.7,26.2
		C8.7,26.2,8.7,26.2,8.7,26.2C8.7,26.2,8.7,26.2,8.7,26.2c0.1-0.1,0.1-0.1,0.1-0.1s0,0,0,0c0,0,0,0,0,0c0,0,0,0,0,0v0c0,0,0,0,0,0
		c0,0,0,0,0,0c0,0,0,0,0,0C8.7,26.1,8.7,26.1,8.7,26.2C8.7,26.2,8.7,26.2,8.7,26.2L8.7,26.2z M8.7,25.9c0,0-0.1,0-0.1,0
		c0,0-0.1,0.1-0.1,0.1c0,0.1,0,0.2,0,0.3c0,0,0,0.1,0.1,0.1c0,0,0.1,0,0.1,0v0.1c0,0-0.1,0-0.1,0c0,0-0.1-0.1-0.1-0.1
		c0-0.1,0-0.1,0-0.2c0-0.1,0-0.1,0-0.2c0,0,0-0.1,0.1-0.1C8.6,25.9,8.6,25.9,8.7,25.9L8.7,25.9z M8.7,26H8.6v0.3h0v-0.1h0
		c0,0,0,0,0,0l0,0v-0.1h0H8.6L8.7,26L8.7,26L8.7,26z M7.7,26v-0.5h0.1c0-0.3,0-0.7,0-1.1c0,0.2-0.1,0.4-0.1,0.5v-1.1h0.5l0,2.6H7.7
		L7.7,26L7.7,26z M7.7,23.9V25c0,0.2-0.1,0.4-0.1,0.6h0.1V26H7.6l-0.1,0.5H6.9l0.6-2.6H7.7L7.7,23.9z M6.3,26v-0.5h0.1
		c0-0.3,0-0.7,0-1.1c0,0.2-0.1,0.4-0.1,0.5v-1.1h0.5l0,2.6H6.3L6.3,26L6.3,26L6.3,26z M6.3,23.9V25c0,0.2-0.1,0.4-0.1,0.6h0.1V26
		H6.2l-0.1,0.5H5.6v-0.3l0.5-2.3L6.3,23.9z M5.6,25L5.6,25l0-0.2c0-0.2,0-0.4,0-0.5c0-0.1,0-0.1-0.1-0.2C5.6,24.1,5.6,25,5.6,25z
		 M5.6,24.1V25H5.1l0-0.5c0-0.1,0-0.2,0-0.2c0,0,0-0.1-0.1-0.1l0,0c0,0-0.1,0-0.1,0.1c0,0.1,0,0.2,0,0.3l-0.1,1.2c0,0.1,0,0.2,0,0.2
		c0,0,0,0.1,0.1,0.1c0,0,0.1,0,0.1-0.1c0-0.1,0-0.2,0-0.3l0-0.3h0.5l0,0.1c0,0.2,0,0.4-0.1,0.6c0,0.1-0.1,0.2-0.2,0.3
		c-0.1,0.1-0.3,0.1-0.4,0.1c-0.1,0-0.3,0-0.4-0.1c-0.1-0.1-0.2-0.2-0.2-0.3c0,0,0,0,0,0v-0.3c0-0.1,0-0.1,0-0.2l0.1-0.8
		c0-0.2,0-0.3,0.1-0.4c0-0.1,0.1-0.2,0.1-0.3c0.1-0.1,0.1-0.2,0.2-0.2c0.1-0.1,0.2-0.1,0.3-0.1c0.1,0,0.3,0,0.4,0.1
		C5.5,24,5.6,24,5.6,24.1L5.6,24.1z M5.6,26.2l-0.1,0.3h0.1V26.2z M4.3,24L4.3,24L4.3,24L4.3,24z M4.3,23.9L4.3,23.9L4,26.5H3.5
		l-0.1-1.2l-0.1,1.2H2.8l0.3-2.6h0.5l0.2,1.2l0.1-1.2L4.3,23.9z M4.3,25.8c0,0.1,0,0.2,0,0.3V25.8z"/>
</g>
<path class="st3" d="M11.8,3.1c-1.2-1.2-2.9-1.8-4.7-1.6C6.5,1.6,6,1.9,5.6,2.1C3.7,1.8,2.1,1.4,1.1,1.2c0,0,0,0,0,0
	C0.8,1.1,0.5,0.9,0.2,0.8C0.9,2.5,1.4,4.2,1.6,6C1.5,6.3,1.4,6.6,1.3,6.9C0.7,8.3,3,9.5,3,9.5c0,0-0.1-0.1-0.1-0.1
	c0.9,0.5,1.7,0.8,2.5,0.9C2.2,10.6,1,9.1,1,9.1c0.2,0.4,0.6,0.8,1,1c0,0-0.1,0-0.1-0.1c0,1.8-0.2,3.5-0.4,5.3c0,0,0-0.1,0.1-0.2
	c0,0,0,0,0,0c0,0,0.3-0.3,0.9-0.9c0,0,0-0.1,0-0.1c0.7-0.7,1.9-1.8,3.7-3.3c0,0,0.1,0,0.1,0c2.8-0.5,5.1-2.3,6.1-4.7
	c1.1-0.8,2.2-1.6,3.5-2.5C15.8,3.6,14.1,3.4,11.8,3.1z"/>
</svg>
