<?xml version="1.0" encoding="utf-8"?>
<!-- Generator: Adobe Illustrator 27.9.0, SVG Export Plug-In . SVG Version: 6.00 Build 0)  -->
<svg version="1.1" id="Layer_1" xmlns="http://www.w3.org/2000/svg" xmlns:xlink="http://www.w3.org/1999/xlink" x="0px" y="0px"
	 viewBox="0 0 16 16" style="enable-background:new 0 0 16 16;" xml:space="preserve">
<style type="text/css">
	.st0{fill:none;stroke:#FFFFFF;stroke-width:0.25;stroke-linejoin:round;stroke-miterlimit:10;}
	.st1{clip-path:url(#SVGID_00000052091267075369412800000015484074882828782228_);}
	.st2{fill:#0A68B3;}
	.st3{fill:#FFFFFF;}
	.st4{fill:#BD1F40;}
	.st5{fill:none;}
	.st6{fill:none;stroke:#FFFFFF;stroke-width:0.25;stroke-miterlimit:10;}
</style>
<g>
	<path class="st0" d="M14.1,5.5C14,5.5,14,5.5,14.1,5.5L14.4,4H8.9l0,0l0,0h0l0,0l0,0l0,0l0,0H8.6L4.6,4h0L4.5,4.5L4.3,5
		c0,0,0,0,0,0L4.2,5.5C3.3,5.9,2.7,6.6,2.5,7.5c0.1-0.3,0.4-0.6,0.7-0.9c-0.3,0.3-0.4,0.6-0.5,1l0,0C2.9,7,3.4,6.5,4,6.2l-0.8,3
		c0,0,0,0,0,0L3,10c0.2,0,0.7,0,0.8,0L4,10c1.1,0,2.2-0.2,3.2-0.6C8,9,8.6,8.3,8.9,7.4C9,7,9.1,6.5,9,6.1L8.9,5.8l0,0L9,6.1
		C9.1,6.5,9,7,8.9,7.4C8.6,8.3,8,9,7.2,9.4C6.2,9.8,5.1,10,4.1,10l-0.2,0c-0.1,0-0.7,0-0.8,0l0,0.2l-0.1,0.4c0.9,1,2.8,1.7,5.1,1.7
		c0,0,0,0,0,0c-2.3-0.1-4.2-0.8-5.1-1.7c-0.3-0.3-0.5-0.8-0.5-1.3c0,0,0,0,0,0C2.5,8.6,3,8,3.6,7.7l0.1-0.3c0,0,0,0,0,0L3.8,7
		C3.4,7.1,3,7.3,2.6,7.6l0,0C1.9,8,1.4,8.6,1.2,9.4c0,0,0,0.1,0,0.1c0,0,0,0,0,0c0,0,0,0.1,0,0.1c0,0.9,0.5,1.7,1.4,2.1c0,0,0,0,0,0
		L2,13.5h0l-0.5,1.8h9.9l0.9-3.3c0,0,0,0,0,0c0.9-0.3,1.7-1.1,2-2.1c-0.1,0.3-0.3,0.6-0.5,0.8c0.3-0.3,0.5-0.6,0.6-1c0,0,0,0,0,0
		c0.7-0.3,1.1-1,1.3-1.7c0,0,0,0,0-0.1c0,0,0,0,0-0.1c0-0.1,0-0.1,0-0.2C15.7,6.9,15.1,6.1,14.1,5.5z"/>
	<path class="st0" d="M5.4,3.7l0.4-1.3l0.5,1.3h0.8l0.4-1.3c0,0.2,0,0.4,0,0.6c0.1,0.4,0.5,0.8,1,0.7H10l0.3-0.4h1.1l0,0.4h0.9
		l0.2-0.4h1.1l0,0.4h0.8l-0.2-2.8h-1.5l-0.2,0.6h0.2l-0.7,1.2L12,0.9h-1.5l-0.2,0.6h0.2l-1,1.5H8.8C8.5,3,8.3,2.8,8.4,2.6
		c0-0.4,0.4-1,0.8-1h0.2L9.2,1.9h0.7l0.3-0.9H9C8.4,1,7.9,1.4,7.6,1.9l0.3-1h-1L6.8,1.5H7L6.8,2.5L6.1,0.9H5.2L5,1.5h0.3L4.7,3.7
		L5.4,3.7z"/>
	<polygon class="st0" points="11.8,14.9 11.9,14.9 11.9,15.4 12,15.4 12,14.9 12.2,14.9 12.2,14.9 11.8,14.9 	"/>
	<path class="st0" d="M12.7,15.1c0,0.1-0.1,0.1-0.1,0.2c0-0.1-0.1-0.2-0.1-0.2l-0.1-0.2h-0.1v0.5h0.1v-0.2c0-0.1,0-0.2,0-0.2
		c0,0.1,0.1,0.2,0.1,0.2l0.1,0.2h0.1L12.7,15.1c0.1,0,0.1-0.1,0.2-0.2c0,0.1,0,0.2,0,0.2v0.2H13v-0.5h-0.1L12.7,15.1z"/>
	<path class="st0" d="M14.9,3.7c0.1,0,0.2-0.1,0.2-0.2c0-0.1-0.1-0.2-0.2-0.2c-0.1,0-0.2,0.1-0.2,0.2C14.7,3.6,14.8,3.7,14.9,3.7z"
		/>
</g>
<g id="Group_6398" transform="translate(9 69.604)">
	<g>
		<g>
			<defs>
				<rect id="SVGID_1_" x="-7.9" y="-68.7" width="14.5" height="14.5"/>
			</defs>
			<clipPath id="SVGID_00000090974385673704698100000009309574839080630403_">
				<use xlink:href="#SVGID_1_"  style="overflow:visible;"/>
			</clipPath>
			<g id="Group_6397" style="clip-path:url(#SVGID_00000090974385673704698100000009309574839080630403_);">
				<path id="Path_7287" class="st2" d="M0.5-65.2L0.5-65.2c1.6,0.1,3.1,0.5,4.5,1.2l0.4-1.5h-5.5l0,0L0.5-65.2z"/>
				<path id="Path_7288" class="st2" d="M-6.4-55.1L-6.4-55.1l-0.2,0.3h0.1c0.1,0,0.2-0.1,0.2-0.1C-6.3-55-6.3-55.1-6.4-55.1"/>
				<path id="Path_7289" class="st2" d="M-0.1-65.6C0-65.5,0-65.5-0.1-65.6C0-65.5,0-65.5-0.1-65.6"/>
				<path id="Path_7290" class="st2" d="M-4.4-65.6L-4.4-65.6l-0.3,1.2L-4.4-65.6L-4.4-65.6z"/>
				<path id="Path_7291" class="st2" d="M-6.3-55.5L-6.3-55.5l-0.2,0.3h0.1c0.1,0,0.2-0.1,0.2-0.2C-6.2-55.5-6.2-55.5-6.3-55.5"/>
				<path id="Path_7292" class="st2" d="M2.5-63.2L2.5-63.2C2.5-63.2,2.5-63.2,2.5-63.2l0.3,0.5c0.4,0.8,0.6,1.6,0.6,2.4
					c0,0.4,0,0.8,0,0.8v0c0,0,0,0,0,0.1c0.2-0.1,0.3-0.2,0.5-0.2l0.8-3.1c-0.8-0.7-1.8-1.1-2.8-1.3C2-64,2.2-63.8,2.3-63.6l0,0l0,0
					v0L2.5-63.2z"/>
				<path id="Path_7293" class="st2" d="M-0.8-55.1L-0.8-55.1L-1-54.8h0.1c0.1,0,0.2-0.1,0.2-0.1C-0.7-55-0.7-55.1-0.8-55.1"/>
				<path id="Path_7294" class="st2" d="M2.5-56.8c-0.2,0.3-0.4,0.5-0.6,0.8h0l0-0.1l-0.1,0.1H1.8h-2H-1l-6,0l0,0l-0.5,1.8h9.9
					l0.9-3.3c-0.2,0.1-0.3,0.2-0.5,0.2C2.7-57.1,2.6-57,2.5-56.8 M-6.5-54.6H-7l0.1-0.2h0.1l0.2-0.7h-0.1l0.1-0.2h0.5
					c0.2,0,0.3,0.1,0.2,0.3c0,0.1-0.1,0.2-0.3,0.3l0,0c0.1,0,0.2,0.1,0.1,0.3C-6.1-54.7-6.3-54.6-6.5-54.6 M-5.1-54.6h-0.4l0.1-0.2
					h0.1v-0.1h-0.3l-0.1,0.1h0.1l-0.1,0.2h-0.4l0.1-0.2H-6l0.6-0.9h0.3l0,0.9h0.1L-5.1-54.6z M-4.6-54.6c-0.1,0-0.2,0-0.2-0.1h0
					l0,0.1h-0.2L-5-55h0.2c0,0.1,0,0.1,0,0.2c0,0,0.1,0.1,0.1,0.1c0.1,0,0.1-0.1,0.2-0.1c0-0.1,0-0.1-0.2-0.2
					c-0.1,0-0.2-0.1-0.2-0.3c0-0.2,0.2-0.4,0.4-0.4c0.1,0,0.2,0,0.2,0.1l0,0l0-0.1H-4l-0.1,0.4h-0.2c0-0.1,0-0.2-0.1-0.2
					c-0.1,0-0.1,0-0.2,0.1c0,0.1,0,0.1,0.2,0.2c0.1,0.1,0.2,0.1,0.2,0.3C-4.2-54.7-4.4-54.6-4.6-54.6 M-3.7-54.6l0.1-0.2h0.1
					l-0.1-0.4l0,0l-0.1,0.4h0.1L-3.7-54.6h-0.5l0.1-0.2h0.1l0.2-0.7H-4l0.1-0.2h0.4l-0.1,0.2h-0.1l-0.1,0.3l0.3-0.3h-0.1l0.1-0.2H-3
					L-3-55.5h-0.1l-0.4,0.3l0.2,0.4h0.1l-0.1,0.2L-3.7-54.6z M-2.6-55.5l-0.1,0.3h0.1l0-0.1h0.2L-2.5-55h-0.2l0-0.1h-0.1l-0.1,0.3
					h0.3l0.1-0.2h0.2l-0.1,0.4h-0.8l0.1-0.2h0.1l0.2-0.7H-3l0.1-0.2h0.8l-0.1,0.3h-0.2l0-0.2L-2.6-55.5z M-1.5-55.5l-0.2,0.7h0.1
					l-0.1,0.2h-0.5l0.1-0.2h0.1l0.2-0.7h-0.1l-0.1,0.2h-0.2l0.1-0.4h0.9l-0.1,0.4h-0.2l0.1-0.2H-1.5z M-0.9-54.6h-0.5l0.1-0.2h0.1
					l0.2-0.7h-0.1l0.1-0.2h0.5c0.2,0,0.3,0.1,0.2,0.3c0,0.1-0.1,0.2-0.3,0.3l0,0c0.1,0,0.2,0.1,0.1,0.3C-0.5-54.7-0.7-54.6-0.9-54.6
					 M0.5-54.6H0.1l0.1-0.2h0.1v-0.1h-0.3l-0.1,0.1h0.1l-0.1,0.2h-0.4l0.1-0.2h0.1l0.6-0.9h0.3l0,0.9h0.1L0.5-54.6z M0.6-54.6
					l0.1-0.2h0.1L1-55.5H0.9l0.1-0.2h0.5l-0.1,0.2H1.2L1-54.8h0.2L1.3-55h0.2l-0.1,0.4H0.6z M2.2-54.6H1.4l0.1-0.2h0.1l0.2-0.7H1.7
					l0.1-0.2h0.5l-0.1,0.2H2.1l-0.2,0.7h0.2L2.1-55h0.2L2.2-54.6z"/>
				<path id="Path_7295" class="st2" d="M-3.4-55.5"/>
				<path id="Path_7296" class="st2" d="M0-55.1h0.2l0-0.4l0,0L0-55.1z"/>
				<path id="Path_7297" class="st2" d="M-0.7-55.5L-0.7-55.5l-0.2,0.3h0.1c0.1,0,0.2-0.1,0.2-0.2C-0.5-55.5-0.6-55.5-0.7-55.5"/>
				<path id="Path_7298" class="st2" d="M-5.6-55.1h0.2l0-0.4l0,0L-5.6-55.1z"/>
				<path id="Path_7299" class="st3" d="M-5-63.4l-1,3.8c0.2,0,0.7,0,0.8,0l0.2,0c1.1,0,2.2-0.2,3.2-0.6c0.8-0.4,1.4-1.1,1.7-1.9
					C0-62.6,0.1-63.1,0-63.5l-0.1-0.3l0.2,0.1c0.3,0.2,0.7,0.4,1,0.7c0,0,0.1,0.1,0.1,0.2v0l0,0v0c0.1,0.5,0.1,1.1,0.1,1.6l0-0.1
					c0,1.2-0.4,2.4-0.9,3.4c-0.1,0.2-0.2,0.4-0.3,0.5c0.2,0,0.5,0,0.7-0.1c0.8-1.4,1.1-2.9,1-4.5l-0.1-0.5L2-62.1c0,0,0,0.1,0.1,0.1
					c0.1,0.1,0.2,0.3,0.3,0.4v0v0c0,0.4,0,0.7,0.1,1.1c0.1,0.5,0.2,1.1,0.1,1.6c0,0.3-0.1,0.6-0.1,0.9c0,0,0,0.1,0,0.1l0.2-0.1
					c0.1-0.6,0.2-1.1,0.2-1.7c0-0.1,0-0.2,0-0.2c0-0.2,0-0.4-0.1-0.5c0-0.2-0.1-0.5-0.1-0.8c0.1,0.2,0.3,0.5,0.4,0.7
					c0.2,0.5,0.3,1,0.3,1.5c0,0.1,0,0.2,0,0.2s0-0.3,0.1-0.6c0-0.1,0-0.2,0-0.2c0,0,0,0,0-0.1c-0.1-0.8-0.3-1.5-0.7-2.2l0,0v0l0,0
					c0-0.5,0-0.9-0.1-1.4v0l-0.2-0.4v0v0c0,0.3,0.1,0.6,0.1,1v0.4l-0.2-0.3c-0.2-0.3-0.4-0.5-0.6-0.7l0,0l0,0l0,0
					c-0.3-0.9-0.8-1.7-1.5-2.3c0,0-0.1,0-0.1-0.1l-0.1,0l0,0l0,0l0,0h-0.2l-4.1,0h2.6c0.2,0.2,0.5,0.4,0.6,0.6l0.3,0.3l-0.4-0.1
					c-1.1-0.3-2.2-0.3-3.3-0.2l0,0l0.2-0.6l-0.3,1.2l-0.1,0.3l-0.1,0.4c-0.2,0.1-0.4,0.2-0.6,0.4C-6-63-6.3-62.6-6.4-62l0,0
					C-6.1-62.6-5.6-63.1-5-63.4 M-1.4-65.6h1.1c0.1,0,0.1,0.1,0.1,0.1c0.5,0.4,0.8,0.9,1.1,1.4L1-63.6l-0.4-0.3
					c-0.3-0.2-0.6-0.4-0.9-0.5l0,0l0,0C-0.5-64.9-1-65.3-1.4-65.6 M-4-64.7c1.1-0.1,2.2,0.1,3.2,0.5l0.1,0l0,0.1
					c0.1,0.4,0.1,0.9,0,1.3C-1-61.9-1.5-61.3-2.2-61C-3.1-60.6-4-60.4-5-60.4c-0.2,0-0.6,0-0.8,0l1.1-4.2C-4.5-64.7-4.3-64.7-4-64.7
					"/>
				<path id="Path_7300" class="st3" d="M5.4-61.4c0-0.1,0-0.1,0-0.2c0.2-1.3-1.5-2.5-4-3c0.1,0.1,0.3,0.3,0.4,0.4
					c1,0.2,2,0.6,2.8,1.3C5.1-62.5,5.4-61.9,5.4-61.4"/>
				<path id="Path_7301" class="st3" d="M3.8-59.4l-0.1,0.3c0.5-0.2,1-0.4,1.5-0.7c0,0,0-0.1,0-0.1c0,0,0,0.1,0,0.1
					c0.7-0.3,1.1-1,1.3-1.7c0,0,0-0.1,0-0.1C6.3-60.7,5.3-59.9,3.8-59.4"/>
				<path id="Path_7302" class="st4" d="M5.1-64.1c-1.4-0.7-2.9-1.1-4.4-1.1l-0.1-0.1l-0.6-0.4l0,0l0.1,0c0,0,0.1,0,0.1,0.1
					c0.7,0.6,1.2,1.4,1.5,2.3l0,0l0,0l0,0c0.1,0.1,0.3,0.4,0.6,0.7l0.2,0.3v-0.4c0-0.3,0-0.6-0.1-1v0l0,0l0,0
					c-0.1-0.2-0.3-0.4-0.4-0.5c-0.1-0.1-0.3-0.3-0.4-0.4c2.4,0.4,4.1,1.6,4,3c0,0.1,0,0.1,0,0.2c-0.3,0.8-0.8,1.4-1.6,1.7
					c-0.2,0.1-0.3,0.2-0.5,0.2c0,0.1,0,0.1,0,0.2c0.2,0,0.3-0.1,0.4-0.1l0,0c1.5-0.5,2.5-1.3,2.7-2.3c0-0.1,0-0.1,0-0.2
					C6.7-62.7,6.1-63.5,5.1-64.1"/>
				<path id="Path_7303" class="st4" d="M-4.8-64.1c-0.8,0.4-1.5,1.1-1.7,1.9c0.2-0.5,0.6-0.9,1-1.2c0.2-0.1,0.4-0.3,0.6-0.4
					L-4.8-64.1z"/>
				<path id="Path_7304" class="st3" d="M-6.1-59.1L-6.1-59.1l0.1-0.4L-6.1-59.1z"/>
				<path id="Path_7305" class="st3" d="M1.2-62.8L1.2-62.8L1.2-62.8L1.2-62.8"/>
				<path id="Path_7306" class="st3" d="M-0.2-65.5L-0.2-65.5L-0.2-65.5L-0.2-65.5z"/>
				<path id="Path_7307" class="st3" d="M2.8-59.6L2.8-59.6L2.8-59.6z"/>
				<path id="Path_7308" class="st4" d="M-0.2-56.1h2l0,0c0.2-0.3,0.3-0.7,0.5-1c-0.6,0.2-1.3,0.4-1.9,0.4C0.1-56.5,0-56.3-0.2-56.1
					L-0.2-56.1L-0.2-56.1z"/>
				<path id="Path_7309" class="st4" d="M2.6-58.8c0-0.5,0-1.1-0.1-1.6c-0.1-0.4-0.1-0.7-0.1-1.1v0v0c-0.1-0.2-0.1-0.3-0.3-0.4
					c0,0-0.1-0.1-0.1-0.1l-0.3-0.4L1.8-62c0.2,1.6-0.2,3.2-1,4.5c0.5-0.1,1.1-0.2,1.6-0.4c0,0,0-0.1,0-0.1
					C2.5-58.2,2.6-58.5,2.6-58.8"/>
				<path id="Path_7310" class="st4" d="M-1-56.1L-1-56.1c0.2-0.2,0.3-0.3,0.5-0.5c-0.4,0-0.8,0-1.2,0c-1.7,0-3.3-0.4-4.8-1.2
					L-7-56.1l0,0L-1-56.1z"/>
				<path id="Path_7311" class="st4" d="M1.4-61.3l0,0.1c0-0.5-0.1-1.1-0.1-1.6v0l0,0l0,0v0v0v0c0-0.1,0-0.1-0.1-0.2
					c-0.3-0.3-0.6-0.5-1-0.7l-0.2-0.1L0-63.5c0.1,0.5,0,0.9-0.1,1.4c-0.3,0.9-0.9,1.6-1.7,1.9c-1,0.4-2.1,0.6-3.2,0.6l-0.2,0
					c-0.1,0-0.7,0-0.8,0l0,0l0,0.2l-0.1,0.4c0.9,1,2.8,1.7,5.1,1.7c0.4,0,0.8,0,1.2,0c0.1-0.2,0.2-0.3,0.3-0.5
					C1-59,1.3-60.1,1.4-61.3"/>
				<path id="Path_7312" class="st4" d="M3.4-60.3c0-0.8-0.3-1.7-0.6-2.4l-0.3-0.5c0,0,0,0,0,0c0.1,0.5,0.1,0.9,0.1,1.4l0,0v0l0,0
					c0.4,0.7,0.6,1.4,0.7,2.2v0C3.4-59.5,3.4-59.9,3.4-60.3"/>
				<path id="Path_7313" class="st4" d="M-4.4-65.6L-4.6-65c1.1-0.2,2.2-0.1,3.3,0.2l0.4,0.1L-1.2-65c-0.2-0.2-0.4-0.4-0.6-0.6H-4.4
					L-4.4-65.6z"/>
				<path id="Path_7314" class="st4" d="M1.9-56.1c0.2-0.2,0.4-0.5,0.6-0.8c0.1-0.2,0.2-0.3,0.3-0.5c-0.1,0-0.2,0.1-0.4,0.1
					c0,0.1-0.1,0.2-0.1,0.3C2.3-56.9,2.1-56.5,1.9-56.1L1.9-56.1L1.9-56.1L1.9-56.1z"/>
				<path id="Path_7315" class="st4" d="M-0.3-65.6"/>
				<path id="Path_7316" class="st4" d="M3-60.4c-0.1-0.2-0.2-0.5-0.4-0.7c0,0.3,0.1,0.6,0.1,0.8c0,0.2,0.1,0.4,0.1,0.5
					c0,0.1,0,0.2,0,0.2c0,0,0,0,0,0v0l0,0c0,0.6-0.1,1.1-0.2,1.7c0.2-0.1,0.3-0.1,0.5-0.2c0-0.1,0-0.1,0.1-0.2v0
					c0.1-0.2,0.1-0.4,0.1-0.6C3.3-59.4,3.2-59.9,3-60.4"/>
				<path id="Path_7317" class="st4" d="M-4.6-65"/>
				<path id="Path_7318" class="st4" d="M-0.3-64.4L-0.3-64.4L-0.3-64.4c0.4,0.2,0.7,0.4,0.9,0.6L1-63.6L0.9-64
					c-0.2-0.6-0.6-1-1.1-1.4l0,0l0,0l0,0c0,0-0.1-0.1-0.1-0.1h-1.1C-0.9-65.3-0.5-64.9-0.3-64.4"/>
				<path id="Path_7319" class="st4" d="M-5.8-60.4c0.2,0,0.6,0,0.8,0c0.9,0,1.9-0.2,2.7-0.5c0.7-0.3,1.3-1,1.5-1.8
					c0.1-0.4,0.1-0.9,0-1.3l0-0.1l-0.1,0c-1-0.4-2.1-0.6-3.2-0.5c-0.2,0-0.4,0-0.6,0.1L-5.8-60.4z"/>
				<path id="Path_7320" class="st3" d="M-5.4-61.9l0.1-0.3c-0.7,0.4-1.2,1-1.3,1.7c0,0,0,0.1,0,0.1C-6.5-61-6-61.6-5.4-61.9"/>
				<path id="Path_7321" class="st3" d="M-1.7-56.9c-3.5-0.1-6.2-1.5-6.1-3.2c0,0.1,0,0.1,0,0.2c0,0.9,0.5,1.7,1.4,2.1l-0.5,1.7l0,0
					l0.5-1.7c1.5,0.8,3.1,1.2,4.8,1.2c0.4,0,0.8,0,1.2,0c-0.2,0.2-0.3,0.3-0.5,0.5h0.8c0.2-0.2,0.3-0.4,0.5-0.6
					c0.7-0.1,1.3-0.2,1.9-0.4c-0.1,0.4-0.3,0.7-0.5,1h0.1l0.1-0.1c0.2-0.3,0.4-0.7,0.4-0.7c0-0.1,0.1-0.2,0.1-0.3
					c0.1-0.1,0.2-0.1,0.4-0.1c0.2-0.1,0.4-0.2,0.5-0.2c0.9-0.3,1.7-1.1,2-2.1c-0.2,0.5-0.5,0.9-0.9,1.1C2.6-57.3,0.4-56.7-1.7-56.9"
					/>
				<path id="Path_7322" class="st2" d="M5.3-59.8c-0.4,0.7-1,1.3-1.8,1.6l0.3-1.2c-0.1,0-0.3,0.1-0.4,0.1c0,0.2-0.1,0.6-0.1,0.6
					s0-0.1,0-0.2c0,0.2-0.1,0.4-0.1,0.6v0c0,0.1,0,0.1-0.1,0.2C2.9-58,2.8-58,2.6-57.9l-0.2,0.1c-0.5,0.2-1.1,0.3-1.6,0.4
					c-0.2,0-0.5,0.1-0.7,0.1c-0.4,0-0.8,0-1.2,0c-2.3-0.1-4.2-0.8-5.1-1.7l0,0c-0.3-0.3-0.5-0.8-0.5-1.3c0,0,0-0.1,0-0.1
					c0.2-0.8,0.7-1.4,1.3-1.7l0,0l0.1-0.4C-5.6-62.5-6-62.3-6.4-62l0,0c-0.7,0.4-1.2,1-1.4,1.8c0,0,0,0.1,0,0.1
					c0,1.7,2.7,3.1,6.1,3.2c2.1,0.1,4.2-0.4,6-1.6C4.8-58.8,5.1-59.3,5.3-59.8C5.3-59.9,5.3-59.9,5.3-59.8
					C5.3-59.9,5.3-59.9,5.3-59.8"/>
				<path id="Path_7323" class="st3" d="M0.5-55.7H0.2l-0.6,0.9h-0.1l-0.1,0.2h0.4L0-54.8h-0.1l0.1-0.1h0.3v0.1H0.2l-0.1,0.2h0.4
					l0.1-0.2H0.5L0.5-55.7z M0.2-55.1H0l0.2-0.4l0,0L0.2-55.1z"/>
				<path id="Path_7324" class="st3" d="M-4.3-55.2c-0.2-0.1-0.2-0.1-0.2-0.2c0-0.1,0.1-0.1,0.2-0.1C-4.3-55.5-4.3-55.4-4.3-55.2
					l0.3-0.1l0.1-0.4h-0.2l0,0.1l0,0c0-0.1-0.1-0.1-0.2-0.1c-0.2,0-0.4,0.1-0.4,0.4c-0.1,0.2,0.1,0.2,0.2,0.3
					c0.2,0.1,0.2,0.1,0.2,0.2c0,0.1-0.1,0.1-0.2,0.1c-0.1,0-0.1,0-0.1-0.1c0-0.1,0-0.1,0-0.2H-5l-0.1,0.4h0.2l0-0.1l0,0
					c0,0.1,0.1,0.1,0.2,0.1c0.2,0,0.4-0.1,0.4-0.3C-4.1-55.1-4.2-55.2-4.3-55.2"/>
				<path id="Path_7325" class="st3" d="M2.1-54.8H1.8l0.2-0.7h0.1l0.1-0.2H1.8l-0.1,0.2h0.1l-0.2,0.7H1.5l-0.1,0.2h0.8L2.3-55H2.1
					L2.1-54.8z"/>
				<path id="Path_7326" class="st3" d="M1.3-55L1.3-55l-0.1,0.2H1l0.2-0.7h0.1l0.1-0.2H0.9l-0.1,0.2h0.1l-0.2,0.7H0.6l-0.1,0.2h0.8
					L1.5-55H1.3z"/>
				<path id="Path_7327" class="st3" d="M-1.2-55.3l0.1-0.4H-2l-0.1,0.4h0.2l0.1-0.2h0.1l-0.2,0.7h-0.1l-0.1,0.2h0.5l0.1-0.2h-0.1
					l0.2-0.7h0.1l-0.1,0.2H-1.2z"/>
				<path id="Path_7328" class="st3" d="M-0.6-55.2L-0.6-55.2c0.1,0,0.2-0.1,0.3-0.3c0.1-0.2-0.1-0.3-0.2-0.3h-0.5l-0.1,0.2H-1
					l-0.2,0.7h-0.1l-0.1,0.2h0.5c0.2,0,0.4-0.1,0.4-0.3C-0.4-55-0.4-55.1-0.6-55.2 M-0.7-54.9c0,0.1-0.1,0.2-0.2,0.1H-1l0.1-0.3h0.1
					C-0.7-55.1-0.7-55-0.7-54.9 M-0.8-55.2L-0.8-55.2v-0.3h0.1c0.1,0,0.1,0,0.1,0.1C-0.6-55.3-0.7-55.2-0.8-55.2"/>
				<path id="Path_7329" class="st3" d="M-5.2-55.7h-0.3L-6-54.8h-0.1l-0.1,0.2h0.4l0.1-0.2h-0.1l0.1-0.1h0.3v0.1h-0.1l-0.1,0.2h0.4
					l0.1-0.2h-0.1L-5.2-55.7z M-5.4-55.1h-0.2l0.2-0.4l0,0L-5.4-55.1z"/>
				<path id="Path_7330" class="st3" d="M-2.2-55.4l0.1-0.3h-0.8L-3-55.5h0.1l-0.2,0.7h-0.1l-0.1,0.2h0.8l0.1-0.4h-0.2l-0.1,0.2
					h-0.3l0.1-0.3h0.1l0,0.1h0.2l0.1-0.4h-0.2l0,0.1h-0.1l0.1-0.3h0.3l0,0.2L-2.2-55.4z"/>
				<path id="Path_7331" class="st3" d="M-6.2-55.2L-6.2-55.2c0.1,0,0.2-0.1,0.3-0.3c0.1-0.2-0.1-0.3-0.2-0.3h-0.5l-0.1,0.2h0.1
					l-0.2,0.7H-7L-7-54.6h0.5c0.2,0,0.4-0.1,0.4-0.3C-6.1-55-6.1-55.1-6.2-55.2 M-6.3-54.9c0,0.1-0.1,0.2-0.2,0.1h-0.1l0.1-0.3h0.1
					C-6.3-55.1-6.3-55-6.3-54.9 M-6.4-55.2L-6.4-55.2l0-0.3h0.1c0.1,0,0.1,0,0.1,0.1C-6.2-55.3-6.3-55.2-6.4-55.2"/>
				<path id="Path_7332" class="st3" d="M-3.3-54.8l-0.2-0.4l0.4-0.3H-3l0.1-0.2h-0.4l-0.1,0.2h0.1l-0.3,0.3l0.1-0.3h0.1l0.1-0.2
					h-0.4L-4-55.5h0.1l-0.2,0.7h-0.1l-0.1,0.2h0.4l0.1-0.2h-0.1l0.1-0.4l0,0l0.1,0.4h-0.1l-0.1,0.2h0.4L-3.3-54.8L-3.3-54.8z"/>
				<line id="Line_824" class="st5" x1="5.5" y1="-65.9" x2="5.5" y2="-65.9"/>
				<path id="Path_7333" class="st2" d="M-3.6-65.9l0.4-1.3l0.5,1.3h0.8l0.4-1.3c0,0.2,0,0.4,0,0.6c0.1,0.4,0.5,0.8,1,0.7H1l0.3-0.4
					h1.1l0,0.4h0.9l0.2-0.4h1.1l0,0.4h0.8l-0.2-2.8H3.8l-0.2,0.6h0.2l-0.7,1.2L3-68.7H1.5l-0.2,0.6h0.2l-1,1.5h-0.8
					c-0.3,0-0.4-0.2-0.4-0.5c0-0.4,0.4-1,0.8-1h0.2l-0.1,0.3h0.7l0.3-0.9H0c-0.6,0.1-1.1,0.5-1.4,1l0.3-1h-1l-0.2,0.6H-2l-0.3,0.9
					l-0.7-1.5h-0.9L-4-68.1h0.3l-0.6,2.1L-3.6-65.9z M4-67l0.6-0.9l0,0.9H4z M2.3-67.9l0,0.9H1.7L2.3-67.9z"/>
				<path id="Path_7334" class="st2" d="M2.8-54.7h0.2v0.5H3v-0.5h0.2v-0.1L2.8-54.7L2.8-54.7z"/>
				<path id="Path_7335" class="st2" d="M5.9-66.1L5.9-66.1L6-66h0L5.9-66.1c0.1,0,0.2,0,0.2-0.1l0,0l0,0c0-0.1,0-0.1-0.1-0.1H5.8
					v0.3h0L5.9-66.1L5.9-66.1z M5.9-66.3L5.9-66.3c0.1,0,0.1,0,0.1,0C6-66.2,6-66.2,5.9-66.3L5.9-66.3L5.9-66.3z"/>
				<path id="Path_7336" class="st2" d="M3.7-54.5c0,0.1-0.1,0.1-0.1,0.2l0,0c0-0.1-0.1-0.2-0.1-0.2l-0.1-0.2H3.3v0.5h0.1v-0.2
					c0-0.1,0-0.2,0-0.2l0,0c0,0.1,0.1,0.2,0.1,0.2l0.1,0.2h0.1L3.7-54.5c0.1,0,0.1-0.1,0.2-0.2l0,0c0,0.1,0,0.2,0,0.2v0.2H4v-0.5
					H3.8L3.7-54.5z"/>
				<path id="Path_7337" class="st2" d="M5.9-65.9L5.9-65.9c0.1,0,0.2-0.1,0.2-0.2c0-0.1-0.1-0.2-0.2-0.2s-0.2,0.1-0.2,0.2
					S5.8-65.9,5.9-65.9 M5.7-66.2c0-0.1,0.1-0.2,0.2-0.2c0.1,0,0.2,0.1,0.2,0.2C6.1-66,6-66,5.9-66C5.8-66,5.7-66.1,5.7-66.2
					L5.7-66.2"/>
			</g>
		</g>
	</g>
</g>
<polygon class="st6" points="13,2.6 13.6,1.7 13.6,2.6 "/>
<polygon class="st6" points="11.3,1.7 11.3,2.6 10.7,2.6 "/>
</svg>
