<?xml version="1.0" encoding="utf-8"?>
<!-- Generator: Adobe Illustrator 27.9.0, SVG Export Plug-In . SVG Version: 6.00 Build 0)  -->
<svg version="1.1" id="Layer_1" xmlns="http://www.w3.org/2000/svg" xmlns:xlink="http://www.w3.org/1999/xlink" x="0px" y="0px"
	 viewBox="0 0 16 16" style="enable-background:new 0 0 16 16;" xml:space="preserve">
<style type="text/css">
	.st0{fill:#FFFFFF;}
	.st1{fill:#1D3768;}
	.st2{fill:#D42027;}
</style>
<g id="Group_6396" transform="translate(-57.204 -478.396)">
	<g id="NFL" transform="translate(-6.797 467.948)">
		<path id="Path_7274" class="st0" d="M77.1,12.3c-0.8,0.6-1.7,0.8-2.7,0.6c-1.2-0.3-2.2-1.2-2.7-2.4c-0.5,1.2-1.5,2.1-2.7,2.4
			c-0.9,0.2-1.9,0-2.7-0.6H66v9.9c0,0.5,0.2,0.9,0.5,1.2c0.7,0.7,1.6,1.1,2.5,1.2c0.8,0.1,1.5,0.4,2.1,0.9c0.3,0.3,0.5,0.6,0.7,1
			c0.2-0.3,0.4-0.7,0.7-1c0.6-0.5,1.3-0.8,2.1-0.9c0.9-0.1,1.8-0.5,2.5-1.2c0.3-0.4,0.5-0.8,0.5-1.2v-9.9H77.1z"/>
		<path id="Path_7275" class="st1" d="M77.2,12.7c-0.8,0.6-1.8,0.8-2.8,0.5c-1.1-0.3-2.1-0.9-2.6-1.9c-0.6,1-1.5,1.7-2.6,1.9
			c-1,0.2-2,0.1-2.8-0.5v9.5c0,0.3,0.1,1.7,2.7,2.1c0.8,0.1,1.7,0.4,2.3,1c0.2,0.2,0.3,0.4,0.4,0.5c0.1-0.2,0.3-0.4,0.4-0.5
			c0.6-0.6,1.4-0.9,2.3-1c2.5-0.4,2.7-1.8,2.7-2.1V12.7L77.2,12.7z"/>
		<path id="Path_7276" class="st0" d="M71.7,24.8c0.7-0.7,1.7-1.1,2.7-1.2c2.2-0.3,2.1-1.4,2.1-1.4v-4.9H67v4.9c0,0-0.1,1.1,2.1,1.4
			C70.1,23.7,71,24.1,71.7,24.8z"/>
		<path id="Path_7277" class="st2" d="M69.5,21.1v-2.4l-0.3-0.2v-0.6h1.3v0.6l-0.3,0.2v4.9l-0.7-0.2l-1-3.1v2.1l0.3,0.3v0.6
			l-1.4-0.4v-0.5l0.3-0.1v-3.5l-0.3-0.2v-0.6h1.1L69.5,21.1z M72,23.3l0.3,0.4v0.6l-1.4-0.5v-0.5l0.3-0.1v-4.4l-0.3-0.2v-0.6h2.5
			v1.3h-0.6l-0.2-0.5H72v1.5h0.5l0.2-0.3H73v1.3h-0.4l-0.2-0.3H72L72,23.3L72,23.3z M73.6,23.5v-0.6l0.3-0.3v-3.9l-0.3-0.2v-0.6H75
			v0.6l-0.3,0.2v3.7l0.6-0.2l0.1-1h0.6v1.6L73.6,23.5L73.6,23.5z"/>
		<path id="Path_7278" class="st0" d="M67.2,16.2l-0.4-0.3h0.5l0.2-0.5l0.2,0.5h0.5l-0.4,0.3l0.2,0.5l-0.4-0.3L67,16.7L67.2,16.2z
			 M69.1,16.2l-0.4-0.3h0.5l0.2-0.5l0.2,0.5H70l-0.4,0.3l0.2,0.5l-0.4-0.3l-0.4,0.3L69.1,16.2z M67.2,14.5l-0.4-0.3h0.5l0.2-0.5
			l0.2,0.5h0.5l-0.4,0.3l0.2,0.5l-0.4-0.3L67,15L67.2,14.5z M69.1,14.5l-0.4-0.3h0.5l0.2-0.5l0.2,0.5H70l-0.4,0.3l0.2,0.5l-0.4-0.3
			L68.9,15L69.1,14.5z M76.4,16.7L76,16.4l-0.4,0.3l0.2-0.5l-0.4-0.3h0.5l0.2-0.5l0.2,0.5h0.5l-0.4,0.3L76.4,16.7z M74.6,16.7
			l-0.4-0.3l-0.4,0.3l0.2-0.5l-0.4-0.3H74l0.2-0.5l0.2,0.5h0.5l-0.4,0.3L74.6,16.7z M76.4,15L76,14.7L75.6,15l0.2-0.5l-0.4-0.3h0.5
			l0.2-0.5l0.2,0.5h0.5l-0.4,0.3L76.4,15z M74.6,15l-0.4-0.3L73.7,15l0.2-0.5l-0.4-0.3H74l0.2-0.5l0.2,0.5h0.5l-0.4,0.3L74.6,15z
			 M72.9,13.1C73,13.1,73,13.1,72.9,13.1c0.3,0.6,0.3,1.2,0.2,1.7c-0.3,1.1-1.3,1.8-2.4,1.8c0,0-0.1,0-0.1,0
			c0.1-0.6,0.3-1.1,0.6-1.6c0.1,0,0.1,0.1,0.2,0.1c0,0,0.1-0.1,0.1-0.2c-0.2-0.1-0.4-0.2-0.7-0.3c0,0,0,0.1-0.1,0.2
			c0.1,0,0.1,0,0.2,0.1c-0.2,0.5-0.4,1.1-0.5,1.7c-0.1-0.2-0.2-0.5-0.2-0.7c-0.2-1.3,0.6-2.6,1.9-2.8c0.2,0,0.3-0.1,0.5,0
			C72.8,13,72.8,13,72.9,13.1c-0.3,0-0.5,0.2-0.7,0.3c-0.1,0-0.1,0-0.2-0.1c-0.1,0-0.1,0.1-0.2,0.1c0.2,0.1,0.4,0.1,0.6,0.3
			c0,0,0.1-0.1,0.1-0.1c-0.1-0.1-0.1-0.1-0.2-0.1C72.5,13.4,72.7,13.2,72.9,13.1L72.9,13.1z M71.6,14.8c0-0.1,0.1-0.1,0.1-0.2
			c-0.2-0.2-0.4-0.3-0.7-0.3c0,0.1-0.1,0.2-0.1,0.2C71.2,14.5,71.4,14.6,71.6,14.8z M71.9,14.4c0-0.1,0.1-0.1,0.1-0.2
			c-0.2-0.2-0.4-0.3-0.7-0.3c0,0.1-0.1,0.1-0.1,0.1C71.4,14.2,71.7,14.3,71.9,14.4L71.9,14.4z M72.1,14.1c0-0.1,0.1-0.1,0.1-0.1
			c-0.2-0.1-0.4-0.2-0.6-0.3c-0.1,0-0.1,0.1-0.2,0.1C71.7,13.8,72,13.9,72.1,14.1L72.1,14.1z"/>
	</g>
</g>
</svg>
