<?xml version="1.0" encoding="utf-8"?>
<!-- Generator: Adobe Illustrator 27.9.0, SVG Export Plug-In . SVG Version: 6.00 Build 0)  -->
<svg version="1.1" id="Layer_1" xmlns="http://www.w3.org/2000/svg" xmlns:xlink="http://www.w3.org/1999/xlink" x="0px" y="0px"
	 viewBox="0 0 16 16" style="enable-background:new 0 0 16 16;" xml:space="preserve">
<style type="text/css">
	.st0{fill:#FFFFFF;}
	.st1{fill:#CFD2D3;}
	.st2{fill:#231F20;}
</style>
<g>
	<path class="st0" d="M2.9,10.8c-0.1-0.3-0.2-0.7-0.3-1.1l8.8-6.3c0,0,0,0,0,0L2.6,9.7C2.6,10.1,2.7,10.4,2.9,10.8
		c0.3,0.7,0.9,1.2,1.6,1.6l0,0C3.8,12,3.2,11.5,2.9,10.8z"/>
	<polygon class="st0" points="10,8.4 12.2,6.8 12.2,6.8 	"/>
	<path class="st0" d="M4.5,9.5C4.5,9.5,4.5,9.5,4.5,9.5C4.5,9.4,4.5,9.4,4.5,9.5C4.5,9.4,4.5,9.5,4.5,9.5l0,2.3l0,0V9.5z"/>
	<polygon class="st0" points="5.2,9.7 5.3,9.9 5.2,9.7 	"/>
	<polygon class="st0" points="5.9,9.7 5.9,9.7 5.1,8.5 4.2,9.1 4.2,9.2 4.2,9.2 5.1,8.5 	"/>
	<polygon class="st0" points="7.8,8.3 7.8,8.4 8.6,7.8 8.6,7.8 	"/>
	<polygon class="st0" points="7.2,9.9 7.8,9.4 7.8,9.4 7.2,9.9 	"/>
	<path class="st0" d="M7.2,7.6c0-0.2-0.1-0.3-0.3-0.3C7,7.3,7.2,7.4,7.2,7.6L7.2,7.6L7.2,7.6z"/>
	<polygon class="st0" points="6.6,7.5 6.6,7.4 5.9,7.9 5.9,7.9 	"/>
	<polygon class="st0" points="10.4,4.7 10.4,4.7 9.4,5.4 	"/>
	<path class="st0" d="M9.8,5.7L9.8,5.7c0-0.2-0.1-0.3-0.3-0.3C9.6,5.4,9.8,5.6,9.8,5.7l0,2.3l0,0l0,0V5.7z"/>
	<path class="st0" d="M11.2,6.3L11.6,6c0,0,0,0,0,0L11.2,6.3l-0.8,0.5v0L11.2,6.3z"/>
	<path class="st0" d="M12.2,5.1c0.1-0.3,0.1-0.6,0.2-0.9l0,0C12.3,4.5,12.3,4.8,12.2,5.1z"/>
	<path class="st0" d="M7.3,3.2C7.3,3.2,7.3,3.2,7.3,3.2C7.4,3.1,7.5,3.1,7.5,3l0,0c0.1,0,0.1-0.1,0.2-0.1c0.6,0.4,1.3,0.7,2,0.7
		c0.1,0,0.3,0,0.4,0l0,0c-0.1,0-0.3,0-0.4,0c-0.7,0-1.5-0.2-2-0.7C7.7,2.9,7.7,2.9,7.6,3l0,0C7.5,3.1,7.4,3.1,7.3,3.2
		C7.3,3.2,7.3,3.2,7.3,3.2C7.2,3.2,7.2,3.2,7.3,3.2C7.2,3.2,7.2,3.2,7.3,3.2z"/>
	<path class="st0" d="M13,9.6c-0.1-0.7-0.3-1.5-0.6-2.2l0,0C12.7,8.1,12.9,8.8,13,9.6c-0.1,1.5-1.2,2.7-2.6,3
		c-0.2,0-0.4,0.1-0.7,0.1c0.2,0,0.5-0.1,0.7-0.1C11.8,12.3,12.9,11.1,13,9.6z"/>
	<path class="st0" d="M7.8,13.3L7.8,13.3c0,0,0.1-0.1,0.1-0.1C7.9,13.2,7.8,13.2,7.8,13.3z"/>
	<path class="st0" d="M5.3,12.6l-0.1,0L5.3,12.6c0.8,0.1,1.6,0.3,2.4,0.5c0.1,0,0.1,0.1,0.2,0.1h0c-0.1-0.1-0.1-0.1-0.2-0.1
		C6.9,12.9,6.1,12.7,5.3,12.6z"/>
	<path class="st0" d="M5,13.5c0.4,0.1,0.8,0.2,1.2,0.2c0.3,0,0.5,0.1,0.7,0.1C7,13.9,7.2,14,7.3,14c0.1,0.1,0.5,0.5,0.5,0.5h0
		c0,0,0,0,0,0c-0.1,0-0.4-0.4-0.5-0.5c-0.1,0-0.3-0.1-0.4-0.1c-0.2,0-0.5-0.1-0.7-0.1C5.9,13.7,5.5,13.6,5,13.5
		c-1.9-0.4-3.3-2-3.4-3.9c0-1.5,0.8-2,0.8-3.6c0-0.8-0.3-1.6-0.7-2.4c0.2,0,0.4-0.1,0.5-0.1c0.7-0.3,1.2-0.9,1.4-1.6
		c0-0.1,0-0.1,0-0.2c0,0,0,0,0,0c0,0.1,0,0.1,0,0.2C3.6,2.6,3.1,3.2,2.4,3.5C2.2,3.6,2,3.6,1.8,3.6C2.2,4.3,2.5,5.2,2.5,6
		c0,1.6-0.8,2.1-0.8,3.6C1.7,11.5,3.1,13.2,5,13.5z"/>
	<path class="st0" d="M5.8,2.6c0.8,0,1.5-0.4,2-1l0,0l0,0l0,0C7.3,2.2,6.5,2.5,5.8,2.6C5.8,2.6,5.8,2.6,5.8,2.6z"/>
	<path class="st0" d="M4.1,2.4L4.1,2.4C4,2.6,3.9,2.7,3.8,2.9C3.9,2.7,4,2.6,4.1,2.4z"/>
	<path class="st0" d="M12.7,6c0,0.4,0,0.7,0.1,1.1c0,0.1,0.1,0.3,0.1,0.4c0,0.1,0.1,0.3,0.1,0.4c0,0.1,0.1,0.3,0.1,0.4
		c0.1,0.2,0.1,0.4,0.2,0.6c0,0.1,0.1,0.3,0.1,0.4c0,0.1,0,0.2,0,0.3c-0.1,1.7-1.3,3.2-3,3.5c-0.8,0.1-1.6,0.3-2.4,0.5
		c0,0-0.2,0.2-0.3,0.2c-0.1-0.1-0.3-0.2-0.3-0.2c-0.8-0.2-1.6-0.4-2.4-0.5c-1.7-0.3-2.9-1.8-3-3.5c0,0,0,0,0,0
		c0.1,1.7,1.3,3.2,3,3.5c0.8,0.1,1.6,0.3,2.4,0.5c0,0,0.2,0.2,0.3,0.2c0.1-0.1,0.3-0.2,0.3-0.2c0.8-0.2,1.6-0.4,2.4-0.5
		c1.7-0.3,2.9-1.8,3-3.5c0-0.1,0-0.2,0-0.3c0-0.1,0-0.3-0.1-0.4c0-0.2-0.1-0.4-0.2-0.6c0-0.1-0.1-0.3-0.1-0.4c0-0.1-0.1-0.3-0.1-0.4
		c0-0.1-0.1-0.3-0.1-0.4C12.7,6.7,12.7,6.4,12.7,6c0-0.7,0.2-1.4,0.5-2.1c0,0,0,0,0,0C12.8,4.6,12.7,5.3,12.7,6z"/>
	<path class="st0" d="M2.9,6c0-0.7-0.2-1.4-0.5-2.1c0,0,0,0,0,0C2.8,4.6,2.9,5.3,2.9,6C2.9,6,2.9,6,2.9,6z"/>
	<path class="st0" d="M7.8,1.6c0.3,0.3,0.6,0.5,0.9,0.7C8.4,2.1,8.1,1.9,7.8,1.6L7.8,1.6L7.8,1.6z"/>
	<path class="st0" d="M13.5,4.3c0.1-0.2,0.2-0.5,0.3-0.7h0C13.6,3.9,13.5,4.1,13.5,4.3z"/>
	<path class="st0" d="M11.6,2.4C11.6,2.4,11.6,2.4,11.6,2.4c0.2,0.5,0.6,1,1,1.3C12.1,3.4,11.7,3,11.6,2.4z"/>
	<path class="st0" d="M14.9,9.6c0-0.9-0.2-1.5-0.4-2C14.2,7.1,14,6.7,14,6c0-0.5,0.1-1.1,0.3-1.5L15,3l-1.5-0.4
		c-0.3-0.1-0.6-0.3-0.7-0.7l-0.7-1.8l-1.5,1.2c-0.2,0.2-0.5,0.3-0.8,0.3c-0.4,0-0.8-0.2-1.1-0.4l-1-0.9l-1,0.9
		C6.5,1.5,6.2,1.7,5.8,1.7c-0.3,0-0.6-0.1-0.8-0.3L3.4,0.2L2.8,1.9C2.7,2.3,2.4,2.5,2.1,2.6L0.6,3l0.7,1.4c0.2,0.5,0.3,1,0.3,1.5
		c0,0.7-0.2,1.1-0.4,1.6C1,8.1,0.7,8.7,0.7,9.6c0.1,2.3,1.8,4.3,4.1,4.8c0.5,0.1,0.8,0.2,1.1,0.2c0.3,0.1,0.5,0.1,0.9,0.2l1,1l1-1
		c0.4-0.1,0.6-0.1,0.9-0.2c0.3-0.1,0.6-0.1,1.1-0.2c1-0.2,1.9-0.7,2.5-1.4c0,0.1-0.1,0.2,0,0.3c0,0.4,0.4,0.7,0.8,0.7c0,0,0,0,0,0
		c0.2,0,0.4-0.1,0.5-0.2h0.1l0-0.1c0.1-0.1,0.2-0.3,0.2-0.4c0-0.2-0.1-0.4-0.2-0.5c-0.2-0.1-0.4-0.2-0.6-0.2c-0.1,0-0.2,0-0.3,0.1
		C14.4,11.7,14.8,10.7,14.9,9.6z M6.9,14.6c-0.8-0.2-1.1-0.2-2.1-0.4C2.7,13.7,1.1,11.8,1,9.6C1,7.9,1.8,7.5,1.8,6
		c0-0.6-0.1-1.1-0.4-1.6L0.9,3.2l1.2-0.4C2.6,2.7,2.9,2.4,3,2l0.5-1.4l1.2,1c0.3,0.2,0.6,0.4,1,0.4c0.5,0,0.9-0.2,1.3-0.5l0.8-0.7
		l0.8,0.7c0.3,0.3,0.8,0.5,1.3,0.5c0.4,0,0.7-0.1,1-0.4l1.2-1L12.6,2c0.1,0.4,0.4,0.7,0.8,0.8l1.2,0.4l-0.5,1.1
		c-0.2,0.5-0.4,1.1-0.4,1.6c0,1.5,0.8,1.9,0.8,3.6c-0.1,2.2-1.7,4.1-3.9,4.6c-0.9,0.2-1.2,0.2-2.1,0.4l-0.9,0.9L6.9,14.6z M14,12.7
		c0.3,0,0.5,0.2,0.5,0.5c0,0.3-0.2,0.5-0.5,0.5c-0.3,0-0.5-0.2-0.5-0.5C13.5,13,13.8,12.8,14,12.7z"/>
	<path class="st0" d="M12.4,2.1c0.1,0.5,0.5,0.8,1,0.9l1,0.3L14,4.3c-0.3,0.5-0.4,1.1-0.4,1.7c0,1.6,0.8,1.9,0.8,3.6
		c-0.1,2.1-1.6,3.9-3.7,4.4c-1,0.2-1.4,0.3-2.1,0.4c-0.1,0.1-0.8,0.8-0.8,0.8c0,0,0,0,0,0s0.7-0.7,0.8-0.8c0.7-0.2,1.2-0.2,2.1-0.4
		c2.1-0.4,3.6-2.2,3.7-4.4c0-1.7-0.8-2-0.8-3.6h0c0-0.6,0.1-1.2,0.4-1.7l0.4-0.9l-1-0.3C12.9,2.9,12.6,2.5,12.4,2.1L12,1l0-0.1l0,0
		L12,1L12.4,2.1z"/>
	<path class="st0" d="M4.6,1.7C4.9,2,5.3,2.1,5.7,2.1c0.5,0,1-0.2,1.4-0.6L7.8,1l0.7,0.6c0.4,0.4,0.9,0.6,1.4,0.6c0,0,0,0,0,0
		c-0.5,0-1-0.2-1.4-0.6L7.8,1L7.2,1.6C6.8,1.9,6.3,2.1,5.8,2.1C5.3,2.1,5,2,4.6,1.7l-1-0.8l0,0L4.6,1.7z"/>
	<path class="st0" d="M7,14.4c-0.7-0.2-1.2-0.2-2.1-0.4c-1.5-0.3-2.7-1.3-3.3-2.7c0.6,1.4,1.8,2.4,3.3,2.7C5.9,14.2,6.3,14.2,7,14.4
		C7,14.4,7,14.4,7,14.4z"/>
	<path class="st0" d="M14,13.2h0.1c0,0,0.1,0,0.1-0.1s0-0.1-0.1-0.1H14V13.2z"/>
	<path class="st0" d="M14,13.7c0.1,0,0.2,0,0.3-0.1c0.1-0.1,0.1-0.2,0.1-0.3c0-0.2-0.2-0.4-0.4-0.4c-0.2,0-0.4,0.1-0.4,0.4
		C13.6,13.5,13.8,13.6,14,13.7z M14.1,13c0.1,0,0.2,0.1,0.2,0.2c0,0.1,0,0.1-0.1,0.2l0.1,0.2h-0.1L14,13.3H14v0.2h-0.1V13H14.1z"/>
	<path class="st1" d="M4.9,13.9c1,0.2,1.4,0.3,2.1,0.4c0,0,0,0,0,0c0,0,0,0,0,0c0.1,0.1,0.7,0.7,0.8,0.8c0,0,0.7-0.7,0.8-0.8
		c0.7-0.2,1.2-0.2,2.1-0.4c2.1-0.4,3.6-2.2,3.7-4.4c0-1.7-0.8-2-0.8-3.6c0-0.6,0.1-1.2,0.4-1.7l0.4-0.9l-1-0.3
		c-0.5-0.1-0.8-0.5-1-0.9L12,1l0-0.1l-1,0.8C10.7,2,10.3,2.1,9.9,2.1c0,0,0,0,0,0c0,0,0,0,0,0c-0.5,0-1-0.2-1.4-0.6L7.8,1L7.1,1.6
		C6.8,1.9,6.3,2.1,5.7,2.1C5.3,2.1,4.9,2,4.6,1.7l-1-0.8L3.2,2.1C3,2.5,2.7,2.9,2.2,3l-1,0.3l0.4,0.9C1.9,4.8,2,5.4,2,6
		c0,1.6-0.8,1.9-0.8,3.6c0,0.6,0.2,1.1,0.4,1.7C2.2,12.6,3.4,13.6,4.9,13.9z M2.5,6c0-0.8-0.3-1.6-0.7-2.4c0.2,0,0.4-0.1,0.5-0.1
		c0.7-0.3,1.2-0.9,1.4-1.6c0-0.1,0-0.1,0-0.2c0,0,0,0,0,0c0,0,0,0,0,0C4.4,2.2,5,2.5,5.8,2.6c0.8,0,1.5-0.4,2-1l0,0l0,0l0,0l0,0l0,0
		c0.3,0.3,0.6,0.5,0.9,0.7s0.7,0.3,1.1,0.3c0.7-0.1,1.4-0.4,1.9-0.9h0c0.2,0.9,0.8,1.6,1.6,1.9c0.1,0,0.2,0.1,0.4,0.1h0c0,0,0,0,0,0
		h0c-0.1,0.2-0.2,0.5-0.3,0.7c-0.2,0.5-0.3,1.1-0.3,1.6c0,1.6,0.8,2.1,0.8,3.6c-0.1,1.9-1.5,3.6-3.4,3.9c-0.5,0.1-0.9,0.2-1.2,0.3
		c-0.2,0-0.5,0.1-0.6,0.1c-0.1,0-0.3,0.1-0.4,0.1c-0.1,0.1-0.5,0.5-0.5,0.5l0,0c0,0,0,0,0,0c0,0,0,0,0,0h0c0,0-0.4-0.5-0.5-0.5
		c-0.1,0-0.3-0.1-0.4-0.1c-0.2,0-0.5-0.1-0.7-0.1c-0.3-0.1-0.7-0.1-1.2-0.2c-1.9-0.4-3.3-2-3.4-3.9C1.7,8.1,2.5,7.6,2.5,6z"/>
	<path class="st1" d="M11.6,2.4c-0.2,0.1-0.4,0.3-0.6,0.4c-0.1,0.1-0.3,0.1-0.4,0.2C10.4,3,10.3,3,10.1,3C10,3,9.9,3,9.9,3
		C9.7,3,9.5,3,9.3,3C8.7,2.9,8.2,2.6,7.8,2.2C7.7,2.3,7.7,2.3,7.6,2.4c0,0,0,0,0,0C7.4,2.5,7.3,2.6,7.1,2.7l0,0
		C7,2.8,6.9,2.8,6.9,2.8l0,0c-0.1,0-0.2,0.1-0.2,0.1l0,0C6.5,2.9,6.4,3,6.3,3l0,0C6.2,3,6.1,3,6,3h0C5.9,3,5.8,3,5.8,3
		C5.1,3,4.5,2.8,4.1,2.4l0,0l0,0C4,2.6,3.9,2.7,3.8,2.9C3.5,3.4,3,3.7,2.5,3.9C2.8,4.5,2.9,5.3,2.9,6c0,0,0,0,0,0s0,0,0,0
		c0,1.7-0.8,2.3-0.8,3.6c0.1,1.7,1.3,3.2,3,3.5c0.8,0.1,1.6,0.3,2.4,0.5c0,0,0.2,0.2,0.3,0.2c0.1-0.1,0.3-0.2,0.3-0.2
		c0.8-0.2,1.6-0.4,2.4-0.5c1.7-0.3,2.9-1.8,3-3.5c0-0.1,0-0.2,0-0.3c0-0.1,0-0.3-0.1-0.4c0-0.2-0.1-0.4-0.2-0.6
		c0-0.1-0.1-0.3-0.1-0.4c0-0.1-0.1-0.3-0.1-0.4c0-0.1-0.1-0.3-0.1-0.4c-0.1-0.4-0.1-0.7-0.1-1.1c0-0.7,0.2-1.4,0.5-2.1
		c-0.2-0.1-0.4-0.1-0.5-0.2C12.1,3.4,11.7,3,11.6,2.4z M8,13.1C8,13.1,8,13.1,8,13.1c-0.1,0.1-0.1,0.1-0.2,0.1h0h0
		c-0.1-0.1-0.1-0.1-0.2-0.1c-0.8-0.2-1.6-0.4-2.4-0.5l-0.1,0l7.2-5.1v0v0l0,0c0.3,0.7,0.5,1.4,0.6,2.2c-0.1,1.5-1.2,2.7-2.6,3
		c-0.2,0-0.5,0.1-0.7,0.1C9.1,12.8,8.5,13,8,13.1z M12.2,6.8L12.2,6.8C12.2,6.8,12.2,6.8,12.2,6.8L10,8.4l-5.5,3.9c0,0,0,0,0,0l0,0
		c-0.7-0.3-1.3-0.9-1.6-1.6c-0.2-0.3-0.2-0.7-0.3-1.1l8.9-6.3c0,0,0,0,0,0l0,0c0.3,0.3,0.6,0.6,0.9,0.8v0c0,0,0,0,0,0l0,0
		c-0.1,0.3-0.2,0.6-0.2,0.9c-0.1,0.3-0.1,0.6-0.1,0.9C12.1,6.3,12.2,6.5,12.2,6.8z M7.2,3.2c0,0,0.1,0,0.1,0c0,0,0.1,0,0.1,0
		c0.1,0,0.1-0.1,0.2-0.1l0,0c0.1,0,0.1-0.1,0.2-0.1c0.6,0.4,1.3,0.7,2,0.7c0.1,0,0.3,0,0.4,0l0,0c0,0,0,0,0,0L2.7,8.9
		C3.2,8,3.4,7,3.5,6c0-0.6-0.1-1.2-0.3-1.8c0.5-0.2,0.8-0.6,1.1-1c0.1,0,0.1,0.1,0.2,0.1l0,0c0,0,0.1,0,0.1,0.1l0,0
		c0.1,0,0.1,0,0.2,0.1l0,0c0,0,0.1,0,0.1,0l0.1,0c0,0,0.1,0,0.1,0l0.1,0c0,0,0.1,0,0.1,0l0.1,0c0,0,0.1,0,0.1,0h0c0.1,0,0.1,0,0.1,0
		c0.1,0,0.1,0,0.2,0c0,0,0.1,0,0.1,0c0.1,0,0.1,0,0.2,0c0,0,0.1,0,0.1,0c0.1,0,0.1,0,0.2,0c0,0,0.1,0,0.1,0c0.1,0,0.1,0,0.2-0.1
		l0.1,0c0.1,0,0.1,0,0.2-0.1L7.2,3.2C7.1,3.2,7.1,3.2,7.2,3.2z"/>
	<path class="st1" d="M4.5,9.4C4.5,9.5,4.5,9.5,4.5,9.4v2.3l0.6-0.4V9.7l0,0v0l0.1,0.2l0.6,0.9l0.7-0.5l0-2.8L5.9,7.9v1.8v0L5.1,8.5
		L4.2,9.2C4.4,9.2,4.5,9.3,4.5,9.4C4.5,9.4,4.5,9.4,4.5,9.4C4.5,9.4,4.5,9.4,4.5,9.4C4.5,9.4,4.5,9.4,4.5,9.4z"/>
	<path class="st1" d="M9.2,5.6L8.6,6v1v0L7.8,7.6v0v-1l-1,0.7c0.2,0,0.3,0.1,0.3,0.3v0v0v2.3l0.7-0.5v-1v0l0.7-0.5v0v1l0.6-0.5V5.6z
		"/>
	<path class="st1" d="M9.4,5.4L9.4,5.4c0.2,0,0.3,0.1,0.3,0.3v0V8l0,0l1.8-1.3c0-0.2,0-0.5,0-0.7l0,0l-0.4,0.3l-0.8,0.6v0l0,0V4.7
		l0,0L9.4,5.4L9.4,5.4z"/>
	<path class="st2" d="M12.2,5.1c0.1-0.3,0.1-0.6,0.2-0.9c0,0,0,0,0,0v0c-0.4-0.2-0.7-0.5-0.9-0.8l0,0L2.6,9.7c0,0.4,0.1,0.7,0.3,1.1
		c0.3,0.7,0.9,1.2,1.6,1.6c0,0,0,0,0,0L10,8.4l2.2-1.6l0,0c0-0.3-0.1-0.5-0.1-0.8C12.1,5.7,12.2,5.4,12.2,5.1z M8.6,8.9v-1L7.8,8.4
		v1v0L7.2,9.9v0V7.6c0-0.2-0.1-0.3-0.3-0.3l1-0.7v1v0l0.7-0.5v0V6l0.6-0.5v2.8L8.6,8.9z M4.5,9.5C4.5,9.5,4.5,9.4,4.5,9.5
		C4.5,9.4,4.5,9.4,4.5,9.5C4.5,9.4,4.5,9.4,4.5,9.5c0-0.2-0.1-0.3-0.3-0.3h0l0,0l0.9-0.7l0.8,1.2V7.9v0l0.7-0.5l0,0l0,2.8l-0.7,0.5
		L5.3,9.9L5.2,9.7l0,0v1.6l-0.6,0.4l0,0V9.5z M10.4,4.7L10.4,4.7L10.4,4.7v2.1l0,0l0.8-0.6L11.6,6c0,0,0,0,0,0l0,0
		c0,0.2,0,0.5,0,0.7L9.8,8l0,0V5.7c0-0.2-0.1-0.3-0.3-0.3h0h0L10.4,4.7z"/>
	<path class="st2" d="M7.1,3.3L7.1,3.3C7,3.3,6.9,3.3,6.8,3.3l-0.1,0c-0.1,0-0.1,0-0.2,0.1c0,0-0.1,0-0.1,0c-0.1,0-0.1,0-0.2,0
		c0,0-0.1,0-0.1,0c-0.1,0-0.1,0-0.2,0c0,0-0.1,0-0.1,0c-0.1,0-0.1,0-0.2,0c0,0-0.1,0-0.1,0h0c0,0-0.1,0-0.1,0l-0.1,0
		c0,0-0.1,0-0.1,0l-0.1,0c0,0-0.1,0-0.1,0L5,3.4c0,0-0.1,0-0.1,0l0,0c-0.1,0-0.1,0-0.2-0.1l0,0c0,0-0.1,0-0.1-0.1l0,0
		c-0.1,0-0.1-0.1-0.2-0.1C4,3.6,3.6,3.9,3.2,4.2C3.4,4.7,3.5,5.4,3.5,6C3.4,7,3.2,8,2.7,8.9l7.5-5.4c0,0,0,0,0,0c-0.1,0-0.3,0-0.4,0
		c-0.7,0-1.5-0.2-2-0.7C7.7,2.9,7.7,3,7.6,3l0,0c-0.1,0-0.1,0.1-0.2,0.1c0,0-0.1,0-0.1,0C7.2,3.2,7.2,3.2,7.1,3.3
		C7.1,3.2,7.1,3.2,7.1,3.3z"/>
	<path class="st2" d="M10.3,12.6c1.5-0.3,2.5-1.5,2.6-3c-0.1-0.7-0.3-1.5-0.6-2.2v0v0l-7.2,5.1l0.1,0c0.8,0.1,1.6,0.3,2.4,0.5
		c0.1,0,0.1,0.1,0.2,0.1c0,0,0.1-0.1,0.1-0.1c0,0,0,0,0,0c0.6-0.2,1.1-0.3,1.7-0.4C9.9,12.7,10.1,12.6,10.3,12.6z"/>
	<path class="st2" d="M2.4,3.5C2.2,3.5,2,3.6,1.9,3.6C2.3,4.3,2.5,5.2,2.5,6c0,1.6-0.8,2.1-0.8,3.6c0.1,1.9,1.5,3.6,3.4,3.9
		c0.4,0.1,0.8,0.2,1.1,0.2c0.3,0,0.5,0.1,0.7,0.1c0.1,0,0.3,0.1,0.4,0.1c0.1,0.1,0.4,0.5,0.5,0.5c0,0,0,0,0,0l0,0
		c0,0,0.4-0.5,0.5-0.5c0.1,0,0.3-0.1,0.4-0.1c0.2,0,0.4-0.1,0.6-0.1c0.3-0.1,0.7-0.1,1.2-0.3c1.9-0.4,3.3-2,3.4-3.9
		c0-1.5-0.8-2-0.8-3.6c0-0.6,0.1-1.1,0.3-1.6c0.1-0.2,0.2-0.5,0.3-0.7c0,0,0,0,0,0h0c-0.1,0-0.3,0-0.4-0.1c-0.8-0.3-1.5-1-1.6-1.9h0
		c-0.5,0.5-1.2,0.8-1.9,0.9c-0.4,0-0.8-0.1-1.1-0.3C8.4,2.1,8.1,1.9,7.8,1.6l0,0l0,0l0,0l0,0c-0.5,0.6-1.2,0.9-2,1c0,0,0,0,0,0
		C5,2.5,4.4,2.2,3.9,1.7c0,0,0,0,0,0c0,0.1,0,0.1,0,0.2C3.6,2.6,3.1,3.2,2.4,3.5z M12.6,3.7c0.2,0.1,0.3,0.2,0.5,0.2c0,0,0,0,0,0
		c-0.3,0.7-0.5,1.4-0.5,2.1c0,0.4,0,0.7,0.1,1.1c0,0.2,0.1,0.3,0.1,0.4c0,0.1,0.1,0.3,0.1,0.4c0,0.1,0.1,0.3,0.1,0.4
		c0.1,0.2,0.1,0.4,0.2,0.6c0,0.1,0.1,0.3,0.1,0.4c0,0.1,0,0.2,0,0.3c-0.1,1.7-1.3,3.2-3,3.5c-0.8,0.1-1.6,0.3-2.4,0.5
		c0,0-0.2,0.2-0.3,0.2c-0.1-0.1-0.3-0.3-0.3-0.2c-0.8-0.2-1.6-0.4-2.4-0.5c-1.7-0.3-2.9-1.8-3-3.5c0,0,0,0,0,0
		c0-1.4,0.8-1.9,0.8-3.6c0,0,0,0,0,0c0-0.7-0.2-1.4-0.5-2.1c0,0,0,0,0,0c0.6-0.2,1-0.5,1.3-1C3.9,2.7,4,2.6,4.1,2.4l0,0l0,0l0,0
		C4.5,2.8,5.1,3,5.8,3C5.8,3,5.9,3,6,3h0c0.1,0,0.2,0,0.3,0l0,0c0.1,0,0.2,0,0.2-0.1l0,0c0.1,0,0.2-0.1,0.2-0.1l0,0
		c0.1,0,0.2-0.1,0.2-0.1l0,0c0.1-0.1,0.3-0.2,0.4-0.3c0,0,0,0,0,0c0.1-0.1,0.1-0.1,0.2-0.2C8.2,2.6,8.7,2.9,9.3,3C9.5,3,9.7,3,9.9,3
		c0.1,0,0.2,0,0.2,0c0.2,0,0.3,0,0.5-0.1c0.1,0,0.3-0.1,0.4-0.2c0.2-0.1,0.4-0.2,0.6-0.4c0,0,0,0,0,0C11.7,3,12.1,3.4,12.6,3.7z"/>
	<path class="st2" d="M7.8,15.5l0.9-0.9c0.8-0.2,1.1-0.2,2.1-0.4c2.2-0.5,3.8-2.3,3.9-4.6c0-1.7-0.8-2.1-0.8-3.6
		c0-0.6,0.1-1.1,0.4-1.6l0.5-1.1l-1.2-0.4C13,2.7,12.7,2.4,12.6,2l-0.5-1.4l-1.2,1c-0.3,0.2-0.6,0.4-1,0.4c-0.5,0-0.9-0.2-1.3-0.5
		L7.8,0.7L7,1.4C6.7,1.7,6.2,1.9,5.8,1.9c-0.4,0-0.7-0.1-1-0.4l-1.2-1L3,2C2.9,2.4,2.6,2.7,2.2,2.8L0.9,3.2l0.5,1.1
		C1.7,4.9,1.8,5.4,1.8,6C1.8,7.5,1,7.9,1,9.6c0.1,2.2,1.7,4.1,3.9,4.6c0.9,0.2,1.2,0.2,2.1,0.4L7.8,15.5z M4.9,14
		c-1.5-0.3-2.7-1.3-3.3-2.7c-0.2-0.5-0.4-1.1-0.4-1.7C1.2,7.9,2,7.6,2,6c0-0.6-0.1-1.2-0.4-1.7L1.2,3.3l1-0.3c0.5-0.1,0.8-0.5,1-0.9
		l0.4-1.2l0,0l1,0.8C5,2,5.3,2.1,5.8,2.1c0.5,0,1-0.2,1.4-0.6L7.8,1l0.7,0.6c0.4,0.4,0.9,0.6,1.4,0.6c0,0,0,0,0,0
		c0.4,0,0.8-0.2,1.1-0.4l1-0.8l0,0L12,1l0.4,1.1c0.1,0.5,0.5,0.8,1,0.9l1,0.3L14,4.3c-0.3,0.5-0.4,1.1-0.4,1.7h0
		c0,1.6,0.8,1.9,0.8,3.6c-0.1,2.1-1.6,3.9-3.7,4.4c-1,0.2-1.4,0.3-2.1,0.4c-0.1,0.1-0.8,0.8-0.8,0.8s0,0,0,0c0-0.1-0.7-0.7-0.8-0.8
		c0,0,0,0,0,0C6.3,14.2,5.9,14.2,4.9,14z"/>
	<path d="M13.5,13.3c0,0.3,0.3,0.5,0.5,0.5c0.3,0,0.5-0.2,0.5-0.5c0-0.3-0.2-0.5-0.5-0.5C13.8,12.8,13.5,13,13.5,13.3z M14.1,12.9
		c0.2,0,0.4,0.2,0.4,0.4c0,0.1,0,0.2-0.1,0.3c-0.1,0.1-0.2,0.1-0.3,0.1c-0.2,0-0.4-0.2-0.4-0.4C13.7,13,13.9,12.8,14.1,12.9z"/>
	<path d="M13.9,13.5H14v-0.2H14l0.1,0.2h0.1l-0.1-0.2c0.1,0,0.1-0.1,0.1-0.2c0-0.1-0.1-0.2-0.2-0.2h-0.3V13.5z M14.1,13.1
		C14.2,13.1,14.2,13.1,14.1,13.1c0.1,0.1,0,0.1,0,0.1H14v-0.1H14.1z"/>
</g>
</svg>
