<?xml version="1.0" encoding="utf-8"?>
<!-- Generator: Adobe Illustrator 27.9.0, SVG Export Plug-In . SVG Version: 6.00 Build 0)  -->
<svg version="1.1" id="Layer_1" xmlns="http://www.w3.org/2000/svg" xmlns:xlink="http://www.w3.org/1999/xlink" x="0px" y="0px"
	 viewBox="0 0 16 16" style="enable-background:new 0 0 16 16;" xml:space="preserve">
<style type="text/css">
	.st0{fill:#3179BE;}
	.st1{fill:#2F78BD;}
	.st2{fill:#3177BC;}
	.st3{fill:url(#SVGID_1_);}
	.st4{fill:url(#SVGID_00000052075934075431168800000003848077707916149649_);}
	.st5{fill:url(#SVGID_00000057830130495768209100000008938894680520548542_);}
	.st6{fill:url(#SVGID_00000011712976562914025010000014096844879903009726_);}
	.st7{fill:url(#SVGID_00000118391681037116622570000010151733922619853445_);}
	.st8{fill:url(#SVGID_00000122001340966629571060000004940739075507407255_);}
	.st9{fill:#1F8ECE;}
	.st10{fill:#FFFFFF;}
</style>
<g id="Group_6425" transform="translate(12 253.604)">
	<path id="Path_7571" class="st0" d="M1.4-243.8L1.4-243.8L1.4-243.8L1.4-243.8z"/>
	<path id="Path_7572" class="st1" d="M1.3-243.8L1.3-243.8L1.3-243.8L1.3-243.8L1.3-243.8z"/>
	<path id="Path_7573" class="st2" d="M1.2-243.8l0.1,0.1l0,0L1.2-243.8L1.2-243.8L1.2-243.8z"/>
	
		<linearGradient id="SVGID_1_" gradientUnits="userSpaceOnUse" x1="11907.5908" y1="-6338.4121" x2="11964.9785" y2="-6371.5444" gradientTransform="matrix(9.000000e-02 0 0 -9.000000e-02 -1080.9301 -815.134)">
		<stop  offset="0" style="stop-color:#3179BE"/>
		<stop  offset="1" style="stop-color:#22356D"/>
	</linearGradient>
	<polygon class="st3" points="-9.2,-243.8 -4,-240.6 -6,-243.8 	"/>
	
		<linearGradient id="SVGID_00000072996417481116342280000013885635837668933771_" gradientUnits="userSpaceOnUse" x1="12014.8857" y1="-6341.333" x2="11960.9736" y2="-6379.0825" gradientTransform="matrix(9.000000e-02 0 0 -9.000000e-02 -1080.9301 -815.134)">
		<stop  offset="0" style="stop-color:#3179BE"/>
		<stop  offset="1" style="stop-color:#22356D"/>
	</linearGradient>
	<polygon style="fill:url(#SVGID_00000072996417481116342280000013885635837668933771_);" points="-2,-243.8 -4,-240.6 1.2,-243.8 	
		"/>
	
		<linearGradient id="SVGID_00000176731192947990856110000011801429803377195421_" gradientUnits="userSpaceOnUse" x1="11952.1504" y1="-6367.1714" x2="11985.4307" y2="-6347.9575" gradientTransform="matrix(9.000000e-02 0 0 -9.000000e-02 -1080.9301 -815.134)">
		<stop  offset="0" style="stop-color:#3179BE"/>
		<stop  offset="1" style="stop-color:#22356D"/>
	</linearGradient>
	<polygon style="fill:url(#SVGID_00000176731192947990856110000011801429803377195421_);" points="-6,-243.8 -4,-240.6 -4,-243.8 	
		"/>
	
		<linearGradient id="SVGID_00000129915555371067299350000013600733210295211917_" gradientUnits="userSpaceOnUse" x1="11971.4922" y1="-6328.437" x2="11942.833" y2="-6308.3691" gradientTransform="matrix(9.000000e-02 0 0 -9.000000e-02 -1080.9301 -815.134)">
		<stop  offset="0" style="stop-color:#3179BE"/>
		<stop  offset="1" style="stop-color:#22356D"/>
	</linearGradient>
	<polygon style="fill:url(#SVGID_00000129915555371067299350000013600733210295211917_);" points="-4,-249.4 -6,-243.8 -4,-243.8 	
		"/>
	
		<linearGradient id="SVGID_00000150099154689068917520000005282070518708590477_" gradientUnits="userSpaceOnUse" x1="11955.584" y1="-6306.2397" x2="11996.8701" y2="-6347.5254" gradientTransform="matrix(9.000000e-02 0 0 -9.000000e-02 -1080.9301 -815.134)">
		<stop  offset="0" style="stop-color:#3179BE"/>
		<stop  offset="1" style="stop-color:#22356D"/>
	</linearGradient>
	<polygon style="fill:url(#SVGID_00000150099154689068917520000005282070518708590477_);" points="-4,-249.4 -4,-243.8 -2,-243.8 	
		"/>
	
		<linearGradient id="SVGID_00000089552221287166112090000010429189494157216947_" gradientUnits="userSpaceOnUse" x1="11987.3828" y1="-6350.7593" x2="11956.3555" y2="-6372.4858" gradientTransform="matrix(9.000000e-02 0 0 -9.000000e-02 -1080.9301 -815.134)">
		<stop  offset="0" style="stop-color:#3179BE"/>
		<stop  offset="1" style="stop-color:#22356D"/>
	</linearGradient>
	<polygon style="fill:url(#SVGID_00000089552221287166112090000010429189494157216947_);" points="-4,-243.8 -4,-240.6 -2,-243.8 	
		"/>
	<path class="st9" d="M1.2-243.8L1.2-243.8l-4.1-9.6h-2.1l-4.1,9.6H-6l2-5.6l0.9,2.6H-4l-0.5,1.6h2.1l0.5,1.4H1.2z"/>
	<path class="st10" d="M-8.5-237.8c-0.1,0-0.3,0-0.4-0.1c-0.1,0-0.2-0.1-0.3-0.2c0,0,0,0,0-0.1l0,0l0.2-0.3c0,0,0,0,0,0
		c0.1,0.1,0.3,0.2,0.5,0.2c0.1,0,0.2,0,0.2-0.1c0.1,0,0.1-0.1,0.1-0.2c0-0.1,0-0.1-0.1-0.1c-0.1,0-0.2-0.1-0.2-0.1l-0.1,0
		c-0.4-0.1-0.6-0.3-0.6-0.6c0-0.2,0.1-0.3,0.2-0.5c0.1-0.1,0.3-0.2,0.5-0.2c0.2,0,0.5,0.1,0.7,0.2c0,0,0,0,0,0c0,0,0,0,0,0l-0.2,0.3
		c0,0,0,0,0,0l0,0c-0.1-0.1-0.3-0.1-0.5-0.2c-0.1,0-0.1,0-0.2,0.1s-0.1,0.1-0.1,0.2s0,0.1,0.1,0.1c0.1,0.1,0.2,0.1,0.2,0.1l0.1,0
		c0.4,0.1,0.7,0.3,0.7,0.6c0,0.2-0.1,0.4-0.2,0.5C-8.1-237.9-8.2-237.8-8.5-237.8L-8.5-237.8z"/>
	<path class="st10" d="M-7.4-237.9v-2c0,0,0,0,0,0h0H-6c0,0,0,0,0,0v0v0.3c0,0,0,0,0,0h0h-0.9c0,0,0,0,0,0l0,0v0.4c0,0,0,0,0,0l0,0
		h0.7c0,0,0,0,0,0v0v0.3c0,0,0,0,0,0h0h-0.7c0,0,0,0,0,0l0,0v0.4c0,0,0,0,0,0l0,0h0.9c0,0,0,0,0,0v0v0.3c0,0,0,0,0,0h0L-7.4-237.9
		C-7.4-237.8-7.4-237.9-7.4-237.9L-7.4-237.9L-7.4-237.9z"/>
	<path class="st10" d="M-4.1-237.8h-0.4c0,0,0,0,0,0l-0.3-0.8h-0.3c0,0,0,0,0,0l0,0v0.7c0,0,0,0,0,0h0h-0.4c0,0,0,0,0,0v0v-2
		c0,0,0,0,0,0h0h0.8c0.2,0,0.4,0.1,0.5,0.2c0.1,0.1,0.2,0.3,0.2,0.5c0,0.1,0,0.2-0.1,0.4c-0.1,0.1-0.2,0.2-0.3,0.2L-4.1-237.8
		C-4.1-237.9-4.1-237.9-4.1-237.8C-4.1-237.9-4.1-237.8-4.1-237.8z M-4.8-239c0.1,0,0.2,0,0.2-0.1c0.1-0.1,0.1-0.3,0-0.4
		c-0.1-0.1-0.1-0.1-0.2-0.1h-0.4c0,0,0,0,0,0l0,0v0.5c0,0,0,0,0,0l0,0L-4.8-239L-4.8-239z"/>
	<path class="st10" d="M-3.8-237.9v-2c0,0,0,0,0,0h0h0.4c0,0,0,0,0,0v0v2c0,0,0,0,0,0h0L-3.8-237.9C-3.7-237.8-3.8-237.9-3.8-237.9
		L-3.8-237.9z"/>
	<path class="st10" d="M-2.9-237.9v-2c0,0,0,0,0,0h0h1.3c0,0,0,0,0,0v0v0.3c0,0,0,0,0,0h0h-0.9c0,0,0,0,0,0l0,0v0.4c0,0,0,0,0,0l0,0
		h0.7c0,0,0,0,0,0v0v0.3c0,0,0,0,0,0h0h-0.7c0,0,0,0,0,0l0,0v0.4c0,0,0,0,0,0l0,0h0.9c0,0,0,0,0,0v0v0.3c0,0,0,0,0,0h0L-2.9-237.9
		C-2.8-237.8-2.9-237.9-2.9-237.9L-2.9-237.9L-2.9-237.9z"/>
	<path class="st10" d="M-0.5-237.9l0.7-2c0,0,0,0,0,0h0.4c0,0,0,0,0,0l0.7,2c0,0,0,0,0,0H0.9c0,0,0,0,0,0l-0.1-0.4H0l-0.1,0.4
		c0,0,0,0,0,0L-0.5-237.9C-0.5-237.8-0.6-237.9-0.5-237.9L-0.5-237.9z M0.2-238.6h0.5l-0.2-0.7h0L0.2-238.6z"/>
</g>
</svg>
