<?xml version="1.0" encoding="utf-8"?>
<!-- Generator: Adobe Illustrator 27.9.0, SVG Export Plug-In . SVG Version: 6.00 Build 0)  -->
<svg version="1.1" id="Layer_1" xmlns="http://www.w3.org/2000/svg" xmlns:xlink="http://www.w3.org/1999/xlink" x="0px" y="0px"
	 viewBox="0 0 16 16" style="enable-background:new 0 0 16 16;" xml:space="preserve">
<style type="text/css">
	.st0{clip-path:url(#SVGID_00000148623526710743326750000008911380790090664121_);}
	.st1{fill:#C1C8CC;}
	.st2{fill:#18191A;}
	.st3{fill:#CACFD2;}
</style>
<g id="Group_6416" transform="translate(13 165.604)">
	<g>
		<g>
			<defs>
				<rect id="SVGID_1_" x="-8.8" y="-165.5" width="7.3" height="15.8"/>
			</defs>
			<clipPath id="SVGID_00000074414902273084738790000006851238623361482377_">
				<use xlink:href="#SVGID_1_"  style="overflow:visible;"/>
			</clipPath>
			<g id="Group_6415" style="clip-path:url(#SVGID_00000074414902273084738790000006851238623361482377_);">
				<path id="Path_7413" class="st1" d="M-2.3-152c-0.1-0.4-0.1-0.7-0.2-1.1c0-0.3-0.1-0.6-0.2-0.9c0-0.2-0.1-0.5-0.1-0.7
					c-0.1-0.6-0.2-1.3-0.2-1.9c-0.1-0.9-0.3-1.8-0.4-2.7c0-0.1,0-0.1,0.1-0.2c0.4-0.3,0.7-0.7,1-1.1c0.7-1.1,0.9-2.4,0.6-3.6
					c-0.1-0.5-0.4-0.9-0.9-1.1c-0.7-0.4-1.6-0.5-2.3-0.3c-0.5,0.1-0.9,0.2-1.3,0.4c-0.5,0.3-0.9,0.6-1.3,1c-0.4,0.4-0.8,1-1,1.5
					c-0.2,0.6-0.3,1.2-0.2,1.9c0,0.6,0.3,1.1,0.8,1.4c0.2,0.1,0.5,0.2,0.7,0.3c0.1,0,0.2,0.1,0.1,0.2c0,0.1-0.1,0.3-0.1,0.4
					c-0.1,0.5-0.1,0.9-0.2,1.4c-0.1,0.7-0.2,1.4-0.3,2.1c-0.1,0.4-0.1,0.7-0.1,1.1c-0.1,0.4-0.1,0.9-0.2,1.3
					c-0.1,0.5-0.1,0.9-0.2,1.4c-0.1,0.4-0.1,0.4,0.4,0.4c0.3,0,0.7,0,1,0.1c0.9,0.1,1.8,0.4,2.6,0.7c0.3,0.1,0.3,0.1,0.4-0.1
					c0.2-0.4,0.6-0.7,1-1c0.1-0.1,0.3-0.2,0.5-0.2c0.2-0.1,0.2-0.2,0.2-0.4C-2.2-151.6-2.2-151.8-2.3-152 M-2.8-151.3
					c-0.5,0.2-0.9,0.6-1.2,1.1c-0.1,0.1-0.2,0.1-0.2,0.1c0,0,0,0,0,0c-1.1-0.4-2.3-0.7-3.5-0.8c-0.2,0-0.2,0-0.2-0.2
					c0.1-0.6,0.1-1.2,0.2-1.8c0.3-1.5,0.5-3.1,0.7-4.6c0.1-0.5,0.1-1,0.2-1.5c0-0.2,0-0.2-0.2-0.2c-0.1,0-0.1,0-0.2,0
					c-1-0.3-1.2-0.5-1.3-1.5c-0.1-0.9,0.2-1.9,0.8-2.6c0.7-0.9,1.7-1.6,2.8-1.8c0.8-0.1,1.6,0,2.3,0.3c0.3,0.1,0.5,0.4,0.6,0.7
					c0.1,0.4,0.2,0.8,0.2,1.3c0,1.3-0.6,2.5-1.7,3.3c-0.1,0.1-0.1,0.2-0.1,0.3c0.3,2.5,0.7,5.1,1,7.6
					C-2.5-151.5-2.6-151.3-2.8-151.3C-2.8-151.3-2.8-151.3-2.8-151.3"/>
				<path id="Path_7414" class="st2" d="M-3.6-159.3c0-0.1,0-0.2,0.1-0.3c1-0.8,1.6-2,1.7-3.3c0-0.4,0-0.9-0.2-1.3
					c-0.1-0.3-0.3-0.6-0.6-0.7c-0.7-0.4-1.5-0.5-2.3-0.3c-1.1,0.2-2.1,0.9-2.8,1.8c-0.6,0.7-0.9,1.7-0.8,2.6c0.1,1,0.3,1.2,1.3,1.5
					c0.1,0,0.1,0,0.2,0c0.2,0,0.2,0.1,0.2,0.2c-0.1,0.5-0.2,1-0.2,1.5c-0.2,1.5-0.4,3.1-0.7,4.6c-0.1,0.6-0.2,1.2-0.2,1.8
					c0,0.2,0,0.2,0.2,0.2c1.2,0.1,2.3,0.3,3.4,0.8c0.1,0.1,0.2,0,0.3-0.1c0,0,0,0,0,0c0.3-0.4,0.8-0.8,1.3-1.1
					c0.2,0,0.3-0.2,0.2-0.4c0,0,0,0,0,0C-2.9-154.2-3.3-156.7-3.6-159.3 M-5.3-157c-0.1,0.9-0.1,1.9-0.2,2.8c0,0.7-0.1,1.4-0.1,2.1
					c0,0.2,0,0.5,0,0.7c0,0.1,0,0.2-0.2,0.2c-0.5-0.1-1-0.1-1.5-0.2c-0.2,0-0.2-0.1-0.2-0.2c0.3-2.2,0.7-4.5,1-6.8
					c0-0.2,0-0.2,0.2-0.1c0.4,0.3,0.8,0.7,1,1.2C-5.3-157.1-5.3-157.1-5.3-157 M-4.5-150.9c-0.4-0.1-0.3,0-0.3-0.4
					c0-1.5,0.1-2.9,0.1-4.4c0-0.1,0-0.1,0-0.1c0,0,0-0.1,0.1-0.1s0.1,0,0.1,0.1c0,0.1,0,0.1,0,0.1l0.1,2.3l0,0
					c0,0.8,0.1,1.5,0.1,2.3C-4.3-150.8-4.3-150.8-4.5-150.9 M-3.7-160.4c-1,0.8-2.3,1.1-3.5,0.7c-0.5-0.1-0.8-0.5-0.9-1
					c-0.1-0.8,0.1-1.6,0.5-2.3c0.5-0.9,1.4-1.5,2.3-1.8c0.1,0,0.1,0,0.2,0c0,0,0.1,0,0.1,0c0.1,0,0.1,0,0.2,0c0.1,0,0.1,0,0.2,0
					c0.2,0,0.4,0,0.6,0c0,0,0.1,0,0.1,0c0.1,0,0.1,0,0.2,0.1c0.1,0.1,0.1,0.3,0.1,0.4c0,0,0,0.1,0,0.1c0,0.1,0,0.2,0,0.3
					c0,0.1,0,0.1,0,0.2c0,0,0,0.1,0,0.1c0,0,0,0.1,0,0.1c0,0,0,0.1,0,0.1c0,0,0,0,0,0c0,0,0,0.1,0,0.1c-0.1,0.8-0.6,1.6-1.3,2.1
					c-0.6,0.5-1.4,0.9-2.2,1c-0.1,0-0.2,0-0.2,0.1c0.6,0.2,1.3,0.3,1.9,0.2c0.7-0.1,1.3-0.3,1.9-0.6C-3.5-160.5-3.6-160.4-3.7-160.4
					"/>
				<path id="Path_7415" class="st3" d="M-3.5-160.6c-0.6,0.3-1.2,0.5-1.9,0.6c-0.7,0.1-1.3,0.1-1.9-0.2c0.1-0.1,0.2-0.1,0.2-0.1
					c0.8-0.1,1.6-0.4,2.2-1c0.7-0.5,1.1-1.3,1.3-2.1c0-0.1,0-0.1,0-0.1c0,0,0-0.1,0-0.1c0,0,0-0.1,0-0.1c0,0,0-0.1,0-0.1
					c-0.1-0.1-0.1-0.1,0-0.2l0,0c0-0.1,0-0.2,0-0.3c0,0-0.1,0,0-0.1c0-0.1,0-0.3-0.1-0.4c0-0.1-0.1-0.1-0.2-0.1c0,0.1-0.1,0.1-0.1,0
					c-0.2,0-0.4,0-0.6,0c0,0.1-0.1,0.1-0.2,0c-0.1,0-0.1,0-0.2,0c0,0.1,0,0.1-0.1,0c-0.1,0-0.1,0-0.2,0c-1,0.3-1.8,0.9-2.3,1.8
					c-0.5,0.7-0.6,1.5-0.5,2.3c0,0.5,0.4,0.9,0.8,1c1.2,0.3,2.5,0.1,3.5-0.7C-3.6-160.4-3.5-160.4-3.5-160.6 M-5.2-164.4
					c0-0.1,0.1-0.1,0.2-0.2c0.1,0,0.1,0,0.2,0c0.1,0,0.2,0.1,0.2,0.2c0,0.1-0.2,0-0.2,0h0h0c0,0.1-0.1,0-0.1,0
					C-5.1-164.3-5.2-164.2-5.2-164.4 M-5.8-164.1c0.1-0.1,0.2-0.1,0.3-0.1c0.1,0,0.2,0.1,0.3,0.2c0,0.1,0,0.1-0.1,0.1
					c-0.2,0-0.4,0-0.5-0.1c0,0-0.1,0-0.1,0C-5.8-164-5.8-164.1-5.8-164.1 M-6.3-163.7c0.1-0.1,0.2-0.2,0.4-0.2
					c0.2,0,0.3,0.1,0.4,0.3c0,0.1,0,0.1,0,0.1h0l0,0c0,0-0.1,0-0.1,0l0,0c0,0,0,0,0,0c0,0,0,0-0.1,0l-0.5-0.1
					C-6.3-163.6-6.4-163.6-6.3-163.7 M-6.4-163.4c0.2,0,0.4,0.1,0.5,0.2c0.1,0.1,0,0.1-0.1,0.1l-0.8-0.1
					C-6.8-163.3-6.6-163.4-6.4-163.4 M-7.6-160.6c-0.1-0.1,0-0.1,0-0.2c0.1-0.6,0.2-1.1,0.5-1.6c0-0.1,0.1-0.1-0.1-0.2
					c-0.1,0-0.1-0.1,0-0.2c0,0,0.1-0.1,0.1-0.1c0.3-0.1,0.6-0.1,0.8,0.2c0,0,0.1,0.1,0,0.1c0,0-0.1,0-0.1,0c-0.2-0.1-0.3,0-0.4,0.2
					c-0.3,0.5-0.5,1-0.7,1.5C-7.5-160.8-7.5-160.7-7.6-160.6"/>
				<path id="Path_7416" class="st1" d="M-6.3-158.4c-0.2-0.1-0.2-0.1-0.2,0.1c-0.3,2.3-0.6,4.5-1,6.8c0,0.1,0,0.2,0.2,0.2
					c0.5,0,1,0.1,1.5,0.2c0.2,0,0.2,0,0.2-0.2c0-0.2,0-0.5,0-0.7c0-0.7,0.1-1.4,0.1-2.1c0.1-0.9,0.1-1.9,0.2-2.8c0-0.1,0-0.2,0-0.2
					C-5.5-157.7-5.9-158.1-6.3-158.4"/>
				<path id="Path_7417" class="st1" d="M-4.4-153.3L-4.4-153.3l-0.1-2.3c0-0.1,0-0.1,0-0.1c0,0,0-0.1-0.1-0.1s-0.1,0-0.1,0.1
					c0,0.1,0,0.1,0,0.1c0,1.5-0.1,2.9-0.1,4.4c0,0.4-0.1,0.3,0.3,0.4c0.1,0,0.2,0,0.2-0.1C-4.3-151.8-4.4-152.5-4.4-153.3"/>
				<path id="Path_7418" class="st1" d="M-3.5-163.7c0-0.1,0-0.1,0-0.2C-3.6-163.8-3.6-163.7-3.5-163.7
					C-3.5-163.7-3.5-163.7-3.5-163.7"/>
				<path id="Path_7419" class="st1" d="M-3.6-163.3C-3.6-163.3-3.5-163.3-3.6-163.3c0-0.1,0-0.1,0-0.1
					C-3.6-163.4-3.6-163.3-3.6-163.3"/>
				<path id="Path_7420" class="st1" d="M-3.6-164.1C-3.5-164.1-3.5-164.2-3.6-164.1C-3.6-164.2-3.6-164.1-3.6-164.1"/>
				<path id="Path_7421" class="st2" d="M-6.3-162.6c0,0,0.1,0,0.1,0s0-0.1,0-0.1c-0.2-0.2-0.6-0.3-0.8-0.2c0,0-0.1,0.1-0.1,0.1
					c-0.1,0.1-0.1,0.1,0,0.2c0.2,0,0.1,0.1,0.1,0.2c-0.2,0.5-0.4,1-0.5,1.6c0,0.1,0,0.1,0,0.2c0.1-0.1,0.1-0.1,0.1-0.2
					c0.2-0.5,0.4-1,0.7-1.5C-6.6-162.5-6.5-162.6-6.3-162.6"/>
				<path id="Path_7422" class="st2" d="M-5.9-163.1c-0.1-0.1-0.3-0.2-0.5-0.2c-0.2,0-0.4,0.1-0.4,0.3L-6-163
					C-5.9-163-5.9-163.1-5.9-163.1"/>
				<path id="Path_7423" class="st2" d="M-6.2-163.6l0.5,0.1c0,0,0.1,0,0.1,0c0,0,0,0,0.1,0l0,0h0c0,0,0,0,0-0.1
					c-0.1-0.1-0.2-0.2-0.4-0.3c-0.2,0-0.3,0-0.4,0.2C-6.4-163.6-6.3-163.6-6.2-163.6"/>
				<path id="Path_7424" class="st2" d="M-5.7-163.9c0.2,0,0.3,0,0.5,0.1c0.1,0,0.1,0,0.1-0.1c-0.1-0.1-0.2-0.2-0.3-0.2
					c-0.1,0-0.2,0-0.3,0.1C-5.8-164.1-5.8-164-5.7-163.9C-5.8-164-5.7-163.9-5.7-163.9"/>
				<path id="Path_7425" class="st2" d="M-5-164.3C-5-164.3-5-164.3-5-164.3l0.1,0h0c0.1,0,0.2,0.1,0.2,0s-0.1-0.2-0.2-0.2
					c-0.1,0-0.1,0-0.2,0c-0.1,0-0.2,0.1-0.2,0.2C-5.2-164.2-5.1-164.3-5-164.3"/>
				<path id="Path_7426" class="st1" d="M-5.7-163.5C-5.7-163.4-5.7-163.4-5.7-163.5C-5.6-163.4-5.6-163.4-5.7-163.5L-5.7-163.5
					C-5.6-163.5-5.7-163.5-5.7-163.5"/>
			</g>
		</g>
	</g>
</g>
</svg>
