<?xml version="1.0" encoding="utf-8"?>
<!-- Generator: Adobe Illustrator 27.9.0, SVG Export Plug-In . SVG Version: 6.00 Build 0)  -->
<svg version="1.1" id="Layer_1" xmlns="http://www.w3.org/2000/svg" xmlns:xlink="http://www.w3.org/1999/xlink" x="0px" y="0px"
	 viewBox="0 0 16 16" style="enable-background:new 0 0 16 16;" xml:space="preserve">
<style type="text/css">
	.st0{clip-path:url(#SVGID_00000088830381061522032080000001919745310270888101_);}
	.st1{fill:#FFFFFF;}
	.st2{fill:#6E6F72;}
	.st3{fill:#F08821;}
</style>
<g id="Group_6450" transform="translate(11 397.604)">
	<g>
		<g>
			<defs>
				<rect id="SVGID_1_" x="-9.5" y="-397.7" width="13" height="16"/>
			</defs>
			<clipPath id="SVGID_00000056391868073186715620000012836779207750138026_">
				<use xlink:href="#SVGID_1_"  style="overflow:visible;"/>
			</clipPath>
			
				<g id="Group_6449" transform="translate(0 -0.001)" style="clip-path:url(#SVGID_00000056391868073186715620000012836779207750138026_);">
				<path id="Path_7932" class="st1" d="M-2.3-387.6l0.5,0.1l0.1-0.2l-0.5-0.1l0-0.1c0-0.1,0.1-0.1,0.2-0.1l0.4,0.1l0.1-0.2
					l-0.4-0.1c-0.2-0.1-0.4,0-0.5,0.2c0,0,0,0,0,0l-0.2,0.6c0,0,0,0.1,0,0.1c0,0,0,0,0,0l0.1,0L-2.3-387.6z M-3.5-388.1l0-0.2
					l-0.7,0.1c-0.1,0-0.1,0-0.1,0.1l0.2,0.6c0.1,0.2,0.2,0.3,0.4,0.2l0.4-0.1l0-0.2l-0.4,0.1c-0.1,0-0.2,0-0.2-0.1l0-0.1l0.5-0.1
					l0-0.2l-0.5,0.1l0-0.2L-3.5-388.1z M-5.2-386.8c-0.1,0-0.2-0.1-0.2-0.1l-0.4-0.4l-0.2,0.1l0.4,0.5c0.1,0.1,0.2,0.1,0.3,0.2
					c0.1,0,0.3,0,0.4-0.1c0.1-0.1,0.2-0.2,0.2-0.3c0-0.1,0-0.2-0.1-0.3l-0.4-0.5l-0.2,0.1l0.4,0.4c0.1,0.1,0.1,0.1,0.1,0.2
					c0,0.1-0.1,0.1-0.1,0.2C-5.1-386.8-5.2-386.8-5.2-386.8 M-0.4-387.5c0.1,0,0.1,0.1,0,0.1l-0.3,1l-0.2-0.1l0.1-0.2l-0.2-0.1
					l0.2-0.1l0.1,0.1l0.1-0.4l-0.8,0.4l-0.2-0.1l1-0.6C-0.6-387.6-0.5-387.6-0.4-387.5L-0.4-387.5z M-5-386.1l-0.1-0.1
					c0.6-0.5,1.3-0.8,2.1-0.8c0.8,0,1.5,0.3,2.1,0.8l-0.1,0.1c-0.5-0.5-1.2-0.8-2-0.8C-3.8-386.9-4.5-386.6-5-386.1 M-6.3-387.4
					l-0.1-0.1c0.9-0.8,2.2-1.2,3.4-1.2c1.2,0,2.5,0.4,3.4,1.2l-0.1,0.1c-0.9-0.8-2.1-1.2-3.3-1.2C-4.2-388.6-5.4-388.1-6.3-387.4"/>
				<path id="Path_7933" class="st1" d="M-2.4-382.1h0.5v0.1c-0.1,0.1-0.2,0.1-0.3,0.1c-0.3,0-0.5-0.1-0.5-0.4
					c0-0.2,0.2-0.4,0.4-0.4c0,0,0,0,0,0c0.2,0,0.3,0.1,0.4,0.2l0.3-0.1c-0.1-0.3-0.4-0.5-0.7-0.4c-0.4,0-0.7,0.2-0.8,0.6
					s0.2,0.7,0.6,0.8c0.1,0,0.1,0,0.2,0c0.3,0,0.5-0.1,0.7-0.3v-0.4h-0.8L-2.4-382.1L-2.4-382.1z"/>
				<path id="Path_7934" class="st1" d="M-6.8-383h-0.3v1.3h1.1v-0.3h-0.7V-383z"/>
				<path id="Path_7935" class="st1" d="M-5.6-382.2h0.7v-0.3h-0.7v-0.2h0.7v-0.3h-1v1.3h1.1v-0.3h-0.7
					C-5.6-381.9-5.6-382.2-5.6-382.2z"/>
				<path id="Path_7936" class="st1" d="M0.4-381.9v-0.3H1v-0.3H0.4v-0.2h0.7v-0.3H0v1.3h1.1v-0.3H0.4z"/>
				<path id="Path_7937" class="st1" d="M-0.5-382.2c0,0.1-0.1,0.3-0.2,0.3c0,0,0,0-0.1,0c-0.1,0-0.3-0.1-0.3-0.2c0,0,0,0,0,0v-0.8
					h-0.4v0.8c0,0.4,0.3,0.5,0.6,0.5s0.6-0.2,0.6-0.5v-0.8h-0.4C-0.5-383-0.5-382.2-0.5-382.2z"/>
				<path id="Path_7938" class="st1" d="M-4.1-383l-0.6,1.3h0.4l0.1-0.2h0.6l0.1,0.2h0.4l-0.6-1.3H-4.1z M-4.1-382.2l0.2-0.4
					l0.2,0.4H-4.1z"/>
				<path id="Path_7939" class="st1" d="M-6.1-384.4c0,0.2-0.2,0.4-0.4,0.4c0,0-0.1,0-0.1,0c-0.2,0-0.4-0.1-0.5-0.4c0,0,0,0,0-0.1
					v-1.2h-0.6v1.2c0,0.6,0.4,0.8,1,0.8s1-0.3,1-0.8v-1.2h-0.6L-6.1-384.4L-6.1-384.4L-6.1-384.4z"/>
				<path id="Path_7940" class="st1" d="M1.2-385c0-0.4-0.4-0.7-0.9-0.7h-0.9v2H0v-0.7h0.4C0.9-384.3,1.2-384.5,1.2-385 M0.3-384.7
					H0v-0.5h0.4c0.2,0,0.3,0.1,0.3,0.3S0.6-384.7,0.3-384.7"/>
				<path id="Path_7941" class="st1" d="M-8.9-384.4h1v-0.4h-1v-0.4h1.1v-0.4h-1.6v2h1.7v-0.4H-9L-8.9-384.4L-8.9-384.4z"/>
				<path id="Path_7942" class="st1" d="M2.5-385.6H2l-1,2h0.6l0.2-0.4h0.9l0.2,0.4h0.6L2.5-385.6z M2-384.4l0.3-0.6l0.3,0.6H2z"/>
				<path id="Path_7943" class="st1" d="M-3.4-385c0-0.4-0.4-0.6-0.9-0.6h-0.9v2h0.5v-0.7h0.3l0.5,0.7h0.6l-0.5-0.8
					C-3.6-384.5-3.4-384.7-3.4-385 M-4.3-384.7h-0.4v-0.5h0.4c0.2,0,0.3,0.1,0.3,0.2C-4-384.8-4-384.7-4.3-384.7"/>
				<path id="Path_7944" class="st1" d="M-2-385.7c-0.6,0-1.1,0.4-1.1,1s0.4,1.1,1,1.1c0,0,0.1,0,0.1,0c0.6,0,1.1-0.4,1.1-1
					s-0.4-1.1-1-1.1C-1.9-385.7-2-385.7-2-385.7 M-2-384c-0.3,0-0.6-0.2-0.6-0.5c0,0,0-0.1,0-0.1c0-0.3,0.2-0.6,0.5-0.6
					c0,0,0.1,0,0.1,0c0.3,0,0.6,0.2,0.6,0.5c0,0,0,0.1,0,0.1C-1.4-384.3-1.6-384-2-384C-1.9-384-2-384-2-384"/>
				<path id="Path_7945" class="st1" d="M-2.7-389.7L-2.7-389.7c0.3,0,0.6-0.1,0.9-0.1c0,0,0,0,0,0l0,0v0c-0.5-0.5-1-1.1-1.3-1.7
					C-2.9-390.9-2.8-390.3-2.7-389.7C-2.7-389.7-2.7-389.7-2.7-389.7"/>
				<path id="Path_7946" class="st1" d="M-1-396.9L-1-396.9C-1-396.9-1-396.9-1-396.9l-1.4-0.7h0c0,0,0,0,0,0c-0.4,2-0.3,4,0.3,5.9
					C-2.3-393.5-2-395.3-1-396.9"/>
				<path id="Path_7947" class="st2" d="M-1.5-389.9c-2-2.7-1.6-6.6-1.4-7.7c0,0,0,0,0,0c-0.3,0.1-2,0.7-2.2,0.8c0,0,0,0,0,0
					C-4.5-394.3-3.3-391.9-1.5-389.9"/>
				<path id="Path_7948" class="st2" d="M-4.1-389.8L-4.1-389.8C-4.1-389.8-4.1-389.8-4.1-389.8c0.4,0.1,0.7,0.1,1.1,0.1
					c0,0,0,0,0,0c-0.1-1.1-0.4-2.2-0.9-3.2C-3.8-391.9-3.8-390.8-4.1-389.8"/>
				<path id="Path_7949" class="st3" d="M-4.6-389.9C-4.6-389.9-4.6-389.9-4.6-389.9c0,0,0-0.1,0-0.1c0,0,0,0,0,0
					c-1.4-0.5-2.3-1.9-2.3-3.3c0-1.2,0.6-2.2,1.5-2.9v0c0,0,0-0.1,0-0.1c0,0,0,0,0,0h0c-1.1,0.6-1.8,1.8-1.8,3
					C-7.3-391.8-6.2-390.4-4.6-389.9"/>
				<path id="Path_7950" class="st3" d="M-0.6-396.5L-0.6-396.5C-0.6-396.5-0.6-396.5-0.6-396.5L-0.6-396.5l-0.1,0.1c0,0,0,0,0,0
					c1,0.6,1.6,1.8,1.6,3c0,1.4-0.8,2.6-2,3.2l0,0v0l0.1,0.1l0,0h0c1.4-0.5,2.2-1.8,2.3-3.3C1.3-394.7,0.5-395.9-0.6-396.5"/>
				<path id="Path_7951" class="st1" d="M0.2-390h0.1v0.2h0.1v-0.2h0.1v0L0.2-390L0.2-390z"/>
				<path id="Path_7952" class="st1" d="M0.8-390l-0.1,0.2L0.6-390H0.6v0.3h0.1v-0.2l0.1,0.2h0.1L0.8-390l0,0.3h0.1L0.8-390L0.8-390
					z"/>
			</g>
		</g>
	</g>
</g>
</svg>
