<?xml version="1.0" encoding="utf-8"?>
<!-- Generator: Adobe Illustrator 27.9.0, SVG Export Plug-In . SVG Version: 6.00 Build 0)  -->
<svg version="1.1" id="Layer_1" xmlns="http://www.w3.org/2000/svg" xmlns:xlink="http://www.w3.org/1999/xlink" x="0px" y="0px"
	 viewBox="0 0 16 16" style="enable-background:new 0 0 16 16;" xml:space="preserve">
<style type="text/css">
	.st0{clip-path:url(#SVGID_00000036253176490290797530000015401836026709754558_);}
	.st1{fill:#FFFFFF;}
</style>
<g id="Group_6448" transform="translate(9 373.604)">
	<g>
		<g>
			<defs>
				<rect id="SVGID_1_" x="-8.6" y="-373.2" width="15.2" height="15.2"/>
			</defs>
			<clipPath id="SVGID_00000083074910119554963830000004063940562912584615_">
				<use xlink:href="#SVGID_1_"  style="overflow:visible;"/>
			</clipPath>
			
				<g id="Group_6447" transform="translate(0 0)" style="clip-path:url(#SVGID_00000083074910119554963830000004063940562912584615_);">
				<path id="Path_7931" class="st1" d="M-1-369.1L-1-369.1c-0.2,0.3-0.4,0.7-0.6,1c-0.1-0.4-0.2-0.9-0.2-1.3
					c-0.4-0.1-0.7-0.3-1-0.4c0,0,0.4-0.2,1-0.5c0-0.4,0.1-0.8,0.2-1.2c0.2,0.3,0.4,0.6,0.6,1c0.4-0.1,0.9-0.3,1.3-0.4
					c0,0-0.3,0.5-0.8,1.1c0.3,0.4,0.6,0.7,0.9,1C0.3-368.8-0.2-368.9-1-369.1 M2.5-369.3C2.4-369.1,2.2-369,2-369c0-0.3,0-0.7-0.1-1
					c-0.1,0.4-0.3,0.8-0.5,1.2c-0.4,0-0.7,0-1.1,0c0.2,0.3,0.4,0.5,0.7,0.8c-0.1,0.3-0.3,0.5-0.5,0.8c0.4-0.1,0.7-0.2,1-0.4
					c0.1,0.1,0.2,0.2,0.3,0.3c0.1-0.2,0.2-0.5,0.2-0.8C2.3-368.5,2.4-368.9,2.5-369.3 M2.3-370.8c-0.2-0.4-0.4-0.7-0.7-1
					c-0.1-0.3-0.3-0.5-0.5-0.8c0,0.1,0,0.3,0,0.4c-0.4-0.2-0.7-0.3-1.1-0.4c0.3,0.2,0.6,0.5,0.9,0.8c-0.2,0.3-0.3,0.5-0.6,0.8
					c0.3-0.1,0.7-0.1,1-0.1c0.2,0.4,0.5,0.7,0.6,1.1c0-0.4,0-0.7-0.1-1.1C2-371,2.2-370.9,2.3-370.8 M-0.1-372.5
					c-0.3-0.1-0.5-0.2-0.8-0.3c0.2-0.2,0.4-0.3,0.6-0.4c-0.5,0-0.9,0.1-1.4,0.2c-0.3,0-0.6,0-0.9,0.1c0.1,0.1,0.2,0.2,0.2,0.3
					c-0.3,0.2-0.5,0.4-0.7,0.7c0.3-0.1,0.6-0.3,0.9-0.3c0,0.1,0.1,0.1,0.1,0.2c0.1,0.2,0.3,0.4,0.4,0.5c0.1-0.3,0.2-0.6,0.4-0.9
					C-0.9-372.5-0.5-372.5-0.1-372.5 M-3.7-371.3c0.2-0.2,0.4-0.4,0.7-0.6c-0.2,0-0.3,0-0.5,0.1c0.1-0.2,0.2-0.5,0.4-0.7
					c-0.7,0.6-1.2,1.4-1.3,2.2c0.1-0.2,0.2-0.5,0.4-0.7c0.1,0.2,0.2,0.3,0.3,0.5C-3.8-370.7-3.8-371-3.7-371.3 M-2.8-369.8
					c-0.3,0-0.6,0-0.9,0.1c0-0.2-0.1-0.5-0.1-0.7c-0.2,0.3-0.3,0.5-0.4,0.9c-0.1,0-0.2,0.1-0.3,0.2c0.1,0.1,0.1,0.3,0.2,0.4
					c0,0.4,0,0.7,0.2,1c0.1-0.2,0.1-0.4,0.2-0.6c0.2,0.2,0.4,0.3,0.6,0.4c-0.2-0.3-0.3-0.6-0.3-0.9C-3.4-369.3-3.1-369.6-2.8-369.8
					 M-1-366.6c-0.3-0.1-0.5-0.2-0.8-0.4c0-0.4,0.1-0.7,0.1-1.1c-0.2,0.2-0.5,0.5-0.8,0.7c-0.3-0.2-0.6-0.4-0.8-0.7
					c0.1,0.3,0.2,0.6,0.4,0.9c-0.2,0.1-0.5,0.1-0.7,0.1c0.3,0.3,0.7,0.5,1.1,0.5c0.2,0.3,0.5,0.5,0.9,0.6c-0.1-0.2-0.1-0.4-0.1-0.5
					C-1.5-366.5-1.2-366.6-1-366.6 M0.5-366.6c0-0.2,0.1-0.5,0-0.7c-0.2,0.3-0.4,0.5-0.6,0.8c-0.3,0-0.6,0-0.9,0
					c0.1,0.1,0.3,0.3,0.5,0.4c-0.2,0.1-0.4,0.2-0.6,0.2c0.9,0,1.8-0.4,2.5-1C1.1-366.8,0.9-366.7,0.5-366.6 M2.3-360.5L2.3-360.5
					c0.5,0,0.8-0.4,0.8-0.9c0-0.4-0.3-0.7-0.8-0.8c-0.4,0-0.8,0.3-0.8,0.8c0,0,0,0,0,0C1.6-360.9,1.9-360.5,2.3-360.5
					C2.3-360.5,2.3-360.5,2.3-360.5 M2.3-361.9L2.3-361.9c0.3,0,0.5,0.4,0.5,0.7c0,0.3-0.1,0.5-0.4,0.5c-0.3,0-0.5-0.4-0.5-0.7
					C2-361.6,2-361.9,2.3-361.9 M-0.5-360.7L-0.5-360.7v-1.2l0.1,0c0.2,0,0.3,0.1,0.3,0.3c0,0.2-0.1,0.3-0.3,0.3c0,0-0.1,0-0.1,0
					s-0.1,0-0.1,0c0,0,0,0,0,0c0,0,0.2,0.1,0.3,0.1c0.3,0,0.5-0.2,0.5-0.4c0,0,0,0,0-0.1c0-0.3-0.2-0.5-0.6-0.5h-0.7v0.1
					c0.1,0,0.1,0,0.1,0.1v1.2c0,0.1,0,0.1-0.1,0.2v0.1c0.1,0,0.2,0,0.3,0s0.2,0,0.3,0v-0.1C-0.5-360.6-0.5-360.6-0.5-360.7
					 M0.8-361.9L0.8-361.9v1.3c0,0.1,0,0.1-0.1,0.1v0.1c0.1,0,0.2,0,0.3,0s0.2,0,0.3,0v-0.1c-0.1,0-0.1,0-0.1-0.1v-1.3
					c0-0.1,0-0.1,0.1-0.1v-0.1c-0.1,0-0.2,0-0.3,0s-0.2,0-0.3,0v0.1C0.8-362,0.8-362,0.8-361.9 M3.6-361.9L3.6-361.9v1.3
					c0,0.1,0,0.1-0.1,0.1v0.1c0.1,0,0.2,0,0.2,0c0.1,0,0.2,0,0.2,0v-0.1c-0.1,0-0.1,0-0.1-0.1v-1.1l0,0l0.8,1.2h0.2v-1.4
					c0-0.1,0-0.1,0.1-0.1v-0.1c-0.1,0-0.2,0-0.2,0c-0.1,0-0.2,0-0.2,0v0.1c0.1,0,0.1,0,0.1,0.1v0.9l0,0L4-362.1c-0.1,0-0.1,0-0.2,0
					c-0.1,0-0.2,0-0.3,0v0.1C3.6-362,3.6-362,3.6-361.9 M5.4-361.1L5.4-361.1c0,0.1,0,0.3,0,0.5c0.2,0.1,0.3,0.1,0.5,0.1
					c0.4,0,0.7-0.2,0.7-0.5c0-0.3-0.2-0.4-0.5-0.5l-0.2-0.1c-0.1,0-0.2-0.1-0.2-0.2c0-0.2,0.2-0.2,0.3-0.2c0.2,0,0.4,0.1,0.4,0.3
					h0.1c0-0.1,0-0.3,0-0.5c-0.1,0-0.3-0.1-0.4-0.1c-0.4,0-0.7,0.1-0.7,0.5c0,0.3,0.2,0.4,0.5,0.5l0.2,0c0.1,0,0.3,0.1,0.3,0.2
					c0,0.2-0.2,0.2-0.3,0.2C5.6-360.6,5.4-360.8,5.4-361.1 M-6.7-361.9L-6.7-361.9v1.3c0,0.1,0,0.1-0.1,0.1v0.1c0.1,0,0.2,0,0.3,0
					s0.2,0,0.3,0v-0.1c-0.1,0-0.1,0-0.1-0.1v-0.6h0.6v0.6c0,0.1,0,0.1-0.1,0.1v0.1c0.1,0,0.2,0,0.3,0s0.2,0,0.3,0v-0.1
					c-0.1,0-0.1,0-0.1-0.1v-1.3c0-0.1,0-0.1,0.1-0.1v-0.1c-0.1,0-0.2,0-0.3,0s-0.2,0-0.3,0v0.1c0.1,0,0.1,0,0.1,0.1v0.5h-0.6v-0.5
					c0-0.1,0-0.1,0.1-0.1v-0.1c-0.1,0-0.2,0-0.3,0s-0.2,0-0.3,0v0.1C-6.8-362-6.7-362-6.7-361.9 M-4.5-361.2h0.3
					c-0.1-0.2-0.1-0.4-0.1-0.6l0,0C-4.4-361.6-4.4-361.4-4.5-361.2 M-5.1-360.5L-5.1-360.5L-5.1-360.5c0.1-0.1,0.1-0.1,0.1-0.2
					l0.5-1.2c0,0,0-0.1,0-0.1c0,0,0-0.1-0.1-0.1v-0.1c0.1,0,0.2,0,0.2,0c0.1,0,0.2,0,0.2,0l0.4,1.4c0,0.1,0.1,0.1,0.1,0.2v0.1
					c-0.1,0-0.2,0-0.3,0s-0.2,0-0.3,0v-0.1c0.1,0,0.1,0,0.1-0.1c0,0,0-0.1,0-0.1l-0.1-0.2h-0.5l-0.1,0.3c0,0,0,0.1,0,0.1
					c0,0,0,0.1,0.1,0.1v0.1c-0.1,0-0.2,0-0.2,0S-5-360.5-5.1-360.5 M-3.1-361.7L-3.1-361.7l0,1c0,0.1,0,0.1-0.1,0.1v0.1
					c0.1,0,0.2,0,0.2,0c0.1,0,0.2,0,0.3,0v-0.1c-0.1,0-0.2,0-0.2-0.2c0-0.1,0-0.1,0-0.3l0-0.7l0,0l0.5,1.2h0.2l0.4-1.2l0,0l0,0.7
					c0,0.1,0,0.2,0,0.2c0,0.1,0,0.1-0.1,0.1v0.1c0.1,0,0.2,0,0.3,0s0.2,0,0.3,0v-0.1c0,0-0.1,0-0.1-0.1l-0.1-1c0-0.1,0-0.2,0-0.3
					s0-0.1,0.1-0.1v-0.1c-0.1,0-0.2,0-0.2,0s-0.2,0-0.2,0l-0.4,1.1l-0.4-1.1c-0.1,0-0.2,0-0.2,0s-0.2,0-0.2,0v0.1
					c0.1,0,0.1,0,0.1,0.1C-3.1-361.9-3.1-361.8-3.1-361.7 M-7.2-360.6L-7.2-360.6l0-0.3c-0.1,0.1-0.3,0.2-0.5,0.2
					c-0.3,0-0.6-0.3-0.6-0.6c0-0.4,0.2-0.6,0.5-0.6c0.2,0,0.4,0.1,0.4,0.3h0.1c0-0.2,0-0.4,0-0.5c-0.1,0-0.3-0.1-0.4-0.1
					c-0.5,0-0.9,0.4-0.9,0.9c0,0,0,0,0,0.1c0,0.5,0.4,0.9,0.8,0.9c0,0,0,0,0,0C-7.5-360.4-7.3-360.5-7.2-360.6 M-4.7-359.6
					L-4.7-359.6v1c0,0,0,0.1-0.1,0.1v0h0.9c0-0.1,0-0.2,0-0.4h-0.1c0,0.1-0.1,0.2-0.2,0.2h-0.3v-0.9c0,0,0-0.1,0.1-0.1v0
					c-0.1,0-0.2,0-0.2,0s-0.1,0-0.2,0L-4.7-359.6C-4.7-359.7-4.7-359.7-4.7-359.6 M-3.5-359.6L-3.5-359.6v1c0,0,0,0.1-0.1,0.1v0h1
					c0-0.1,0-0.2,0-0.4h-0.1c0,0.2-0.1,0.2-0.2,0.2h-0.4v-0.4H-3c0.1,0,0.1,0,0.1,0.1h0c0-0.1,0-0.1,0-0.2s0-0.1,0-0.2h0
					c0,0.1,0,0.1-0.1,0.1h-0.2v-0.4h0.4c0.1,0,0.1,0,0.1,0.1h0c0-0.1,0-0.2,0-0.3h-0.9L-3.5-359.6C-3.5-359.7-3.5-359.7-3.5-359.6
					 M-2.4-358.6L-2.4-358.6L-2.4-358.6c0.1,0,0.1,0,0.2,0s0.1,0,0.2,0v0c-0.1,0-0.1,0-0.1-0.1c0,0,0,0,0-0.1l0.1-0.2h0.4l0.1,0.2
					c0,0,0,0.1,0,0.1c0,0,0,0.1-0.1,0.1v0c0.1,0,0.1,0,0.2,0s0.1,0,0.2,0v0c0,0-0.1,0-0.1-0.1l-0.3-1.1c-0.1,0-0.1,0-0.2,0
					s-0.1,0-0.2,0v0c0,0,0.1,0,0.1,0c0,0,0,0,0,0.1l-0.4,0.9C-2.3-358.6-2.4-358.6-2.4-358.6 M-1.7-359H-2c0-0.1,0.1-0.3,0.1-0.4
					l0,0C-1.8-359.3-1.8-359.2-1.7-359 M-0.3-359L-0.3-359v0.1c0,0.1-0.1,0.1-0.2,0.1c-0.2,0-0.3-0.3-0.3-0.5c0-0.2,0.1-0.4,0.4-0.4
					c0.2,0,0.3,0.1,0.3,0.2h0c0-0.1,0-0.2,0-0.3c-0.1-0.1-0.2-0.1-0.3-0.1c-0.3,0-0.6,0.2-0.6,0.6c0,0,0,0.1,0,0.1
					c0,0.3,0.2,0.6,0.5,0.6c0,0,0,0,0,0c0.1,0,0.3,0,0.4-0.1l0,0.1H0v-0.4c0-0.1,0-0.1,0.1-0.1v-0.1c-0.1,0-0.2,0-0.2,0
					s-0.2,0-0.2,0v0.1C-0.3-359-0.3-359-0.3-359 M0.4-359.6L0.4-359.6v0.7c0,0.3,0.2,0.4,0.5,0.4s0.5-0.1,0.5-0.5v-0.7
					c0,0,0-0.1,0.1-0.1v0c-0.1,0-0.1,0-0.2,0c-0.1,0-0.2,0-0.2,0v0c0.1,0,0.1,0,0.1,0.1v0.7c0,0.2-0.1,0.2-0.2,0.2s-0.2,0-0.2-0.2
					v-0.7c0-0.1,0-0.1,0.1-0.1v0c-0.1,0-0.1,0-0.2,0c-0.1,0-0.1,0-0.2,0L0.4-359.6C0.4-359.7,0.4-359.7,0.4-359.6 M1.9-359.6
					L1.9-359.6v1c0,0,0,0.1-0.1,0.1v0h1c0-0.1,0-0.2,0-0.4H2.7c0,0.2-0.1,0.2-0.2,0.2H2.2v-0.4h0.2c0.1,0,0.1,0,0.1,0.1h0
					c0,0,0-0.1,0-0.2s0-0.1,0-0.2h0c0,0.1,0,0.1-0.1,0.1H2.2v-0.4h0.4c0.1,0,0.1,0,0.1,0.1h0c0-0.1,0-0.2,0-0.3H1.8L1.9-359.6
					C1.9-359.7,1.9-359.7,1.9-359.6 M3.1-358L3.1-358c-0.1,0-0.2-0.1-0.2-0.2c0-0.1,0.1-0.2,0.2-0.2c0.1,0,0.2,0.1,0.2,0.2
					c0,0,0,0,0,0C3.3-358.1,3.2-358,3.1-358L3.1-358 M2.9-358.2L2.9-358.2c0,0.1,0.1,0.2,0.2,0.2c0.1,0,0.2-0.1,0.2-0.2
					c0-0.1-0.1-0.2-0.2-0.2C3-358.4,2.9-358.3,2.9-358.2C2.9-358.2,2.9-358.2,2.9-358.2 M3-358.2L3-358.2v0.1h0v-0.3h0.1
					c0.1,0,0.1,0,0.1,0.1C3.2-358.3,3.1-358.2,3-358.2L3-358.2l0.1,0.1h0L3-358.2L3-358.2z M3-358.2L3-358.2c0.1,0,0.1,0,0.1,0
					S3.1-358.3,3-358.2L3-358.2L3-358.2z M-0.6-363.6l-0.1,0c0,0-0.1,0-0.1-0.1v0l0.2-0.6c0-0.1,0.2-0.2,0.3-0.2c0,0,0,0,0.1,0
					l0.4,0.1l0,0.2l-0.3-0.1c-0.1,0-0.1,0-0.2,0.1l0,0.1L0-364l-0.1,0.2l-0.4-0.1L-0.6-363.6z M-1.9-364.3l0,0.2l0.4-0.1l0,0.2
					l-0.4,0.1l0,0.1c0,0.1,0.1,0.1,0.1,0.1l0.4-0.1l0,0.2l-0.4,0.1c-0.1,0-0.3,0-0.4-0.2c0,0,0,0,0-0.1l-0.1-0.6c0,0,0-0.1,0-0.1h0
					l0.6-0.1l0,0.2L-1.9-364.3z M-2.7-363.2c0,0,0.1-0.1,0.1-0.2c0-0.1,0-0.1-0.1-0.2L-3-364l0.2-0.1l0.4,0.5
					c0.1,0.1,0.1,0.2,0.1,0.3c0,0.1-0.1,0.2-0.2,0.3c-0.1,0.1-0.2,0.1-0.3,0.1c-0.1,0-0.2-0.1-0.3-0.2l-0.4-0.5l0.2-0.1l0.3,0.4
					c0,0.1,0.1,0.1,0.2,0.1C-2.8-363.2-2.7-363.2-2.7-363.2 M1-363.9c0,0-0.1,0-0.1,0l-0.9,0.6l0.2,0.1l0.6-0.4l-0.1,0.4l-0.1-0.1
					l-0.2,0.1l0.2,0.1l-0.1,0.2l0.2,0.1l0.3-1C1.1-363.8,1.1-363.9,1-363.9L1-363.9z M-1.1-363.2c0.6,0,1.2,0.3,1.6,0.8l0.1-0.1
					c-0.8-1-2.2-1.1-3.1-0.3c-0.1,0.1-0.2,0.2-0.3,0.3l0.1,0.1C-2.3-362.9-1.7-363.2-1.1-363.2 M-1.1-364.9c1,0,2,0.4,2.7,1.2
					l0.1-0.1c-1.4-1.5-3.8-1.6-5.3-0.2c-0.1,0.1-0.2,0.1-0.2,0.2l0.1,0.1C-3-364.5-2.1-364.9-1.1-364.9"/>
			</g>
		</g>
	</g>
</g>
</svg>
