<?xml version="1.0" encoding="utf-8"?>
<!-- Generator: Adobe Illustrator 27.9.0, SVG Export Plug-In . SVG Version: 6.00 Build 0)  -->
<svg version="1.1" id="Layer_1" xmlns="http://www.w3.org/2000/svg" xmlns:xlink="http://www.w3.org/1999/xlink" x="0px" y="0px"
	 viewBox="0 0 16 16" style="enable-background:new 0 0 16 16;" xml:space="preserve">
<style type="text/css">
	.st0{clip-path:url(#SVGID_00000110469414638825748330000000207418472188850327_);}
	.st1{fill:#FFFFFF;}
</style>
<g id="Group_7144" transform="translate(8 445.604)">
	<g>
		<g>
			<defs>
				<rect id="SVGID_1_" x="-7.6" y="-441.6" width="15.6" height="8.6"/>
			</defs>
			<clipPath id="SVGID_00000008108483261021394830000016717764981592012936_">
				<use xlink:href="#SVGID_1_"  style="overflow:visible;"/>
			</clipPath>
			
				<g id="Group_7143" transform="translate(0 0)" style="clip-path:url(#SVGID_00000008108483261021394830000016717764981592012936_);">
				<path id="Path_8559" class="st1" d="M-3.5-441.6h1.8c0,0-1.2,6.9-1.3,7.3c-0.1,0.7-0.2,1.4-1.3,1.4c-1.3,0-2.1,0-2.5,0
					c-0.4,0-1-0.7-0.8-1.5l1.2-7.1h1.9c0,0-1,5.9-1.1,6.1s-0.1,0.6,0.4,0.6c0.4,0,0.4-0.2,0.5-0.6C-4.4-436.5-3.5-441.6-3.5-441.6
					 M3.2-441.6l-0.3,1.9h-4l0.3-1.9H3.2z M-2.3-433l1-5.5h4l-0.3,1.9H0.2l-0.6,3.5L-2.3-433L-2.3-433z M5.2-438.6
					c-0.2,1-0.3,1.8-0.5,2.8c-0.1,0.2-0.1,0.4-0.1,0.6c0.1,0.4,0.8,0.2,1.1,0.2H7c-0.1,0.6-0.2,1.3-0.3,1.9h-3c-0.6-0.1-1-0.6-1-1.2
					c0,0,0,0,0-0.1c0-0.3,0.1-0.6,0.2-0.9c0.3-1.5,0.5-3.1,0.8-4.6c0-0.5,0.2-1.1,0.5-1.5c0.2-0.2,0.5-0.2,0.8-0.2h3
					c-0.1,0.6-0.2,1.3-0.3,1.9H5.9c-0.2,0-0.4,0-0.6,0.1C5.3-439.3,5.2-438.9,5.2-438.6L5.2-438.6z"/>
			</g>
		</g>
	</g>
</g>
</svg>
