<?xml version="1.0" encoding="utf-8"?>
<!-- Generator: Adobe Illustrator 27.9.0, SVG Export Plug-In . SVG Version: 6.00 Build 0)  -->
<svg version="1.1" id="Layer_1" xmlns="http://www.w3.org/2000/svg" xmlns:xlink="http://www.w3.org/1999/xlink" x="0px" y="0px"
	 viewBox="0 0 16 16" style="enable-background:new 0 0 16 16;" xml:space="preserve">
<style type="text/css">
	.st0{clip-path:url(#SVGID_00000002369910145077941870000004093839493218149029_);}
	.st1{fill-rule:evenodd;clip-rule:evenodd;fill:#FFFFFF;}
	.st2{fill-rule:evenodd;clip-rule:evenodd;fill:#1E3465;}
</style>
<g id="Group_7152" transform="translate(0 535.03)">
	<g>
		<g>
			<defs>
				<rect id="SVGID_1_" y="-530.7" width="16" height="9"/>
			</defs>
			<clipPath id="SVGID_00000119084087482797365270000006589891775359622531_">
				<use xlink:href="#SVGID_1_"  style="overflow:visible;"/>
			</clipPath>
			
				<g id="Group_7151" transform="translate(0 0)" style="clip-path:url(#SVGID_00000119084087482797365270000006589891775359622531_);">
				<path id="Path_8605" class="st1" d="M11.9-530.7c-0.6,0.1-1.1,0.7-1,1.4v1.6c-0.1,0.7,0.4,1.3,1,1.4h3.8c0.2,0,0.4-0.2,0.3-0.5
					c0-0.2-0.1-0.4-0.3-0.5h-3.7c-0.2,0-0.4-0.2-0.4-0.5l0,0v-1.6c0-0.2,0.1-0.4,0.3-0.5h3.7c0.2,0,0.4-0.2,0.3-0.5
					c0-0.2-0.1-0.4-0.3-0.5L11.9-530.7L11.9-530.7z"/>
				<path id="Path_8606" class="st1" d="M7.6-526.4h2.7c0.2,0,0.4-0.2,0.3-0.5c0-0.2-0.1-0.4-0.3-0.5H7.6c-0.2,0-0.3-0.2-0.3-0.4
					c0-0.2,0.1-0.4,0.3-0.4h2c0.6-0.1,1-0.7,1-1.3v0c0.1-0.7-0.4-1.2-1-1.3H6.5c-0.6,0.1-1,0.7-1,1.3v1.6c0,0.3-0.2,0.5-0.4,0.5H4.5
					c-0.2,0-0.4-0.3-0.4-0.5v-0.8c0.1-0.7-0.4-1.4-1.1-1.4C2.4-530,2-529.4,2-528.6v0.8c0,0.1,0,0.3-0.1,0.4
					c-0.1,0.1-0.2,0.1-0.3,0.2H1.1c-0.2,0-0.4-0.3-0.4-0.5v-2.4c0-0.2-0.1-0.5-0.4-0.5c-0.2,0-0.4,0.2-0.4,0.5v2.4
					c-0.1,0.7,0.4,1.3,1,1.4h0.6c0.6-0.1,1.1-0.7,1-1.4v-0.9c0-0.2,0.1-0.5,0.3-0.5c0.2,0,0.4,0.2,0.3,0.5v0.9c0,0.7,0.4,1.3,1,1.4
					h0.7c0.6-0.1,1.1-0.7,1.1-1.4v-1.5c0-0.2,0.1-0.4,0.3-0.4h3.1c0.2,0,0.3,0.2,0.3,0.4c0,0.2-0.1,0.3-0.3,0.4h-2
					c-0.6,0.1-1,0.7-1,1.3C6.5-527,7-526.4,7.6-526.4"/>
				<path id="Path_8607" class="st1" d="M0.4-525.3h15.2c0.2,0,0.4,0.3,0.4,0.5v1.3c0,0.3-0.2,0.5-0.4,0.5H0.4
					c-0.2,0-0.4-0.3-0.4-0.5v-1.3C0-525.1,0.2-525.3,0.4-525.3"/>
				<path id="Path_8608" class="st2" d="M0.7-524.1v0.3c0,0,0,0.1-0.1,0.1c0,0-0.1,0-0.1-0.1v-0.5c0-0.1,0.1-0.2,0.2-0.3h0.5
					c0,0,0.1,0.1,0.1,0.1c0,0,0,0.1-0.1,0.1H0.7c0,0-0.1,0-0.1,0.1v0.1H1c0,0,0.1,0.1,0.1,0.1c0,0,0,0.1-0.1,0.1L0.7-524.1z"/>
				<path id="Path_8609" class="st2" d="M1.6-524.6L1.6-524.6C1.6-524.6,1.6-524.6,1.6-524.6l0.1,0.8c0,0,0,0.1,0,0.1
					c0,0-0.1,0-0.1-0.1c0,0,0,0,0,0L1.6-524.6C1.5-524.6,1.5-524.6,1.6-524.6"/>
				<path id="Path_8610" class="st2" d="M2.7-524.2L2.7-524.2c0-0.1,0-0.2-0.1-0.2H2c-0.1,0-0.1,0.1-0.1,0.1v0.1H2.7z M2.7-524.1
					H1.9v0.3c0,0,0,0.1,0,0.1c0,0-0.1,0-0.1-0.1c0,0,0,0,0,0v-0.5c0-0.2,0.1-0.3,0.2-0.3h0.5c0.1,0,0.2,0.2,0.2,0.3v0.5
					c0,0,0,0.1,0,0.1c0,0-0.1,0-0.1-0.1c0,0,0,0,0,0L2.7-524.1z"/>
				<path id="Path_8611" class="st2" d="M3.5-524.5v0.5c0,0.2,0.1,0.3,0.2,0.3h0.1c0.1,0,0.2-0.1,0.2-0.3v-0.1c0,0,0-0.1,0.1-0.1
					c0,0,0.1,0,0.1,0.1c0,0,0,0,0,0v0.1c0,0.2,0.1,0.3,0.2,0.3h0.1c0.1,0,0.2-0.1,0.2-0.3v-0.5c0,0,0-0.1-0.1-0.1c0,0-0.1,0-0.1,0.1
					c0,0,0,0,0,0v0.5c0,0.1,0,0.1-0.1,0.1H4.3c-0.1,0-0.1-0.1-0.1-0.1v-0.2c0-0.1-0.1-0.3-0.2-0.3c-0.1,0-0.2,0.1-0.2,0.3v0.2
					c0,0.1,0,0.1-0.1,0.1H3.7c0,0-0.1-0.1-0.1-0.1v-0.5C3.6-524.5,3.6-524.6,3.5-524.5C3.5-524.6,3.5-524.6,3.5-524.5
					C3.5-524.5,3.5-524.5,3.5-524.5"/>
				<path id="Path_8612" class="st2" d="M5-524.6h0.6c0.1,0,0.2,0.1,0.2,0.3v0.4c0,0.1-0.1,0.2-0.2,0.3H5c-0.1,0-0.2-0.1-0.2-0.3
					v-0.4C4.8-524.5,4.9-524.6,5-524.6 M5-524.4C5-524.4,4.9-524.4,5-524.4L4.9-524c0,0,0,0.1,0.1,0.1h0.6c0,0,0.1,0,0.1-0.1v-0.3
					c0,0,0-0.1-0.1-0.1H5z"/>
				<path id="Path_8613" class="st2" d="M6.9-523.7H6.4c-0.1,0-0.2-0.2-0.2-0.3c0-0.1,0.1-0.2,0.2-0.2h0.4c0.1,0,0.1-0.1,0.1-0.1
					c0,0,0-0.1-0.1-0.1H6.2c-0.1,0-0.1,0-0.1,0.1v0.5c0,0,0,0.1-0.1,0.1s-0.1,0-0.1-0.1c0,0,0,0,0,0v-0.5c0-0.1,0.1-0.3,0.2-0.3h0.6
					c0.1,0,0.2,0.2,0.2,0.3c0,0.1-0.1,0.2-0.2,0.2H6.4c-0.1,0-0.1,0.1-0.1,0.1c0,0,0,0.1,0.1,0.1h0.5C6.9-523.9,7-523.8,6.9-523.7
					C7-523.8,6.9-523.7,6.9-523.7"/>
				<path id="Path_8614" class="st2" d="M7.3-523.7h0.7c0,0,0.1,0,0.1-0.1c0,0,0-0.1-0.1-0.1H7.4c-0.1,0-0.1,0-0.1-0.1v-0.5
					c0,0,0-0.1-0.1-0.1s-0.1,0-0.1,0.1c0,0,0,0,0,0v0.6C7.1-523.8,7.2-523.7,7.3-523.7"/>
				<path id="Path_8615" class="st2" d="M8.3-524.3v0.2c0,0,0,0.1,0.1,0.1s0.1,0,0.1-0.1c0,0,0,0,0,0v-0.2c0,0,0-0.1,0.1-0.1H9
					c0,0,0.1,0,0.1,0.1v0.4c0,0,0,0.1-0.1,0.1H8.3c0,0-0.1,0-0.1,0.1c0,0,0,0.1,0.1,0.1H9c0.1,0,0.2-0.1,0.2-0.3v-0.4
					c0-0.1-0.1-0.2-0.2-0.3H8.5C8.4-524.6,8.3-524.5,8.3-524.3"/>
				<path id="Path_8616" class="st2" d="M10.8-523.7h-0.5c-0.1,0-0.2-0.2-0.2-0.3c0-0.1,0.1-0.2,0.2-0.2h0.4c0.1,0,0.1-0.1,0.1-0.1
					c0,0,0-0.1-0.1-0.1h-0.6c-0.1,0-0.1,0-0.1,0.1v0.5c0,0,0,0.1-0.1,0.1s-0.1,0-0.1-0.1c0,0,0,0,0,0v-0.5c0-0.1,0.1-0.3,0.2-0.3
					h0.6c0.1,0,0.2,0.2,0.2,0.3c0,0.1-0.1,0.2-0.2,0.2h-0.4c-0.1,0-0.1,0.1-0.1,0.1c0,0,0,0.1,0.1,0.1h0.5
					C10.9-523.9,10.9-523.8,10.8-523.7C10.9-523.8,10.9-523.7,10.8-523.7"/>
				<path id="Path_8617" class="st2" d="M11.9-524.2L11.9-524.2c0-0.1,0-0.2-0.1-0.2h-0.5c-0.1,0-0.1,0.1-0.1,0.1v0.1H11.9z
					 M11.9-524.1h-0.7v0.3c0,0,0,0.1-0.1,0.1c0,0-0.1,0-0.1,0c0,0,0,0,0,0v-0.5c0-0.2,0.1-0.3,0.2-0.3h0.6c0.1,0,0.2,0.2,0.2,0.3
					v0.5c0,0,0,0.1-0.1,0.1c0,0-0.1,0-0.1-0.1c0,0,0,0,0,0L11.9-524.1z"/>
				<path id="Path_8618" class="st2" d="M12.4-523.7h0.7c0,0,0.1,0,0.1-0.1c0,0,0-0.1-0.1-0.1h-0.7c-0.1,0-0.1,0-0.1-0.1v-0.5
					c0,0,0-0.1-0.1-0.1s-0.1,0-0.1,0.1c0,0,0,0,0,0v0.6C12.2-523.8,12.3-523.7,12.4-523.7"/>
				<path id="Path_8619" class="st2" d="M13.5-523.7h0.7c0,0,0.1,0,0.1-0.1c0,0,0-0.1-0.1-0.1h-0.7c-0.1,0-0.1,0-0.1-0.1v-0.5
					c0,0,0-0.1-0.1-0.1s-0.1,0-0.1,0.1c0,0,0,0,0,0v0.6C13.4-523.8,13.4-523.7,13.5-523.7"/>
				<path id="Path_8620" class="st2" d="M15.5-524v-0.6c0,0,0-0.1-0.1-0.1s-0.1,0-0.1,0.1c0,0,0,0,0,0v0.3h-0.7c0,0,0,0,0-0.1v-0.2
					c0,0,0-0.1-0.1-0.1s-0.1,0-0.1,0.1c0,0,0,0,0,0v0.2c0,0.1,0.1,0.2,0.2,0.2h0.6v0.1c0,0,0,0.1-0.1,0.1h-0.7c0,0-0.1,0-0.1,0.1
					c0,0,0,0.1,0.1,0.1h0.7C15.4-523.7,15.5-523.8,15.5-524"/>
				<path id="Path_8621" class="st1" d="M1.2-521.8H0.7c-0.1,0-0.1-0.1-0.1-0.2v-0.3c0-0.1,0.1-0.2,0.1-0.2h0.6c0,0,0,0,0,0.1
					c0,0,0,0,0,0H0.7c0,0-0.1,0-0.1,0.1v0.2c0,0,0,0.1,0.1,0.1h0.5C1.3-521.9,1.3-521.9,1.2-521.8C1.3-521.8,1.3-521.8,1.2-521.8"/>
				<path id="Path_8622" class="st1" d="M2-522h0.6v0.2c0,0,0,0.1,0,0.1s0,0,0.1,0c0,0,0,0,0,0v-0.5c0,0,0-0.1,0-0.1l0,0
					c0,0,0,0,0,0.1l0,0v0.2H2v-0.2c0,0,0-0.1,0-0.1c0,0,0,0-0.1,0c0,0,0,0,0,0v0.5c0,0,0,0.1,0,0.1c0,0,0,0,0.1,0c0,0,0,0,0,0V-522z
					"/>
				<path id="Path_8623" class="st1" d="M4.1-521.8v-0.5c0-0.1,0-0.1-0.1-0.2H3.5c-0.1,0-0.1,0.1-0.1,0.2v0.5c0,0,0,0.1,0,0.1
					s0,0,0,0c0,0,0,0,0,0v-0.2H4L4.1-521.8C4-521.8,4-521.8,4.1-521.8C4.1-521.8,4.1-521.8,4.1-521.8C4.1-521.8,4.1-521.8,4.1-521.8
					 M3.4-522.2L3.4-522.2c0-0.1,0-0.2,0.1-0.2h0.4c0,0,0.1,0,0.1,0.1v0.1H3.4z"/>
				<path id="Path_8624" class="st1" d="M5.6-521.8v-0.5c0-0.1-0.1-0.2-0.1-0.2H5.3c-0.1,0-0.1,0.1-0.1,0.2v0.2c0,0,0,0.1,0,0.1
					c0,0-0.1,0-0.1,0c0,0,0,0,0,0v-0.2c0-0.1-0.1-0.2-0.1-0.2H4.8c-0.1,0-0.1,0.1-0.1,0.2v0.5c0,0,0,0.1,0,0.1s0.1,0,0.1,0
					c0,0,0,0,0,0v-0.4c0,0,0-0.1,0.1-0.1H5c0.1,0,0.1,0,0.1,0.1v0.2c0,0.1,0.1,0.2,0.1,0.2h0.1c0.1,0,0.1-0.1,0.1-0.2v-0.2
					c0,0,0-0.1,0.1-0.1h0.1c0.1,0,0.1,0,0.1,0.1L5.6-521.8C5.5-521.8,5.5-521.8,5.6-521.8C5.6-521.8,5.6-521.8,5.6-521.8
					C5.6-521.8,5.6-521.8,5.6-521.8"/>
				<path id="Path_8625" class="st1" d="M6.3-522.3v0.5c0,0,0,0.1,0,0.1c0,0,0.1,0,0.1,0c0,0,0,0,0,0L6.3-522.3c0.1,0,0.1,0,0.2,0
					h0.5c0,0,0.1,0,0.1,0.1c0,0,0,0.1-0.1,0.1H6.5c0,0-0.1,0,0,0.1c0,0,0,0,0,0h0.4c0.1,0,0.2-0.1,0.1-0.2c0-0.1-0.1-0.1-0.1-0.2
					H6.4C6.3-522.5,6.3-522.4,6.3-522.3"/>
				<path id="Path_8626" class="st1" d="M7.7-522.5L7.7-522.5C7.8-522.5,7.8-522.4,7.7-522.5L7.7-522.5l0.1,0.6c0,0,0,0.1,0,0.1
					c0,0-0.1,0-0.1,0c0,0,0,0,0,0L7.7-522.5C7.7-522.4,7.7-522.5,7.7-522.5L7.7-522.5"/>
				<path id="Path_8627" class="st1" d="M8.5-522.5H9c0.1,0,0.1,0.1,0.1,0.2v0.3c0,0.1-0.1,0.2-0.1,0.2H8.5c-0.1,0-0.1-0.1-0.1-0.2
					v-0.3C8.4-522.4,8.4-522.5,8.5-522.5 M8.6-522.3C8.5-522.3,8.5-522.3,8.6-522.3L8.5-522c0,0,0,0.1,0.1,0.1H9c0,0,0.1,0,0.1-0.1
					v-0.2c0,0,0-0.1-0.1-0.1H8.6z"/>
				<path id="Path_8628" class="st1" d="M9.8-521.8v-0.4c0-0.1,0.1-0.2,0.1-0.2h0.2c0.1,0,0.1,0.1,0.1,0.2v0.3c0,0,0,0,0,0.1h0.1
					c0,0,0,0,0-0.1v-0.4c0,0,0-0.1,0-0.1c0,0,0.1,0,0.1,0c0,0,0,0,0,0v0.4c0,0.1-0.1,0.2-0.1,0.2h-0.1c-0.1,0-0.1-0.1-0.1-0.2v-0.3
					c0,0,0-0.1-0.1-0.1H9.9c0,0-0.1,0-0.1,0.1L9.8-521.8C9.9-521.8,9.9-521.8,9.8-521.8C9.8-521.8,9.8-521.8,9.8-521.8
					C9.8-521.8,9.8-521.8,9.8-521.8"/>
				<path id="Path_8629" class="st1" d="M14.7-522.3v0.5c0,0,0,0.1,0,0.1c0,0,0.1,0,0.1,0c0,0,0,0,0,0v-0.4c0,0,0-0.1,0.1-0.1h0.5
					c0,0,0.1,0,0.1,0.1c0,0,0,0.1-0.1,0.1h-0.4c0,0-0.1,0,0,0.1c0,0,0,0,0,0h0.4c0.1,0,0.1-0.1,0.1-0.2c0-0.1-0.1-0.1-0.1-0.2h-0.5
					C14.8-522.5,14.7-522.4,14.7-522.3"/>
				<path id="Path_8630" class="st1" d="M14-522.5L14-522.5C14.1-522.5,14.1-522.4,14-522.5L14-522.5l0.1,0.6c0,0,0,0.1,0,0.1
					c0,0-0.1,0-0.1,0c0,0,0,0,0,0L14-522.5C14-522.4,14-522.5,14-522.5L14-522.5"/>
				<path id="Path_8631" class="st1" d="M12.7-522h0.6v0.2c0,0,0,0.1,0,0.1c0,0,0.1,0,0.1,0c0,0,0,0,0,0v-0.5c0,0,0-0.1,0-0.1
					c0,0-0.1,0-0.1,0c0,0,0,0,0,0v0.2h-0.6v-0.2c0,0,0-0.1,0-0.1c0,0-0.1,0-0.1,0c0,0,0,0,0,0v0.5c0,0,0,0.1,0,0.1c0,0,0.1,0,0.1,0
					c0,0,0,0,0,0L12.7-522L12.7-522z"/>
				<path id="Path_8632" class="st1" d="M11.2-521.8h0.5c0.1,0,0.2-0.1,0.1-0.2c0-0.1-0.1-0.2-0.1-0.2h-0.4c0,0-0.1,0-0.1-0.1
					c0,0,0,0,0.1,0h0.6c0,0,0.1,0,0.1-0.1c0,0,0,0-0.1,0h-0.6c-0.1,0-0.1,0.1-0.1,0.2c0,0.1,0.1,0.1,0.1,0.2h0.5c0,0,0.1,0,0.1,0.1
					c0,0,0,0.1-0.1,0.1h-0.6C11.2-521.9,11.2-521.9,11.2-521.8C11.2-521.8,11.2-521.8,11.2-521.8"/>
			</g>
		</g>
	</g>
</g>
</svg>
