<?xml version="1.0" encoding="utf-8"?>
<!-- Generator: Adobe Illustrator 27.9.0, SVG Export Plug-In . SVG Version: 6.00 Build 0)  -->
<svg version="1.1" id="Layer_1" xmlns="http://www.w3.org/2000/svg" xmlns:xlink="http://www.w3.org/1999/xlink" x="0px" y="0px"
	 viewBox="0 0 16 16" style="enable-background:new 0 0 16 16;" xml:space="preserve">
<style type="text/css">
	.st0{clip-path:url(#SVGID_00000154408523169819327990000011723485632358145687_);}
	.st1{fill:#010101;}
	.st2{fill:#FFFFFF;}
	.st3{fill:#CE2030;}
</style>
<g id="Group_6418" transform="translate(9 213.604)">
	<g>
		<g>
			<defs>
				<rect id="SVGID_1_" x="-9" y="-212.5" width="16" height="13.8"/>
			</defs>
			<clipPath id="SVGID_00000032620059465607011600000017959064881124395700_">
				<use xlink:href="#SVGID_1_"  style="overflow:visible;"/>
			</clipPath>
			
				<g id="Group_6417" transform="translate(0 0)" style="clip-path:url(#SVGID_00000032620059465607011600000017959064881124395700_);">
				<path id="Path_7427" class="st1" d="M1.1-207.1h-2.3v0.6h1.6c0.1,0,0.2,0,0.2-0.1v-0.1h0.3L1.1-207.1z"/>
				<path id="Path_7428" class="st1" d="M-5.3-202.6l-2.8,3.6h2.9l2.6-3.5h-2.8V-202.6z"/>
				<path id="Path_7429" class="st1" d="M1.9-202.8L1.9-202.8c0.2,0,0.3,0,0.3-0.1v-0.9l-1.4-1.6v1H0.6v-0.1c0-0.1-0.1-0.2-0.1-0.2
					c0,0,0,0,0,0h-1.6v1l3.9,4.9h3.5l-2.8-3.4H1.9V-202.8z"/>
				<path id="Path_7430" class="st1" d="M-3-208.3c-0.1,0-0.2,0-0.2,0.1l-0.7,1.1l1.1,1.4l-1.1,1.4l0.9,1.4l0.1,0
					c0.1,0,0.2-0.1,0.2-0.1v-5.3C-2.8-208.2-2.9-208.3-3-208.3"/>
				<path id="Path_7431" class="st1" d="M2-208.3L2-208.3L2-208.3L2-208.3z"/>
				<path id="Path_7432" class="st1" d="M-1.9-208.8l-2.9-3.5h-3.4l2.8,3.5H-1.9z"/>
				<path id="Path_7433" class="st1" d="M5.1-212.3H2.2l-2.6,3.5h2.9L5.1-212.3z"/>
				<path id="Path_7434" class="st2" d="M6.7-204.4v0.2c0,0.1-0.1,0.2-0.1,0.2H3.8v-4.1c0-0.1,0.1-0.1,0.2-0.1h0.1v-0.5H2.6l2.8-3.7
					H2.1l-2.8,3.7h-1l-3.1-3.7h-3.8l3.1,3.8v0.4h0.2c-0.2,0.3-0.4,0.6-0.6,0.9l-0.1,0.1c-0.2-0.3-0.4-0.6-0.6-1l0.2,0v-0.5h-2.5v0.5
					h0.1c0.1,0,0.2,0,0.2,0.1l0,0l1.6,2.4l-1.9,2.9l-0.1,0H-9v0.5h2.5v-0.5h-0.1l-0.1,0c0.1-0.1,0.2-0.4,0.5-0.8l0.3-0.5l0.1,0.1
					c0.2,0.3,0.5,0.7,0.7,1l-0.1,0.1h0v0l-3.2,4.1h3.4l2.8-3.7h1.3v-0.5H-1c-0.1,0-0.2,0-0.2-0.1v-0.6l3.9,4.8h3.9l-3-3.6h3
					c0.1,0,0.1,0.1,0.1,0.2v0.1H7v-2.4L6.7-204.4L6.7-204.4z M2.2-212.3h2.9l-2.6,3.5h-2.9L2.2-212.3z M-4.7-212.3l2.9,3.5h-3.4
					l-2.8-3.5H-4.7z M-5.1-198.9h-3l2.8-3.6v0.2h2.8L-5.1-198.9z M6.2-198.9H2.7l-3.9-4.9v-1h1.6c0.1,0,0.1,0.1,0.2,0.1c0,0,0,0,0,0
					v0.1h0.3v-1l1.4,1.6v0.9c0,0-0.1,0.1-0.2,0.1H1.9v0.5h1.5L6.2-198.9z M0.6-206.6c0,0.1-0.1,0.1-0.2,0.1h-1.6v-0.6h2.3l-0.3,0.4
					H0.6L0.6-206.6z M1.3-207.1h0.3c0.1,0,0.2,0.1,0.2,0.2v0.2H2v-1.3l0.2-0.2l0,0l0,4.1l-1.3-1.6v-0.8L1.3-207.1z M2-208.3L2-208.3
					L2-208.3L2-208.3z M6.9-202.1H6.8c0-0.1,0-0.2-0.1-0.3c0,0-0.1-0.1-0.1-0.1H2v-0.2l0.2-0.1c0,0,0.1-0.1,0.1-0.2v-5.3
					c0-0.1-0.1-0.2-0.3-0.2v1.6H1.8c0-0.1,0-0.2-0.1-0.3c0,0-0.1-0.1-0.2-0.1h-2.9v1l1.7,0c0.1,0,0.1,0,0.1-0.1
					c0.1-0.1,0.1-0.1,0.1-0.2h0.1v1.9H0.7c0-0.1,0-0.2-0.1-0.3c0,0-0.1-0.1-0.2-0.1h-1.7v2c0,0.1,0,0.1,0.1,0.2l0.2,0.1v0.2h-4.2
					v-0.2c0.1,0,0.2,0,0.2-0.1c-0.1-0.3-0.2-0.6-0.4-0.8l-0.5-0.7l-0.5,0.8c-0.2,0.2-0.3,0.5-0.4,0.7c0,0,0,0.1,0.1,0.1l0.2,0v0.2
					h-2.4v-0.2c0.1,0,0.2,0,0.2-0.1l2-3l-1.6-2.6c-0.1-0.1-0.2-0.1-0.3-0.1v-0.2h2.3v0.2c-0.2,0-0.3,0-0.3,0.1
					c0.2,0.4,0.4,0.9,0.7,1.2l0.5-0.7c0.1-0.2,0.2-0.3,0.3-0.5c0-0.1-0.1-0.1-0.3-0.1v-0.2h2.3v0H4v0.2c-0.2,0-0.3,0.1-0.3,0.3v4.3
					h2.8c0.1,0,0.1,0,0.1-0.1c0.1-0.1,0.1-0.2,0.1-0.3h0.1C6.9-204.3,6.9-202.1,6.9-202.1z"/>
				<path id="Path_7435" class="st2" d="M-3-208.5L-3-208.5c-0.1,0-0.2,0-0.3,0.1l-1.7,2.6l1.9,3c0,0,0.1,0.1,0.1,0.1l0.2-0.1
					c0,0,0.1-0.1,0.1-0.2v-5.3C-2.7-208.4-2.8-208.4-3-208.5 M-4.9-205.8L-4-207l1,1.3l-1,1.3L-4.9-205.8z M-2.8-202.9
					c0,0.1-0.1,0.1-0.2,0.1l-0.1,0l-0.9-1.4l1.1-1.4l-1.1-1.4l0.7-1.1c0-0.1,0.1-0.1,0.2-0.1c0.2,0,0.2,0,0.3,0.1L-2.8-202.9z"/>
				<path id="Path_7436" class="st3" d="M6.7-204c0,0-0.1,0.1-0.1,0.1H3.7v-4.3c0-0.2,0.1-0.2,0.3-0.3v-0.2h-7.1v0h-2.3v0.2
					c0.2,0,0.3,0.1,0.3,0.1c-0.1,0.2-0.2,0.4-0.3,0.5l-0.5,0.7c-0.3-0.4-0.5-0.8-0.7-1.2c0-0.1,0.1-0.1,0.3-0.1v-0.2h-2.3v0.2
					c0.1,0,0.2,0,0.3,0.1l1.6,2.6l-2,3c0,0-0.1,0.1-0.2,0.1v0.2h2.3v-0.2l-0.2,0c-0.1,0-0.1,0-0.1-0.1c0.1-0.3,0.3-0.5,0.4-0.7
					l0.5-0.8l0.5,0.7c0.2,0.2,0.3,0.5,0.4,0.8c0,0.1-0.1,0.1-0.2,0.1v0.2H-1v-0.2l-0.2-0.1c-0.1,0-0.1-0.1-0.1-0.2v-2h1.7
					c0.1,0,0.1,0,0.1,0.1c0.1,0.1,0.1,0.2,0.1,0.3h0.1v-1.9H0.7c0,0.1,0,0.2-0.1,0.2c0,0-0.1,0.1-0.2,0.1l-1.7,0v-1h2.9
					c0.1,0,0.1,0,0.2,0.1c0.1,0.1,0.1,0.2,0.1,0.3h0.1v-1.6c0.2,0,0.3,0.1,0.3,0.2v5.3c0,0.1,0,0.1-0.1,0.2L2-202.7v0.2h4.6
					c0.1,0,0.1,0,0.1,0.1c0.1,0.1,0.1,0.2,0.1,0.3h0.1v-2.1H6.8C6.8-204.2,6.8-204.1,6.7-204 M-2.7-202.9c0,0.1,0,0.1-0.1,0.2
					l-0.2,0.1c0,0-0.1,0-0.1-0.1l-1.9-3l1.7-2.6c0.1-0.1,0.2-0.1,0.3-0.1l0,0c0.2,0,0.3,0.1,0.3,0.3L-2.7-202.9z"/>
			</g>
		</g>
	</g>
</g>
</svg>
