<svg xmlns="http://www.w3.org/2000/svg" width="36.568" height="16.58" viewBox="0 0 36.568 16.58">
  <g id="App_text" data-name="App text" transform="translate(-43.428 -9)">
    <path id="Path_11008" data-name="Path 11008" d="M70.388,25.578V14.94q0-.576-.036-1.17-.036-.612-.108-1.206h2.61l.216,1.782h-.2A2.449,2.449,0,0,1,74,12.924a3.657,3.657,0,0,1,1.98-.54,3.789,3.789,0,0,1,2.088.576,3.727,3.727,0,0,1,1.4,1.62,5.7,5.7,0,0,1,.522,2.538,5.745,5.745,0,0,1-.522,2.556,3.847,3.847,0,0,1-1.4,1.638,3.789,3.789,0,0,1-2.088.576,3.718,3.718,0,0,1-1.962-.522,2.552,2.552,0,0,1-1.134-1.386H73.1v5.6Zm4.77-5.742a1.922,1.922,0,0,0,1.53-.666,3.08,3.08,0,0,0,.576-2.052,3.005,3.005,0,0,0-.576-2.034,1.947,1.947,0,0,0-1.53-.648,1.981,1.981,0,0,0-1.53.648,3.005,3.005,0,0,0-.576,2.034,3.08,3.08,0,0,0,.576,2.052,1.955,1.955,0,0,0,1.53.666Z" fill="#fff"/>
    <path id="Path_11009" data-name="Path 11009" d="M58.632,25.578V14.94q0-.576-.036-1.17-.036-.612-.108-1.206H61.1l.216,1.782h-.2a2.449,2.449,0,0,1,1.134-1.422,3.657,3.657,0,0,1,1.98-.54,3.789,3.789,0,0,1,2.088.576,3.728,3.728,0,0,1,1.4,1.62,5.7,5.7,0,0,1,.522,2.538,5.745,5.745,0,0,1-.522,2.556,3.848,3.848,0,0,1-1.4,1.638,3.789,3.789,0,0,1-2.088.576,3.718,3.718,0,0,1-1.962-.522,2.552,2.552,0,0,1-1.134-1.386h.216v5.6Zm4.77-5.742a1.922,1.922,0,0,0,1.53-.666,3.08,3.08,0,0,0,.576-2.052,3.005,3.005,0,0,0-.576-2.034,1.947,1.947,0,0,0-1.53-.648,1.981,1.981,0,0,0-1.53.648,3.005,3.005,0,0,0-.576,2.034,3.08,3.08,0,0,0,.576,2.052,1.955,1.955,0,0,0,1.53.666Z" fill="#fff"/>
    <path id="Path_11010" data-name="Path 11010" d="M43.428,21.69,49.262,9h2.322l5.9,12.69h-2.84l-1.53-3.528,1.1.774H46.67l1.116-.774-1.53,3.528Zm6.984-9.738-2.32,5.508-.486-.684h5.67l-.414.684-2.376-5.508Z" fill="#fff"/>
  </g>
</svg>
