<svg id="Group_7724" data-name="Group 7724" xmlns="http://www.w3.org/2000/svg" xmlns:xlink="http://www.w3.org/1999/xlink" width="78.407" height="109.975" viewBox="0 0 78.407 109.975">
  <defs>
    <clipPath id="clip-path">
      <rect id="Rectangle_5266" data-name="Rectangle 5266" width="78.407" height="109.975" transform="translate(0 0)" fill="none"/>
    </clipPath>
  </defs>
  <g id="Group_7721" data-name="Group 7721" style="isolation: isolate">
    <g id="Group_7720" data-name="Group 7720" clip-path="url(#clip-path)">
      <path id="Path_7343" data-name="Path 7343" d="M39.2,31.568a39.2,39.2,0,1,0,39.2,39.2,39.2,39.2,0,0,0-39.2-39.2m0,71.883a32.679,32.679,0,1,1,32.68-32.68,32.68,32.68,0,0,1-32.68,32.68" fill="#496885"/>
    </g>
  </g>
  <g id="Group_7723" data-name="Group 7723" style="isolation: isolate">
    <g id="Group_7722" data-name="Group 7722" clip-path="url(#clip-path)">
      <path id="Path_7344" data-name="Path 7344" d="M77.259,18.878,39.355,0V29.353s8.372-1.374,20.882,5.251V27.469C53.411,23.384,40.9,22.434,40.9,22.434,38.374,21.676,40.9,21.2,40.9,21.2c8.621-1.4,22.556,4.233,22.556,4.233l-.023.239L69.468,22.7l.16,7.565-.371.662-.419,8.462.6.488,2.273-.488-.949-17.323Z" fill="#4ea0f8"/>
      <path id="Path_7345" data-name="Path 7345" d="M18.322,34.6V27.238L1.3,18.878,39.2,0V29.353S30.832,27.979,18.322,34.6" fill="#496885"/>
    </g>
  </g>
  <path id="Path_9475" data-name="Path 9475" d="M17.628-14.04c3.354-.312,4.719-2.3,4.719-6.162,0-5.538-2.5-7.02-9.516-7.02-4.524,0-7.059.039-10.1.312V0c3.393.273,6.2.312,11.349.312,6.435,0,9.126-1.482,9.126-7.02,0-4.29-1.443-6.825-5.577-7.176Zm-.975-5.343c0,2.769-.9,3.471-3.783,3.471H8.541v-6.825h4.017C15.678-22.737,16.653-22.113,16.653-19.383ZM8.541-4.173v-7.8h4.368c3.354.039,4.329.858,4.329,4.134,0,3-.936,3.666-4.173,3.666ZM42.12-7.059,44.07,0h6.045L42.354-25.35a2.025,2.025,0,0,0-2.067-1.56H34.671A2.055,2.055,0,0,0,32.6-25.35L24.843,0h6.084l1.95-7.059Zm-1.287-4.6H34.125l2.262-8.229.585-2.535h1.053c.117.819.351,1.716.546,2.535Z" transform="translate(13.59 83.477)" fill="#4ea0f8"/>
</svg>
