<svg xmlns="http://www.w3.org/2000/svg" width="45" height="23.627" viewBox="0 0 45 23.627">
  <g id="Group_8316" data-name="Group 8316" transform="translate(3.775 -2)">
    <g id="Group_8225" data-name="Group 8225" transform="translate(-3.775 2)">
      <g id="Group_7723" data-name="Group 7723" style="isolation: isolate">
        <g id="Group_8292" data-name="Group 8292">
          <path id="Path_7344" data-name="Path 7344" d="M61.81,11.184,39.355,0V17.389s4.96-.814,12.371,3.111V16.273c-4.044-2.42-11.453-2.983-11.453-2.983-1.5-.449-.005-.732-.005-.732,5.107-.831,13.363,2.508,13.363,2.508l-.014.142,3.578-1.757.095,4.482-.22.392-.248,5.013.353.289,1.347-.289-.562-10.263Z" transform="translate(-16.81)" fill="#fff"/>
          <path id="Path_7345" data-name="Path 7345" d="M11.384,20.5V16.136L1.3,11.184,23.755,0V17.389S18.8,16.575,11.384,20.5" transform="translate(-1.3)" fill="#fff"/>
        </g>
      </g>
    </g>
  </g>
</svg>
