<svg id="Group_8225" data-name="Group 8225" xmlns="http://www.w3.org/2000/svg" width="27.617" height="14.5" viewBox="0 0 27.617 14.5">
  <g id="Group_7723" data-name="Group 7723" style="mix-blend-mode: normal;isolation: isolate">
    <g id="Group_8292" data-name="Group 8292">
      <path id="Path_7344" data-name="Path 7344" d="M53.136,6.864,39.355,0V10.672s3.044-.5,7.592,1.909V9.987C44.465,8.5,39.919,8.156,39.919,8.156c-.92-.276,0-.449,0-.449,3.134-.51,8.2,1.539,8.2,1.539l-.008.087,2.2-1.078.058,2.75-.135.241-.152,3.077.217.177.826-.177-.345-6.3Z" transform="translate(-25.519)" fill="#fff"/>
      <path id="Path_7345" data-name="Path 7345" d="M7.489,12.581V9.9L1.3,6.864,15.08,0V10.672s-3.043-.5-7.592,1.909" transform="translate(-1.3)" fill="#fff"/>
    </g>
  </g>
</svg>
