<svg width="24" height="24" viewBox="0 0 24 24" fill="none" xmlns="http://www.w3.org/2000/svg">
<path d="M4.556 9.32813C4.62631 9.46875 4.72943 9.57656 4.85131 9.64219C5.03412 9.74531 5.07162 9.75 6.64193 9.75L8.24975 9.75L8.25912 15.8859C8.27318 22.0031 8.27318 22.0266 8.37162 22.1531C8.42318 22.2234 8.52631 22.3266 8.59662 22.3781C8.72318 22.4766 8.76537 22.4766 11.9997 22.4766C15.2341 22.4766 15.2763 22.4766 15.4029 22.3781C15.4732 22.3266 15.5763 22.2234 15.6279 22.1531C15.7263 22.0266 15.7263 22.0031 15.7404 15.8859L15.7497 9.75L17.2872 9.75C18.5716 9.75 18.8622 9.73594 19.0451 9.675C19.4201 9.54844 19.5982 9.22969 19.5232 8.82188C19.4951 8.66719 19.0919 8.24531 15.9232 5.07656C12.7544 1.90781 12.3326 1.50469 12.1779 1.47656C11.7326 1.39688 11.9529 1.20469 8.11381 5.02969C6.06537 7.07344 4.556 8.62031 4.5185 8.70469C4.42475 8.92031 4.43881 9.08906 4.556 9.32813Z" fill="white"/>
</svg>
