<svg id="Group_7724" data-name="Group 7724" xmlns="http://www.w3.org/2000/svg" xmlns:xlink="http://www.w3.org/1999/xlink" width="78.407" height="109.975" viewBox="0 0 78.407 109.975">
  <defs>
    <clipPath id="clip-path">
      <rect id="Rectangle_5266" data-name="Rectangle 5266" width="78.407" height="109.975" transform="translate(0 0)" fill="none"/>
    </clipPath>
  </defs>
  <g id="Group_7721" data-name="Group 7721" style="mix-blend-mode: normal;isolation: isolate">
    <g id="Group_7720" data-name="Group 7720" clip-path="url(#clip-path)">
      <path id="Path_7343" data-name="Path 7343" d="M39.2,31.568a39.2,39.2,0,1,0,39.2,39.2,39.2,39.2,0,0,0-39.2-39.2m0,71.883a32.679,32.679,0,1,1,32.68-32.68,32.68,32.68,0,0,1-32.68,32.68" fill="#496885"/>
    </g>
  </g>
  <g id="Group_7723" data-name="Group 7723" style="mix-blend-mode: normal;isolation: isolate">
    <g id="Group_7722" data-name="Group 7722" clip-path="url(#clip-path)">
      <path id="Path_7344" data-name="Path 7344" d="M77.259,18.878,39.355,0V29.353s8.372-1.374,20.882,5.251V27.469C53.411,23.384,40.9,22.434,40.9,22.434,38.374,21.676,40.9,21.2,40.9,21.2c8.621-1.4,22.556,4.233,22.556,4.233l-.023.239L69.468,22.7l.16,7.565-.371.662-.419,8.462.6.488,2.273-.488-.949-17.323Z" fill="#4ea0f8"/>
      <path id="Path_7345" data-name="Path 7345" d="M18.322,34.6V27.238L1.3,18.878,39.2,0V29.353S30.832,27.979,18.322,34.6" fill="#496885"/>
    </g>
  </g>
  <text id="BA" transform="translate(13.59 83.477)" fill="#4ea0f8" font-size="39" font-family="Exo2-Bold, 'Exo \32 '" font-weight="700"><tspan x="0" y="0" letter-spacing="-0.001em">B</tspan><tspan y="0">A</tspan></text>
</svg>
