<svg id="Group_8608" data-name="Group 8608" xmlns="http://www.w3.org/2000/svg" xmlns:xlink="http://www.w3.org/1999/xlink" width="23.969" height="24" viewBox="0 0 23.969 24">
  <defs>
    <clipPath id="clip-path">
      <rect id="Rectangle_6088" data-name="Rectangle 6088" width="23.969" height="24" fill="none"/>
    </clipPath>
  </defs>
  <g id="Group_8608-2" data-name="Group 8608" clip-path="url(#clip-path)">
    <path id="Path_9459" data-name="Path 9459" d="M.356.084A.821.821,0,0,0,.1.3L0,.427V23.573l.1.131a.821.821,0,0,0,.258.211c.15.08.712.084,9.806.084,8.527,0,9.67-.009,9.8-.07.084-.042,1.008-.933,2.053-1.983,1.612-1.617,1.908-1.931,1.936-2.072.014-.089.019-4.5.014-9.806L23.953.427,23.855.3A.821.821,0,0,0,23.6.084C23.447,0,22.8,0,11.977,0S.506,0,.356.084m22.3,10.1.009,8.845-1.6.014c-1.462.014-1.617.023-1.734.1-.3.2-.3.183-.309,1.945L19,22.688l-8.845-.009-8.845-.014L1.3,12.047c0-5.841,0-10.645.014-10.678s2.175-.056,10.673-.047l10.655.014ZM21.633,20.4s-.286.3-.633.642l-.633.633V20.391H21c.347,0,.633,0,.633.014" fill="#fff"/>
    <path id="Path_9460" data-name="Path 9460" d="M100.734,74.116a.513.513,0,0,0-.15.1c-.08.066-.084.216-.084,1.884s0,1.819.084,1.884a.306.306,0,0,0,.389.061c.075-.042.141-.08.145-.084s.023-.52.037-1.148l.023-1.134.7,1.172c.567.947.727,1.181.834,1.214a.311.311,0,0,0,.4-.169,30.666,30.666,0,0,0,0-3.6.334.334,0,0,0-.4-.173c-.216.112-.225.155-.248,1.284l-.023,1.078-.689-1.148a5.665,5.665,0,0,0-.811-1.2.455.455,0,0,0-.131-.052s-.042.014-.08.028" transform="translate(-95.789 -70.614)" fill="#fff"/>
    <path id="Path_9461" data-name="Path 9461" d="M187.642,74.315a.351.351,0,0,0-.15.136,30.3,30.3,0,0,0,0,3.633c.089.192.248.225,1.017.206.792-.014.9-.056.9-.342s-.122-.328-.755-.342l-.558-.019v-.975h.553c.492,0,.567-.009.656-.094a.354.354,0,0,0,.037-.45c-.056-.075-.145-.094-.647-.113l-.577-.023-.014-.478-.014-.473.563-.019c.469-.009.572-.028.656-.1a.34.34,0,0,0,0-.478c-.089-.08-.187-.089-.834-.1a5.042,5.042,0,0,0-.834.033" transform="translate(-178.651 -70.799)" fill="#fff"/>
    <path id="Path_9462" data-name="Path 9462" d="M362.359,74.211a1.4,1.4,0,0,0-.384.253,1,1,0,0,0-.366.923,1.125,1.125,0,0,0,1.041,1.069c.333.056.52.183.572.4a.513.513,0,0,1-.53.609.8.8,0,0,1-.291-.131.342.342,0,0,0-.567.122c-.108.3.4.68.9.68a1.047,1.047,0,0,0,.816-.356,1.144,1.144,0,0,0-.68-1.945c-.342-.061-.469-.127-.553-.286a.472.472,0,0,1,.052-.544c.183-.22.356-.234.684-.061a.691.691,0,0,0,.356.112.336.336,0,0,0,.122-.591,1.236,1.236,0,0,0-1.177-.253" transform="translate(-344.655 -70.682)" fill="#fff"/>
    <path id="Path_9463" data-name="Path 9463" d="M252.575,75.073a.412.412,0,0,0-.075.2c0,.122.872,3.37.938,3.492a.329.329,0,0,0,.553.014c.023-.047.169-.553.319-1.125a5.786,5.786,0,0,1,.3-.984c.019.033.141.469.277.97.291,1.1.333,1.2.492,1.266a.319.319,0,0,0,.4-.15c.066-.155.938-3.417.938-3.516,0-.248-.445-.375-.581-.169a10.348,10.348,0,0,0-.333,1.092c-.145.539-.272,1.017-.291,1.055a3.511,3.511,0,0,1-.253-.773c-.352-1.28-.366-1.327-.445-1.4a.336.336,0,0,0-.464.038,8.738,8.738,0,0,0-.333,1.087c-.145.539-.277,1.008-.3,1.036a5.16,5.16,0,0,1-.309-1,6.848,6.848,0,0,0-.361-1.148.348.348,0,0,0-.478.019" transform="translate(-240.664 -71.455)" fill="#fff"/>
    <path id="Path_9464" data-name="Path 9464" d="M57.093,199.084a.661.661,0,0,0-.052,1.158c.164.094.225.094,4.617.094h4.453l.155-.108a.664.664,0,0,0-.117-1.162A42.812,42.812,0,0,0,61.626,199c-4.073,0-4.383,0-4.533.084" transform="translate(-54.065 -189.672)" fill="#fff"/>
    <path id="Path_9465" data-name="Path 9465" d="M295.875,199.084a.765.765,0,0,0-.267.239l-.108.159v7.05l.108.159c.225.338.066.323,3.619.323,3.52,0,3.38.009,3.6-.3.1-.131.1-.164.1-3.712s0-3.581-.1-3.712c-.225-.3-.084-.3-3.6-.3-2.939,0-3.2,0-3.352.084m5.766,3.923v2.648h-4.828v-5.3h4.828Z" transform="translate(-281.648 -189.671)" fill="#fff"/>
    <path id="Path_9466" data-name="Path 9466" d="M57.093,270.084a.661.661,0,0,0-.052,1.158c.164.094.225.094,4.617.094,4.219,0,4.463,0,4.584-.084a.828.828,0,0,0,.225-.234.723.723,0,0,0-.056-.764c-.239-.262-.056-.253-4.786-.253-4.073,0-4.383,0-4.533.084" transform="translate(-54.065 -257.343)" fill="#fff"/>
    <path id="Path_9467" data-name="Path 9467" d="M57.166,341.286a.568.568,0,0,0-.413.408.665.665,0,0,0,.361.82c.23.1,8.808.1,9.033,0a.586.586,0,0,0,.394-.553.631.631,0,0,0-.3-.633c-.122-.08-.375-.084-4.514-.094-3.619-.009-4.416,0-4.561.052" transform="translate(-54.062 -325.236)" fill="#fff"/>
    <path id="Path_9468" data-name="Path 9468" d="M56.972,413.1a.654.654,0,0,0,.084,1.13c.15.08.586.084,7.144.084,7.922,0,7.209.038,7.425-.389a.561.561,0,0,0-.136-.745L71.311,413H64.219c-7.041,0-7.1,0-7.247.1" transform="translate(-54.028 -393.641)" fill="#fff"/>
  </g>
</svg>
