<svg xmlns="http://www.w3.org/2000/svg" width="32" height="32" viewBox="0 0 32 32">
  <g id="Notification-Bell" transform="translate(-275 -470)">
    <circle id="Ellipse_34" data-name="Ellipse 34" cx="16" cy="16" r="16" transform="translate(275 470)" fill="#4ea0f8"/>
    <path id="Bell" d="M4.414,14.586l.39-.39a.67.67,0,0,0,.2-.474V10a7,7,0,0,1,14,0v3.722a.67.67,0,0,0,.2.474l.389.39a2.143,2.143,0,0,1,.227.245,1,1,0,0,1,.174.421,2.137,2.137,0,0,1,.013.333,2.5,2.5,0,0,1-.052.734,1,1,0,0,1-.628.628,2.5,2.5,0,0,1-.734.052H5.414a2.5,2.5,0,0,1-.734-.052,1,1,0,0,1-.628-.628A2.5,2.5,0,0,1,4,15.586a2.144,2.144,0,0,1,.013-.333,1,1,0,0,1,.174-.421A2.145,2.145,0,0,1,4.414,14.586ZM15,17v1a3,3,0,0,1-6,0V17Z" transform="translate(278.5 474.5)" fill="none" stroke="#fff" stroke-linecap="round" stroke-linejoin="round" stroke-width="2"/>
  </g>
</svg>
