<svg xmlns="http://www.w3.org/2000/svg" width="16.344" height="18" viewBox="0 0 16.344 18">
  <g id="playstore" transform="translate(-23.549 0)">
    <g id="Group_8298" data-name="Group 8298" transform="translate(23.549 0.001)">
      <path id="Path_10999" data-name="Path 10999" d="M59.067,7.063C57.092,5.727,53.921,3.583,49,.254A1.014,1.014,0,0,0,47.962.089L56.4,10.29Z" transform="translate(-46.982 -0.012)" fill="#32bbff"/>
      <path id="Path_11000" data-name="Path 11000" d="M24.529,1.93a1.585,1.585,0,0,0-.217.081,1.245,1.245,0,0,0-.763,1.115V18.577a1.245,1.245,0,0,0,.763,1.115,1.6,1.6,0,0,0,.217.081l10.2-8.922Z" transform="translate(-23.549 -1.853)" fill="#32bbff"/>
      <path id="Path_11001" data-name="Path 11001" d="M56.393,255.98l-8.437,10.2A1,1,0,0,0,49,266.016c4.769-3.229,7.9-5.348,9.9-6.7l.164-.111Z" transform="translate(-46.976 -248.26)" fill="#32bbff"/>
    </g>
    <path id="Path_11002" data-name="Path 11002" d="M23.549,255.98v8.833a1.434,1.434,0,0,0,.763,1.275,1.485,1.485,0,0,0,.217.093l10.2-10.2Z" transform="translate(0 -248.26)" fill="#2c9fd9"/>
    <path id="Path_11003" data-name="Path 11003" d="M44.038.242A1.438,1.438,0,0,0,42.561.17L52.824,10.433,56.2,7.052C53.817,5.716,49.984,3.571,44.038.242Z" transform="translate(-18.249 0)" fill="#29cc5e"/>
    <path id="Path_11004" data-name="Path 11004" d="M52.824,252.126,42.561,262.389a1.428,1.428,0,0,0,1.477-.072c5.766-3.229,9.556-5.348,11.971-6.7l.2-.111Z" transform="translate(-18.249 -244.56)" fill="#d93f21"/>
    <path id="Path_11005" data-name="Path 11005" d="M302.1,176.195a1.431,1.431,0,0,0-.736-1.257l-3.721-2.08-3.338,3.338,3.341,3.341c2.775-1.558,3.718-2.084,3.718-2.084A1.43,1.43,0,0,0,302.1,176.195Z" transform="translate(-262.205 -167.195)" fill="#ffd500"/>
    <path id="Path_11006" data-name="Path 11006" d="M301.362,257.237a1.43,1.43,0,0,0,.736-1.257h-7.8l3.341,3.341C300.419,257.763,301.362,257.237,301.362,257.237Z" transform="translate(-262.205 -247.229)" fill="#fa0"/>
  </g>
</svg>
