<svg xmlns="http://www.w3.org/2000/svg" xmlns:xlink="http://www.w3.org/1999/xlink" width="72" height="72" viewBox="0 0 72 72">
  <defs>
    <clipPath id="clip-path">
      <rect id="Rectangle_5852" data-name="Rectangle 5852" width="37.633" height="38.007" fill="#fff"/>
    </clipPath>
  </defs>
  <g id="Group_8227" data-name="Group 8227" transform="translate(-144 -208)">
    <g id="Component_65_2" data-name="Component 65 – 2" transform="translate(144 208)">
      <g id="Ellipse_506" data-name="Ellipse 506" fill="#ed8935" stroke="#fff" stroke-width="3">
        <circle cx="36" cy="36" r="36" stroke="none"/>
        <circle cx="36" cy="36" r="34.5" fill="none"/>
      </g>
      <g id="Group_7820" data-name="Group 7820">
        <g id="Ellipse_507" data-name="Ellipse 507" fill="none" stroke="#fff" stroke-width="3">
          <circle cx="36" cy="36" r="36" stroke="none"/>
          <circle cx="36" cy="36" r="34.5" fill="none"/>
        </g>
      </g>
    </g>
    <g id="Group_8221" data-name="Group 8221" transform="translate(160.672 223.301)">
      <g id="Group_8220" data-name="Group 8220" transform="translate(0 0)">
        <g id="Group_8220-2" data-name="Group 8220" clip-path="url(#clip-path)">
          <path id="Path_9299" data-name="Path 9299" d="M37.336,37.651l.034-.036,0,0,.027-.032.008-.01.027-.035.007-.011.018-.027.011-.017.013-.022.019-.033.009-.017.012-.024.007-.014.021-.046.005-.012.01-.027.005-.014c.005-.014.01-.028.014-.043l.006-.019.006-.023.006-.026.005-.022c0-.013,0-.025.007-.038l0-.015c0-.015,0-.031.006-.046h0c0-.017,0-.034,0-.052v-.006c0-.018,0-.035,0-.053V16.643c0-.009,0-.018,0-.027s0-.007,0-.01,0-.031,0-.047v-.012c0-.012,0-.023,0-.035l0-.016c0-.011,0-.022-.005-.033l0-.015c0-.014-.006-.028-.009-.042l-.005-.021-.006-.022-.007-.025,0-.015q-.016-.049-.037-.1l0,0A1.057,1.057,0,0,0,37.406,16L37.4,15.99l-.02-.024-.013-.015-.026-.029-.022-.022-.014-.014-.027-.025-.008-.007-4.856-4.278V7.129a1.118,1.118,0,0,0-1.151-1.081H26.138L19.6.292a1.206,1.206,0,0,0-1.575,0L11.5,6.048H6.371A1.118,1.118,0,0,0,5.22,7.129v4.447L.364,15.854l-.008.007-.026.024L.315,15.9l-.021.021-.028.031-.012.014-.02.025L.227,16a1.058,1.058,0,0,0-.137.226v0a1.028,1.028,0,0,0-.037.1l0,.014-.008.026-.006.021-.006.022c0,.014-.006.028-.009.042l0,.015c0,.01,0,.021-.005.032l0,.016c0,.011,0,.023,0,.034v.013c0,.015,0,.031,0,.046s0,.007,0,.01,0,.018,0,.026V36.925c0,.018,0,.037,0,.055H0a1.009,1.009,0,0,0,.011.1l0,.01c0,.016.006.031.009.047l0,.009q0,.018.009.035l0,.018.009.03.009.028.008.023.008.022.01.023.014.032.011.022.01.02.014.026.011.02.018.03.009.014.023.034,0,0,.029.039.005.007q.031.039.067.076l0,0c.024.025.05.049.076.072h0l.037.031.005,0,.04.03.007,0,.032.022.015.01.027.016.031.018.015.008,0,0,.026.013.013.006q.046.022.093.04l.008,0c.032.012.065.022.1.032l.011,0c.031.008.063.015.1.021l.021,0,.025,0L1.026,38l.019,0,.036,0H36.549l.044,0,.022,0,.025,0,.047-.007.014,0,.031-.006.009,0,.064-.016h0q.053-.015.1-.034h0c.033-.012.064-.026.1-.041l.009,0,.028-.014h0l.01-.006.04-.023.022-.013.018-.011.028-.018.011-.007.038-.028.008-.007.033-.027,0,0,.037-.034,0,0,.033-.032.005-.005M13.674,28.47,2.3,35V19.04Zm1.806,1.5L18.055,32.1a1.207,1.207,0,0,0,1.523,0l2.575-2.135,10.238,5.877H5.242ZM35.331,19.04V35L23.96,28.47Zm-.559-2.421-2.359,1.956V14.541ZM18.817,2.563l3.956,3.485H14.861ZM30.111,8.211V20.484L21.287,27.8l-.04.033-2.431,2.016-2.431-2.015-.04-.033L7.522,20.484V8.211ZM5.22,18.575,2.861,16.619,5.22,14.541Z" transform="translate(0 0)" fill="#fff"/>
        </g>
      </g>
      <path id="Path_9300" data-name="Path 9300" d="M7.756-28.848c-4.527,0-5.02.667-5.02,5.29,0,4.7.572,5.369,5.719,5.353,1.493,0,2.986-.1,4.464-.207v-1.573H8.439c-3.161,0-3.542.032-3.542-3.574,0-3.447.334-3.542,2.859-3.542H9.694c.81,0,1.064.207,1.064.921v.4H7.994c-1.3,0-2.017.667-2.017,1.747v.762a1.994,1.994,0,0,0,2.24,2A3.806,3.806,0,0,0,11-22.541l.207,1.1h1.732v-4.766c0-1.954-.985-2.637-2.764-2.637Zm3,4.241v1a3.012,3.012,0,0,1-1.906.7c-.492,0-.763-.207-.763-.731v-.254c0-.445.191-.62.747-.651Z" transform="translate(11.045 40.894)" fill="#fff"/>
    </g>
  </g>
</svg>
