<svg xmlns="http://www.w3.org/2000/svg" width="30" height="30.001" viewBox="0 0 30 30.001">
  <g id="Group_8306" data-name="Group 8306" transform="translate(0 0.001)">
    <path id="Path_11011" data-name="Path 11011" d="M30,15a15,15,0,1,1-1.142-5.74A15,15,0,0,1,30,15ZM15,1.78a13.221,13.221,0,1,0,9.348,3.872A13.221,13.221,0,0,0,15,1.78Z" fill="#fff"/>
    <path id="Path_11012" data-name="Path 11012" d="M0,15A15,15,0,0,0,15,30V0A15,15,0,0,0,0,15Z" fill="#1298ff"/>
    <path id="Path_11013" data-name="Path 11013" d="M10.487,9.26H5.231V20.079h2.55V16.723h2.7a2.1,2.1,0,0,0,1.547-.539,2.1,2.1,0,0,0,.544-1.545V11.346A2.093,2.093,0,0,0,12.028,9.8a2.091,2.091,0,0,0-1.547-.544M10.02,14.1a.342.342,0,0,1-.389.385H7.784V11.5H9.639a.342.342,0,0,1,.387.29.322.322,0,0,1,0,.1Z" fill="#fff"/>
    <path id="Path_11014" data-name="Path 11014" d="M22.36,13.831l-2.689-.6a.4.4,0,0,1-.341-.433v-.989a.342.342,0,0,1,.29-.387.316.316,0,0,1,.1,0h1.469a.34.34,0,0,1,.385.289.329.329,0,0,1,0,.1v.756h2.55v-1.3a1.942,1.942,0,0,0-2.088-2.089H18.867a2.1,2.1,0,0,0-1.545.544,2.089,2.089,0,0,0-.539,1.545V13a2.129,2.129,0,0,0,1.837,2.286l2.69.6a.4.4,0,0,1,.34.432v1.208a.342.342,0,0,1-.289.387.372.372,0,0,1-.1,0H19.717a.342.342,0,0,1-.387-.29.316.316,0,0,1,0-.1v-.9H16.78v1.436a1.889,1.889,0,0,0,2.085,2.089h3.246A1.9,1.9,0,0,0,24.2,18.058v-1.95a2.13,2.13,0,0,0-1.839-2.287" fill="#fff"/>
  </g>
</svg>
