<svg xmlns="http://www.w3.org/2000/svg" width="15.66" height="15" viewBox="0 0 15.66 15">
  <g id="Group_7816" data-name="Group 7816" transform="translate(13.7 13.998)">
    <g id="Group_6362" data-name="Group 6362" transform="translate(-13.7 -13.998)">
      <path id="Line_1" data-name="Line 1" d="M13.139.5H-.479A1.011,1.011,0,0,1-1.5-.5a1.011,1.011,0,0,1,1.021-1H13.139a1.011,1.011,0,0,1,1.021,1A1.011,1.011,0,0,1,13.139.5Z" transform="translate(1.5 1.5)" fill="#fff"/>
      <path id="Line_3" data-name="Line 3" d="M13.139.5H-.479A1.011,1.011,0,0,1-1.5-.5a1.011,1.011,0,0,1,1.021-1H13.139a1.011,1.011,0,0,1,1.021,1A1.011,1.011,0,0,1,13.139.5Z" transform="translate(1.5 8)" fill="#fff"/>
      <path id="Line_4" data-name="Line 4" d="M13.139.5H-.479A1.011,1.011,0,0,1-1.5-.5a1.011,1.011,0,0,1,1.021-1H13.139a1.011,1.011,0,0,1,1.021,1A1.011,1.011,0,0,1,13.139.5Z" transform="translate(1.5 14.5)" fill="#fff"/>
    </g>
  </g>
</svg>
