<svg xmlns="http://www.w3.org/2000/svg" width="79.996" height="30.001" viewBox="0 0 79.996 30.001">
  <g id="PSApp" transform="translate(-135.57 -8.999)">
    <g id="App-icon" transform="translate(135.57 9)">
      <path id="Path_11007" data-name="Path 11007" d="M35.54,4.28H36.9V24.26H35.54Z" fill="#fff"/>
      <path id="Path_11008" data-name="Path 11008" d="M70.388,25.578V14.94q0-.576-.036-1.17-.036-.612-.108-1.206h2.61l.216,1.782h-.2A2.449,2.449,0,0,1,74,12.924a3.657,3.657,0,0,1,1.98-.54,3.789,3.789,0,0,1,2.088.576,3.727,3.727,0,0,1,1.4,1.62,5.7,5.7,0,0,1,.522,2.538,5.745,5.745,0,0,1-.522,2.556,3.847,3.847,0,0,1-1.4,1.638,3.789,3.789,0,0,1-2.088.576,3.718,3.718,0,0,1-1.962-.522,2.552,2.552,0,0,1-1.134-1.386H73.1v5.6Zm4.77-5.742a1.922,1.922,0,0,0,1.53-.666,3.08,3.08,0,0,0,.576-2.052,3.005,3.005,0,0,0-.576-2.034,1.947,1.947,0,0,0-1.53-.648,1.981,1.981,0,0,0-1.53.648,3.005,3.005,0,0,0-.576,2.034,3.08,3.08,0,0,0,.576,2.052,1.955,1.955,0,0,0,1.53.666Z" fill="#fff"/>
      <path id="Path_11009" data-name="Path 11009" d="M58.632,25.578V14.94q0-.576-.036-1.17-.036-.612-.108-1.206H61.1l.216,1.782h-.2a2.449,2.449,0,0,1,1.134-1.422,3.657,3.657,0,0,1,1.98-.54,3.789,3.789,0,0,1,2.088.576,3.728,3.728,0,0,1,1.4,1.62,5.7,5.7,0,0,1,.522,2.538,5.745,5.745,0,0,1-.522,2.556,3.848,3.848,0,0,1-1.4,1.638,3.789,3.789,0,0,1-2.088.576,3.718,3.718,0,0,1-1.962-.522,2.552,2.552,0,0,1-1.134-1.386h.216v5.6Zm4.77-5.742a1.922,1.922,0,0,0,1.53-.666,3.08,3.08,0,0,0,.576-2.052,3.005,3.005,0,0,0-.576-2.034,1.947,1.947,0,0,0-1.53-.648,1.981,1.981,0,0,0-1.53.648,3.005,3.005,0,0,0-.576,2.034,3.08,3.08,0,0,0,.576,2.052,1.955,1.955,0,0,0,1.53.666Z" fill="#fff"/>
      <path id="Path_11010" data-name="Path 11010" d="M43.428,21.69,49.262,9h2.322l5.9,12.69h-2.84l-1.53-3.528,1.1.774H46.67l1.116-.774-1.53,3.528Zm6.984-9.738-2.32,5.508-.486-.684h5.67l-.414.684-2.376-5.508Z" fill="#fff"/>
      <g id="Group_8306" data-name="Group 8306">
        <path id="Path_11011" data-name="Path 11011" d="M30,15a15,15,0,1,1-1.142-5.74A15,15,0,0,1,30,15ZM15,1.78a13.221,13.221,0,1,0,9.348,3.872A13.221,13.221,0,0,0,15,1.78Z" fill="#fff"/>
        <path id="Path_11012" data-name="Path 11012" d="M0,15A15,15,0,0,0,15,30V0A15,15,0,0,0,0,15Z" fill="#1298ff"/>
        <path id="Path_11013" data-name="Path 11013" d="M10.487,9.26H5.231V20.079h2.55V16.723h2.7a2.1,2.1,0,0,0,1.547-.539,2.1,2.1,0,0,0,.544-1.545V11.346A2.093,2.093,0,0,0,12.028,9.8a2.091,2.091,0,0,0-1.547-.544M10.02,14.1a.342.342,0,0,1-.389.385H7.784V11.5H9.639a.342.342,0,0,1,.387.29.322.322,0,0,1,0,.1Z" fill="#fff"/>
        <path id="Path_11014" data-name="Path 11014" d="M22.36,13.831l-2.689-.6a.4.4,0,0,1-.341-.433v-.989a.342.342,0,0,1,.29-.387.316.316,0,0,1,.1,0h1.469a.34.34,0,0,1,.385.289.329.329,0,0,1,0,.1v.756h2.55v-1.3a1.942,1.942,0,0,0-2.088-2.089H18.867a2.1,2.1,0,0,0-1.545.544,2.089,2.089,0,0,0-.539,1.545V13a2.129,2.129,0,0,0,1.837,2.286l2.69.6a.4.4,0,0,1,.34.432v1.208a.342.342,0,0,1-.289.387.372.372,0,0,1-.1,0H19.717a.342.342,0,0,1-.387-.29.316.316,0,0,1,0-.1v-.9H16.78v1.436a1.889,1.889,0,0,0,2.085,2.089h3.246A1.9,1.9,0,0,0,24.2,18.058v-1.95a2.13,2.13,0,0,0-1.839-2.287" fill="#fff"/>
      </g>
    </g>
  </g>
</svg>
