<svg xmlns="http://www.w3.org/2000/svg" width="23" height="23.5" viewBox="0 0 23 23.5">
  <g id="Group_6362" data-name="Group 6362" transform="translate(1.5 1.104)">
    <path id="Line_1" data-name="Line 1" d="M20,1.5H0A1.5,1.5,0,0,1-1.5,0,1.5,1.5,0,0,1,0-1.5H20A1.5,1.5,0,0,1,21.5,0,1.5,1.5,0,0,1,20,1.5Z" transform="translate(0 0.396)" fill="#fff"/>
    <path id="Line_3" data-name="Line 3" d="M20,1.5H0A1.5,1.5,0,0,1-1.5,0,1.5,1.5,0,0,1,0-1.5H20A1.5,1.5,0,0,1,21.5,0,1.5,1.5,0,0,1,20,1.5Z" transform="translate(0 10.645)" fill="#fff"/>
    <path id="Line_4" data-name="Line 4" d="M20,1.5H0A1.5,1.5,0,0,1-1.5,0,1.5,1.5,0,0,1,0-1.5H20A1.5,1.5,0,0,1,21.5,0,1.5,1.5,0,0,1,20,1.5Z" transform="translate(0 20.895)" fill="#fff"/>
  </g>
</svg>
