<svg id="Master" xmlns="http://www.w3.org/2000/svg" width="51.052" height="51.052" viewBox="0 0 51.052 51.052">
  <g id="Group_469" data-name="Group 469">
    <g id="Group_466" data-name="Group 466" transform="translate(0 10.925)">
      <path id="Path_6405" data-name="Path 6405" d="M6.62,6.28a25.381,25.381,0,0,0,0,29.2,15.314,15.314,0,0,0,0-29.2Z" transform="translate(-2 -6.28)" fill="#4ea0f8"/>
    </g>
    <g id="Group_467" data-name="Group 467" transform="translate(35.737 10.925)">
      <path id="Path_6406" data-name="Path 6406" d="M26.7,6.28a15.314,15.314,0,0,0,0,29.2,25.381,25.381,0,0,0,0-29.2Z" transform="translate(-16 -6.28)" fill="#4ea0f8"/>
    </g>
    <g id="Group_468" data-name="Group 468" transform="translate(8.194)">
      <path id="Path_6407" data-name="Path 6407" d="M27.648,27.526A20.426,20.426,0,0,1,39.875,8.816a25.446,25.446,0,0,0-34.665,0A20.426,20.426,0,0,1,17.437,27.526,20.426,20.426,0,0,1,5.21,46.237a25.446,25.446,0,0,0,34.665,0A20.426,20.426,0,0,1,27.648,27.526Z" transform="translate(-5.21 -2)" fill="#4ea0f8"/>
    </g>
  </g>
</svg>
