<svg xmlns="http://www.w3.org/2000/svg" width="57.882" height="60.039" viewBox="0 0 57.882 60.039">
  <g id="Group_8471" data-name="Group 8471" transform="matrix(0.966, -0.259, 0.259, 0.966, -3.059, 11.544)">
    <g id="Group_470" data-name="Group 470" transform="translate(39.469 12.095)">
      <path id="Path_6408" data-name="Path 6408" d="M0,11.492l12.754.08A26.415,26.415,0,0,0,8.642,0,15.453,15.453,0,0,0,0,11.492Z" fill="#4ea0f8"/>
    </g>
    <g id="Group_471" data-name="Group 471" transform="translate(0 11.818)">
      <path id="Path_6409" data-name="Path 6409" d="M12.754,11.6A15.974,15.974,0,0,0,3.97,0,25.818,25.818,0,0,0,0,11.521Z" fill="#4ea0f8"/>
    </g>
    <g id="Group_472" data-name="Group 472" transform="translate(28.592 0.033)">
      <path id="Path_6410" data-name="Path 6410" d="M5.577,23.521A20.644,20.644,0,0,1,16.135,7.843,26.532,26.532,0,0,0,0,0L.144,23.487Z" fill="#4ea0f8"/>
    </g>
    <g id="Group_473" data-name="Group 473" transform="translate(7.304)">
      <path id="Path_6411" data-name="Path 6411" d="M10.751,23.453l5.432.034L16.039,0A25.732,25.732,0,0,0,0,7.641,21.318,21.318,0,0,1,10.751,23.453Z" fill="#4ea0f8"/>
    </g>
    <g id="Group_474" data-name="Group 474" transform="translate(28.768 28.769)">
      <path id="Path_6412" data-name="Path 6412" d="M5.432.034,0,0,.144,23.487a25.732,25.732,0,0,0,16.039-7.641A21.318,21.318,0,0,1,5.432.034Z" fill="#4ea0f8"/>
    </g>
    <g id="Group_475" data-name="Group 475" transform="translate(0.032 28.588)">
      <path id="Path_6413" data-name="Path 6413" d="M4.112,11.572A15.56,15.56,0,0,0,12.754.08L0,0A26.415,26.415,0,0,0,4.112,11.572Z" fill="#4ea0f8"/>
    </g>
    <g id="Group_476" data-name="Group 476" transform="translate(39.502 28.836)">
      <path id="Path_6414" data-name="Path 6414" d="M0,0A15.974,15.974,0,0,0,8.784,11.6,25.818,25.818,0,0,0,12.754.08Z" fill="#4ea0f8"/>
    </g>
    <g id="Group_477" data-name="Group 477" transform="translate(7.529 28.702)">
      <path id="Path_6415" data-name="Path 6415" d="M10.558,0A20.644,20.644,0,0,1,0,15.679a26.532,26.532,0,0,0,16.135,7.843L15.99.034Z" fill="#4ea0f8"/>
    </g>
  </g>
</svg>
