<svg xmlns="http://www.w3.org/2000/svg" width="53.449" height="53.26" viewBox="0 0 53.449 53.26">
  <g id="Group_8251" data-name="Group 8251" transform="translate(0.594 0.5)">
    <g id="Rugby">
      <g id="Group_490" data-name="Group 490">
        <path id="Path_6437" data-name="Path 6437" d="M52.154,5.219c-1.548-1.547-5.945-2.679-11.5-2.679-8.516,0-19.769,2.652-27.594,10.469C.09,25.991,1.307,48.2,5.205,52.121c1.548,1.547,5.945,2.679,11.5,2.679,8.516,0,19.769-2.652,27.594-10.469C57.269,31.349,56.053,9.142,52.154,5.219Zm-35.2,11.739c7.3-7.292,17.557-8.618,22.2-8.811A63.6,63.6,0,0,0,20.882,20.881,64.8,64.8,0,0,0,8.108,39.194C8.385,32.344,10.541,23.339,16.956,16.958ZM40.4,40.382C33.1,47.674,22.846,49,18.2,49.193A63.6,63.6,0,0,0,36.477,36.459,64.8,64.8,0,0,0,49.251,18.146C48.974,25,46.818,34,40.4,40.382Z" transform="translate(-2.55 -2.54)" fill="#4ea0f8" stroke="#707070" stroke-width="1"/>
      </g>
    </g>
    <path id="Path_7079" data-name="Path 7079" d="M-1138.549-7403.435l5.982,5.437" transform="translate(1152.791 7434.749)" fill="none" stroke="#124065" stroke-width="4"/>
    <path id="Path_7080" data-name="Path 7080" d="M-1138.549-7403.435l5.982,5.437" transform="translate(1158.735 7428.929)" fill="none" stroke="#124065" stroke-width="4"/>
    <path id="Path_7081" data-name="Path 7081" d="M-1138.549-7403.435l5.982,5.437" transform="translate(1163.961 7423.83)" fill="none" stroke="#124065" stroke-width="4"/>
    <path id="Path_7082" data-name="Path 7082" d="M-1138.549-7403.435l5.982,5.437" transform="translate(1169.187 7418.73)" fill="none" stroke="#124065" stroke-width="4"/>
  </g>
</svg>
