<svg xmlns="http://www.w3.org/2000/svg" xmlns:xlink="http://www.w3.org/1999/xlink" width="52" height="40.5" viewBox="0 0 52 40.5">
  <defs>
    <clipPath id="clip-path">
      <rect id="Rectangle_4753" data-name="Rectangle 4753" width="52" height="40.5" fill="none"/>
    </clipPath>
  </defs>
  <g id="Group_8470" data-name="Group 8470" transform="translate(-25 -12)">
    <g id="Group_8463" data-name="Group 8463" transform="translate(25 12)">
      <g id="Group_5983" data-name="Group 5983" clip-path="url(#clip-path)">
        <path id="Path_7076" data-name="Path 7076" d="M3.613,19.64c.745.769,1.436,1.6,2.244,2.3a24.311,24.311,0,0,0,9.1,4.585,45.86,45.86,0,0,0,12.516,1.83,46.612,46.612,0,0,0,14.8-1.972,24.018,24.018,0,0,0,8.794-4.558c.134-.116.265-.234.4-.352l.468-.414c.023.256.05.419.051.582,0,1.869-.036,3.739.014,5.607a7.916,7.916,0,0,1-2.342,5.8,18.825,18.825,0,0,1-6.509,4.288A42.4,42.4,0,0,1,27.2,40.483a46.693,46.693,0,0,1-14.987-1.916,23.987,23.987,0,0,1-9-4.669A8.879,8.879,0,0,1,.2,29.28a7.242,7.242,0,0,1-.189-1.634q-.022-7.437,0-14.874A7.951,7.951,0,0,1,2.929,6.866a22.525,22.525,0,0,1,8.575-4.7A46.171,46.171,0,0,1,24.916.012,48.726,48.726,0,0,1,37.959,1.433a26.451,26.451,0,0,1,10.32,4.754,9.135,9.135,0,0,1,3.57,5.265A7.115,7.115,0,0,1,49.886,17.8a18.056,18.056,0,0,1-6.58,4.484,40.973,40.973,0,0,1-14.161,3.135,47.808,47.808,0,0,1-17.551-2.031A25.058,25.058,0,0,1,4.031,19.6a2.723,2.723,0,0,0-.234-.144l-.184.183" transform="translate(-0.001 0)" fill="#4ea0f8"/>
      </g>
    </g>
  </g>
</svg>
