<svg width="15" height="17" viewBox="0 0 15 17" fill="none" xmlns="http://www.w3.org/2000/svg">
<path d="M15 12.2557V0.664734H3.09918V0.70196C1.36364 0.887911 0 2.35075 0 4.13588V13.7433C0 13.7433 1.21064e-05 13.7557 0.0124088 13.7681C0.0124088 13.8053 0 13.8549 0 13.8921C0 15.2061 1.06602 16.2722 2.38007 16.2722H14.628C14.7768 16.2722 14.9132 16.1855 14.9628 16.0491C15.0248 15.9127 15.0001 15.7516 14.9009 15.6524C14.4546 15.1689 14.219 14.5491 14.219 13.8921C14.219 13.2846 14.4297 12.7144 14.814 12.2433H15V12.2557ZM14.2562 11.5119H3.84295V1.40858H14.2562V11.5119ZM3.09918 1.43332V11.5119H2.38007C2.21892 11.5119 2.07015 11.5243 1.90899 11.5615C1.46271 11.6483 1.05368 11.8714 0.731364 12.1813V4.13588C0.731364 2.75984 1.76032 1.61928 3.08677 1.43332H3.09918ZM13.8967 15.5408H2.38007C1.47511 15.5408 0.731364 14.8095 0.731364 13.9045C0.731364 13.8053 0.768615 13.7185 0.793408 13.6193C0.818202 13.4706 0.842953 13.3342 0.904936 13.1979C0.92973 13.1483 0.966865 13.111 1.00406 13.0615C1.07844 12.9375 1.15292 12.8136 1.26449 12.7144C1.31408 12.6648 1.38834 12.64 1.45032 12.5904C1.54949 12.516 1.64868 12.4292 1.77265 12.3796C1.9586 12.3053 2.16933 12.2557 2.38007 12.2557H13.8967C13.6115 12.7516 13.4628 13.3219 13.4628 13.9045C13.4628 14.4871 13.6115 15.0449 13.8967 15.5408ZM8.21903 9.18127C8.45457 9.18127 8.67763 9.15648 8.91317 9.1069C9.13631 9.05731 9.34707 8.98296 9.54541 8.90858C9.74376 8.8342 9.90494 8.75983 10.0289 8.68545C10.1529 8.61107 10.2396 8.57389 10.2768 8.5367L10.4503 9.11931H11.2313V5.42511C11.2313 5.01602 11.1571 4.68132 11.0083 4.43339C10.8595 4.18545 10.6488 4.01191 10.3512 3.90034C10.0537 3.78876 9.6942 3.73917 9.26031 3.73917C8.82643 3.73917 8.45448 3.76396 8.13217 3.81355C7.80985 3.85074 7.53721 3.90031 7.28928 3.94989V4.5325H8.91317C9.27267 4.5325 9.54544 4.56973 9.73139 4.64411C9.91735 4.71849 10.0412 4.83007 10.1156 4.96643C10.19 5.1028 10.2149 5.27633 10.2149 5.48708V6.04494H8.55377C7.98352 6.04494 7.56199 6.16892 7.27687 6.44165C6.99174 6.70198 6.85542 7.03669 6.85542 7.44578V7.86722C6.85542 8.28871 6.97931 8.61108 7.23964 8.84661C7.49997 9.08215 7.82232 9.19368 8.20662 9.19368L8.21903 9.18127ZM7.87189 7.44578C7.87189 7.19784 7.94633 6.99952 8.09509 6.85076C8.24385 6.702 8.49176 6.6152 8.83887 6.5904L10.2273 6.52843V8.05321C10.2273 8.05321 10.1777 8.07797 10.1034 8.10277C10.029 8.12756 9.92968 8.16477 9.8181 8.20196C9.70653 8.23915 9.57026 8.27637 9.44629 8.31356C9.30993 8.35075 9.17347 8.38789 9.03711 8.41268C8.90074 8.43748 8.78929 8.4499 8.69011 8.4375C8.55375 8.4375 8.42971 8.41271 8.30574 8.36312C8.18177 8.31354 8.08261 8.23914 8.00823 8.11517C7.93385 8.0036 7.8843 7.84245 7.8843 7.6565V7.42096L7.87189 7.44578Z" fill="black"/>
</svg>
