<svg width="15" height="16" viewBox="0 0 15 16" fill="none" xmlns="http://www.w3.org/2000/svg">
<path d="M8.98213 8.02771H7.74695V9.26289C8.37682 9.15868 8.87792 8.65758 8.98213 8.02771Z" fill="white"/>
<path d="M7.87962 10.897C7.88626 10.8963 7.8929 10.8956 7.89953 10.8943C7.90352 10.8943 7.9075 10.8937 7.91148 10.893C7.92409 10.8917 7.9367 10.8897 7.94931 10.8877C7.95728 10.8864 7.96591 10.885 7.97453 10.8837C7.9752 10.8837 7.97652 10.8837 7.97785 10.8837C7.99511 10.881 8.01236 10.8784 8.02962 10.8757C8.03095 10.8757 8.03227 10.8757 8.0336 10.8751C8.05351 10.8718 8.07409 10.8678 8.094 10.8638C8.09732 10.8638 8.10064 10.8625 8.10396 10.8618C8.12586 10.8578 8.14843 10.8532 8.17033 10.8479C8.19289 10.8432 8.21613 10.8372 8.23869 10.8319C8.24135 10.8313 8.244 10.8306 8.24599 10.8299C8.26458 10.8253 8.28316 10.8206 8.30175 10.816C8.30838 10.814 8.31502 10.8127 8.32166 10.8107C8.33891 10.806 8.35683 10.8007 8.37409 10.7961C8.39666 10.7895 8.41922 10.7828 8.44113 10.7762C8.46303 10.7695 8.48493 10.7622 8.50617 10.7549C8.51413 10.7523 8.5221 10.7496 8.53007 10.747C8.55993 10.7364 8.5898 10.7257 8.619 10.7145C8.62962 10.7105 8.63958 10.7065 8.6502 10.7025C8.65285 10.7018 8.65484 10.7005 8.65683 10.6999C8.6721 10.6939 8.6867 10.6879 8.7013 10.6819C8.72254 10.6733 8.74312 10.664 8.76436 10.6547C8.82874 10.6262 8.89179 10.5963 8.95352 10.5638C8.97077 10.5545 8.98869 10.5452 9.00595 10.5352C9.01325 10.5313 9.02122 10.5273 9.02852 10.5226C9.04312 10.5147 9.05705 10.5067 9.07166 10.4981C9.09555 10.4841 9.11944 10.4702 9.14267 10.4556C9.15595 10.4476 9.16856 10.4397 9.18117 10.4317C9.20573 10.4158 9.23028 10.3999 9.25418 10.3839C9.27011 10.3733 9.28604 10.362 9.30197 10.3514C9.31723 10.3408 9.33184 10.3302 9.3471 10.3195C9.35108 10.3169 9.35506 10.3142 9.35905 10.3109C9.37697 10.2976 9.39489 10.2844 9.41214 10.2711C9.45197 10.2406 9.49046 10.2094 9.52896 10.1768C9.54157 10.1662 9.55418 10.1549 9.56679 10.1443C9.5721 10.1397 9.57741 10.135 9.58205 10.1304C9.59533 10.1191 9.60794 10.1072 9.62055 10.0952C9.68759 10.0341 9.75197 9.96976 9.81303 9.90273C9.82497 9.89012 9.83626 9.87684 9.84821 9.86423C9.85285 9.85959 9.8575 9.85427 9.86215 9.84897C9.87343 9.83635 9.88405 9.82374 9.89467 9.81113C9.92719 9.7733 9.95838 9.73414 9.98891 9.69432C10.0029 9.67706 10.0161 9.65914 10.0287 9.64122C10.0321 9.63724 10.0347 9.63326 10.0374 9.62928C10.048 9.61467 10.0586 9.59941 10.0692 9.58414C10.0805 9.56821 10.0911 9.55228 10.1017 9.53636C10.1183 9.51246 10.1343 9.4879 10.1495 9.46335C10.1575 9.45074 10.1655 9.43746 10.1734 9.42485C10.188 9.40162 10.202 9.37773 10.2159 9.35383C10.2239 9.3399 10.2325 9.32529 10.2405 9.31069C10.2444 9.30339 10.2484 9.29542 10.2531 9.28812C10.263 9.27087 10.2723 9.25295 10.2816 9.23569C10.3141 9.17397 10.3447 9.11091 10.3725 9.04653C10.3818 9.02596 10.3905 9.00472 10.3998 8.98348C10.4071 8.96622 10.4137 8.94897 10.4203 8.93237C10.4203 8.93171 10.4203 8.93104 10.421 8.93104C10.425 8.92109 10.4283 8.9118 10.4323 8.9025C10.4396 8.88392 10.4462 8.86534 10.4529 8.84675C10.4582 8.83149 10.4635 8.81622 10.4688 8.80162C10.4781 8.77574 10.486 8.74985 10.4947 8.7233C10.5013 8.7014 10.5086 8.67883 10.5146 8.65627C10.5199 8.63901 10.5245 8.62109 10.5292 8.60383C10.5305 8.59786 10.5325 8.59189 10.5338 8.58591C10.5398 8.56401 10.5451 8.54211 10.5504 8.52087C10.5557 8.4983 10.561 8.47573 10.5663 8.4525C10.5717 8.42927 10.5763 8.40605 10.5809 8.38281C10.5809 8.38082 10.5816 8.37817 10.5823 8.37618C10.5863 8.3556 10.5902 8.33436 10.5936 8.31312C10.5962 8.29587 10.5995 8.27795 10.6022 8.26003C10.6022 8.25936 10.6022 8.25804 10.6022 8.25671C10.6035 8.24874 10.6048 8.24012 10.6062 8.23149C10.6082 8.21689 10.6102 8.20295 10.6121 8.18835C10.6121 8.18636 10.6121 8.1837 10.6128 8.18171C10.6135 8.17574 10.6141 8.1691 10.6155 8.16246C10.6208 8.11866 10.6254 8.07485 10.6287 8.03038C10.6287 8.03038 10.6287 8.02972 10.6287 8.02905H9.47984C9.36834 8.93237 8.64953 9.65118 7.74622 9.76268V10.9116C7.74622 10.9116 7.74887 10.9116 7.75086 10.9116C7.794 10.9083 7.83648 10.9043 7.87896 10.899L7.87962 10.897Z" fill="white"/>
<path d="M11.5135 10.8751C11.3277 10.8751 11.177 11.0257 11.177 11.2116C11.177 11.3974 11.3277 11.5481 11.5135 11.5481C11.6993 11.5481 11.85 11.3974 11.85 11.2116C11.85 11.0257 11.6993 10.8751 11.5135 10.8751Z" fill="white"/>
<path d="M4.37048 7.53395H5.51938C5.63088 6.63063 6.34969 5.91183 7.25301 5.80032V4.65143C5.7185 4.7709 4.48995 5.99944 4.37048 7.53395Z" fill="white"/>
<path d="M5.9263 9.00603C5.70993 8.72859 5.56524 8.39342 5.52011 8.02771H4.37122C4.49135 9.5589 5.72254 10.7901 7.25374 10.9102V9.76134C6.88803 9.71621 6.55219 9.57152 6.27542 9.35514C6.14533 9.25359 6.02785 9.13678 5.92697 9.00669L5.9263 9.00603Z" fill="white"/>
<path d="M7.253 9.26289V8.02771H6.01782C6.12203 8.6589 6.62181 9.15868 7.253 9.26289Z" fill="white"/>
<path d="M6.06827 7.31557C6.04636 7.38858 6.02911 7.46225 6.01782 7.53394H7.25366V6.2981C7.23508 6.30075 7.21716 6.30407 7.19858 6.30805C6.66561 6.41026 6.22623 6.79655 6.06893 7.31557H6.06827Z" fill="white"/>
<path d="M12.4746 8.63704C12.3697 9.27753 12.1374 9.89147 11.7929 10.4404C11.7 10.4025 11.5978 10.382 11.4909 10.382C11.0449 10.382 10.6839 10.7437 10.6839 11.189C10.6839 11.339 10.725 11.4797 10.7967 11.6005C9.94248 12.3399 8.87854 12.766 7.74691 12.8204V11.4054C9.5562 11.2839 11.0031 9.8377 11.1246 8.02775H12.5396C12.5303 8.22952 12.5084 8.43328 12.4746 8.63704ZM11.5128 11.5481C11.327 11.5481 11.1763 11.3974 11.1763 11.2116C11.1763 11.0258 11.327 10.8751 11.5128 10.8751C11.6987 10.8751 11.8493 11.0258 11.8493 11.2116C11.8493 11.3974 11.6987 11.5481 11.5128 11.5481ZM7.74625 9.76138C8.64957 9.64987 9.36837 8.93107 9.47988 8.02775H10.6288V8.02908C10.6255 8.07354 10.6208 8.11735 10.6155 8.16116C10.6148 8.16713 10.6142 8.17377 10.6128 8.1804L10.6122 8.18704C10.6102 8.20164 10.6082 8.21558 10.6062 8.23018C10.6049 8.23881 10.6035 8.24677 10.6022 8.2554V8.25872C10.5996 8.27664 10.5969 8.29456 10.5936 8.31182C10.5903 8.33306 10.5863 8.3543 10.5823 8.37487L10.581 8.38151C10.5763 8.40474 10.5717 8.42797 10.5664 8.45054C10.5617 8.47377 10.5564 8.49633 10.5505 8.5189C10.5451 8.5408 10.5398 8.5627 10.5339 8.58394C10.5325 8.58992 10.5305 8.59589 10.5292 8.60186C10.5246 8.61912 10.5193 8.63704 10.5146 8.6543C10.508 8.67686 10.5013 8.69943 10.4947 8.72133C10.4867 8.74788 10.4781 8.77377 10.4688 8.79965C10.4635 8.81492 10.4582 8.83018 10.4529 8.84478C10.4462 8.86337 10.4389 8.88195 10.4323 8.90054C10.429 8.91049 10.425 8.91978 10.421 8.92908L10.4204 8.9304C10.4137 8.94766 10.4064 8.96492 10.3998 8.98151C10.3912 9.00275 10.3819 9.02332 10.3726 9.04456C10.344 9.10894 10.3135 9.172 10.2816 9.23372C10.2724 9.25098 10.2631 9.2689 10.2531 9.28615C10.2491 9.29346 10.2451 9.30142 10.2405 9.30872C10.2325 9.32332 10.2246 9.33726 10.2159 9.35186C10.202 9.37576 10.1881 9.39965 10.1735 9.42288C10.1655 9.43615 10.1575 9.44877 10.1496 9.46138C10.1336 9.48593 10.1177 9.51049 10.1018 9.53439C10.0912 9.55032 10.0799 9.56625 10.0693 9.58217C10.0586 9.59744 10.048 9.6127 10.0374 9.62731C10.0347 9.63129 10.0321 9.63527 10.0288 9.63925C10.0155 9.65717 10.0022 9.67509 9.98895 9.69235C9.95841 9.73217 9.92722 9.77133 9.8947 9.80916C9.88408 9.82177 9.8728 9.83439 9.86218 9.847C9.85753 9.85231 9.85288 9.85761 9.84824 9.86226C9.83695 9.87554 9.82501 9.88815 9.81306 9.90076C9.75133 9.96779 9.68695 10.0322 9.62058 10.0932C9.60797 10.1052 9.5947 10.1165 9.58209 10.1284C9.57678 10.1331 9.57147 10.1377 9.56682 10.1423C9.55421 10.1536 9.5416 10.1643 9.52899 10.1749C9.49116 10.2074 9.452 10.2386 9.41218 10.2691C9.39492 10.2831 9.377 10.2963 9.35908 10.3089C9.3551 10.3123 9.35111 10.3149 9.34713 10.3176C9.33253 10.3282 9.31727 10.3388 9.302 10.3494C9.28607 10.3607 9.27014 10.3713 9.25421 10.382C9.23032 10.3985 9.20576 10.4145 9.1812 10.4297C9.16859 10.4377 9.15532 10.4457 9.14271 10.4536C9.11881 10.4682 9.09558 10.4828 9.07169 10.4961C9.05775 10.5041 9.04315 10.5127 9.02855 10.5207C9.02125 10.5247 9.01328 10.5293 9.00598 10.5333C8.98872 10.5432 8.97081 10.5525 8.95355 10.5618C8.89182 10.5943 8.82877 10.6249 8.76439 10.6527C8.74381 10.662 8.72257 10.6707 8.70133 10.68C8.68673 10.6859 8.67147 10.6926 8.65686 10.6979L8.65023 10.7005C8.63961 10.7045 8.62965 10.7085 8.61903 10.7125C8.58983 10.7238 8.55996 10.7344 8.5301 10.745C8.52213 10.7477 8.51416 10.7503 8.5062 10.753C8.48496 10.7603 8.46306 10.7676 8.44116 10.7742C8.41925 10.7808 8.39669 10.7881 8.37412 10.7941C8.35686 10.7994 8.33895 10.8041 8.32169 10.8087C8.31505 10.8107 8.30842 10.812 8.30178 10.814C8.28319 10.8187 8.26461 10.8233 8.24602 10.828C8.24337 10.828 8.24138 10.8293 8.23872 10.83C8.21616 10.8353 8.19359 10.8406 8.17036 10.8459C8.14846 10.8505 8.12655 10.8552 8.10399 10.8598C8.10067 10.8605 8.09735 10.8612 8.09403 10.8618C8.07412 10.8658 8.05355 10.8691 8.03363 10.8731L8.02965 10.8738C8.0124 10.8764 7.99514 10.8797 7.97788 10.8817H7.97457C7.9666 10.8831 7.95797 10.8844 7.94934 10.8857C7.93673 10.8877 7.92412 10.889 7.91151 10.891C7.90753 10.8917 7.90355 10.8924 7.89957 10.8924C7.89293 10.893 7.88629 10.8943 7.87965 10.895C7.83717 10.9003 7.7947 10.9043 7.75155 10.9076H7.74691V9.75872L7.74625 9.76138ZM7.74625 8.02775H8.98142C8.87722 8.65762 8.37611 9.15872 7.74625 9.26292V8.02775ZM7.25311 4.15695C5.44381 4.27841 3.99691 5.72465 3.87545 7.53461H2.46041C2.4697 7.33284 2.49093 7.12907 2.52478 6.92531C2.64624 6.18328 2.93895 5.47709 3.37833 4.86713C4.31019 3.57288 5.71859 2.81624 7.25311 2.74257V4.15695ZM7.25311 5.80098C6.34979 5.91248 5.63098 6.63129 5.51947 7.53461H4.37058C4.49005 6.00009 5.71859 4.77155 7.25311 4.65208V5.80098ZM7.25311 7.53461H6.01726C6.02921 7.46226 6.0458 7.38925 6.0677 7.31624C6.22501 6.79722 6.66439 6.41093 7.19735 6.30872C7.21594 6.3054 7.23452 6.30209 7.25244 6.29877L7.25311 7.53461ZM7.25311 9.26292C6.62191 9.15872 6.12213 8.65894 6.01793 8.02775H7.25311V9.26292ZM7.25311 10.9103C5.72191 10.7901 4.49071 9.55894 4.37058 8.02775H5.51947C5.56461 8.39346 5.7093 8.7293 5.92567 9.00607C6.02722 9.13616 6.14404 9.25363 6.27412 9.35452C6.55156 9.57089 6.88673 9.71558 7.25244 9.76071L7.25311 10.9103ZM7.25311 12.8198C6.08032 12.764 4.97987 12.3081 4.11107 11.5182C4.05067 11.4631 3.99094 11.4061 3.93253 11.3483C3.87412 11.2906 3.81771 11.2302 3.76262 11.1698C2.97279 10.301 2.51749 9.20054 2.46107 8.02775H3.87611C3.93054 8.84545 4.25642 9.58881 4.7635 10.1689C4.87169 10.293 4.9885 10.4092 5.11196 10.5174C5.69271 11.0244 6.43541 11.3497 7.25311 11.4047V12.8198ZM11.4133 3.86226C11.3184 3.76735 11.1637 3.76868 11.0688 3.86359L11.0642 3.86823C10.9693 3.96315 10.9706 4.11713 11.0655 4.21204L11.0675 4.21403C11.1259 4.27244 11.1823 4.33217 11.2374 4.39257C12.0272 5.26138 12.4825 6.36182 12.5389 7.53461H11.1239C11.0695 6.71691 10.7436 5.97354 10.2365 5.39346C10.1821 5.33107 10.125 5.27067 10.0666 5.2116C9.97102 5.11602 9.81638 5.11602 9.72081 5.2116L9.71682 5.21558C9.62125 5.31116 9.62191 5.46647 9.71748 5.56204C10.2319 6.07642 10.569 6.76669 10.6288 7.53461H9.47988C9.43474 7.1689 9.29005 6.83306 9.07368 6.55629C9.02257 6.49058 8.96682 6.42753 8.90775 6.36912C8.81284 6.27421 8.65886 6.27421 8.56395 6.36912L8.5593 6.37377C8.46306 6.47 8.46571 6.62465 8.56195 6.72089C8.77833 6.93793 8.92965 7.22 8.98142 7.53527H7.74625V1.64943C7.74625 1.58107 7.71837 1.51934 7.6739 1.47487C7.62943 1.4304 7.56771 1.40253 7.49934 1.40253C7.36328 1.40253 7.25244 1.5127 7.25244 1.64943V2.24877C4.38983 2.37421 2.09204 4.67266 1.9666 7.53461H1.36726C1.2312 7.53461 1.12036 7.64478 1.12036 7.78151C1.12036 7.91824 1.23054 8.02841 1.36726 8.02841H1.96726C2.02634 9.37178 2.56328 10.591 3.4135 11.5196C3.52434 11.641 3.64049 11.7572 3.76195 11.868C4.69049 12.7182 5.90974 13.2552 7.25311 13.3143V13.9136C7.25311 14.0497 7.36328 14.1605 7.50001 14.1605C7.63673 14.1605 7.74691 14.0503 7.74691 13.9136V13.3143C9.05775 13.2572 10.2498 12.7441 11.169 11.9297C11.2679 11.9729 11.3768 11.9968 11.4909 11.9968C11.937 11.9968 12.298 11.635 12.298 11.1897C12.298 11.0304 12.2516 10.8811 12.1719 10.7563C12.679 9.96182 12.9883 9.0293 13.0327 8.02841H13.6321C13.7005 8.02841 13.7622 8.00054 13.8066 7.95607C13.8511 7.9116 13.879 7.84987 13.879 7.78151C13.879 7.64545 13.7688 7.53461 13.6321 7.53461H13.0321C12.973 6.19124 12.4361 4.972 11.5858 4.04346C11.5294 3.98173 11.4724 3.92133 11.4133 3.86226Z" fill="black"/>
<path d="M7.5 14.8102C3.62389 14.8102 0.470577 11.6569 0.470577 7.78082C0.470577 3.90472 3.62389 0.751398 7.5 0.751398C11.3761 0.751398 14.5294 3.90472 14.5294 7.78082C14.5294 11.6569 11.3761 14.8102 7.5 14.8102ZM7.5 0.280823C5.4969 0.280823 3.61327 1.06069 2.1969 2.47773C0.780529 3.8941 0 5.77773 0 7.78082C0 9.78392 0.779866 11.6675 2.1969 13.0839C3.61327 14.5003 5.4969 15.2808 7.5 15.2808C9.5031 15.2808 11.3867 14.501 12.8031 13.0839C14.2195 11.6675 15 9.78392 15 7.78082C15 5.77773 14.2201 3.8941 12.8031 2.47773C11.3867 1.06135 9.5031 0.280823 7.5 0.280823Z" fill="black"/>
</svg>
