<svg width="15" height="17" viewBox="0 0 15 17" fill="none" xmlns="http://www.w3.org/2000/svg">
<path d="M13.7663 16.3123H1.23367C0.551262 16.3123 0 15.7611 0 15.0787V1.23359C0 0.551182 0.551262 0 1.23367 0H13.7663C14.4487 0 15 0.551182 15 1.23359V15.0787C15 15.7611 14.4487 16.3123 13.7663 16.3123ZM1.23367 0.564292C0.866221 0.564292 0.564372 0.866128 0.564372 1.22046V15.0655C0.564372 15.433 0.866221 15.7348 1.23367 15.7348H13.7663C14.1338 15.7348 14.4225 15.433 14.4225 15.0655V1.22046C14.4225 0.853005 14.1207 0.564292 13.7663 0.564292H1.23367ZM1.65355 1.58787V13.0708H13.3333V1.58787H1.65355ZM7.61158 11.0498C7.61158 11.1285 7.58527 11.1942 7.5459 11.2204C7.50653 11.2466 7.4409 11.2597 7.37529 11.2597H6.46986C6.3255 11.2597 6.2467 11.1942 6.2467 11.0498V9.96054C6.2467 9.81618 6.3255 9.73746 6.46986 9.73746H7.37529C7.53277 9.73746 7.61158 9.81618 7.61158 9.96054V11.0498ZM9.77695 6.16789C9.77695 6.82405 9.59317 7.32276 9.22572 7.66396C8.85826 8.00517 8.2939 8.17579 7.51962 8.17579V9.09444H6.33866V6.98152H7.08661C7.45407 6.98152 7.72966 6.9291 7.91339 6.81099C8.11024 6.69288 8.20206 6.46978 8.20206 6.14169V5.80048C8.20206 5.43302 8.0971 5.18366 7.90025 5.0393C7.7034 4.89495 7.40164 4.81623 6.99482 4.81623C6.69298 4.81623 6.39108 4.84248 6.10237 4.9081C5.81365 4.97372 5.52487 5.05246 5.20991 5.15745V4.00259C5.4855 3.83199 5.81358 3.68761 6.19416 3.5695C6.57473 3.45139 6.9948 3.39889 7.46724 3.39889C7.97905 3.39889 8.39896 3.49078 8.74016 3.67451C9.08137 3.85823 9.33065 4.10752 9.50126 4.4356C9.67186 4.76368 9.75068 5.13118 9.75068 5.55113V6.18102L9.77695 6.16789ZM8.83195 14.6062C8.83195 14.4224 8.67446 14.265 8.49074 14.265H5.86608C5.68235 14.265 5.52502 14.4224 5.52502 14.6062C5.52502 14.7899 5.68235 14.9474 5.86608 14.9474H8.49074C8.67446 14.9474 8.83195 14.7899 8.83195 14.6062Z" fill="black"/>
</svg>
