<svg width="15" height="16" viewBox="0 0 15 16" fill="none" xmlns="http://www.w3.org/2000/svg">
<g clip-path="url(#clip0_4_187)">
<path d="M13.2275 0.31305C12.7939 0.354065 12.249 0.447815 11.8506 0.547425C11.6572 0.597229 11.4697 0.647034 11.4346 0.652893C11.3555 0.670471 11.3525 0.68512 11.4141 0.978089C11.5781 1.78668 12.1494 2.63922 12.9199 3.22223C13.3242 3.52985 14.0449 3.83746 14.4902 3.89606L14.6426 3.91364L14.7012 3.68805C14.9063 2.92047 14.9824 2.30817 14.9824 1.39117L14.9854 0.644104L14.9063 0.523987C14.7773 0.327698 14.6865 0.301331 14.0625 0.292542C13.7637 0.289612 13.3887 0.298401 13.2275 0.31305Z" fill="black"/>
<path d="M10.2539 1.0982C8.24121 2.00348 6.38672 3.55621 4.69629 5.75934C4.26855 6.31891 3.36914 7.65777 3.36914 7.73981C3.36914 7.75445 3.58887 7.9859 3.85547 8.2525L4.3418 8.73883L4.61133 8.65094C4.93066 8.5484 5.45215 8.51031 5.71582 8.57184C6.35742 8.72418 6.73828 9.22809 6.73828 9.92535C6.73828 10.2007 6.68555 10.5113 6.59473 10.7779L6.53906 10.9361L7.0459 11.4429C7.37109 11.7681 7.56738 11.9439 7.59375 11.9322C7.67871 11.9 8.73633 11.2056 9.13184 10.9273C9.83496 10.4234 10.5996 9.79645 11.1768 9.24567C12.5918 7.90094 13.5879 6.5357 14.2119 5.10016L14.3525 4.77789L14.0391 4.70172C12.8994 4.41754 11.9004 3.70563 11.2178 2.68609C10.8926 2.2027 10.6699 1.70172 10.5615 1.20953C10.5352 1.08648 10.5088 0.983946 10.5059 0.983946C10.5059 0.983946 10.3916 1.03668 10.2539 1.0982ZM10.2158 3.50641C10.9863 3.71148 11.5781 4.30621 11.7803 5.07965C11.8564 5.36383 11.8623 5.83551 11.7949 6.12555C11.7686 6.23688 11.6836 6.4566 11.6104 6.60895C11.4932 6.84332 11.4316 6.92828 11.2061 7.15094C10.9043 7.4527 10.7139 7.57574 10.3506 7.69879C9.87891 7.86285 9.27539 7.83942 8.80664 7.64313C8.13574 7.36481 7.62012 6.72027 7.49707 6.01129C7.45019 5.73004 7.47656 5.24078 7.55859 4.98297C7.91016 3.85504 9.08203 3.20172 10.2158 3.50641Z" fill="black"/>
<path d="M9.45117 4.32672C8.82422 4.42047 8.34961 4.98004 8.34961 5.62457C8.34961 6.35114 8.93262 6.93121 9.66797 6.93121C10.2246 6.93121 10.7607 6.53278 10.9131 6.0025C10.9687 5.80914 10.9775 5.47223 10.9277 5.29059C10.7549 4.64606 10.1162 4.22711 9.45117 4.32672Z" fill="black"/>
<path d="M3.09086 5.14116C2.67778 5.24369 2.27055 5.43119 1.88969 5.69487C1.73735 5.80034 1.37407 6.13725 0.843792 6.66459C0.0967215 7.41166 0.0322684 7.48198 0.0146902 7.59623C-0.00874727 7.75151 0.035198 7.89506 0.140667 7.9976C0.275432 8.12651 0.380901 8.13823 0.700237 8.07084C0.855511 8.03862 1.08696 7.99174 1.21586 7.9683C1.46196 7.92436 2.01274 7.90678 2.13871 7.94194C2.20903 7.95952 2.2266 7.93608 2.43168 7.58452C2.85063 6.86381 3.31938 6.14897 3.78813 5.51616C3.94633 5.29936 4.01371 5.19096 3.99321 5.17045C3.89946 5.0767 3.41606 5.06205 3.09086 5.14116Z" fill="black"/>
<path d="M2.62793 9.03473C2.2998 9.66168 2.13867 10.0045 2.13867 10.0894C2.13867 10.192 2.20898 10.3355 2.30273 10.4234L2.3877 10.5025L2.59277 10.2623C2.70703 10.1304 2.9707 9.84625 3.18457 9.62653L3.57129 9.22809L3.22852 8.88531L2.88574 8.54547L2.62793 9.03473Z" fill="black"/>
<path d="M5.06836 9.4361C4.93066 9.46247 4.74609 9.52692 4.57031 9.61481C4.31543 9.74079 4.25977 9.7818 3.89648 10.1509C2.80664 11.2554 1.75781 12.6939 1.75781 13.0865C1.75781 13.4761 2.09766 13.6343 2.49902 13.4322C2.91504 13.2213 3.58887 12.7525 4.11621 12.3072C4.54688 11.9439 5.35254 11.1822 5.46973 11.0269C5.78027 10.6226 5.94141 10.0836 5.84766 9.76422C5.75684 9.45368 5.51953 9.35114 5.06836 9.4361Z" fill="black"/>
<path d="M9.87303 11.4752C9.55077 11.7213 8.36132 12.5064 7.8369 12.817L7.34178 13.1129L7.33886 13.4703C7.33886 13.6783 7.30663 14.0416 7.26854 14.3287C7.18651 14.9146 7.1953 15.0142 7.34178 15.1548C7.45897 15.2662 7.60839 15.3013 7.76073 15.2574C7.90721 15.2134 9.41893 13.6929 9.61522 13.3912C9.98729 12.8228 10.1689 12.2867 10.1719 11.7652C10.1719 11.5045 10.1367 11.3228 10.0869 11.3287C10.0723 11.3287 9.9785 11.3961 9.87303 11.4752Z" fill="black"/>
<path d="M5.78613 11.9703C5.63965 12.1168 5.35547 12.3834 5.15039 12.565L4.77832 12.8931L4.87207 12.9927C4.98047 13.107 5.11523 13.1714 5.24414 13.1714C5.32617 13.1714 6.07031 12.8082 6.6123 12.5064L6.76465 12.4214L6.40723 12.064L6.0498 11.7066L5.78613 11.9703Z" fill="black"/>
</g>
<defs>
<clipPath id="clip0_4_187">
<rect width="15" height="15" fill="white" transform="translate(0 0.280823)"/>
</clipPath>
</defs>
</svg>
