<svg width="15" height="16" viewBox="0 0 15 16" fill="none" xmlns="http://www.w3.org/2000/svg">
<path d="M2.72608 0.351102V0.724533H0V2.47977H2.72608V4.01088H0V5.76604H2.72608V7.29722H0V9.05239H2.72608V10.5835H0V12.3387H2.72608V13.8698H0V15.6251H2.72608V15.9985H15V0.313721H2.72608V0.351102ZM14.2531 15.289H3.47295V1.09796H14.2531V15.289ZM7.41908 5.61667H4.99159V10.6084H6.17426V9.06485H7.41908C7.6805 9.0773 7.94184 8.99014 8.12856 8.81587C8.30284 8.6167 8.39007 8.36772 8.37762 8.10631V6.58767C8.39007 6.32625 8.30284 6.06483 8.12856 5.87811C7.92939 5.70383 7.6805 5.60423 7.41908 5.62913M7.20741 7.85741C7.20741 7.94455 7.15763 8.01918 7.0705 8.03163C7.05805 8.03163 7.04555 8.03163 7.02066 8.03163H6.1618V6.66235H7.02066C7.10779 6.66235 7.1825 6.71213 7.19495 6.79926C7.19495 6.81171 7.19495 6.82413 7.19495 6.84903V7.86979L7.20741 7.85741ZM11.863 7.73288C12.3859 7.80757 12.7594 8.2682 12.7096 8.79102V9.68726C12.722 9.94867 12.6348 10.2101 12.4605 10.3968C12.2613 10.5711 12.0124 10.6582 11.751 10.6458H10.2573C9.9959 10.6582 9.7344 10.5711 9.54768 10.3968C9.3734 10.1976 9.28633 9.94867 9.29877 9.68726V9.02747H10.4688V9.43828C10.4688 9.43828 10.4688 9.46322 10.4688 9.48812C10.4688 9.57526 10.556 9.63748 10.6431 9.62503H11.3528C11.3528 9.62503 11.3776 9.62503 11.4024 9.62503C11.4896 9.62503 11.5518 9.53788 11.5394 9.45074V8.89055C11.5394 8.79097 11.4771 8.70387 11.3775 8.69142L10.1327 8.41752C9.60988 8.34283 9.24897 7.88227 9.28631 7.35945V6.56275C9.27387 6.30133 9.36094 6.03991 9.53522 5.85319C9.73439 5.67891 9.98344 5.59176 10.2449 5.60421H11.7012C11.9626 5.59176 12.2241 5.67891 12.4108 5.85319C12.5851 6.05236 12.6722 6.30133 12.6597 6.56275V7.16024H11.4897V6.81173C11.4897 6.81173 11.4897 6.78686 11.4897 6.76196C11.4897 6.67482 11.4025 6.61252 11.3154 6.62497H10.6431C10.6431 6.62497 10.6182 6.62497 10.5933 6.62497C10.5061 6.62497 10.4439 6.71213 10.4564 6.79926V7.25984C10.4564 7.35943 10.5186 7.44661 10.6182 7.45906L11.863 7.73288Z" fill="black"/>
</svg>
