<svg width="15" height="16" viewBox="0 0 15 16" fill="none" xmlns="http://www.w3.org/2000/svg">
<path d="M0.209383 5.90075C0.332536 6.02391 0.492604 6.08544 0.640387 6.08544C0.788169 6.08544 0.960553 6.02391 1.07139 5.90075L2.56164 4.41058L4.05173 5.90075C4.17489 6.02391 4.33495 6.08544 4.48274 6.08544C4.63052 6.08544 4.8029 6.02391 4.91374 5.90075C5.16004 5.65445 5.16004 5.27265 4.91374 5.02634L3.42364 3.53625L4.91374 2.04608C5.16004 1.79977 5.16004 1.41797 4.91374 1.17167C4.66743 0.925362 4.28571 0.925362 4.03941 1.17167L2.54931 2.66184L1.05906 1.17167C0.812758 0.925362 0.431033 0.925362 0.184729 1.17167C-0.0615762 1.41797 -0.0615762 1.79977 0.184729 2.04608L1.67482 3.53625L0.184729 5.02634C-0.0615762 5.27265 -0.0615762 5.65445 0.184729 5.90075H0.209383Z" fill="black"/>
<path d="M14.8153 4.00431L11.995 1.18407C11.995 1.18407 11.872 1.08557 11.7981 1.04862C11.6503 0.987047 11.4779 0.987047 11.3301 1.04862C11.2562 1.08557 11.1823 1.1225 11.133 1.18407L8.31279 4.00431C8.06649 4.25062 8.06649 4.63234 8.31279 4.87865C8.43595 5.0018 8.59601 5.0634 8.7438 5.0634C8.89158 5.0634 9.06411 5.0018 9.17495 4.87865L10.9483 3.10525V6.78749C10.9483 7.51409 10.8497 9.33675 9.8522 10.3343C9.50737 10.6791 9.08877 10.8885 8.58384 10.9747C8.26365 8.91806 6.49017 7.32937 4.34732 7.32937C1.97048 7.32937 0.0369873 9.26286 0.0369873 11.6397C0.0369873 14.0165 1.97048 15.95 4.34732 15.95C6.52712 15.95 8.31277 14.3121 8.59602 12.2186C9.43346 12.12 10.1602 11.7875 10.7267 11.221C11.9952 9.94024 12.1921 7.9082 12.1798 6.81215V3.1299L13.9533 4.9033C14.0764 5.02645 14.2365 5.08798 14.3843 5.08798C14.5321 5.08798 14.7044 5.02645 14.8153 4.9033C15.0616 4.657 15.0616 4.2752 14.8153 4.02889V4.00431ZM4.33499 14.7062C2.63549 14.7062 1.25618 13.3269 1.25618 11.6274C1.25618 9.92787 2.63549 8.54856 4.33499 8.54856C6.0345 8.54856 7.41381 9.92787 7.41381 11.6274C7.41381 13.3269 6.0345 14.7062 4.33499 14.7062Z" fill="black"/>
</svg>
