<svg width="15" height="17" viewBox="0 0 15 17" fill="none" xmlns="http://www.w3.org/2000/svg">
<path d="M9.50324 11.0703V11.4124C9.50324 11.8888 9.41777 12.2552 9.23454 12.4995C9.05131 12.7438 8.80702 12.927 8.48943 13.0125C8.26956 13.0736 8.01305 13.1102 7.74432 13.1224V13.8187H7.0602V13.1347C7.0602 13.1347 6.96248 13.1347 6.91362 13.1347C6.74261 13.1347 6.57169 13.1103 6.40068 13.0981C6.22966 13.0736 6.07084 13.0614 5.91204 13.037C5.76546 13.0126 5.61891 12.9881 5.49676 12.9515V11.9864C5.65556 11.9987 5.85096 12.0109 6.05861 12.0231C6.26627 12.0231 6.48618 12.0476 6.70606 12.0476C6.92593 12.0476 7.14583 12.0476 7.34127 12.0476C7.53671 12.0476 7.73209 12.0353 7.87867 11.9987C8.02525 11.962 8.14745 11.901 8.23296 11.8155C8.31846 11.73 8.35508 11.5956 8.35508 11.4368V11.2169C8.35508 11.0336 8.30621 10.8993 8.19628 10.8016C8.08634 10.7039 7.93976 10.655 7.74432 10.655H7.23123C6.65711 10.655 6.20519 10.5329 5.89981 10.2764C5.59443 10.0198 5.43563 9.59231 5.43563 8.98155V8.68839C5.43563 8.10206 5.60669 7.66232 5.94872 7.39358C6.22967 7.16149 6.63271 7.05149 7.1091 7.01484L7.08465 6.5385L7.73209 6.34302L7.76877 6.97823H7.71986C7.84202 7.00266 7.952 7.00262 8.07415 7.01484C8.29403 7.03927 8.51392 7.06377 8.70937 7.0882C8.91703 7.11263 9.08796 7.14923 9.23454 7.18587V8.15092C8.97802 8.1387 8.69714 8.11423 8.39176 8.10201C8.08638 8.0898 7.79313 8.07763 7.53661 8.07763C7.35338 8.07763 7.18247 8.08982 7.03589 8.12647C6.88931 8.16311 6.77935 8.22415 6.70606 8.32188C6.63276 8.4196 6.59601 8.56621 6.59601 8.73723V8.89603C6.59601 9.10369 6.65712 9.26249 6.77927 9.36021C6.90142 9.45794 7.07251 9.49456 7.31682 9.49456H7.91535C8.28181 9.49456 8.58717 9.55562 8.81926 9.7022C9.06357 9.83657 9.23451 10.0198 9.35666 10.2519C9.47881 10.484 9.52769 10.7528 9.52769 11.0581L9.50324 11.0703ZM14.3161 13.8554C13.9008 14.3074 13.4122 14.6127 13.1557 14.7471C13.0702 14.7959 12.9968 14.8326 12.9113 14.8814C12.2273 15.2723 10.334 16.1641 7.50007 16.1641C4.66615 16.1641 2.77272 15.2723 2.08867 14.8814C2.01538 14.8326 1.92993 14.7959 1.84443 14.7471C1.58791 14.6127 1.09921 14.3196 0.683894 13.8554C0.0364883 13.1347 -0.171099 12.1086 0.146497 11.1925L1.6734 6.75837C1.92992 6.02546 2.49184 5.46353 3.22475 5.20701L4.70274 4.694C4.70274 4.694 4.67829 4.65737 4.67829 4.63293C4.67829 4.42528 4.83715 4.26642 5.04481 4.26642H5.20361L3.2003 1.98218L3.28574 1.77454C3.3346 1.66461 3.7866 0.724045 5.92426 1.2493C6.18078 1.07829 6.74273 0.772888 7.50007 0.772888C8.25742 0.772888 8.807 1.07829 9.07573 1.2493C11.2256 0.724045 11.6776 1.66461 11.7143 1.77454L11.7997 1.98218L9.79654 4.26642H9.95519C10.1629 4.26642 10.3217 4.42528 10.3217 4.63293C10.3217 4.65737 10.2973 4.66957 10.2973 4.694L11.7754 5.20701C12.5083 5.46353 13.0701 6.02546 13.3266 6.75837L14.8535 11.1925C15.1711 12.1208 14.9635 13.1469 14.3161 13.8554ZM6.18074 4.26642H8.83149L10.8836 1.92112C10.6393 1.81118 10.0896 1.72567 9.10019 1.99441L8.9047 2.04332L8.75813 1.90889C8.75813 1.90889 8.25728 1.49362 7.51215 1.49362C6.76702 1.49362 6.26631 1.90889 6.2541 1.90889L6.10752 2.03109L5.92426 1.98218C4.93483 1.71345 4.39741 1.79896 4.14089 1.90889L6.18074 4.25427V4.26642ZM14.1695 11.4246L12.6426 6.99046C12.4594 6.47742 12.0685 6.07429 11.5432 5.89106L8.94139 4.98715H6.07084L3.469 5.89106C2.95596 6.07429 2.55283 6.46521 2.3696 6.99046L0.842698 11.4246C0.610609 12.0964 0.757275 12.8415 1.23367 13.3545C1.57569 13.7332 1.97869 13.9776 2.19857 14.0875C2.28407 14.1364 2.36968 14.1852 2.45519 14.2341C2.9438 14.515 4.77608 15.4189 7.50007 15.4189C10.2241 15.4189 12.0564 14.515 12.545 14.2341C12.6305 14.1852 12.7159 14.1364 12.8014 14.0875C13.0091 13.9776 13.4122 13.7332 13.7543 13.3545C14.2306 12.8293 14.3772 12.0964 14.1451 11.4246H14.1695Z" fill="black"/>
</svg>
