<svg width="15" height="16" viewBox="0 0 15 16" fill="none" xmlns="http://www.w3.org/2000/svg">
<path d="M7.5 0.968445C3.36757 0.968445 0 4.33601 0 8.46844C0 12.6009 3.36757 15.9685 7.5 15.9685C11.6324 15.9685 15 12.6009 15 8.46844C15 4.33601 11.6324 0.968445 7.5 0.968445ZM7.5 15.2284C3.77464 15.2284 0.752454 12.2061 0.752454 8.48079C0.752454 4.75544 3.77464 1.73325 7.5 1.73325C11.2254 1.73325 14.2475 4.75544 14.2475 8.48079C14.2475 12.2061 11.2254 15.2284 7.5 15.2284ZM8.90628 9.369C8.98029 9.49235 9.01726 9.65273 9.01726 9.8501C9.01726 10.0721 8.9803 10.2572 8.91863 10.3929C8.85695 10.5286 8.75829 10.6272 8.63493 10.6889C8.51157 10.7506 8.36358 10.7875 8.20321 10.7875H6.72285V8.9619H8.20321C8.36358 8.9619 8.51157 8.99894 8.63493 9.07295C8.75829 9.14697 8.85696 9.24564 8.93097 9.369H8.90628ZM7.5 2.20201C4.04603 2.20201 1.23356 5.01447 1.23356 8.46844C1.23356 11.9224 4.04603 14.735 7.5 14.735C10.954 14.735 13.7664 11.9224 13.7664 8.46844C13.7664 5.01447 10.954 2.20201 7.5 2.20201ZM10.1275 11.2563C9.96713 11.5524 9.72046 11.7621 9.39973 11.8854C9.07901 12.0088 8.68417 12.0705 8.21541 12.0705H8.14148V13.341H7.40137V12.0705H6.66126V13.341H5.921V12.0828H4.62586V10.7875H5.26733V6.19873H4.62586V4.90351H5.26733H5.90866V3.60828H6.64891V4.90351H7.38902V3.60828H8.12913V4.90351C8.80759 4.90351 9.31331 5.07616 9.63404 5.39689C9.95476 5.71761 10.1275 6.18637 10.1275 6.79082C10.1275 7.07454 10.0905 7.32123 10.0042 7.54327C9.91782 7.76531 9.80676 7.93808 9.65873 8.07377C9.5107 8.20946 9.33809 8.30812 9.12839 8.35747C9.28875 8.39447 9.43677 8.45618 9.5848 8.54253C9.73282 8.62888 9.86845 8.73986 9.97947 8.88789C10.1028 9.03592 10.1892 9.20859 10.2632 9.40596C10.3372 9.61567 10.3619 9.85005 10.3619 10.1091C10.3619 10.5902 10.2755 10.9849 10.1151 11.2687L10.1275 11.2563ZM8.10443 7.85166H6.7105V6.18639H8.09208C8.28946 6.18639 8.44985 6.24809 8.58554 6.37145C8.72123 6.49481 8.78295 6.71681 8.78295 7.0252C8.78295 7.27191 8.72124 7.46933 8.59789 7.61736C8.47453 7.76539 8.31414 7.83939 8.10443 7.83939V7.85166Z" fill="black"/>
</svg>
