<svg width="15" height="17" viewBox="0 0 15 17" fill="none" xmlns="http://www.w3.org/2000/svg">
<path d="M13.4457 0.312317H0.970417C0.434469 0.312317 0 0.727834 0 1.24037V15.1408C0 15.6533 0.434469 16.0688 0.970417 16.0688H13.4457C13.9817 16.0688 14.4162 15.6533 14.4162 15.1408V1.24037C14.4162 0.727834 13.9817 0.312317 13.4457 0.312317Z" fill="white"/>
<path d="M13.7389 16.6247H1.26102C0.565642 16.6247 0 16.0837 0 15.4187V1.51828C0 0.853276 0.565642 0.312317 1.26102 0.312317H13.7389C14.4343 0.312317 15 0.853276 15 1.51828V15.4187C15 16.0837 14.4343 16.6247 13.7389 16.6247ZM1.26102 0.868135C0.887385 0.868135 0.583808 1.15848 0.583808 1.51579V15.4162C0.583808 15.7736 0.887385 16.0639 1.26102 16.0639H13.7389C14.1126 16.0639 14.4162 15.7736 14.4162 15.4162V1.51579C14.4162 1.15848 14.1126 0.868135 13.7389 0.868135H1.26102Z" fill="black"/>
<path d="M9.00348 15.2624H6.25829C6.06888 15.2624 5.91577 15.116 5.91577 14.9349C5.91577 14.7537 6.06888 14.6074 6.25829 14.6074H9.00348C9.19289 14.6074 9.34599 14.7537 9.34599 14.9349C9.34599 15.116 9.19289 15.2624 9.00348 15.2624Z" fill="black"/>
<path d="M1.81885 1.90289V13.3915L13.4898 1.90289H1.81885Z" fill="black"/>
<path d="M1.81885 13.3915H13.4898V1.90289L1.81885 13.3915Z" fill="black"/>
<path d="M6.58881 4.28584C6.74529 4.28584 6.8696 4.29975 6.96175 4.32757C7.05564 4.35365 7.12344 4.40059 7.16517 4.4684C7.2069 4.53621 7.22776 4.63183 7.22776 4.75528C7.22776 4.88394 7.20255 4.98217 7.15213 5.04998C7.10345 5.11605 7.0226 5.1543 6.90959 5.16473V5.18038C7.04868 5.19255 7.14605 5.23949 7.20168 5.32121C7.25732 5.40119 7.28514 5.51333 7.28514 5.65764C7.28514 5.78108 7.2634 5.87671 7.21994 5.94451C7.17821 6.01232 7.11214 6.06013 7.02173 6.08795C6.93306 6.11403 6.81657 6.12707 6.67226 6.12707C6.55577 6.12707 6.45406 6.1262 6.36713 6.12446C6.28194 6.12446 6.20283 6.12273 6.1298 6.11925C6.05678 6.11577 5.98202 6.11142 5.90552 6.10621L5.94464 5.82976C5.98636 5.8315 6.06634 5.83324 6.18457 5.83498C6.30454 5.83672 6.44363 5.83759 6.60185 5.83759C6.67487 5.83759 6.73225 5.83063 6.77397 5.81672C6.8157 5.80281 6.84439 5.7776 6.86004 5.74109C6.87742 5.70284 6.88612 5.64894 6.88612 5.5794C6.88612 5.50463 6.87742 5.44813 6.86004 5.40988C6.84265 5.36989 6.81222 5.34207 6.76876 5.32642C6.72703 5.31078 6.66879 5.30208 6.59402 5.30034H5.94203V5.04737H6.58881C6.65314 5.04563 6.70356 5.03868 6.74007 5.02651C6.77832 5.01434 6.80527 4.99086 6.82092 4.95609C6.83657 4.92132 6.84439 4.87264 6.84439 4.81004C6.84439 4.74571 6.8357 4.69703 6.81831 4.664C6.80266 4.62922 6.77484 4.60575 6.73485 4.59358C6.69487 4.58141 6.63923 4.57533 6.56794 4.57533C6.47058 4.57533 6.38452 4.57533 6.30975 4.57533C6.23499 4.57533 6.16805 4.5762 6.10894 4.57793C6.04983 4.57793 5.99506 4.57967 5.94464 4.58315L5.90552 4.3067C5.97506 4.29975 6.042 4.2954 6.10633 4.29366C6.1724 4.29019 6.24369 4.28845 6.32019 4.28845C6.39669 4.28671 6.48623 4.28584 6.58881 4.28584ZM6.29671 4.3067V6.10621H5.90552V4.3067H6.29671Z" fill="white"/>
<path d="M7.94404 4.81787V6.10621H7.56067V4.81787H7.94404ZM7.83711 4.24933C7.91361 4.24933 7.95186 4.28845 7.95186 4.36669V4.50491C7.95186 4.58315 7.91361 4.62227 7.83711 4.62227H7.6702C7.5937 4.62227 7.55545 4.58315 7.55545 4.50491V4.36669C7.55545 4.28845 7.5937 4.24933 7.6702 4.24933H7.83711Z" fill="white"/>
<path d="M8.84475 4.78396C8.99427 4.78396 9.1125 4.79787 9.19943 4.82569C9.28811 4.85351 9.35157 4.89698 9.38982 4.95609C9.42981 5.0152 9.4498 5.09431 9.4498 5.19342C9.4498 5.28904 9.43067 5.36728 9.39242 5.42813C9.35417 5.48725 9.28984 5.53071 9.19943 5.55853C9.11076 5.58635 8.99166 5.60026 8.84214 5.60026C8.69262 5.60026 8.57265 5.58635 8.48224 5.55853C8.39357 5.53071 8.32924 5.48725 8.28925 5.42813C8.251 5.36902 8.23187 5.29078 8.23187 5.19342C8.23187 5.09605 8.251 5.01781 8.28925 4.9587C8.32924 4.89785 8.39444 4.85351 8.48485 4.82569C8.57526 4.79787 8.69522 4.78396 8.84475 4.78396ZM8.84214 5.02129C8.74652 5.02129 8.68045 5.03433 8.64393 5.06041C8.60742 5.08475 8.58917 5.12909 8.58917 5.19342C8.58917 5.25775 8.60742 5.30295 8.64393 5.32903C8.68045 5.35511 8.74652 5.36815 8.84214 5.36815C8.93777 5.36815 9.00297 5.35511 9.03774 5.32903C9.07251 5.30295 9.0899 5.25775 9.0899 5.19342C9.0899 5.12909 9.07251 5.08475 9.03774 5.06041C9.00297 5.03433 8.93777 5.02129 8.84214 5.02129ZM9.59845 4.81787L9.57759 4.98217L9.23334 5.02651L9.13945 4.81787H9.59845ZM8.45355 5.52202L8.64654 5.55593C8.6222 5.56983 8.60481 5.59157 8.59438 5.62112C8.58569 5.65068 8.5883 5.6785 8.60221 5.70458C8.61612 5.73066 8.64654 5.74631 8.69349 5.75152L9.16814 5.80629C9.30375 5.8202 9.39938 5.85845 9.45502 5.92104C9.51065 5.98189 9.53847 6.07144 9.53847 6.18966C9.53847 6.30094 9.51587 6.38613 9.47066 6.44525C9.42546 6.5061 9.3533 6.54783 9.2542 6.57043C9.1551 6.59303 9.02296 6.60433 8.85779 6.60433C8.72217 6.60433 8.61003 6.59738 8.52136 6.58347C8.43443 6.5713 8.36488 6.55043 8.31272 6.52088C8.2623 6.49132 8.22666 6.4522 8.20579 6.40352C8.18667 6.35657 8.17711 6.29746 8.17711 6.22618C8.17711 6.17228 8.18667 6.1262 8.20579 6.08795C8.22492 6.04796 8.25708 6.01232 8.30229 5.98103C8.34923 5.94973 8.41443 5.92104 8.49789 5.89496L8.68827 5.82715L8.82649 5.88192L8.72217 5.94973C8.67871 5.98103 8.64307 6.00797 8.61525 6.03058C8.58917 6.05144 8.57004 6.0723 8.55787 6.09317C8.54744 6.11403 8.54222 6.14185 8.54222 6.17662C8.54222 6.21661 8.55092 6.24704 8.5683 6.2679C8.58569 6.29051 8.61699 6.30528 8.66219 6.31224C8.70913 6.32093 8.77259 6.32528 8.85257 6.32528C8.93603 6.32528 9.00123 6.32093 9.04817 6.31224C9.09511 6.30528 9.12728 6.29137 9.14467 6.27051C9.16379 6.24965 9.17335 6.22009 9.17335 6.18184C9.17335 6.14881 9.1664 6.12446 9.15249 6.10882C9.14032 6.09317 9.11859 6.08187 9.08729 6.07491C9.05773 6.06622 9.01601 6.0584 8.96211 6.05144L8.55787 6.00711C8.49006 6.00015 8.43703 5.98189 8.39878 5.95234C8.36053 5.92278 8.33359 5.88714 8.31794 5.84541C8.30403 5.80194 8.30055 5.75848 8.30751 5.71501C8.31446 5.67155 8.33011 5.63243 8.35445 5.59765C8.38053 5.56288 8.41356 5.53767 8.45355 5.52202Z" fill="white"/>
<path d="M7.7649 7.08679C7.85096 7.08679 7.97354 7.09202 8.13002 7.09984C8.2865 7.10767 8.4508 7.13634 8.62032 7.1859L8.57859 7.68664C8.48731 7.68403 8.40386 7.68142 8.32823 7.67881C8.2526 7.67881 8.16916 7.6762 8.0831 7.6762H7.7649C7.61103 7.6762 7.48586 7.69186 7.38675 7.72577C7.28765 7.75967 7.21202 7.82226 7.15725 7.91614C7.10248 8.01003 7.06596 8.14824 7.04771 8.3308C7.02945 8.51336 7.01902 8.75329 7.01902 9.048C7.01902 9.28793 7.02425 9.48353 7.03468 9.6374C7.04512 9.79127 7.06859 9.90863 7.1051 9.99469C7.14162 10.0808 7.19897 10.1381 7.2746 10.172C7.35023 10.206 7.45718 10.2216 7.5928 10.2216C7.74927 10.2216 7.86401 10.1981 7.93703 10.1486C8.01006 10.099 8.05701 10.026 8.07788 9.92427C8.09874 9.82256 8.10917 9.69478 8.10917 9.5383C8.10917 9.38182 8.09612 9.26446 8.06743 9.17839C8.03875 9.09233 7.9892 9.02975 7.91357 8.99585C7.83794 8.96195 7.73363 8.94367 7.59802 8.94367C7.50152 8.94367 7.41023 8.95671 7.32939 8.98019C7.24854 9.00366 7.15987 9.04538 7.06859 9.10275C6.97731 9.16013 6.86254 9.24099 6.72693 9.34531L6.70608 9.04277C6.82083 8.86804 6.93037 8.73505 7.03468 8.63856C7.139 8.54206 7.25374 8.47686 7.37892 8.44035C7.50411 8.40384 7.65279 8.38556 7.82752 8.38556C8.09614 8.38556 8.30214 8.4247 8.4508 8.50033C8.59945 8.57596 8.70379 8.69854 8.76377 8.86284C8.82376 9.02714 8.85505 9.2488 8.85505 9.52263C8.85505 9.73388 8.83941 9.92166 8.80551 10.0834C8.77161 10.245 8.70899 10.3807 8.61771 10.4876C8.52643 10.5945 8.39604 10.6754 8.23174 10.7301C8.06743 10.7849 7.85097 10.811 7.58235 10.811C7.31373 10.811 7.10509 10.7823 6.93036 10.7275C6.75562 10.6728 6.62002 10.5763 6.52092 10.4433C6.42182 10.3103 6.35139 10.1251 6.30966 9.89037C6.26793 9.65565 6.24707 9.36094 6.24707 9.00626C6.24707 8.58898 6.27836 8.25256 6.34095 7.99958C6.40355 7.74661 6.49742 7.55363 6.6226 7.42062C6.74779 7.28761 6.90689 7.19894 7.09727 7.1546C7.28766 7.11027 7.51193 7.08679 7.7649 7.08679Z" fill="white"/>
</svg>
