<svg width="15" height="16" viewBox="0 0 15 16" fill="none" xmlns="http://www.w3.org/2000/svg">
<path d="M0 0.656128V15.6561H15V0.656128H0ZM7.31997 15.0561H0.6V8.33616H7.31997V15.0561ZM7.31997 7.97617H0.6V1.25613H7.31997V7.97617Z" fill="black"/>
<path d="M5.96401 4.19617H1.73999V4.91614H5.96401V4.19617Z" fill="black"/>
<path d="M6.00002 11.3961H1.776V12.1161H6.00002V11.3961Z" fill="black"/>
<path d="M9.52791 3.72815H8.86799V4.71216H7.88391V5.36013H8.86799V6.36816H9.52791V5.36013H10.512V4.71216H9.52791V3.72815Z" fill="white"/>
<path d="M11.544 3.60818C11.688 3.56018 11.844 3.52417 11.988 3.52417C12.156 3.52417 12.2879 3.5602 12.3839 3.6322C12.4799 3.7042 12.5159 3.81214 12.5159 3.94414C12.5159 4.05214 12.492 4.16016 12.432 4.26816C12.372 4.37616 12.276 4.49616 12.132 4.64016L10.98 5.84016V6.57214H13.632V5.76816H12.18L12.804 5.15615C13.056 4.91615 13.224 4.70016 13.332 4.48416C13.44 4.26816 13.488 4.05216 13.488 3.81216C13.488 3.45216 13.3679 3.17616 13.1399 2.98416C12.9119 2.79216 12.576 2.69617 12.132 2.69617C11.88 2.69617 11.64 2.73214 11.4 2.81614C11.16 2.88814 10.956 2.99615 10.788 3.12815L11.1 3.84819C11.256 3.72819 11.4 3.64417 11.556 3.59617L11.544 3.60818Z" fill="white"/>
<path d="M10.488 11.8641H8.724V12.6081H10.488V11.8641Z" fill="white"/>
<path d="M12.18 12.9201L12.804 12.3081C13.056 12.0681 13.224 11.8521 13.332 11.6361C13.44 11.4201 13.488 11.2041 13.488 10.9641C13.488 10.6041 13.3679 10.3281 13.1399 10.1361C12.9119 9.94413 12.576 9.84814 12.132 9.84814C11.88 9.84814 11.64 9.88412 11.4 9.96812C11.16 10.0401 10.956 10.1481 10.788 10.2801L11.1 11.0001C11.256 10.8801 11.4 10.7961 11.556 10.7481C11.7 10.7001 11.856 10.6641 12 10.6641C12.168 10.6641 12.2999 10.7001 12.3959 10.7721C12.4919 10.8441 12.5279 10.9521 12.5279 11.0841C12.5279 11.1921 12.504 11.3001 12.444 11.4081C12.384 11.5161 12.288 11.6361 12.144 11.7801L10.992 12.9801V13.7121H13.644V12.9081H12.192L12.18 12.9201Z" fill="white"/>
</svg>
