<svg width="15" height="16" viewBox="0 0 15 16" fill="none" xmlns="http://www.w3.org/2000/svg">
<path d="M12.2105 8.04133L15 0.541253H2.14113C1.99431 0.516783 1.07656 0.406653 0.489281 0.908289C0.171171 1.17746 0 1.56898 0 2.05838V14.2445C0 14.7461 0.158936 15.1254 0.489281 15.4068C0.880802 15.7371 1.40697 15.7983 1.77402 15.7983C1.8719 15.7983 1.95748 15.7983 2.01866 15.7983H15L12.2105 8.29822V8.04133ZM0.880886 14.9541C0.69736 14.8073 0.611751 14.5748 0.611751 14.2689V2.08288C0.611751 1.777 0.69736 1.54454 0.880886 1.39772C1.11335 1.20196 1.49261 1.14076 1.77402 1.14076H1.82301V15.211C1.52937 15.211 1.13782 15.1743 0.880886 14.9541ZM11.5988 15.1988H2.43476V1.16525H11.5988V15.1988Z" fill="black"/>
<path d="M8.5278 10.733C8.79697 10.6229 9.00497 10.4515 9.13955 10.2068C9.27414 9.96215 9.34745 9.63181 9.34745 9.21582C9.34745 8.99558 9.32305 8.7876 9.26187 8.61631C9.2007 8.44502 9.12721 8.29822 9.02933 8.17587C8.93145 8.05352 8.80921 7.95565 8.68686 7.88224C8.56451 7.80883 8.42986 7.75988 8.30751 7.72318C8.4788 7.67424 8.63785 7.60081 8.7602 7.47846C8.88255 7.35611 8.98041 7.2093 9.05382 7.02577C9.12723 6.84225 9.1518 6.63423 9.1518 6.38953C9.1518 5.87566 9.01711 5.48417 8.7357 5.20277C8.4543 4.92136 8.01389 4.78674 7.41437 4.78674H5.01636V10.8798H7.52445C7.91597 10.8798 8.25863 10.8309 8.5278 10.7208V10.733ZM6.23986 5.88793H7.41437C7.57343 5.88793 7.72021 5.93687 7.83032 6.04699C7.94044 6.1571 8.00162 6.34065 7.98938 6.60982C7.98938 6.81782 7.94045 6.98908 7.84257 7.11143C7.74469 7.23378 7.59791 7.30715 7.42662 7.30715H6.23986V5.88793ZM6.23986 9.7909V8.23703H7.48786C7.62244 8.23703 7.7447 8.26151 7.85482 8.32268C7.96493 8.38386 8.03843 8.46953 8.09961 8.57964C8.16078 8.68976 8.18519 8.82429 8.18519 8.98335C8.18519 9.17911 8.16078 9.32593 8.09961 9.44828C8.03843 9.5584 7.96493 9.64407 7.85482 9.70525C7.7447 9.76642 7.62244 9.7909 7.48786 9.7909H6.23986Z" fill="black"/>
</svg>
