<svg width="15" height="17" viewBox="0 0 15 17" fill="none" xmlns="http://www.w3.org/2000/svg">
<path d="M13.4457 -6.10352e-05H0.970417C0.434469 -6.10352e-05 0 0.415456 0 0.927989V14.8284C0 15.341 0.434469 15.7565 0.970417 15.7565H13.4457C13.9817 15.7565 14.4162 15.341 14.4162 14.8284V0.927989C14.4162 0.415456 13.9817 -6.10352e-05 13.4457 -6.10352e-05Z" fill="white"/>
<path d="M13.7389 16.3123H1.26102C0.565642 16.3123 0 15.7713 0 15.1063V1.2059C0 0.540898 0.565642 -6.10352e-05 1.26102 -6.10352e-05H13.7389C14.4343 -6.10352e-05 15 0.540898 15 1.2059V15.1063C15 15.7713 14.4343 16.3123 13.7389 16.3123ZM1.26102 0.555757C0.887385 0.555757 0.583808 0.846101 0.583808 1.20341V15.1039C0.583808 15.4612 0.887385 15.7515 1.26102 15.7515H13.7389C14.1126 15.7515 14.4162 15.4612 14.4162 15.1039V1.20341C14.4162 0.846101 14.1126 0.555757 13.7389 0.555757H1.26102Z" fill="black"/>
<path d="M9.00348 14.95H6.25829C6.06888 14.95 5.91577 14.8036 5.91577 14.6225C5.91577 14.4414 6.06888 14.295 6.25829 14.295H9.00348C9.19289 14.295 9.34599 14.4414 9.34599 14.6225C9.34599 14.8036 9.19289 14.95 9.00348 14.95Z" fill="black"/>
<path d="M1.81885 1.59052V13.0791L13.4898 1.59052H1.81885Z" fill="black"/>
<path d="M1.81885 13.0791H13.4898V1.59052L1.81885 13.0791Z" fill="black"/>
<path d="M3.93701 7.16278C3.93703 7.92699 4.22077 8.66639 4.73767 9.24921C5.25457 9.83202 5.97106 10.2204 6.75947 10.3452C7.54788 10.4699 8.357 10.323 9.04266 9.93043C9.72833 9.5379 10.246 8.92532 10.5034 8.20185C10.7609 7.47837 10.7413 6.69098 10.4483 5.97998C10.1553 5.26899 9.60789 4.68056 8.90355 4.31956C8.1992 3.95855 7.3837 3.84841 6.60236 4.00877C5.82102 4.16912 5.12459 4.58954 4.63715 5.19513C4.18309 5.75914 3.93691 6.45097 3.93701 7.16278Z" fill="url(#paint0_linear_4_65)"/>
<path d="M4.06128 7.16279C4.06146 7.8988 4.33488 8.61084 4.8328 9.17205C5.33073 9.73327 6.02083 10.1072 6.78015 10.2272C7.53948 10.3473 8.31871 10.2056 8.97901 9.82753C9.63931 9.44942 10.1378 8.85941 10.3857 8.16262C10.6335 7.46583 10.6147 6.70752 10.3325 6.02278C10.0502 5.33805 9.52297 4.77137 8.84462 4.42371C8.16627 4.07604 7.38088 3.96997 6.62838 4.1244C5.87589 4.27882 5.20515 4.68371 4.73569 5.26693C4.29823 5.81037 4.06111 6.47697 4.06128 7.16279Z" fill="white"/>
<path d="M5.48962 5.63599V6.84077" stroke="black" stroke-width="0.1" stroke-miterlimit="10"/>
<path d="M7.89761 6.73413L6.58203 7.56466" stroke="black" stroke-width="0.1" stroke-miterlimit="10"/>
<path d="M6.58203 4.88654L8.1217 5.50277" stroke="black" stroke-width="0.1" stroke-miterlimit="10"/>
<path d="M9.15748 6.94849L9.07385 8.82282" stroke="black" stroke-width="0.1" stroke-miterlimit="10"/>
<path d="M8.12186 9.3857L6.38599 8.55518" stroke="black" stroke-width="0.1" stroke-miterlimit="10"/>
<path d="M5.48962 8.68951V9.73639" stroke="black" stroke-width="0.1" stroke-miterlimit="10"/>
<path d="M4.84522 7.88563L4.08826 7.5647" stroke="black" stroke-width="0.1" stroke-miterlimit="10"/>
<path d="M9.07377 5.39506L9.01587 4.51941" stroke="black" stroke-width="0.1" stroke-miterlimit="10"/>
<path d="M9.57776 6.41327L10.517 6.66961" stroke="black" stroke-width="0.1" stroke-miterlimit="10"/>
<path d="M9.82967 6.41327L9.10166 5.20746L7.89758 5.3951V6.7342L9.18636 7.37709L9.82967 6.41327Z" fill="black"/>
<path d="M4.73572 5.26693L5.48625 5.63606C5.73822 5.31513 6.77288 4.93985 6.77288 4.93985L6.66566 4.11957C5.89874 4.26702 5.21336 4.67449 4.73572 5.26693Z" fill="black"/>
<path d="M6.77724 7.4304L5.46166 6.84082L4.73364 7.83233L5.48954 8.9838L6.77724 8.79616V7.4304Z" fill="black"/>
<path d="M7.89758 9.22176V10.2153C8.31913 10.1413 8.72119 9.98823 9.08058 9.76491C9.43997 9.54159 9.74959 9.25245 9.99157 8.91416L9.07378 8.55426L7.89758 9.22176Z" fill="black"/>
<defs>
<linearGradient id="paint0_linear_4_65" x1="7.31013" y1="10.3875" x2="7.31013" y2="3.93806" gradientUnits="userSpaceOnUse">
<stop stop-color="#808080" stop-opacity="0.25"/>
<stop offset="0.54" stop-color="#808080" stop-opacity="0.12"/>
<stop offset="1" stop-color="#808080" stop-opacity="0.1"/>
</linearGradient>
</defs>
</svg>
