<svg width="15" height="16" viewBox="0 0 15 16" fill="none" xmlns="http://www.w3.org/2000/svg">
<path d="M15 11.8402V0.249268H3.09918V0.286418C1.36364 0.472369 0 1.93521 0 3.72033V13.3278C0 13.3278 1.21064e-05 13.3401 0.0124088 13.3525C0.0124088 13.3897 0 13.4394 0 13.4765C0 14.7906 1.06602 15.8567 2.38007 15.8567H14.628C14.7768 15.8567 14.9132 15.7699 14.9628 15.6336C15.0248 15.4972 15.0001 15.336 14.9009 15.2369C14.4546 14.7534 14.219 14.1336 14.219 13.4765C14.219 12.8691 14.4297 12.2988 14.814 11.8278H15V11.8402ZM14.2562 11.0964H3.84295V0.993041H14.2562V11.0964ZM3.09918 1.01786V11.0964H2.38007C2.21892 11.0964 2.07015 11.1088 1.90899 11.146C1.46271 11.2327 1.05368 11.4559 0.731364 11.7658V3.72033C0.731364 2.3443 1.76032 1.20381 3.08677 1.01786H3.09918ZM13.8967 15.1253H2.38007C1.47511 15.1253 0.731364 14.3939 0.731364 13.4765C0.731364 13.3774 0.768615 13.2906 0.793408 13.1914C0.818202 13.0427 0.842953 12.9063 0.904936 12.7699C0.92973 12.7203 0.966865 12.6832 1.00406 12.6336C1.07844 12.5096 1.15292 12.3856 1.26449 12.2864C1.31408 12.2368 1.38834 12.2121 1.45032 12.1625C1.54949 12.0881 1.64868 12.0014 1.77265 11.9518C1.9586 11.8774 2.16933 11.8278 2.38007 11.8278H13.8967C13.6115 12.3236 13.4628 12.8939 13.4628 13.4765C13.4628 14.0592 13.6115 14.6171 13.8967 15.1129V15.1253Z" fill="#365E7D"/>
<path d="M8.23148 8.76581C7.84718 8.76581 7.51243 8.6542 7.2645 8.41866C7.01656 8.18312 6.88013 7.86084 6.88013 7.43935V7.01783C6.88013 6.60873 7.0166 6.27403 7.30172 6.01369C7.58685 5.75336 8.00822 5.61699 8.57847 5.61699H10.2397V5.0592C10.2397 4.84845 10.2025 4.67485 10.1405 4.53848C10.0661 4.40212 9.9422 4.29053 9.75625 4.21615C9.5703 4.14177 9.29753 4.10463 8.93802 4.10463H7.31413V3.52194C7.54967 3.47235 7.83471 3.42279 8.15703 3.3856C8.47934 3.34841 8.85128 3.32361 9.28517 3.31122C9.71905 3.31122 10.091 3.36081 10.3761 3.47238C10.6612 3.58395 10.8968 3.7575 11.0331 4.00543C11.1819 4.25337 11.2562 4.58806 11.2562 4.99715V8.69143H10.4752L10.3016 8.10874C10.3016 8.10874 10.1777 8.18312 10.0538 8.2575C9.92979 8.33188 9.76862 8.40625 9.57027 8.48063C9.37192 8.55501 9.16117 8.62943 8.93802 8.67902C8.71488 8.72861 8.47942 8.7534 8.24389 8.7534L8.23148 8.76581ZM8.69015 8.04677C8.78932 8.04677 8.90078 8.04675 9.03714 8.02196C9.17351 7.99716 9.30997 7.96003 9.44633 7.92284C9.5827 7.88565 9.70657 7.84842 9.81814 7.81123C9.92971 7.77404 10.029 7.73683 10.1034 7.71204C10.1778 7.68724 10.2149 7.66248 10.2273 7.66248V6.13771L8.83891 6.19968C8.4918 6.22447 8.24389 6.3112 8.09513 6.45996C7.94637 6.60872 7.87193 6.80712 7.87193 7.05505V7.29059C7.87193 7.47654 7.90908 7.63769 7.99586 7.74927C8.07024 7.86084 8.1694 7.94763 8.29337 7.99721C8.41734 8.0468 8.54138 8.07159 8.67774 8.07159L8.69015 8.04677Z" fill="#1298FF"/>
</svg>
