<svg width="15" height="16" viewBox="0 0 15 16" fill="none" xmlns="http://www.w3.org/2000/svg">
<path d="M9.32011 9.88868C9.19796 9.65659 9.02687 9.47335 8.78256 9.33898C8.55047 9.20461 8.2451 9.13134 7.87865 9.13134H7.28012C7.04803 9.13134 6.86487 9.0825 6.74272 8.99699C6.62057 8.91149 6.55946 8.75268 6.55946 8.53281V8.374C6.55946 8.19078 6.59606 8.05645 6.66935 7.95873C6.74265 7.86101 6.85261 7.78767 6.99919 7.76324C7.14577 7.7266 7.30461 7.71441 7.50005 7.71441C7.75657 7.71441 8.04968 7.71436 8.35506 7.73879C8.66044 7.75101 8.94132 7.77548 9.19784 7.7877V6.82265C9.05125 6.786 8.88032 6.76163 8.67267 6.72498C8.46501 6.68834 8.25733 6.66391 8.03745 6.65169C7.9153 6.65169 7.80532 6.65168 7.68316 6.63947H7.73207L7.69539 5.9798L7.0481 6.17528L7.0724 6.65169C6.59601 6.68834 6.19297 6.79827 5.91202 7.03036C5.56999 7.2991 5.39893 7.73884 5.39893 8.32517V8.61832C5.39893 9.22908 5.55773 9.66883 5.86311 9.91313C6.16849 10.1697 6.62056 10.2918 7.19467 10.2918H7.70762C7.90306 10.2918 8.06185 10.3407 8.15957 10.4384C8.26951 10.5361 8.31838 10.6705 8.31838 10.8537V11.0736C8.31838 11.2324 8.28176 11.3545 8.19626 11.4523C8.11075 11.55 8.00076 11.611 7.84197 11.6354C7.69538 11.6721 7.51223 11.6844 7.30457 11.6844C7.09691 11.6844 6.88923 11.6844 6.66935 11.6844C6.44948 11.6844 6.22957 11.6721 6.02191 11.6599C5.81425 11.6599 5.63107 11.6355 5.46006 11.6233V12.5883C5.58221 12.6249 5.72875 12.6494 5.87534 12.6738C6.03413 12.6982 6.19296 12.7226 6.36397 12.7348C6.53499 12.7593 6.70605 12.7715 6.87707 12.7715C6.92593 12.7715 6.97478 12.7715 7.02364 12.7715V13.4556H7.70762V12.7593C7.97635 12.7349 8.23285 12.7104 8.45273 12.6493C8.77032 12.5638 9.01461 12.3928 9.19784 12.1363C9.38106 11.8798 9.46668 11.5255 9.46668 11.0491V10.7072C9.46668 10.4018 9.40559 10.133 9.29565 9.90091L9.32011 9.88868Z" fill="#1298FF"/>
<path d="M14.8535 10.8171L13.3266 6.38293C13.0701 5.65002 12.5083 5.08817 11.7754 4.83165L10.2973 4.31856C10.2973 4.31856 10.3217 4.28192 10.3217 4.25749C10.3217 4.04984 10.1629 3.89105 9.95519 3.89105H9.79654L11.7997 1.60682L11.7143 1.3991C11.6654 1.28917 11.2256 0.348604 9.07573 0.873858C8.81921 0.702845 8.25742 0.397522 7.50007 0.397522C6.74273 0.397522 6.193 0.702845 5.92426 0.873858C3.77439 0.348604 3.32238 1.28917 3.28574 1.3991L3.2003 1.60682L5.20361 3.89105H5.04481C4.83715 3.89105 4.67829 4.04984 4.67829 4.25749C4.67829 4.28192 4.70274 4.29412 4.70274 4.31856L3.22475 4.83165C2.49184 5.08817 1.92992 5.65002 1.6734 6.38293L0.146497 10.8171C-0.171099 11.7454 0.0364883 12.7715 0.683894 13.48C1.09921 13.9319 1.58791 14.2374 1.84443 14.3717C1.92993 14.4206 2.00317 14.4572 2.08867 14.5061C2.77272 14.8847 4.66615 15.7887 7.50007 15.7887C10.334 15.7887 12.2273 14.897 12.9113 14.5061C12.9846 14.4572 13.0702 14.4206 13.1557 14.3717C13.4122 14.2374 13.9008 13.9441 14.3161 13.48C14.9635 12.7593 15.1711 11.7332 14.8535 10.8171ZM4.12867 1.55791C4.38518 1.43575 4.92261 1.36246 5.91204 1.6312L6.0953 1.6801L6.24187 1.55791C6.24187 1.55791 6.74273 1.14263 7.50007 1.14263C8.25742 1.14263 8.7459 1.55791 8.7459 1.55791L8.89248 1.69233L9.08796 1.64342C10.0774 1.37469 10.627 1.4602 10.8713 1.57013L8.81926 3.91551H6.16851L4.12867 1.57013V1.55791ZM13.7665 12.9914C13.4245 13.3701 13.0213 13.6143 12.8137 13.7243C12.7282 13.7731 12.6425 13.822 12.557 13.8709C12.0684 14.1518 10.2361 15.0558 7.51215 15.0558C4.78816 15.0558 2.95602 14.1518 2.46742 13.8709C2.38191 13.822 2.2963 13.7731 2.21079 13.7243C2.00314 13.6143 1.58792 13.3701 1.2459 12.9914C0.769502 12.4661 0.622836 11.7332 0.854925 11.0614L2.38183 6.62725C2.56505 6.11421 2.95597 5.71108 3.48122 5.52785L6.08307 4.62394H8.95361L11.5555 5.52785C12.0685 5.71108 12.4716 6.10199 12.6549 6.62725L14.1818 11.0614C14.4138 11.7332 14.2672 12.4784 13.7908 12.9914H13.7665Z" fill="#365E7D"/>
</svg>
