<svg width="15" height="16" viewBox="0 0 15 16" fill="none" xmlns="http://www.w3.org/2000/svg">
<g clip-path="url(#clip0_4_209)">
<path d="M13.2275 0.585266C12.7939 0.626282 12.249 0.720032 11.8506 0.819641C11.6572 0.869446 11.4697 0.919251 11.4346 0.92511C11.3555 0.942688 11.3525 0.957337 11.4141 1.25031C11.5781 2.0589 12.1494 2.91144 12.9199 3.49445C13.3242 3.80206 14.0449 4.10968 14.4902 4.16827L14.6426 4.18585L14.7012 3.96027C14.9063 3.19269 14.9824 2.58038 14.9824 1.66339L14.9854 0.916321L14.9063 0.796204C14.7773 0.599915 14.6865 0.573548 14.0625 0.564759C13.7637 0.561829 13.3887 0.570618 13.2275 0.585266Z" fill="#365E7D"/>
<path d="M10.2539 1.37042C8.24121 2.27569 6.38672 3.82843 4.69629 6.03155C4.26855 6.59112 3.36914 7.92999 3.36914 8.01202C3.36914 8.02667 3.58887 8.25812 3.85547 8.52472L4.3418 9.01105L4.61133 8.92316C4.93066 8.82062 5.45215 8.78253 5.71582 8.84405C6.35742 8.9964 6.73828 9.5003 6.73828 10.1976C6.73828 10.473 6.68555 10.7835 6.59473 11.0501L6.53906 11.2083L7.0459 11.7151C7.37109 12.0403 7.56738 12.2161 7.59375 12.2044C7.67871 12.1722 8.73633 11.4778 9.13184 11.1995C9.83496 10.6956 10.5996 10.0687 11.1768 9.51788C12.5918 8.17316 13.5879 6.80792 14.2119 5.37237L14.3525 5.05011L14.0391 4.97394C12.8994 4.68976 11.9004 3.97784 11.2178 2.95831C10.8926 2.47491 10.6699 1.97394 10.5615 1.48175C10.5352 1.3587 10.5088 1.25616 10.5059 1.25616C10.5059 1.25616 10.3916 1.3089 10.2539 1.37042ZM10.2158 3.77862C10.9863 3.9837 11.5781 4.57843 11.7803 5.35187C11.8564 5.63605 11.8623 6.10773 11.7949 6.39776C11.7686 6.50909 11.6836 6.72882 11.6104 6.88116C11.4932 7.11554 11.4316 7.2005 11.2061 7.42316C10.9043 7.72491 10.7139 7.84796 10.3506 7.97101C9.87891 8.13507 9.27539 8.11163 8.80664 7.91534C8.13574 7.63702 7.62012 6.99249 7.49707 6.28351C7.45019 6.00226 7.47656 5.513 7.55859 5.25519C7.91016 4.12726 9.08203 3.47394 10.2158 3.77862Z" fill="#365E7D"/>
<path d="M9.45117 4.59888C8.82422 4.69263 8.34961 5.2522 8.34961 5.89673C8.34961 6.62329 8.93262 7.20337 9.66797 7.20337C10.2246 7.20337 10.7607 6.80493 10.9131 6.27466C10.9687 6.0813 10.9775 5.74438 10.9277 5.56274C10.7549 4.91821 10.1162 4.49927 9.45117 4.59888Z" fill="#1298FF"/>
<path d="M3.09086 5.41337C2.67778 5.51591 2.27055 5.70341 1.88969 5.96708C1.73735 6.07255 1.37407 6.40947 0.843792 6.93681C0.0967215 7.68388 0.0322684 7.75419 0.0146902 7.86845C-0.00874727 8.02372 0.035198 8.16728 0.140667 8.26982C0.275432 8.39872 0.380901 8.41044 0.700237 8.34306C0.855511 8.31083 1.08696 8.26396 1.21586 8.24052C1.46196 8.19658 2.01274 8.179 2.13871 8.21415C2.20903 8.23173 2.2266 8.20829 2.43168 7.85673C2.85063 7.13603 3.31938 6.42119 3.78813 5.78837C3.94633 5.57158 4.01371 5.46318 3.99321 5.44267C3.89946 5.34892 3.41606 5.33427 3.09086 5.41337Z" fill="#365E7D"/>
<path d="M2.62793 9.30688C2.2998 9.93384 2.13867 10.2766 2.13867 10.3616C2.13867 10.4641 2.20898 10.6077 2.30273 10.6956L2.3877 10.7747L2.59277 10.5344C2.70703 10.4026 2.9707 10.1184 3.18457 9.89868L3.57129 9.50024L3.22852 9.15747L2.88574 8.81763L2.62793 9.30688Z" fill="#365E7D"/>
<path d="M5.06836 9.70825C4.93066 9.73462 4.74609 9.79907 4.57031 9.88696C4.31543 10.0129 4.25977 10.054 3.89648 10.4231C2.80664 11.5276 1.75781 12.9661 1.75781 13.3586C1.75781 13.7483 2.09766 13.9065 2.49902 13.7043C2.91504 13.4934 3.58887 13.0247 4.11621 12.5793C4.54688 12.2161 5.35254 11.4543 5.46973 11.2991C5.78027 10.8948 5.94141 10.3557 5.84766 10.0364C5.75684 9.72583 5.51953 9.62329 5.06836 9.70825Z" fill="#1298FF"/>
<path d="M9.87303 11.7474C9.55077 11.9935 8.36132 12.7786 7.8369 13.0892L7.34178 13.3851L7.33886 13.7425C7.33886 13.9505 7.30663 14.3138 7.26854 14.6009C7.18651 15.1868 7.1953 15.2864 7.34178 15.4271C7.45897 15.5384 7.60839 15.5735 7.76073 15.5296C7.90721 15.4857 9.41893 13.9651 9.61522 13.6634C9.98729 13.095 10.1689 12.5589 10.1719 12.0374C10.1719 11.7767 10.1367 11.595 10.0869 11.6009C10.0723 11.6009 9.9785 11.6683 9.87303 11.7474Z" fill="#365E7D"/>
<path d="M5.78613 12.2424C5.63965 12.3889 5.35547 12.6555 5.15039 12.8372L4.77832 13.1653L4.87207 13.2649C4.98047 13.3792 5.11523 13.4436 5.24414 13.4436C5.32617 13.4436 6.07031 13.0803 6.6123 12.7786L6.76465 12.6936L6.40723 12.3362L6.0498 11.9788L5.78613 12.2424Z" fill="#365E7D"/>
</g>
<defs>
<clipPath id="clip0_4_209">
<rect width="15" height="15" fill="white" transform="translate(0 0.552979)"/>
</clipPath>
</defs>
</svg>
