<svg width="15" height="18" viewBox="0 0 15 18" fill="none" xmlns="http://www.w3.org/2000/svg">
<path d="M13.4457 0.93689H0.970417C0.434469 0.93689 0 1.35241 0 1.86494V15.7654C0 16.2779 0.434469 16.6934 0.970417 16.6934H13.4457C13.9817 16.6934 14.4162 16.2779 14.4162 15.7654V1.86494C14.4162 1.35241 13.9817 0.93689 13.4457 0.93689Z" fill="white"/>
<path d="M13.7389 17.2492H1.26102C0.565642 17.2492 0 16.7083 0 16.0433V2.14285C0 1.47785 0.565642 0.93689 1.26102 0.93689H13.7389C14.4343 0.93689 15 1.47785 15 2.14285V16.0433C15 16.7083 14.4343 17.2492 13.7389 17.2492ZM1.26102 1.49271C0.887385 1.49271 0.583808 1.78305 0.583808 2.14036V16.0408C0.583808 16.3981 0.887385 16.6885 1.26102 16.6885H13.7389C14.1126 16.6885 14.4162 16.3981 14.4162 16.0408V2.14036C14.4162 1.78305 14.1126 1.49271 13.7389 1.49271H1.26102Z" fill="#365E7D"/>
<path d="M9.00348 15.887H6.25829C6.06888 15.887 5.91577 15.7406 5.91577 15.5595C5.91577 15.3783 6.06888 15.2319 6.25829 15.2319H9.00348C9.19289 15.2319 9.34599 15.3783 9.34599 15.5595C9.34599 15.7406 9.19289 15.887 9.00348 15.887Z" fill="#365E7D"/>
<path d="M1.81885 2.52747V14.0161L13.4898 2.52747H1.81885Z" fill="#365E7D"/>
<path d="M1.81885 14.0161H13.4898V2.52747L1.81885 14.0161Z" fill="#365E7D"/>
<path d="M6.58881 4.91041C6.74529 4.91041 6.8696 4.92432 6.96175 4.95214C7.05564 4.97822 7.12344 5.02516 7.16517 5.09297C7.2069 5.16078 7.22776 5.2564 7.22776 5.37985C7.22776 5.50851 7.20255 5.60674 7.15213 5.67455C7.10345 5.74062 7.0226 5.77887 6.90959 5.7893V5.80495C7.04868 5.81712 7.14605 5.86406 7.20168 5.94578C7.25732 6.02576 7.28514 6.1379 7.28514 6.28221C7.28514 6.40565 7.2634 6.50128 7.21994 6.56909C7.17821 6.63689 7.11214 6.68471 7.02173 6.71253C6.93306 6.73861 6.81657 6.75164 6.67226 6.75164C6.55577 6.75164 6.45406 6.75078 6.36713 6.74904C6.28194 6.74904 6.20283 6.7473 6.1298 6.74382C6.05678 6.74034 5.98202 6.736 5.90552 6.73078L5.94464 6.45434C5.98636 6.45607 6.06634 6.45781 6.18457 6.45955C6.30454 6.46129 6.44363 6.46216 6.60185 6.46216C6.67487 6.46216 6.73225 6.4552 6.77397 6.4413C6.8157 6.42739 6.84439 6.40218 6.86004 6.36566C6.87742 6.32741 6.88612 6.27352 6.88612 6.20397C6.88612 6.12921 6.87742 6.0727 6.86004 6.03445C6.84265 5.99446 6.81222 5.96664 6.76876 5.951C6.72703 5.93535 6.66879 5.92665 6.59402 5.92492H5.94203V5.67194H6.58881C6.65314 5.6702 6.70356 5.66325 6.74007 5.65108C6.77832 5.63891 6.80527 5.61544 6.82092 5.58066C6.83657 5.54589 6.84439 5.49721 6.84439 5.43462C6.84439 5.37029 6.8357 5.3216 6.81831 5.28857C6.80266 5.2538 6.77484 5.23032 6.73485 5.21815C6.69487 5.20598 6.63923 5.1999 6.56794 5.1999C6.47058 5.1999 6.38452 5.1999 6.30975 5.1999C6.23499 5.1999 6.16805 5.20077 6.10894 5.20251C6.04983 5.20251 5.99506 5.20425 5.94464 5.20772L5.90552 4.93128C5.97506 4.92432 6.042 4.91998 6.10633 4.91824C6.1724 4.91476 6.24369 4.91302 6.32019 4.91302C6.39669 4.91128 6.48623 4.91041 6.58881 4.91041ZM6.29671 4.93128V6.73078H5.90552V4.93128H6.29671Z" fill="white"/>
<path d="M7.94404 5.44244V6.73078H7.56067V5.44244H7.94404ZM7.83711 4.8739C7.91361 4.8739 7.95186 4.91302 7.95186 4.99126V5.12948C7.95186 5.20772 7.91361 5.24684 7.83711 5.24684H7.6702C7.5937 5.24684 7.55545 5.20772 7.55545 5.12948V4.99126C7.55545 4.91302 7.5937 4.8739 7.6702 4.8739H7.83711Z" fill="white"/>
<path d="M8.84475 5.40854C8.99427 5.40854 9.1125 5.42245 9.19943 5.45026C9.28811 5.47808 9.35157 5.52155 9.38982 5.58066C9.42981 5.63978 9.4498 5.71889 9.4498 5.81799C9.4498 5.91361 9.43067 5.99185 9.39242 6.05271C9.35417 6.11182 9.28984 6.15529 9.19943 6.18311C9.11076 6.21092 8.99166 6.22483 8.84214 6.22483C8.69262 6.22483 8.57265 6.21092 8.48224 6.18311C8.39357 6.15529 8.32924 6.11182 8.28925 6.05271C8.251 5.99359 8.23187 5.91535 8.23187 5.81799C8.23187 5.72062 8.251 5.64239 8.28925 5.58327C8.32924 5.52242 8.39444 5.47808 8.48485 5.45026C8.57526 5.42245 8.69522 5.40854 8.84475 5.40854ZM8.84214 5.64586C8.74652 5.64586 8.68045 5.6589 8.64393 5.68498C8.60742 5.70932 8.58917 5.75366 8.58917 5.81799C8.58917 5.88232 8.60742 5.92752 8.64393 5.9536C8.68045 5.97968 8.74652 5.99272 8.84214 5.99272C8.93777 5.99272 9.00297 5.97968 9.03774 5.9536C9.07251 5.92752 9.0899 5.88232 9.0899 5.81799C9.0899 5.75366 9.07251 5.70932 9.03774 5.68498C9.00297 5.6589 8.93777 5.64586 8.84214 5.64586ZM9.59845 5.44244L9.57759 5.60674L9.23334 5.65108L9.13945 5.44244H9.59845ZM8.45355 6.14659L8.64654 6.1805C8.6222 6.19441 8.60481 6.21614 8.59438 6.2457C8.58569 6.27525 8.5883 6.30307 8.60221 6.32915C8.61612 6.35523 8.64654 6.37088 8.69349 6.3761L9.16814 6.43086C9.30375 6.44477 9.39938 6.48302 9.45502 6.54561C9.51065 6.60647 9.53847 6.69601 9.53847 6.81424C9.53847 6.92551 9.51587 7.0107 9.47066 7.06982C9.42546 7.13067 9.3533 7.1724 9.2542 7.195C9.1551 7.2176 9.02296 7.2289 8.85779 7.2289C8.72217 7.2289 8.61003 7.22195 8.52136 7.20804C8.43443 7.19587 8.36488 7.17501 8.31272 7.14545C8.2623 7.11589 8.22666 7.07677 8.20579 7.02809C8.18667 6.98115 8.17711 6.92203 8.17711 6.85075C8.17711 6.79685 8.18667 6.75078 8.20579 6.71253C8.22492 6.67254 8.25708 6.63689 8.30229 6.6056C8.34923 6.5743 8.41443 6.54561 8.49789 6.51953L8.68827 6.45173L8.82649 6.5065L8.72217 6.5743C8.67871 6.6056 8.64307 6.63255 8.61525 6.65515C8.58917 6.67601 8.57004 6.69688 8.55787 6.71774C8.54744 6.73861 8.54222 6.76642 8.54222 6.8012C8.54222 6.84119 8.55092 6.87161 8.5683 6.89248C8.58569 6.91508 8.61699 6.92986 8.66219 6.93681C8.70913 6.9455 8.77259 6.94985 8.85257 6.94985C8.93603 6.94985 9.00123 6.9455 9.04817 6.93681C9.09511 6.92986 9.12728 6.91595 9.14467 6.89508C9.16379 6.87422 9.17335 6.84466 9.17335 6.80641C9.17335 6.77338 9.1664 6.74904 9.15249 6.73339C9.14032 6.71774 9.11859 6.70644 9.08729 6.69949C9.05773 6.69079 9.01601 6.68297 8.96211 6.67601L8.55787 6.63168C8.49006 6.62472 8.43703 6.60647 8.39878 6.57691C8.36053 6.54735 8.33359 6.51171 8.31794 6.46998C8.30403 6.42652 8.30055 6.38305 8.30751 6.33958C8.31446 6.29612 8.33011 6.257 8.35445 6.22223C8.38053 6.18745 8.41356 6.16224 8.45355 6.14659Z" fill="white"/>
<path d="M7.7649 7.71136C7.85096 7.71136 7.97354 7.71659 8.13002 7.72442C8.2865 7.73224 8.4508 7.76092 8.62032 7.81047L8.57859 8.31121C8.48731 8.3086 8.40386 8.30599 8.32823 8.30338C8.2526 8.30338 8.16916 8.30077 8.0831 8.30077H7.7649C7.61103 8.30077 7.48586 8.31643 7.38675 8.35034C7.28765 8.38424 7.21202 8.44683 7.15725 8.54072C7.10248 8.6346 7.06596 8.77282 7.04771 8.95537C7.02945 9.13793 7.01902 9.37787 7.01902 9.67257C7.01902 9.9125 7.02425 10.1081 7.03468 10.262C7.04512 10.4158 7.06859 10.5332 7.1051 10.6193C7.14162 10.7053 7.19897 10.7627 7.2746 10.7966C7.35023 10.8305 7.45718 10.8462 7.5928 10.8462C7.74927 10.8462 7.86401 10.8227 7.93703 10.7731C8.01006 10.7236 8.05701 10.6506 8.07788 10.5488C8.09874 10.4471 8.10917 10.3193 8.10917 10.1629C8.10917 10.0064 8.09612 9.88903 8.06743 9.80297C8.03875 9.7169 7.9892 9.65433 7.91357 9.62042C7.83794 9.58652 7.73363 9.56824 7.59802 9.56824C7.50152 9.56824 7.41023 9.58129 7.32939 9.60476C7.24854 9.62823 7.15987 9.66995 7.06859 9.72733C6.97731 9.7847 6.86254 9.86556 6.72693 9.96988L6.70608 9.66735C6.82083 9.49261 6.93037 9.35963 7.03468 9.26313C7.139 9.16664 7.25374 9.10143 7.37892 9.06492C7.50411 9.02841 7.65279 9.01013 7.82752 9.01013C8.09614 9.01013 8.30214 9.04927 8.4508 9.1249C8.59945 9.20053 8.70379 9.32311 8.76377 9.48741C8.82376 9.65172 8.85505 9.87337 8.85505 10.1472C8.85505 10.3585 8.83941 10.5462 8.80551 10.7079C8.77161 10.8696 8.70899 11.0052 8.61771 11.1122C8.52643 11.2191 8.39604 11.2999 8.23174 11.3547C8.06743 11.4095 7.85097 11.4356 7.58235 11.4356C7.31373 11.4356 7.10509 11.4069 6.93036 11.3521C6.75562 11.2973 6.62002 11.2008 6.52092 11.0678C6.42182 10.9348 6.35139 10.7497 6.30966 10.5149C6.26793 10.2802 6.24707 9.98552 6.24707 9.63083C6.24707 9.21356 6.27836 8.87713 6.34095 8.62416C6.40355 8.37118 6.49742 8.1782 6.6226 8.04519C6.74779 7.91219 6.90689 7.82351 7.09727 7.77917C7.28766 7.73484 7.51193 7.71136 7.7649 7.71136Z" fill="#1298FF"/>
</svg>
