<svg width="15" height="16" viewBox="0 0 15 16" fill="none" xmlns="http://www.w3.org/2000/svg">
<path d="M12.2105 7.66594L15 0.165866H2.14113C1.99431 0.141396 1.07656 0.0313409 0.489281 0.532977C0.171171 0.802147 0 1.19367 0 1.68307V13.8691C0 14.3707 0.158936 14.75 0.489281 15.0314C0.880802 15.3618 1.40697 15.423 1.77402 15.423C1.8719 15.423 1.95748 15.423 2.01866 15.423H15L12.2105 7.9229V7.66594ZM0.880886 14.5788C0.69736 14.4319 0.611751 14.1995 0.611751 13.8936V1.70749C0.611751 1.40162 0.69736 1.16915 0.880886 1.02233C1.11335 0.826573 1.49261 0.765445 1.77402 0.765445H1.82301V14.8357C1.52937 14.8357 1.13782 14.799 0.880886 14.5788ZM11.5988 14.8235H2.43476V0.789864H11.5988V14.8235Z" fill="#365E7D"/>
<path d="M8.5278 10.3576C8.79697 10.2475 9.00497 10.0762 9.13955 9.83154C9.27414 9.58684 9.34745 9.2565 9.34745 8.84051C9.34745 8.62028 9.32305 8.4123 9.26187 8.24101C9.2007 8.06972 9.12721 7.92291 9.02933 7.80056C8.93145 7.67821 8.80921 7.58027 8.68686 7.50686C8.56451 7.43345 8.42986 7.38458 8.30751 7.34787C8.4788 7.29893 8.63785 7.22551 8.7602 7.10316C8.88255 6.98081 8.98041 6.83399 9.05382 6.65047C9.12723 6.46694 9.1518 6.25892 9.1518 6.01422C9.1518 5.50035 9.01711 5.10887 8.7357 4.82746C8.4543 4.54606 8.01389 4.41144 7.41437 4.41144H5.01636V10.5045H7.52445C7.91597 10.5045 8.25863 10.4555 8.5278 10.3454V10.3576ZM6.23986 5.51262H7.41437C7.57343 5.51262 7.72021 5.56149 7.83032 5.67161C7.94044 5.78172 8.00162 5.96527 7.98938 6.23444C7.98938 6.44244 7.94045 6.61377 7.84257 6.73612C7.74469 6.85847 7.59791 6.93185 7.42662 6.93185H6.23986V5.51262ZM6.23986 9.41559V7.86172H7.48786C7.62244 7.86172 7.7447 7.8862 7.85482 7.94738C7.96493 8.00855 8.03843 8.09415 8.09961 8.20426C8.16078 8.31438 8.18519 8.44899 8.18519 8.60804C8.18519 8.8038 8.16078 8.95063 8.09961 9.07298C8.03843 9.18309 7.96493 9.26877 7.85482 9.32994C7.7447 9.39112 7.62244 9.41559 7.48786 9.41559H6.23986Z" fill="#1298FF"/>
</svg>
