<svg width="15" height="16" viewBox="0 0 15 16" fill="none" xmlns="http://www.w3.org/2000/svg">
<path d="M8.98213 8.29993H7.74695V9.5351C8.37682 9.4309 8.87792 8.92979 8.98213 8.29993Z" fill="#1298FF"/>
<path d="M7.87962 11.1692C7.88626 11.1685 7.8929 11.1679 7.89953 11.1665C7.90352 11.1665 7.9075 11.1659 7.91148 11.1652C7.92409 11.1639 7.9367 11.1619 7.94931 11.1599C7.95728 11.1586 7.96591 11.1572 7.97453 11.1559C7.9752 11.1559 7.97652 11.1559 7.97785 11.1559C7.99511 11.1533 8.01236 11.1506 8.02962 11.148C8.03095 11.148 8.03227 11.148 8.0336 11.1473C8.05351 11.144 8.07409 11.14 8.094 11.136C8.09732 11.136 8.10064 11.1347 8.10396 11.134C8.12586 11.13 8.14843 11.1254 8.17033 11.1201C8.19289 11.1154 8.21613 11.1095 8.23869 11.1041C8.24135 11.1035 8.244 11.1028 8.24599 11.1022C8.26458 11.0975 8.28316 11.0929 8.30175 11.0882C8.30838 11.0862 8.31502 11.0849 8.32166 11.0829C8.33891 11.0783 8.35683 11.073 8.37409 11.0683C8.39666 11.0617 8.41922 11.055 8.44113 11.0484C8.46303 11.0418 8.48493 11.0345 8.50617 11.0272C8.51413 11.0245 8.5221 11.0218 8.53007 11.0192C8.55993 11.0086 8.5898 10.998 8.619 10.9867C8.62962 10.9827 8.63958 10.9787 8.6502 10.9747C8.65285 10.9741 8.65484 10.9727 8.65683 10.9721C8.6721 10.9661 8.6867 10.9601 8.7013 10.9541C8.72254 10.9455 8.74312 10.9362 8.76436 10.9269C8.82874 10.8984 8.89179 10.8685 8.95352 10.836C8.97077 10.8267 8.98869 10.8174 9.00595 10.8075C9.01325 10.8035 9.02122 10.7995 9.02852 10.7949C9.04312 10.7869 9.05705 10.7789 9.07166 10.7703C9.09555 10.7564 9.11944 10.7424 9.14267 10.7278C9.15595 10.7199 9.16856 10.7119 9.18117 10.7039C9.20573 10.688 9.23028 10.6721 9.25418 10.6561C9.27011 10.6455 9.28604 10.6342 9.30197 10.6236C9.31723 10.613 9.33184 10.6024 9.3471 10.5918C9.35108 10.5891 9.35506 10.5864 9.35905 10.5831C9.37697 10.5699 9.39489 10.5566 9.41214 10.5433C9.45197 10.5128 9.49046 10.4816 9.52896 10.4491C9.54157 10.4384 9.55418 10.4272 9.56679 10.4165C9.5721 10.4119 9.57741 10.4072 9.58205 10.4026C9.59533 10.3913 9.60794 10.3794 9.62055 10.3674C9.68759 10.3064 9.75197 10.242 9.81303 10.1749C9.82497 10.1623 9.83626 10.1491 9.84821 10.1364C9.85285 10.1318 9.8575 10.1265 9.86215 10.1212C9.87343 10.1086 9.88405 10.096 9.89467 10.0833C9.92719 10.0455 9.95838 10.0064 9.98891 9.96653C10.0029 9.94928 10.0161 9.93136 10.0287 9.91344C10.0321 9.90946 10.0347 9.90547 10.0374 9.90149C10.048 9.88689 10.0586 9.87163 10.0692 9.85636C10.0805 9.84043 10.0911 9.8245 10.1017 9.80857C10.1183 9.78468 10.1343 9.76012 10.1495 9.73556C10.1575 9.72295 10.1655 9.70968 10.1734 9.69707C10.188 9.67384 10.202 9.64994 10.2159 9.62605C10.2239 9.61211 10.2325 9.59751 10.2405 9.58291C10.2444 9.57561 10.2484 9.56764 10.2531 9.56034C10.263 9.54308 10.2723 9.52516 10.2816 9.50791C10.3141 9.44618 10.3447 9.38313 10.3725 9.31875C10.3818 9.29817 10.3905 9.27693 10.3998 9.25569C10.4071 9.23844 10.4137 9.22118 10.4203 9.20459C10.4203 9.20393 10.4203 9.20326 10.421 9.20326C10.425 9.1933 10.4283 9.18401 10.4323 9.17472C10.4396 9.15614 10.4462 9.13755 10.4529 9.11897C10.4582 9.1037 10.4635 9.08844 10.4688 9.07384C10.4781 9.04795 10.486 9.02207 10.4947 8.99552C10.5013 8.97362 10.5086 8.95105 10.5146 8.92848C10.5199 8.91123 10.5245 8.89331 10.5292 8.87605C10.5305 8.87008 10.5325 8.8641 10.5338 8.85813C10.5398 8.83623 10.5451 8.81432 10.5504 8.79308C10.5557 8.77052 10.561 8.74795 10.5663 8.72472C10.5717 8.70149 10.5763 8.67826 10.5809 8.65503C10.5809 8.65304 10.5816 8.65039 10.5823 8.64839C10.5863 8.62782 10.5902 8.60658 10.5936 8.58534C10.5962 8.56808 10.5995 8.55016 10.6022 8.53224C10.6022 8.53158 10.6022 8.53025 10.6022 8.52893C10.6035 8.52096 10.6048 8.51233 10.6062 8.5037C10.6082 8.4891 10.6102 8.47516 10.6121 8.46056C10.6121 8.45857 10.6121 8.45592 10.6128 8.45393C10.6135 8.44795 10.6141 8.44131 10.6155 8.43468C10.6208 8.39087 10.6254 8.34707 10.6287 8.3026C10.6287 8.3026 10.6287 8.30193 10.6287 8.30127H9.47984C9.36834 9.20459 8.64953 9.92339 7.74622 10.0349V11.1838C7.74622 11.1838 7.74887 11.1838 7.75086 11.1838C7.794 11.1805 7.83648 11.1765 7.87896 11.1712L7.87962 11.1692Z" fill="#1298FF"/>
<path d="M11.5135 11.1472C11.3277 11.1472 11.177 11.2979 11.177 11.4837C11.177 11.6696 11.3277 11.8202 11.5135 11.8202C11.6993 11.8202 11.85 11.6696 11.85 11.4837C11.85 11.2979 11.6993 11.1472 11.5135 11.1472Z" fill="#1298FF"/>
<path d="M4.37048 7.80611H5.51938C5.63088 6.90279 6.34969 6.18398 7.25301 6.07248V4.92358C5.7185 5.04305 4.48995 6.27159 4.37048 7.80611Z" fill="#1298FF"/>
<path d="M5.9263 9.27824C5.70993 9.00081 5.56524 8.66563 5.52011 8.29993H4.37122C4.49135 9.83112 5.72254 11.0623 7.25374 11.1824V10.0336C6.88803 9.98842 6.55219 9.84373 6.27542 9.62736C6.14533 9.52581 6.02785 9.409 5.92697 9.27891L5.9263 9.27824Z" fill="#1298FF"/>
<path d="M7.253 9.5351V8.29993H6.01782C6.12203 8.93112 6.62181 9.4309 7.253 9.5351Z" fill="#1298FF"/>
<path d="M6.06827 7.58779C6.04636 7.6608 6.02911 7.73447 6.01782 7.80615H7.25366V6.57031C7.23508 6.57297 7.21716 6.57629 7.19858 6.58027C6.66561 6.68248 6.22623 7.06876 6.06893 7.58779H6.06827Z" fill="#1298FF"/>
<path d="M12.4746 8.9092C12.3697 9.54968 12.1374 10.1636 11.7929 10.7125C11.7 10.6747 11.5978 10.6541 11.4909 10.6541C11.0449 10.6541 10.6839 11.0158 10.6839 11.4612C10.6839 11.6112 10.725 11.7519 10.7967 11.8727C9.94248 12.6121 8.87854 13.0382 7.74691 13.0926V11.6776C9.5562 11.5561 11.0031 10.1099 11.1246 8.2999H12.5396C12.5303 8.50167 12.5091 8.70543 12.4752 8.9092H12.4746ZM11.5128 11.8203C11.327 11.8203 11.1763 11.6696 11.1763 11.4838C11.1763 11.2979 11.327 11.1472 11.5128 11.1472C11.6987 11.1472 11.8493 11.2979 11.8493 11.4838C11.8493 11.6696 11.6987 11.8203 11.5128 11.8203ZM7.74625 10.0335C8.64957 9.92203 9.36837 9.20322 9.47988 8.2999H10.6288C10.6288 8.2999 10.6288 8.30057 10.6288 8.30123C10.6255 8.3457 10.6208 8.38951 10.6155 8.43331C10.6148 8.43929 10.6142 8.44592 10.6128 8.45256C10.6128 8.45455 10.6128 8.4572 10.6122 8.4592C10.6102 8.4738 10.6082 8.48774 10.6062 8.50234C10.6049 8.51097 10.6035 8.51893 10.6022 8.52756C10.6022 8.52889 10.6022 8.52955 10.6022 8.53088C10.5996 8.5488 10.5969 8.56672 10.5936 8.58397C10.5903 8.60521 10.5863 8.62645 10.5823 8.64703C10.5823 8.64902 10.5816 8.65167 10.581 8.65366C10.5763 8.67689 10.5717 8.70013 10.5664 8.72269C10.5617 8.74592 10.5564 8.76849 10.5505 8.79105C10.5451 8.81296 10.5398 8.83486 10.5339 8.8561C10.5325 8.86207 10.5305 8.86805 10.5292 8.87402C10.5246 8.89128 10.5193 8.9092 10.5146 8.92645C10.508 8.94902 10.5013 8.97159 10.4947 8.99349C10.4867 9.02004 10.4781 9.04592 10.4688 9.07181C10.4635 9.08707 10.4582 9.10234 10.4529 9.11694C10.4462 9.13552 10.4389 9.15411 10.4323 9.17269C10.429 9.18265 10.425 9.19194 10.421 9.20123C10.421 9.20123 10.421 9.2019 10.4204 9.20256C10.4137 9.21982 10.4064 9.23707 10.3998 9.25366C10.3912 9.2749 10.3819 9.29548 10.3726 9.31672C10.344 9.3811 10.3135 9.44415 10.2816 9.50588C10.2724 9.52314 10.2631 9.54105 10.2531 9.55831C10.2491 9.56561 10.2451 9.57358 10.2405 9.58088C10.2325 9.59548 10.2246 9.60942 10.2159 9.62402C10.202 9.64791 10.1881 9.67181 10.1735 9.69504C10.1655 9.70831 10.1575 9.72092 10.1496 9.73353C10.1336 9.75809 10.1177 9.78265 10.1018 9.80654C10.0912 9.82247 10.0799 9.8384 10.0693 9.85433C10.0586 9.8696 10.048 9.88486 10.0374 9.89946C10.0347 9.90344 10.0321 9.90743 10.0288 9.91141C10.0155 9.92933 10.0022 9.94725 9.98895 9.96451C9.95841 10.0043 9.92722 10.0435 9.8947 10.0813C9.88408 10.0939 9.8728 10.1065 9.86218 10.1192C9.85753 10.1245 9.85288 10.1298 9.84824 10.1344C9.83695 10.1477 9.82501 10.1603 9.81306 10.1729C9.75133 10.2399 9.68695 10.3043 9.62058 10.3654C9.60797 10.3773 9.5947 10.3886 9.58209 10.4006C9.57678 10.4052 9.57147 10.4099 9.56682 10.4145C9.55421 10.4258 9.5416 10.4364 9.52899 10.447C9.49116 10.4796 9.452 10.5107 9.41218 10.5413C9.39492 10.5552 9.377 10.5685 9.35908 10.5811C9.3551 10.5844 9.35111 10.5871 9.34713 10.5897C9.33253 10.6003 9.31726 10.611 9.302 10.6216C9.28607 10.6329 9.27014 10.6435 9.25421 10.6541C9.23032 10.6707 9.20576 10.6866 9.1812 10.7019C9.16859 10.7099 9.15532 10.7178 9.14271 10.7258C9.11881 10.7404 9.09558 10.755 9.07169 10.7683C9.05775 10.7762 9.04315 10.7849 9.02855 10.7928C9.02125 10.7968 9.01328 10.8015 9.00598 10.8054C8.98872 10.8154 8.9708 10.8247 8.95355 10.834C8.89182 10.8665 8.82877 10.897 8.76439 10.9249C8.74381 10.9342 8.72257 10.9428 8.70133 10.9521C8.68673 10.9581 8.67147 10.9647 8.65686 10.97C8.65487 10.9707 8.65222 10.972 8.65023 10.9727C8.63961 10.9767 8.62965 10.9807 8.61903 10.9846C8.58983 10.9959 8.55996 11.0065 8.5301 11.0172C8.52213 11.0198 8.51416 11.0225 8.5062 11.0251C8.48496 11.0324 8.46306 11.0397 8.44116 11.0464C8.41925 11.053 8.39669 11.0603 8.37412 11.0663C8.35686 11.0716 8.33895 11.0762 8.32169 11.0809C8.31505 11.0829 8.30841 11.0842 8.30178 11.0862C8.28319 11.0908 8.26461 11.0955 8.24602 11.1001C8.24337 11.1001 8.24138 11.1015 8.23872 11.1021C8.21616 11.1074 8.19359 11.1127 8.17036 11.118C8.14846 11.1227 8.12655 11.1273 8.10399 11.132C8.10067 11.1326 8.09735 11.1333 8.09403 11.134C8.07412 11.138 8.05354 11.1413 8.03363 11.1453C8.03231 11.1453 8.03098 11.1459 8.02965 11.1459C8.01239 11.1486 7.99514 11.1519 7.97788 11.1539C7.97656 11.1539 7.97589 11.1539 7.97457 11.1539C7.9666 11.1552 7.95797 11.1565 7.94934 11.1579C7.93673 11.1599 7.92412 11.1612 7.91151 11.1632C7.90753 11.1638 7.90355 11.1645 7.89957 11.1645C7.89293 11.1652 7.88629 11.1665 7.87965 11.1672C7.83717 11.1725 7.7947 11.1765 7.75155 11.1798C7.75023 11.1798 7.7489 11.1798 7.74691 11.1798V10.0309L7.74625 10.0335ZM7.74625 8.2999H8.98142C8.87722 8.92977 8.37611 9.43088 7.74625 9.53508V8.2999ZM7.25311 4.42911C5.44381 4.55057 3.99691 5.99681 3.87545 7.80676H2.46041C2.4697 7.60499 2.49093 7.40123 2.52478 7.19747C2.64624 6.45543 2.93895 5.74924 3.37833 5.13929C4.31019 3.84504 5.71859 3.0884 7.25311 3.01473V4.42977V4.42911ZM7.25311 6.07313C6.34979 6.18464 5.63098 6.90344 5.51947 7.80676H4.37058C4.49005 6.27225 5.71859 5.04371 7.25311 4.92424V6.07313ZM7.25311 7.80676H6.01726C6.02921 7.73442 6.0458 7.66141 6.0677 7.5884C6.22501 7.06937 6.66439 6.68309 7.19735 6.58088C7.21594 6.57756 7.23452 6.57424 7.25244 6.57092V7.80676H7.25311ZM7.25311 9.53508C6.62191 9.43088 6.12213 8.9311 6.01793 8.2999H7.25311V9.53508ZM7.25311 11.1824C5.72191 11.0623 4.49071 9.8311 4.37058 8.2999H5.51947C5.56461 8.66561 5.7093 9.00145 5.92567 9.27822C6.02722 9.40831 6.14404 9.52579 6.27412 9.62667C6.55156 9.84305 6.88673 9.98773 7.25244 10.0329V11.1818L7.25311 11.1824ZM7.25311 13.0919C6.08032 13.0362 4.97987 12.5802 4.11107 11.7904C4.05067 11.7353 3.99094 11.6782 3.93253 11.6205C3.87412 11.5627 3.81771 11.5023 3.76262 11.4419C2.97279 10.5731 2.51749 9.47269 2.46107 8.2999H3.87611C3.93054 9.1176 4.25642 9.86097 4.7635 10.4411C4.87169 10.5652 4.9885 10.6813 5.11196 10.7895C5.69271 11.2966 6.43541 11.6218 7.25311 11.6769V13.0919ZM11.4133 4.13442C11.3184 4.03951 11.1637 4.04083 11.0688 4.13575L11.0642 4.14039C10.9693 4.2353 10.9706 4.38929 11.0655 4.4842L11.0675 4.48619C11.1259 4.5446 11.1823 4.60433 11.2374 4.66473C12.0272 5.53353 12.4825 6.63398 12.5389 7.80676H11.1239C11.0695 6.98906 10.7436 6.2457 10.2365 5.66561C10.1821 5.60322 10.125 5.54282 10.0666 5.48375C9.97102 5.38818 9.81638 5.38818 9.7208 5.48375L9.71682 5.48774C9.62125 5.58331 9.62191 5.73862 9.71748 5.8342C10.2319 6.34858 10.569 7.03884 10.6288 7.80676H9.47988C9.43474 7.44106 9.29005 7.10521 9.07368 6.82844C9.02257 6.76274 8.96682 6.69968 8.90775 6.64128C8.81284 6.54636 8.65886 6.54636 8.56395 6.64128L8.5593 6.64592C8.46306 6.74216 8.46571 6.89681 8.56195 6.99305C8.77833 7.21008 8.92965 7.49216 8.98142 7.80743H7.74625V1.92159C7.74625 1.85322 7.71837 1.7915 7.6739 1.74703C7.62943 1.70256 7.56771 1.67468 7.49934 1.67468C7.36328 1.67468 7.25244 1.78486 7.25244 1.92159V2.52092C4.38983 2.64636 2.09204 4.94482 1.9666 7.80676H1.36726C1.2312 7.80676 1.12036 7.91694 1.12036 8.05367C1.12036 8.19039 1.23054 8.30057 1.36726 8.30057H1.96726C2.02634 9.64393 2.56328 10.8632 3.4135 11.7917C3.52434 11.9132 3.64049 12.0293 3.76195 12.1402C4.69049 12.9904 5.90974 13.5273 7.25311 13.5864V14.1857C7.25311 14.3218 7.36328 14.4326 7.50001 14.4326C7.63673 14.4326 7.74691 14.3225 7.74691 14.1857V13.5864C9.05775 13.5293 10.2498 13.0163 11.169 12.2019C11.2679 12.245 11.3768 12.2689 11.4909 12.2689C11.937 12.2689 12.298 11.9072 12.298 11.4619C12.298 11.3026 12.2516 11.1532 12.1719 11.0284C12.679 10.234 12.9883 9.30145 13.0327 8.30057H13.6321C13.7004 8.30057 13.7622 8.27269 13.8066 8.22822C13.8511 8.18375 13.879 8.12203 13.879 8.05367C13.879 7.9176 13.7688 7.80676 13.6321 7.80676H13.0321C12.973 6.4634 12.4361 5.24415 11.5858 4.31561C11.5294 4.25389 11.4717 4.19349 11.4126 4.13442H11.4133Z" fill="#365E7D"/>
<path d="M7.5 15.0824C3.62389 15.0824 0.470577 11.9291 0.470577 8.05298C0.470577 4.17687 3.62389 1.02355 7.5 1.02355C11.3761 1.02355 14.5294 4.17687 14.5294 8.05298C14.5294 11.9291 11.3761 15.0824 7.5 15.0824ZM7.5 0.552979C5.4969 0.552979 3.61327 1.33285 2.1969 2.74988C0.780529 4.16625 0 6.04988 0 8.05298C0 10.0561 0.779866 11.9397 2.1969 13.3561C3.61327 14.7724 5.4969 15.553 7.5 15.553C9.5031 15.553 11.3867 14.7731 12.8031 13.3561C14.2195 11.9397 15 10.0561 15 8.05298C15 6.04988 14.2201 4.16625 12.8031 2.74988C11.3867 1.33351 9.5031 0.552979 7.5 0.552979Z" fill="#365E7D"/>
</svg>
