<svg width="15" height="18" viewBox="0 0 15 18" fill="none" xmlns="http://www.w3.org/2000/svg">
<path d="M13.4457 0.93689H0.970417C0.434469 0.93689 0 1.35241 0 1.86494V15.7654C0 16.2779 0.434469 16.6934 0.970417 16.6934H13.4457C13.9817 16.6934 14.4162 16.2779 14.4162 15.7654V1.86494C14.4162 1.35241 13.9817 0.93689 13.4457 0.93689Z" fill="white"/>
<path d="M13.7389 17.2492H1.26102C0.565642 17.2492 0 16.7083 0 16.0433V2.14285C0 1.47785 0.565642 0.93689 1.26102 0.93689H13.7389C14.4343 0.93689 15 1.47785 15 2.14285V16.0433C15 16.7083 14.4343 17.2492 13.7389 17.2492ZM1.26102 1.49271C0.887385 1.49271 0.583808 1.78305 0.583808 2.14036V16.0408C0.583808 16.3981 0.887385 16.6885 1.26102 16.6885H13.7389C14.1126 16.6885 14.4162 16.3981 14.4162 16.0408V2.14036C14.4162 1.78305 14.1126 1.49271 13.7389 1.49271H1.26102Z" fill="#365E7D"/>
<path d="M9.00348 15.887H6.25829C6.06888 15.887 5.91577 15.7406 5.91577 15.5595C5.91577 15.3783 6.06888 15.2319 6.25829 15.2319H9.00348C9.19289 15.2319 9.34599 15.3783 9.34599 15.5595C9.34599 15.7406 9.19289 15.887 9.00348 15.887Z" fill="#1298FF"/>
<path d="M1.81885 2.52747V14.0161L13.4898 2.52747H1.81885Z" fill="#365E7D"/>
<path d="M1.81885 14.0161H13.4898V2.52747L1.81885 14.0161Z" fill="#365E7D"/>
<path d="M3.93701 8.09973C3.93703 8.86394 4.22077 9.60334 4.73767 10.1862C5.25457 10.769 5.97106 11.1574 6.75947 11.2821C7.54788 11.4069 8.357 11.2599 9.04266 10.8674C9.72833 10.4749 10.246 9.86228 10.5034 9.1388C10.7609 8.41532 10.7413 7.62793 10.4483 6.91693C10.1553 6.20594 9.60789 5.61752 8.90355 5.25651C8.1992 4.8955 7.3837 4.78536 6.60236 4.94572C5.82102 5.10607 5.12459 5.52649 4.63715 6.13208C4.18309 6.69609 3.93691 7.38793 3.93701 8.09973Z" fill="url(#paint0_linear_4_88)"/>
<path d="M4.06128 8.09974C4.06146 8.83575 4.33488 9.54779 4.8328 10.109C5.33073 10.6702 6.02083 11.0442 6.78015 11.1642C7.53948 11.2842 8.31871 11.1426 8.97901 10.7645C9.63931 10.3864 10.1378 9.79636 10.3857 9.09957C10.6335 8.40278 10.6147 7.64447 10.3325 6.95973C10.0502 6.275 9.52297 5.70832 8.84462 5.36066C8.16627 5.01299 7.38088 4.90692 6.62838 5.06135C5.87589 5.21577 5.20515 5.62066 4.73569 6.20388C4.29823 6.74733 4.06111 7.41392 4.06128 8.09974Z" fill="white"/>
<path d="M5.48962 6.57294V7.77772" stroke="#1298FF" stroke-width="0.1" stroke-miterlimit="10"/>
<path d="M7.89761 7.67108L6.58203 8.50161" stroke="#1298FF" stroke-width="0.1" stroke-miterlimit="10"/>
<path d="M6.58203 5.82349L8.1217 6.43972" stroke="#1298FF" stroke-width="0.1" stroke-miterlimit="10"/>
<path d="M9.15748 7.88544L9.07385 9.75977" stroke="#1298FF" stroke-width="0.1" stroke-miterlimit="10"/>
<path d="M8.12186 10.3227L6.38599 9.49213" stroke="#1298FF" stroke-width="0.1" stroke-miterlimit="10"/>
<path d="M5.48962 9.62646V10.6733" stroke="#1298FF" stroke-width="0.1" stroke-miterlimit="10"/>
<path d="M4.84522 8.82258L4.08826 8.50165" stroke="#1298FF" stroke-width="0.1" stroke-miterlimit="10"/>
<path d="M9.07377 6.33201L9.01587 5.45636" stroke="#1298FF" stroke-width="0.1" stroke-miterlimit="10"/>
<path d="M9.57776 7.35022L10.517 7.60656" stroke="#1298FF" stroke-width="0.1" stroke-miterlimit="10"/>
<path d="M9.82967 7.35022L9.10166 6.14441L7.89758 6.33205V7.67115L9.18636 8.31404L9.82967 7.35022Z" fill="#1298FF"/>
<path d="M4.73572 6.20388L5.48625 6.57301C5.73822 6.25208 6.77288 5.8768 6.77288 5.8768L6.66566 5.05652C5.89874 5.20397 5.21336 5.61144 4.73572 6.20388Z" fill="#1298FF"/>
<path d="M6.77724 8.36735L5.46166 7.77777L4.73364 8.76928L5.48954 9.92075L6.77724 9.73311V8.36735Z" fill="#1298FF"/>
<path d="M7.89758 10.1587V11.1523C8.31913 11.0783 8.72119 10.9252 9.08058 10.7019C9.43997 10.4785 9.74959 10.1894 9.99157 9.85111L9.07378 9.49121L7.89758 10.1587Z" fill="#1298FF"/>
<defs>
<linearGradient id="paint0_linear_4_88" x1="7.31013" y1="11.3244" x2="7.31013" y2="4.87501" gradientUnits="userSpaceOnUse">
<stop stop-color="#808080" stop-opacity="0.25"/>
<stop offset="0.54" stop-color="#808080" stop-opacity="0.12"/>
<stop offset="1" stop-color="#808080" stop-opacity="0.1"/>
</linearGradient>
</defs>
</svg>
