<svg width="15" height="16" viewBox="0 0 15 16" fill="none" xmlns="http://www.w3.org/2000/svg">
<path d="M3.42646 3.15674L4.91778 1.66534C5.16429 1.41883 5.16429 1.0368 4.91778 0.790288C4.67127 0.543781 4.28924 0.543781 4.04273 0.790288L2.55141 2.28161L1.05993 0.790288C0.813426 0.543781 0.431388 0.543781 0.184881 0.790288C-0.0616268 1.0368 -0.0616268 1.41883 0.184881 1.66534L1.6762 3.15674L0.184881 4.64814C-0.0616268 4.89464 -0.0616268 5.27668 0.184881 5.52319C0.308134 5.64644 0.468334 5.7081 0.616238 5.7081C0.764143 5.7081 0.936668 5.64644 1.0476 5.52319L2.53907 4.03187L4.03039 5.52319C4.15364 5.64644 4.31384 5.7081 4.46175 5.7081C4.60965 5.7081 4.78218 5.64644 4.89311 5.52319C5.13961 5.27668 5.13961 4.89464 4.89311 4.64814L3.40178 3.15674H3.42646Z" fill="#1498FF"/>
<path d="M14.8151 3.62519L11.9925 0.802706C11.9925 0.802706 11.8694 0.704046 11.7954 0.66707C11.6475 0.605443 11.475 0.605443 11.3271 0.66707C11.2531 0.704046 11.1791 0.741079 11.1298 0.802706L8.30727 3.62519C8.06076 3.8717 8.06076 4.25381 8.30727 4.50032C8.43053 4.62357 8.59072 4.68515 8.73863 4.68515C8.88653 4.68515 9.05921 4.62357 9.17014 4.50032L10.9449 2.72546V6.41073C10.9449 7.13793 10.8463 8.96209 9.84794 9.96045C9.50283 10.3056 9.08388 10.515 8.57854 10.6013C8.25808 8.54298 6.48315 6.95305 4.33854 6.95305C1.95974 6.95305 0.0246582 8.88814 0.0246582 11.2669C0.0246582 13.6457 1.95974 15.5808 4.33854 15.5808C6.52013 15.5808 8.30725 13.9415 8.59073 11.8462C9.42886 11.7476 10.1562 11.4148 10.7231 10.8478C11.9927 9.566 12.1898 7.53229 12.1775 6.43533V2.75006L13.9524 4.52492C14.0756 4.64817 14.2358 4.70983 14.3837 4.70983C14.5317 4.70983 14.7042 4.64817 14.8151 4.52492C15.0616 4.27841 15.0616 3.89637 14.8151 3.64986V3.62519ZM4.3262 14.3359C2.6253 14.3359 1.24486 12.9555 1.24486 11.2546C1.24486 9.5537 2.6253 8.17325 4.3262 8.17325C6.0271 8.17325 7.40754 9.5537 7.40754 11.2546C7.40754 12.9555 6.0271 14.3359 4.3262 14.3359Z" fill="#375E7D"/>
</svg>
