<svg width="15" height="16" viewBox="0 0 15 16" fill="none" xmlns="http://www.w3.org/2000/svg">
<path d="M0 0.280823V15.2808H15V0.280823H0ZM7.31997 14.6808H0.6V7.96078H7.31997V14.6808ZM7.31997 7.60079H0.6V0.880823H7.31997V7.60079Z" fill="#365E7D"/>
<path d="M9.52791 3.35284H8.86799V4.33685H7.88391V4.98483H8.86799V5.99286H9.52791V4.98483H10.512V4.33685H9.52791V3.35284Z" fill="white"/>
<path d="M11.544 3.2328C11.688 3.1848 11.844 3.14886 11.988 3.14886C12.156 3.14886 12.2879 3.18482 12.3839 3.25682C12.4799 3.32882 12.5159 3.43684 12.5159 3.56884C12.5159 3.67684 12.492 3.78486 12.432 3.89286C12.372 4.00086 12.276 4.12086 12.132 4.26486L10.98 5.46486V6.19684H13.632V5.39286H12.18L12.804 4.78085C13.056 4.54085 13.224 4.32485 13.332 4.10885C13.44 3.89285 13.488 3.67685 13.488 3.43685C13.488 3.07685 13.3679 2.80085 13.1399 2.60885C12.9119 2.41685 12.576 2.32086 12.132 2.32086C11.88 2.32086 11.64 2.35683 11.4 2.44083C11.16 2.51283 10.956 2.62084 10.788 2.75284L11.1 3.47282C11.256 3.35282 11.4 3.26886 11.556 3.22086L11.544 3.2328Z" fill="white"/>
<path d="M10.488 11.4888H8.724V12.2328H10.488V11.4888Z" fill="white"/>
<path d="M12.18 12.5448L12.804 11.9328C13.056 11.6928 13.224 11.4768 13.332 11.2608C13.44 11.0448 13.488 10.8288 13.488 10.5888C13.488 10.2288 13.3679 9.95277 13.1399 9.76077C12.9119 9.56877 12.576 9.47278 12.132 9.47278C11.88 9.47278 11.64 9.50882 11.4 9.59282C11.16 9.66482 10.956 9.77276 10.788 9.90476L11.1 10.6248C11.256 10.5048 11.4 10.4208 11.556 10.3728C11.7 10.3248 11.856 10.2888 12 10.2888C12.168 10.2888 12.2999 10.3248 12.3959 10.3968C12.4919 10.4688 12.5279 10.5768 12.5279 10.7088C12.5279 10.8168 12.504 10.9248 12.444 11.0328C12.384 11.1408 12.288 11.2608 12.144 11.4048L10.992 12.6048V13.3368H13.644V12.5328H12.192L12.18 12.5448Z" fill="white"/>
<path d="M5.96401 3.58081H1.73999V4.78081H5.96401V3.58081Z" fill="#1298FF"/>
<path d="M6.00002 10.7808H1.776V11.9808H6.00002V10.7808Z" fill="#1298FF"/>
</svg>
