<svg width="15" height="17" viewBox="0 0 15 17" fill="none" xmlns="http://www.w3.org/2000/svg">
<path d="M13.4457 0H0.970417C0.434469 0 0 0.415517 0 0.92805V14.8285C0 15.341 0.434469 15.7565 0.970417 15.7565H13.4457C13.9817 15.7565 14.4162 15.341 14.4162 14.8285V0.92805C14.4162 0.415517 13.9817 0 13.4457 0Z" fill="white"/>
<path d="M13.7389 16.3123H1.26102C0.565642 16.3123 0 15.7714 0 15.1064V1.20596C0 0.540959 0.565642 0 1.26102 0H13.7389C14.4343 0 15 0.540959 15 1.20596V15.1064C15 15.7714 14.4343 16.3123 13.7389 16.3123ZM1.26102 0.555818C0.887385 0.555818 0.583808 0.846162 0.583808 1.20347V15.1039C0.583808 15.4612 0.887385 15.7516 1.26102 15.7516H13.7389C14.1126 15.7516 14.4162 15.4612 14.4162 15.1039V1.20347C14.4162 0.846162 14.1126 0.555818 13.7389 0.555818H1.26102Z" fill="#365E7D"/>
<path d="M9.00348 14.9501H6.25829C6.06888 14.9501 5.91577 14.8037 5.91577 14.6226C5.91577 14.4414 6.06888 14.295 6.25829 14.295H9.00348C9.19289 14.295 9.34599 14.4414 9.34599 14.6226C9.34599 14.8037 9.19289 14.9501 9.00348 14.9501Z" fill="#365E7D"/>
<path d="M1.81885 1.59058V13.0792L13.4898 1.59058H1.81885Z" fill="#365E7D"/>
<path d="M1.81885 13.0792H13.4898V1.59058L1.81885 13.0792Z" fill="#365E7D"/>
<g clip-path="url(#clip0_5_342)">
<path d="M8.93854 5.02706C8.74613 5.04188 8.61654 5.17761 8.62128 5.36353C8.62179 5.44266 8.63552 5.44937 8.83683 5.47811C8.9608 5.4965 8.97907 5.49432 9.01374 5.45594C9.06281 5.40171 9.07885 5.40047 9.26497 5.43426C9.36936 5.45261 9.42718 5.45592 9.43535 5.44132C9.44081 5.42926 9.43199 5.37871 9.41515 5.32878C9.35522 5.144 9.14475 5.01195 8.93854 5.02706ZM9.34815 5.30987C9.35634 5.33563 9.35087 5.3477 9.33299 5.35528C9.29723 5.37046 9.25904 5.31984 9.27196 5.27538C9.28304 5.23727 9.33131 5.25994 9.34815 5.30987Z" fill="#1298FF"/>
<path d="M10.0106 5.56279C10.003 5.56869 10.0247 5.60053 10.0596 5.63364C10.1311 5.70049 10.2271 5.82941 10.1755 5.78691C10.0454 5.68191 9.9357 5.60656 9.86298 5.57025C9.75434 5.51765 9.74222 5.53913 9.83159 5.6244L9.89524 5.685L9.78097 5.6648C9.5625 5.62972 9.44818 5.65595 9.59557 5.70864C9.66752 5.73435 9.75078 5.81401 9.98794 6.08285C10.0898 6.19838 10.1812 6.29644 10.1917 6.3002C10.2023 6.30397 10.2357 6.30217 10.2653 6.29382C10.369 6.27068 10.629 6.25693 10.8288 6.26299C10.8614 6.26431 10.861 6.25901 10.8322 6.19194L10.8008 6.12051L10.8841 6.07457L10.9691 6.02927L10.8582 6.02403L10.7495 6.01787L10.8256 5.98313C10.899 5.95089 10.9017 5.9484 10.8564 5.94425C10.8305 5.94014 10.7671 5.93813 10.7134 5.93614C10.5404 5.93108 10.5246 5.92543 10.4222 5.82517C10.2927 5.69805 10.043 5.53824 10.0106 5.56279Z" fill="white"/>
<path d="M9.18574 5.45861C9.0356 5.43673 9.0255 5.44388 9.00214 5.58676C8.96463 5.81998 8.9704 5.83468 9.08943 5.82549C9.16197 5.81749 9.28839 5.75513 9.31528 5.71081C9.32868 5.69224 9.34609 5.63909 9.35522 5.59376C9.37057 5.52004 9.3693 5.51058 9.32848 5.49221C9.30306 5.48302 9.23943 5.46721 9.18574 5.45861Z" fill="white"/>
<path d="M8.78874 5.53842C8.73901 5.53284 8.6924 5.53017 8.68564 5.53304C8.66809 5.53911 8.7101 5.6394 8.75084 5.6896C8.77121 5.71469 8.81653 5.75591 8.85352 5.77815L8.91811 5.82101L8.92978 5.73304C8.93791 5.68456 8.9479 5.62967 8.95395 5.6088C8.96604 5.56708 8.93433 5.55384 8.78874 5.53842Z" fill="white"/>
<path d="M9.42684 5.83596C9.3382 5.83197 9.31908 5.8373 9.34989 5.85885C9.36311 5.86709 9.40799 5.90068 9.45156 5.93205L9.53163 5.99225L9.40535 5.98344C9.27684 5.97557 9.1121 5.99826 9.10429 6.02509C9.10153 6.03456 9.1487 6.06026 9.21055 6.08251L9.31918 6.12509L9.21524 6.0999C9.08918 6.07023 8.87521 6.09439 8.90051 6.13488C8.90266 6.14089 8.9622 6.17103 9.0315 6.2012L9.15551 6.25803L9.03078 6.2707C8.90958 6.28464 8.78418 6.31974 8.77682 6.34499C8.77452 6.35289 8.81647 6.36972 8.86909 6.38343L8.96327 6.40859L8.9023 6.43025C8.852 6.44878 8.8232 6.44713 8.74368 6.41852C8.6624 6.38928 8.64689 6.38893 8.63953 6.41418C8.63217 6.43944 8.65023 6.45117 8.82816 6.52391C9.1125 6.64017 9.24007 6.73839 9.54559 7.07677C9.77833 7.33665 10.0278 7.47873 10.287 7.50048C10.4208 7.51026 10.6108 7.48795 10.6186 7.46111C10.6283 7.42796 10.5925 7.41683 10.52 7.43088C10.4138 7.4537 10.2618 7.44609 10.1305 7.41452C10.0195 7.38679 10.0164 7.38394 10.0107 7.33654C10.0083 7.31126 10.0114 7.26704 10.0188 7.24179C10.0289 7.20706 10.0233 7.19283 9.99675 7.1833C9.97731 7.1763 9.96325 7.16427 9.96601 7.1548C9.96831 7.14691 10.0329 7.07945 10.1103 7.00791L10.25 6.87681L10.3344 6.94903C10.3814 6.98862 10.4744 7.09182 10.5409 7.17852C10.6056 7.26459 10.6647 7.33644 10.6718 7.33898C10.6788 7.34152 10.7162 7.33402 10.7553 7.32021L10.826 7.29857L10.7626 7.22167C9.84146 6.08804 9.67758 5.90003 9.5698 5.86124C9.53223 5.84947 9.46763 5.83669 9.42684 5.83596Z" fill="white"/>
<path d="M8.07171 5.44972C7.77597 5.42278 7.36802 5.48951 7.24569 5.58317C7.16324 5.64407 7.13815 5.7583 7.17494 5.88943C7.20949 6.01431 7.22041 6.0255 7.50077 6.29347L7.71652 6.49824L7.61841 6.87078C7.51554 7.25974 7.51381 7.29356 7.57827 7.37121C7.62186 7.4232 7.7281 7.46154 7.79076 7.44789C7.89442 7.42546 7.90666 7.39724 8.02765 6.94593C8.08889 6.7142 8.1394 6.49854 8.13882 6.4657C8.13616 6.41216 8.12844 6.40393 8.0178 6.34588C7.75495 6.2057 7.71982 6.18033 7.69375 6.12378C7.65062 6.02844 7.6814 5.98516 7.92382 5.79161C8.04941 5.69369 8.1629 5.60954 8.17858 5.60432C8.19426 5.5991 8.23838 5.60052 8.27644 5.60881C8.33378 5.62044 8.35019 5.63361 8.38542 5.69347C8.43779 5.78489 8.42015 5.84561 8.31589 5.92583C8.2714 5.96055 8.23751 5.99364 8.24157 6.00055C8.25783 6.02817 8.47152 5.98924 8.52755 5.94963C8.64192 5.86943 8.62829 5.72127 8.49492 5.59519C8.40251 5.50926 8.28663 5.46926 8.07171 5.44972Z" fill="white"/>
<path d="M10.6819 6.32896C10.5293 6.32509 10.3904 6.33503 10.2537 6.35811L10.1729 6.37138L10.3246 6.5553C10.4054 6.65705 10.5579 6.84481 10.6586 6.97319C10.7616 7.10062 10.8572 7.20592 10.8711 7.20563C10.8867 7.20599 10.9358 7.17951 10.9827 7.14693L11.0692 7.08626L11.0399 6.98367C11.0027 6.86056 10.8345 6.33283 10.8309 6.33154C10.8304 6.33315 10.762 6.33139 10.6819 6.32896ZM10.8213 6.64998C10.8451 6.6904 10.8249 6.73265 10.7801 6.73767C10.7335 6.74205 10.7145 6.72631 10.7002 6.67341C10.6834 6.60898 10.7857 6.58935 10.8213 6.64998Z" fill="white"/>
<path d="M8.22038 5.60747C8.17522 5.60704 7.7406 5.94463 7.72715 5.991C7.72205 6.00859 7.72796 6.04252 7.74021 6.06815C7.75681 6.10595 7.82168 6.14705 8.14808 6.32508C8.50874 6.52078 8.53989 6.53557 8.58784 6.52639C8.65414 6.51502 8.68649 6.45782 8.66476 6.39697C8.64481 6.33676 8.6497 6.34029 8.33484 6.16998C8.19566 6.09318 8.07826 6.02955 8.0774 6.02571C8.07608 6.02347 8.13609 5.97272 8.21228 5.91369C8.28894 5.85307 8.3549 5.78857 8.36271 5.76843C8.37431 5.72846 8.32304 5.6269 8.28515 5.61497C8.27267 5.61046 8.24409 5.6072 8.22038 5.60747Z" fill="white"/>
<path d="M10.9502 7.22661C10.9057 7.25689 10.8196 7.30065 10.7607 7.32573L10.6506 7.36976L10.7163 7.43099C10.777 7.48866 10.7824 7.49061 10.8348 7.48104C10.9225 7.46637 10.9927 7.43647 11.036 7.39681C11.071 7.36489 11.0748 7.35197 11.066 7.27923C11.0611 7.23462 11.0516 7.19193 11.0458 7.18449C11.0378 7.178 10.9965 7.19698 10.9502 7.22661Z" fill="white"/>
<path d="M8.58797 6.78752C8.55097 6.80733 8.54959 6.81207 8.55695 6.91411C8.58101 7.20002 8.51857 7.57512 8.42403 7.71199C8.36549 7.79904 8.25715 7.85596 8.15117 7.85794C7.87844 7.86269 7.45304 7.75497 7.22124 7.61926C7.05774 7.52382 6.96783 7.43043 6.94979 7.33153C6.93222 7.23105 6.94601 7.1837 7.02007 7.097C7.10043 7.00211 7.10188 6.99042 7.03297 6.96563C6.89869 6.91732 6.54963 6.92948 6.12641 6.99518C6.00561 7.01449 5.93026 7.01179 5.72395 6.9829C5.19842 6.91064 5.1041 6.89938 5.02069 6.90424C4.975 6.90698 4.82472 6.94707 4.68811 6.99383C4.2396 7.14633 3.99103 7.21557 3.84903 7.22726L3.71102 7.23863L3.74162 7.28103C3.80281 7.36582 4.07638 7.49215 4.23361 7.50861C4.28676 7.51378 4.38413 7.48779 4.59114 7.40708C4.74916 7.3471 4.94097 7.27836 5.01968 7.25611C5.22202 7.19813 5.53727 7.15462 5.71101 7.16133L5.78013 7.16528L5.72156 7.3395C5.66154 7.52541 5.64988 7.66594 5.67498 7.89468C5.68626 8.00336 5.78136 8.27996 5.85734 8.43459L5.90032 8.52154L5.6187 8.65736C5.32547 8.79947 5.28709 8.82402 5.27283 8.87295C5.26317 8.90609 5.50571 9.75536 5.54492 9.82178C5.56583 9.8572 5.59887 9.87781 5.7234 9.9261C5.86998 9.98581 5.8815 9.98647 5.946 9.96609C6.03407 9.93849 6.06237 9.86148 6.01355 9.78114C5.98917 9.7375 5.96497 9.72007 5.88899 9.69274L5.79535 9.65904L5.71276 9.373C5.66651 9.21686 5.63025 9.08001 5.62947 9.06927C5.63047 9.05917 5.8329 9.03435 6.07828 9.01627C6.32411 8.99661 6.55405 8.97123 6.58829 8.96088C6.66393 8.93578 6.78291 8.83561 6.84192 8.74698C6.88113 8.68611 6.88534 8.66495 6.88141 8.53102C6.8796 8.45016 6.86546 8.31778 6.8499 8.2372C6.82501 8.1149 6.82661 8.08932 6.85149 8.08432C6.86792 8.08152 6.88567 8.08093 6.89097 8.08283C6.90687 8.08855 6.94487 8.31322 6.96535 8.51763C6.96768 8.54985 6.9739 8.5486 7.01995 8.51112C7.10041 8.44939 7.26918 8.37933 7.38283 8.36443C7.61637 8.33337 8.00058 8.39488 8.33982 8.51693C8.49 8.57097 8.55238 8.58469 8.74416 8.60313C8.97228 8.62417 9.24939 8.62448 9.25583 8.60239C9.25813 8.59449 9.21966 8.4987 9.16983 8.38835C9.09099 8.21003 9.0846 8.18506 9.11355 8.17281C9.1425 8.16056 9.15995 8.18776 9.25832 8.40624C9.3203 8.54189 9.39713 8.70031 9.42712 8.75818L9.48409 8.86412L9.43288 8.8858C9.39725 8.90088 9.37615 8.92642 9.36373 8.96903C9.3458 9.03058 9.34357 9.03152 9.23543 9.02749C9.1663 9.02354 9.10171 9.01076 9.06775 8.99332C8.97118 8.94288 8.87327 8.9774 8.8466 9.06894C8.83465 9.10998 8.91575 9.24029 8.97568 9.2758C9.00872 9.29641 9.12386 9.30994 9.35873 9.3212C9.94852 9.3538 9.95474 9.35255 9.98325 9.2547C9.99429 9.21682 9.95834 9.09229 9.7983 8.62319C9.77806 8.56534 9.7763 8.56471 9.93224 8.74636C10.0304 8.8584 10.0365 8.87105 10.0048 8.88582C9.97451 8.90281 9.97436 8.91671 10.0139 9.03556C10.0375 9.10858 10.0644 9.17055 10.071 9.17467C10.0975 9.18421 10.3926 9.11601 10.4292 9.09083C10.4774 9.05935 10.4908 9.01358 10.4688 8.95509C10.4601 8.93107 10.3218 8.76272 10.1623 8.57979L9.87357 8.25096L9.90062 8.0375C9.94121 7.71731 9.94237 7.73342 9.88759 7.71371C9.76745 7.67048 9.55644 7.49691 9.39919 7.31304C9.21173 7.09215 9.00103 6.9309 8.76887 6.82993C8.64441 6.77469 8.62406 6.77086 8.58797 6.78752Z" fill="white"/>
</g>
<defs>
<clipPath id="clip0_5_342">
<rect width="9.18635" height="9.18635" fill="white" transform="translate(2.62463 2.62469)"/>
</clipPath>
</defs>
</svg>
