<svg width="15" height="16" viewBox="0 0 15 16" fill="none" xmlns="http://www.w3.org/2000/svg">
<path d="M2.72608 0.288114V0.661545H0V2.41671H2.72608V3.94789H0V5.70305H2.72608V7.23416H0V8.9894H2.72608V10.5205H0V12.2757H2.72608V13.8068H0V15.562H2.72608V15.9354H15V0.250732H2.72608V0.288114ZM14.2531 15.226H3.47295V1.03498H14.2531V15.226Z" fill="#365E7D"/>
<path d="M7.43152 5.55371H5.00403V10.5455H6.1867V9.00189H7.43152C7.69293 9.01434 7.95428 8.92718 8.141 8.75291C8.31528 8.55374 8.4025 8.30476 8.39006 8.04335V6.52463C8.4025 6.26322 8.31528 6.00187 8.141 5.81515C7.94183 5.64088 7.69293 5.54127 7.43152 5.56617M7.21985 7.79437C7.21985 7.88151 7.17007 7.95622 7.08293 7.96867C7.07049 7.96867 7.05799 7.96867 7.03309 7.96867H6.17424V6.59932H7.03309C7.12023 6.59932 7.19494 6.64917 7.20739 6.73631C7.20739 6.74875 7.20739 6.76118 7.20739 6.78607V7.80683L7.21985 7.79437Z" fill="#1298FF"/>
<path d="M11.8755 7.65749C12.3983 7.73218 12.7718 8.19273 12.7221 8.71556V9.61187C12.7345 9.87328 12.6473 10.1347 12.473 10.3214C12.2738 10.4957 12.0249 10.5828 11.7635 10.5703H10.2698C10.0084 10.5828 9.74688 10.4957 9.56016 10.3214C9.38588 10.1223 9.29881 9.87328 9.31125 9.61187V8.95208H10.4813V9.36289C10.4813 9.36289 10.4813 9.38776 10.4813 9.41265C10.4813 9.49979 10.5685 9.56209 10.6556 9.54964H11.3651C11.3651 9.54964 11.39 9.54964 11.4149 9.54964C11.5021 9.54964 11.5643 9.46249 11.5518 9.37535V8.81516C11.5518 8.71558 11.4896 8.62847 11.39 8.61603L10.1452 8.34213C9.62236 8.26744 9.26145 7.80688 9.29879 7.28406V6.48736C9.28635 6.22594 9.37342 5.96452 9.5477 5.7778C9.74687 5.60352 9.99592 5.51637 10.2573 5.52882H11.7137C11.9751 5.51637 12.2366 5.60352 12.4233 5.7778C12.5976 5.97697 12.6847 6.22594 12.6722 6.48736V7.08485H11.5022V6.73633C11.5022 6.73633 11.5022 6.71139 11.5022 6.68649C11.5022 6.59936 11.415 6.53713 11.3279 6.54958H10.6556C10.6556 6.54958 10.6307 6.54958 10.6058 6.54958C10.5186 6.54958 10.4564 6.63674 10.4689 6.72387V7.18445C10.4689 7.28404 10.5311 7.37114 10.6307 7.38359L11.8755 7.65749Z" fill="#365E7D"/>
</svg>
