<svg width="15" height="17" viewBox="0 0 15 17" fill="none" xmlns="http://www.w3.org/2000/svg">
<path d="M13.7663 16.9369H1.23367C0.551262 16.9369 0 16.3858 0 15.7034V1.85829C0 1.17588 0.551262 0.624695 1.23367 0.624695H13.7663C14.4487 0.624695 15 1.17588 15 1.85829V15.7034C15 16.3858 14.4487 16.9369 13.7663 16.9369ZM1.23367 1.18899C0.866221 1.18899 0.564372 1.49082 0.564372 1.84515V15.6902C0.564372 16.0577 0.866221 16.3595 1.23367 16.3595H13.7663C14.1338 16.3595 14.4225 16.0577 14.4225 15.6902V1.84515C14.4225 1.4777 14.1207 1.18899 13.7663 1.18899H1.23367ZM1.65355 2.21264V13.6955H13.3333V2.21264H1.65355ZM7.61158 11.6745C7.61158 11.7532 7.58527 11.8189 7.5459 11.8451C7.50653 11.8713 7.4409 11.8845 7.37529 11.8845H6.46986C6.3255 11.8845 6.2467 11.8188 6.2467 11.6745V10.5853C6.2467 10.441 6.3255 10.3622 6.46986 10.3622H7.37529C7.53277 10.3622 7.61158 10.441 7.61158 10.5853V11.6745ZM9.77695 6.79266C9.77695 7.44883 9.59317 7.94753 9.22572 8.28874C8.85826 8.62994 8.2939 8.80048 7.51962 8.80048V9.71913H6.33866V7.6063H7.08661C7.45407 7.6063 7.72966 7.5538 7.91339 7.43569C8.11024 7.31758 8.20206 7.09447 8.20206 6.76639V6.42517C8.20206 6.05772 8.0971 5.80843 7.90025 5.66408C7.7034 5.51972 7.40164 5.44092 6.99482 5.44092C6.69298 5.44092 6.39108 5.46718 6.10237 5.5328C5.81365 5.59841 5.52487 5.67716 5.20991 5.78214V4.62728C5.4855 4.45668 5.81358 4.31238 6.19416 4.19427C6.57473 4.07616 6.9948 4.02366 7.46724 4.02366C7.97905 4.02366 8.39896 4.11548 8.74016 4.2992C9.08137 4.48293 9.33065 4.73229 9.50126 5.06038C9.67186 5.38846 9.75068 5.75588 9.75068 6.17582V6.8058L9.77695 6.79266Z" fill="#365E7D"/>
<path d="M8.83196 15.2309C8.83196 15.0472 8.67447 14.8897 8.49074 14.8897H5.86608C5.68236 14.8897 5.52502 15.0472 5.52502 15.2309C5.52502 15.4147 5.68236 15.5721 5.86608 15.5721H8.49074C8.67447 15.5721 8.83196 15.4147 8.83196 15.2309Z" fill="#1298FF"/>
</svg>
