<svg width="15" height="16" viewBox="0 0 15 16" fill="none" xmlns="http://www.w3.org/2000/svg">
<path d="M7.49996 14.3318C10.9608 14.3318 13.7664 11.5262 13.7664 8.06528C13.7664 4.60439 10.9608 1.79877 7.49996 1.79877C4.03907 1.79877 1.23352 4.60439 1.23352 8.06528C1.23352 11.5262 4.03907 14.3318 7.49996 14.3318Z" fill="#365E7D"/>
<path d="M7.5 0.552856C3.36757 0.552856 0 3.9205 0 8.05293C0 12.1854 3.36757 15.553 7.5 15.553C11.6324 15.553 15 12.1854 15 8.05293C15 3.9205 11.6324 0.552856 7.5 0.552856ZM7.5 14.8128C3.77464 14.8128 0.752454 11.7906 0.752454 8.06528C0.752454 4.33992 3.77464 1.31766 7.5 1.31766C11.2254 1.31766 14.2475 4.33992 14.2475 8.06528C14.2475 11.7906 11.2254 14.8128 7.5 14.8128Z" fill="#365E7D"/>
<path d="M1.23352 8.06528C1.23352 11.5193 4.04599 14.3318 7.49996 14.3318V1.79877C4.04599 1.79877 1.23352 4.61131 1.23352 8.06528Z" fill="#1298FF"/>
<path d="M13.7664 8.06528C13.7664 4.61131 10.954 1.79877 7.5 1.79877V14.3318C10.954 14.3318 13.7664 11.5193 13.7664 8.06528Z" fill="#365E7D"/>
<path d="M10.2755 9.02743C10.2139 8.81773 10.1152 8.64505 9.99185 8.50936C9.8685 8.36133 9.74506 8.25035 9.59703 8.164C9.449 8.07765 9.30098 8.01594 9.14062 7.97894C9.35032 7.92959 9.52309 7.83093 9.67112 7.69524C9.81914 7.55955 9.9302 7.37445 10.0166 7.16474C10.1029 6.9427 10.1399 6.69601 10.1399 6.41229C10.1399 5.80784 9.97948 5.35142 9.64642 5.01836C9.38737 4.75931 8.98037 4.63597 8.48695 4.57429L8.43755 3.22975L7.61101 3.42709L7.64806 4.51263H6.51313L6.46389 3.21741L5.63735 3.41474L5.67439 4.50028H5.24267H4.6012V5.79551H5.24267V10.3844H4.6012V11.6796H5.64969L5.68674 12.8392L6.51313 12.6418L6.47623 11.6796H7.61101L7.64806 12.8392L8.4746 12.6418L8.43755 11.6549C8.79529 11.6303 9.11603 11.5809 9.37507 11.4822C9.6958 11.3589 9.94247 11.1492 10.1028 10.8532C10.2632 10.5571 10.3495 10.1747 10.3495 9.69361C10.3495 9.43456 10.3125 9.18784 10.2509 8.99047L10.2755 9.02743ZM6.71054 5.8202H8.09212C8.28949 5.8202 8.44988 5.88191 8.58558 6.00527C8.72127 6.12862 8.78299 6.35063 8.78299 6.65902C8.78299 6.90573 8.72128 7.10307 8.59792 7.2511C8.47457 7.39913 8.31417 7.47313 8.10447 7.47313H6.71054V5.80786V5.8202ZM8.90631 10.0266C8.8323 10.1623 8.74598 10.2611 8.62262 10.3227C8.49926 10.3844 8.35112 10.4214 8.19075 10.4214H6.71054V8.59572H8.19075C8.35112 8.59572 8.49926 8.63268 8.62262 8.7067C8.74598 8.78071 8.84465 8.87946 8.91866 9.00281C8.99268 9.12617 9.02964 9.28648 9.02964 9.48385C9.02964 9.70589 8.99269 9.89092 8.93101 10.0266H8.90631Z" fill="white"/>
</svg>
