<svg width="150" height="150" viewBox="0 0 150 150" fill="none" xmlns="http://www.w3.org/2000/svg">
<path d="M128.032 21.9688L21.9685 128.032C51.2598 157.323 98.7402 157.323 128.032 128.032C157.323 98.7403 157.323 51.2601 128.032 21.9688Z" fill="#1298FF"/>
<path d="M128.032 21.9687C98.7402 -7.32259 51.2598 -7.32259 21.9685 21.9687C-7.32283 51.2601 -7.32283 98.7403 21.9685 128.032L128.032 21.9687Z" fill="#79C4FF"/>
<g clip-path="url(#clip0_4_20)">
<path d="M104.314 36.7793C102.095 36.9893 99.3061 37.4691 97.2668 37.9789C96.2772 38.2338 95.3175 38.4887 95.1376 38.5187C94.7328 38.6087 94.7178 38.6836 95.0327 40.1831C95.8723 44.3215 98.7963 48.6849 102.74 51.6688C104.809 53.2432 108.498 54.8177 110.777 55.1176L111.557 55.2075L111.856 54.0529C112.906 50.1244 113.296 46.9906 113.296 42.2973L113.311 38.4737L112.906 37.8589C112.246 36.8543 111.781 36.7193 108.588 36.6744C107.058 36.6594 105.139 36.7044 104.314 36.7793Z" fill="#365E7D"/>
<path d="M89.0948 40.7978C78.7936 45.4311 69.3021 53.3781 60.6503 64.654C58.4611 67.5179 53.8578 74.3704 53.8578 74.7902C53.8578 74.8652 54.9824 76.0498 56.3469 77.4143L58.8359 79.9033L60.2154 79.4535C61.8498 78.9287 64.5188 78.7338 65.8683 79.0487C69.1521 79.8284 71.1014 82.4074 71.1014 85.9761C71.1014 87.3856 70.8315 88.975 70.3667 90.3395L70.0818 91.1492L72.6758 93.7432C74.3402 95.4076 75.3448 96.3073 75.4798 96.2473C75.9146 96.0824 81.3276 92.5287 83.3519 91.1042C86.9506 88.5252 90.8641 85.3163 93.818 82.4974C101.06 75.6149 106.158 68.6275 109.352 61.2802L110.072 59.6308L108.468 59.241C102.635 57.7865 97.5217 54.1429 94.0279 48.9248C92.3636 46.4507 91.224 43.8866 90.6692 41.3676C90.5342 40.7378 90.3993 40.213 90.3843 40.213C90.3843 40.213 89.7995 40.4829 89.0948 40.7978ZM88.8998 53.1232C92.8434 54.1728 95.8723 57.2167 96.9069 61.1753C97.2967 62.6297 97.3267 65.0438 96.9818 66.5283C96.8469 67.0981 96.4121 68.2227 96.0372 69.0024C95.4374 70.2019 95.1225 70.6368 93.968 71.7763C92.4235 73.3208 91.4489 73.9505 89.5896 74.5803C87.1755 75.42 84.0866 75.3 81.6875 74.2954C78.2538 72.8709 75.6147 69.5722 74.985 65.9435C74.7451 64.504 74.88 62 75.2999 60.6804C77.0992 54.9076 83.097 51.5638 88.8998 53.1232Z" fill="white"/>
<path d="M84.9863 57.3218C81.7775 57.8016 79.3484 60.6655 79.3484 63.9643C79.3484 67.683 82.3323 70.6519 86.0959 70.6519C88.9448 70.6519 91.6888 68.6126 92.4685 65.8986C92.7534 64.909 92.7984 63.1846 92.5435 62.255C91.6588 58.9562 88.39 56.812 84.9863 57.3218Z" fill="#C4D3DF"/>
<path d="M52.4334 61.4902C50.3191 62.015 48.2349 62.9747 46.2856 64.3242C45.5059 64.864 43.6466 66.5883 40.9326 69.2873C37.109 73.1109 36.7791 73.4708 36.6892 74.0556C36.5692 74.8503 36.7941 75.585 37.3339 76.1098C38.0237 76.7696 38.5635 76.8296 40.1979 76.4847C40.9926 76.3198 42.1771 76.0798 42.8369 75.9599C44.0964 75.735 46.9154 75.645 47.5602 75.8249C47.92 75.9149 48.01 75.7949 49.0596 73.9956C51.2038 70.307 53.6029 66.6483 56.002 63.4095C56.8117 62.2999 57.1566 61.7451 57.0516 61.6402C56.5718 61.1603 54.0977 61.0854 52.4334 61.4902Z" fill="#365E7D"/>
<path d="M50.0643 81.4178C48.3849 84.6266 47.5602 86.381 47.5602 86.8158C47.5602 87.3406 47.92 88.0754 48.3999 88.5252L48.8347 88.9301L49.8843 87.7005C50.4691 87.0258 51.8186 85.5713 52.9132 84.4467L54.8925 82.4075L53.1381 80.6531L51.3838 78.9138L50.0643 81.4178Z" fill="#365E7D"/>
<path d="M62.5546 83.4721C61.8498 83.607 60.9052 83.9369 60.0055 84.3868C58.701 85.0315 58.4161 85.2414 56.5568 87.1307C50.9789 92.7837 45.6108 100.146 45.6108 102.155C45.6108 104.149 47.3502 104.959 49.4044 103.925C51.5337 102.845 54.9824 100.446 57.6814 98.1667C59.8856 96.3073 64.009 92.4088 64.6088 91.6141C66.1982 89.5448 67.0229 86.7859 66.5431 85.1515C66.0783 83.5621 64.8637 83.0373 62.5546 83.4721Z" fill="#FF7805"/>
<path d="M87.1456 93.9082C85.4962 95.1678 79.4084 99.1863 76.7244 100.776L74.1904 102.29L74.1754 104.119C74.1754 105.184 74.0104 107.043 73.8155 108.513C73.3957 111.512 73.4407 112.022 74.1904 112.741C74.7902 113.311 75.5549 113.491 76.3346 113.266C77.0843 113.041 84.8214 105.259 85.8261 103.715C87.7304 100.806 88.66 98.0617 88.675 95.3927C88.675 94.0582 88.4951 93.1285 88.2402 93.1585C88.1652 93.1585 87.6854 93.5034 87.1456 93.9082Z" fill="#365E7D"/>
<path d="M66.2283 96.4422C65.4786 97.192 64.0241 98.5565 62.9745 99.4861L61.0702 101.165L61.55 101.675C62.1048 102.26 62.7946 102.59 63.4543 102.59C63.8742 102.59 67.6827 100.731 70.4567 99.1862L71.2364 98.7514L69.4071 96.9221L67.5778 95.0927L66.2283 96.4422Z" fill="#365E7D"/>
</g>
<defs>
<clipPath id="clip0_4_20">
<rect width="76.7716" height="76.7716" fill="white" transform="translate(36.6141 36.6144)"/>
</clipPath>
</defs>
</svg>
