<svg width="150" height="150" viewBox="0 0 150 150" fill="none" xmlns="http://www.w3.org/2000/svg">
<path d="M128.032 21.9685L21.9685 128.032C51.2599 157.323 98.7401 157.323 128.032 128.032C157.323 98.7402 157.323 51.2599 128.032 21.9685Z" fill="white"/>
<path d="M128.032 21.9685C98.7402 -7.32284 51.2599 -7.32284 21.9685 21.9685C-7.32284 51.2599 -7.32284 98.7402 21.9685 128.032L128.032 21.9685Z" fill="white"/>
<path d="M128.032 21.9685L21.9685 128.032C51.2599 157.323 98.7401 157.323 128.032 128.032C157.323 98.7402 157.323 51.2599 128.032 21.9685Z" fill="#1298FF"/>
<path d="M128.032 21.9685C98.7402 -7.32284 51.2599 -7.32284 21.9685 21.9685C-7.32284 51.2599 -7.32284 98.7402 21.9685 128.032L128.032 21.9685Z" fill="#79C4FF"/>
<path d="M111.921 37.6181H97.8071V112.441H111.921L97.8897 75.0354L111.921 37.6181Z" fill="#365E7D"/>
<path d="M97.8071 37.6181H49.4645V112.429H97.8071V37.6181Z" fill="white"/>
<path d="M48.3543 37.6181C47.5984 37.5118 43.181 36.9921 40.37 39.378C38.8464 40.6654 38.0787 42.5079 38.0787 44.8583V105.13C38.0787 107.48 38.8464 109.335 40.37 110.61C42.2243 112.169 44.7636 112.488 46.4999 112.488C47.0314 112.488 47.4803 112.453 47.8228 112.429H49.4763V37.6181H48.3661H48.3543Z" fill="#365E7D"/>
<path d="M61.6417 82.5709V69.9685L58.9133 70.3229V68.3385L61.9724 67.004H64.7243V82.5591H61.6417V82.5709Z" fill="#1298FF"/>
<path d="M71.2086 82.6536C70.3464 82.6536 69.6141 82.5 69.0118 82.2047C68.4094 81.9095 67.9487 81.4606 67.6417 80.8583C67.3346 80.2559 67.1692 79.5354 67.1692 78.6732V71.1732C67.1692 70.2756 67.3346 69.5079 67.6535 68.8937C67.9724 68.2795 68.4449 67.8071 69.0591 67.5C69.6732 67.1929 70.4055 67.0275 71.2323 67.0275H74.4448C75.3188 67.0275 76.0393 67.1929 76.618 67.5118C77.1968 67.8425 77.6339 68.3149 77.9173 68.9291C78.2126 69.5433 78.3543 70.2874 78.3543 71.1732V78.6732C78.3543 79.9606 78.0118 80.9527 77.3268 81.6259C76.6418 82.311 75.6732 82.6418 74.4448 82.6418H71.2204L71.2086 82.6536ZM71.9409 79.8779H73.6063C74.1732 79.8779 74.5984 79.7362 74.87 79.4646C75.1417 79.1929 75.2717 78.7677 75.2717 78.2126V71.4685C75.2717 70.8543 75.1298 70.4291 74.8582 70.1811C74.5747 69.933 74.2086 69.8032 73.7362 69.8032H71.8465C71.3268 69.8032 70.937 69.9449 70.6654 70.2165C70.3937 70.5 70.2638 70.9134 70.2638 71.4685V78.2008C70.2638 78.7795 70.4055 79.2166 70.7008 79.4764C70.9961 79.7481 71.4094 79.8779 71.9527 79.8779H71.9409Z" fill="#FF7805"/>
<path d="M82.8661 82.5709V69.9685L80.1378 70.3229V68.3385L83.1968 67.004H85.9488V82.5591H82.8661V82.5709Z" fill="#1298FF"/>
</svg>
