<svg width="150" height="150" viewBox="0 0 150 150" fill="none" xmlns="http://www.w3.org/2000/svg">
<path d="M128.031 21.9688L21.9684 128.032C51.2598 157.323 98.7401 157.323 128.031 128.032C157.323 98.7403 157.323 51.2601 128.031 21.9688Z" fill="#1298FF"/>
<path d="M128.032 21.9687C98.7402 -7.32259 51.2598 -7.32259 21.9685 21.9687C-7.32283 51.2601 -7.32283 98.7403 21.9685 128.032L128.032 21.9687Z" fill="#79C4FF"/>
<path d="M110.929 37.5002H54.6851V92.1852H110.929V37.5002Z" fill="white"/>
<path d="M49.2166 92.1852H54.6851V37.5002C46.0512 37.5002 39.0591 44.4923 39.0591 53.1262V101.563H39.1418C39.5433 96.3309 43.878 92.1852 49.2166 92.1852Z" fill="#C4D3DF"/>
<path d="M106.252 102.343C106.252 100.902 106.689 99.5553 107.445 98.4332H49.2284C47.067 98.4332 45.3189 100.181 45.3189 102.343C45.3189 104.504 47.067 106.252 49.2284 106.252H107.445C106.701 105.13 106.252 103.795 106.252 102.343Z" fill="url(#paint0_linear_1_63)"/>
<path d="M49.2166 106.24C47.0552 106.24 45.3071 104.492 45.3071 102.331C45.3071 100.169 47.0552 98.4214 49.2166 98.4214H110.941V92.1733H49.2166C43.6064 92.1733 39.0591 96.7206 39.0591 102.331C39.0591 107.941 43.6064 112.488 49.2166 112.488H110.941V106.24H49.2166Z" fill="#9BB7C6"/>
<path d="M65.1024 71.6221L70.1457 55.5474H74.2088L79.2519 71.6221H75.9095L74.8937 68.256H69.4134L68.4095 71.6221H65.1024ZM70.1693 65.3624H74.126L72.1536 58.2994L70.1812 65.3624H70.1693Z" fill="#365E7D"/>
<path d="M79.8779 66.6261V64.0159H86.5275V66.6261H79.8779Z" fill="#FF7805"/>
<path d="M90.7205 71.7522C89.8347 71.7522 89.1142 71.4923 88.5709 70.9726C88.0157 70.453 87.7441 69.7325 87.7441 68.7995V67.7601C87.7441 66.8743 88.0513 66.1537 88.6773 65.5749C89.3032 64.9962 90.2717 64.7127 91.5827 64.7127H94.5591V63.9097C94.5591 63.5435 94.4882 63.2482 94.3583 63.012C94.2284 62.7758 93.9803 62.5986 93.626 62.4923C93.2717 62.386 92.7284 62.3269 92.0079 62.3269H88.5119V60.4608C89.0788 60.2836 89.7283 60.1301 90.4724 60.0002C91.2165 59.8702 92.126 59.7993 93.1772 59.7993C94.1457 59.7993 94.9724 59.9175 95.6693 60.1419C96.3543 60.3781 96.8741 60.7679 97.2402 61.3348C97.5946 61.9017 97.7717 62.6813 97.7717 63.6852V71.6103H95.2323L94.7127 70.3703C94.6064 70.4884 94.4409 70.6182 94.1929 70.76C93.9449 70.9017 93.6496 71.0553 93.2953 71.2088C92.9409 71.3623 92.5393 71.4923 92.1023 71.5868C91.6653 71.6931 91.2048 71.7404 90.7205 71.7404V71.7522ZM92.3505 69.5081C92.4922 69.5081 92.6575 69.4962 92.8346 69.449C93.0118 69.4017 93.2009 69.3663 93.4017 69.3191C93.6025 69.2718 93.7796 69.2128 93.9449 69.1655C94.1103 69.1183 94.252 69.071 94.3583 69.0238C94.4646 68.9765 94.5355 68.953 94.5709 68.9412V66.2246L92.6103 66.3545C92.0433 66.4017 91.6299 66.5435 91.3582 66.7915C91.0866 67.0395 90.9567 67.3702 90.9567 67.7954V68.2797C90.9567 68.575 91.0158 68.8112 91.1457 69.0001C91.2638 69.1891 91.441 69.319 91.6418 69.4017C91.8544 69.4844 92.0906 69.5199 92.3505 69.5199V69.5081Z" fill="#365E7D"/>
<path d="M60.8268 37.5002V50.1853L68.622 46.2876L76.3701 50.1853V37.5002H60.8268Z" fill="#FF7805"/>
<g opacity="0.44">
<path d="M104.74 58.6182C104.291 58.6182 103.842 58.4411 103.5 58.0985L89.5983 44.1969C88.9133 43.5119 88.9133 42.4017 89.5983 41.7167C90.2834 41.0316 91.3937 41.0316 92.0787 41.7167L105.98 55.6183C106.665 56.3033 106.665 57.4135 105.98 58.0985C105.638 58.4411 105.189 58.6182 104.74 58.6182Z" fill="#C4D3DF"/>
<path d="M104.74 48.4961C104.291 48.4961 103.842 48.319 103.5 47.9765L98.811 43.2874C98.1259 42.6024 98.1259 41.4922 98.811 40.8071C99.496 40.1221 100.606 40.1221 101.291 40.8071L105.98 45.4961C106.665 46.1811 106.665 47.2914 105.98 47.9765C105.638 48.319 105.189 48.4961 104.74 48.4961Z" fill="#C4D3DF"/>
</g>
<defs>
<linearGradient id="paint0_linear_1_63" x1="45.3071" y1="102.343" x2="107.433" y2="102.343" gradientUnits="userSpaceOnUse">
<stop stop-color="white"/>
<stop offset="1" stop-color="#C4D3DF"/>
</linearGradient>
</defs>
</svg>
