<svg width="150" height="150" viewBox="0 0 150 150" fill="none" xmlns="http://www.w3.org/2000/svg">
<path d="M128.032 21.9688L21.9685 128.032C51.2599 157.323 98.7401 157.323 128.032 128.032C157.323 98.7404 157.323 51.2601 128.032 21.9688Z" fill="#1298FF"/>
<path d="M128.032 21.9688C98.7402 -7.3226 51.2599 -7.3226 21.9685 21.9688C-7.32284 51.2601 -7.32284 98.7404 21.9685 128.032L128.032 21.9688Z" fill="#79C4FF"/>
<path d="M56.2558 112.453C66.6014 112.453 74.9883 104.066 74.9883 93.7208C74.9883 83.3752 66.6014 74.9885 56.2558 74.9885C45.9103 74.9885 37.5236 83.3752 37.5236 93.7208C37.5236 104.066 45.9103 112.453 56.2558 112.453Z" fill="white"/>
<path d="M56.2558 114.331C44.8936 114.331 35.6456 105.083 35.6456 93.7325C35.6456 82.3821 44.8936 73.1222 56.2558 73.1222C67.618 73.1222 76.8662 82.3703 76.8662 93.7325C76.8662 105.095 67.618 114.331 56.2558 114.331ZM56.2558 76.8782C46.9605 76.8782 39.4016 84.4372 39.4016 93.7325C39.4016 103.028 46.9605 110.575 56.2558 110.575C65.5511 110.575 73.1102 103.016 73.1102 93.7325C73.1102 84.4491 65.5511 76.8782 56.2558 76.8782Z" fill="#365E7D"/>
<path d="M45.0235 94.8546C44.3975 94.8546 43.9015 94.3468 43.9015 93.7326C43.9015 86.9176 49.4408 81.3782 56.2558 81.3782C56.8818 81.3782 57.3779 81.8861 57.3779 82.5003C57.3779 83.1145 56.87 83.6223 56.2558 83.6223C50.6928 83.6223 46.1574 88.1578 46.1574 93.7208C46.1574 94.3468 45.6495 94.8428 45.0353 94.8428L45.0235 94.8546Z" fill="#FF7805"/>
<path d="M104.882 102.827L113.516 94.1933C114.083 93.6264 114.083 92.6933 113.516 92.1264C112.949 91.5594 112.016 91.5594 111.449 92.1264L102.815 100.76L94.1812 92.1264C93.6143 91.5594 92.6812 91.5594 92.1143 92.1264C91.5474 92.6933 91.5474 93.6264 92.1143 94.1933L100.748 102.827L92.1143 111.461C91.5474 112.028 91.5474 112.961 92.1143 113.528C92.3977 113.811 92.7756 113.953 93.1535 113.953C93.5315 113.953 93.8976 113.811 94.1929 113.528L102.827 104.894L111.461 113.528C111.744 113.811 112.122 113.953 112.5 113.953C112.878 113.953 113.244 113.811 113.539 113.528C114.106 112.961 114.106 112.028 113.539 111.461L104.906 102.827H104.882Z" fill="white"/>
<path d="M49.6771 47.1617L58.3109 38.5279C58.8778 37.961 58.8778 37.0279 58.3109 36.461C57.744 35.894 56.8109 35.894 56.244 36.461L47.6102 45.0948L38.9763 36.461C38.4093 35.894 37.4763 35.894 36.9093 36.461C36.3424 37.0279 36.3424 37.961 36.9093 38.5279L45.5433 47.1617L36.9093 55.7956C36.3424 56.3625 36.3424 57.2956 36.9093 57.8625C37.1928 58.146 37.5708 58.2877 37.9487 58.2877C38.3267 58.2877 38.6928 58.146 38.9881 57.8625L47.622 49.2286L56.2558 57.8625C56.5393 58.146 56.9172 58.2877 57.2952 58.2877C57.6731 58.2877 58.0393 58.146 58.3346 57.8625C58.9015 57.2956 58.9015 56.3625 58.3346 55.7956L49.7008 47.1617H49.6771Z" fill="#365E7D"/>
<path d="M113.067 46.1813L103.406 36.5198C103.252 36.3663 103.075 36.2483 102.874 36.1656C102.874 36.1656 102.85 36.1656 102.839 36.1656C102.661 36.0947 102.461 36.0592 102.26 36.0474H102.236C102.035 36.0474 101.835 36.0947 101.657 36.1656C101.657 36.1656 101.634 36.1656 101.622 36.1656C101.421 36.2483 101.232 36.3663 101.091 36.5198L91.4291 46.1813C90.7795 46.8309 90.7795 47.8703 91.4291 48.5081C91.748 48.827 92.1732 48.9924 92.5984 48.9924C93.0236 48.9924 93.4488 48.827 93.7677 48.5081L100.618 41.6576V49.3939C100.618 50.3033 101.35 51.0475 102.272 51.0475C103.193 51.0475 103.925 50.3151 103.925 49.3939V41.6576L110.776 48.5081C111.094 48.827 111.52 48.9924 111.945 48.9924C112.37 48.9924 112.795 48.827 113.114 48.5081C113.764 47.8585 113.764 46.8191 113.114 46.1813H113.067Z" fill="#FF7805"/>
<path d="M82.8424 81.2601C79.9605 82.5357 78.2125 82.6184 78.0117 82.6302C77.1023 82.6538 76.3818 83.4215 76.4173 84.3309C76.4409 85.2285 77.1732 85.9255 78.0708 85.9255H78.118C78.7085 85.9019 80.8818 85.7365 84.1771 84.2838C85.0156 83.9176 85.3937 82.9372 85.0157 82.1104C84.6378 81.2836 83.6692 80.8939 82.8424 81.2719V81.2601Z" fill="#FF7805"/>
<path d="M102.236 53.6106C101.327 53.6106 100.583 54.3428 100.583 55.264V55.3939C100.583 57.4254 100.287 61.5004 98.3385 66.0004C97.9723 66.8389 98.3622 67.8074 99.189 68.1735C99.4016 68.268 99.6259 68.3153 99.8503 68.3153C100.488 68.3153 101.091 67.9492 101.362 67.3232C103.559 62.2681 103.878 57.6853 103.878 55.3939V55.264C103.878 54.3546 103.146 53.6106 102.224 53.6106H102.236Z" fill="#FF7805"/>
<path d="M95.6339 70.7836C94.937 71.7639 94.1574 72.697 93.3188 73.5828C91.4881 75.4962 89.5866 77.1498 87.6496 78.5199C86.9055 79.0395 86.7283 80.0671 87.2479 80.823C87.5668 81.2836 88.0747 81.5198 88.5944 81.5198C88.9251 81.5198 89.2559 81.4253 89.5394 81.2245C91.6535 79.7363 93.7204 77.9411 95.6929 75.8742C96.6377 74.8821 97.5119 73.8308 98.3032 72.7206C98.8347 71.9765 98.6693 70.949 97.9252 70.4175C97.1811 69.886 96.1536 70.0513 95.6221 70.7954L95.6339 70.7836Z" fill="#FF7805"/>
</svg>
