<svg width="150" height="150" viewBox="0 0 150 150" fill="none" xmlns="http://www.w3.org/2000/svg">
<path d="M128.032 21.9688L21.9685 128.032C51.2598 157.323 98.7402 157.323 128.032 128.032C157.323 98.7403 157.323 51.2601 128.032 21.9688Z" fill="#1298FF"/>
<path d="M128.032 21.9687C98.7402 -7.32259 51.2598 -7.32259 21.9685 21.9687C-7.32283 51.2601 -7.32283 98.7403 21.9685 128.032L128.032 21.9687Z" fill="#79C4FF"/>
<path d="M74.9999 112.5C89.6456 112.5 99.2362 107.61 101.752 106.193C102.177 105.957 102.602 105.721 103.027 105.496C104.126 104.917 106.465 103.524 108.449 101.351C111.343 98.1734 112.228 93.638 110.823 89.575L103.039 66.9096C101.953 63.7324 99.4487 61.2285 96.2834 60.1301L82.6416 55.4057L94.8307 41.4569C94.8307 41.4569 93.1652 37.264 82.6416 40.1104C82.6416 40.1104 79.6653 37.5002 74.9999 37.5002C70.3346 37.5002 67.3582 40.1104 67.3582 40.1104C56.8464 37.264 55.1693 41.4569 55.1693 41.4569L67.3582 55.4057L53.7164 60.1301C50.5393 61.2285 48.0472 63.7324 46.9606 66.9096L39.1771 89.575C37.7834 93.638 38.6575 98.1734 41.5512 101.351C43.5354 103.536 45.874 104.917 46.9724 105.496C47.3976 105.721 47.8345 105.957 48.2479 106.193C50.7637 107.61 60.3542 112.5 74.9999 112.5Z" fill="white"/>
<path d="M105.071 98.2678C104.35 99.2127 103.5 100.075 102.555 100.831C102.437 100.925 102.248 100.913 102.154 100.784C102.059 100.654 102.071 100.477 102.201 100.382C102.201 100.382 102.213 100.382 102.224 100.37H102.248C103.217 99.7088 104.126 98.9647 104.906 98.1024C104.953 98.0552 105.024 98.0552 105.071 98.1024C105.118 98.1379 105.118 98.2088 105.083 98.256L105.071 98.2678Z" fill="#C4D3DF"/>
<path d="M101.74 101.433L99.6614 102.78C98.9527 103.24 98.2205 103.666 97.4882 104.067C96.0118 104.858 94.5 105.614 92.9173 106.193C92.5748 106.323 92.1969 106.146 92.067 105.803C91.9371 105.461 92.1142 105.083 92.4567 104.953C92.4567 104.953 92.4567 104.953 92.4685 104.953H92.4922C94.0512 104.433 95.5748 103.843 97.063 103.169C98.5512 102.496 99.9803 101.681 101.409 100.89C101.563 100.807 101.764 100.866 101.846 101.02C101.929 101.173 101.882 101.351 101.74 101.445V101.433Z" fill="#C4D3DF"/>
<path d="M87.1299 108L86.1497 108.236C85.7127 108.343 85.2637 108.071 85.1575 107.634C85.0512 107.197 85.3228 106.748 85.7598 106.642C85.7598 106.642 85.7835 106.642 85.7953 106.642H85.8426L86.7992 106.441C87.2362 106.358 87.6496 106.642 87.7323 107.067C87.815 107.48 87.5552 107.894 87.1418 108H87.1181H87.1299Z" fill="#C4D3DF"/>
<path d="M76.1221 109.642C75.6142 109.642 75.1063 109.689 74.5984 109.666L73.0748 109.642L70.0158 109.583C69.4134 109.583 68.9409 109.075 68.9409 108.473C68.9409 107.87 69.4489 107.386 70.0512 107.398C70.0512 107.398 70.0631 107.398 70.0749 107.398H70.193L73.1339 107.528L74.6103 107.587C75.1063 107.622 75.5906 107.587 76.0866 107.587H76.1103C76.6772 107.587 77.126 108.048 77.126 108.614C77.126 109.17 76.6772 109.618 76.1221 109.63V109.642Z" fill="#C4D3DF"/>
<path d="M69.0001 109.524C67.3111 109.394 65.6221 109.146 63.9449 108.851C62.2678 108.543 60.6024 108.177 58.9607 107.717C58.3465 107.551 57.9803 106.914 58.1575 106.288C58.3228 105.673 58.9607 105.307 59.5867 105.484C62.7285 106.382 65.9527 106.984 69.2126 107.315C69.815 107.374 70.2639 107.918 70.193 108.52C70.1339 109.11 69.6143 109.547 69.0119 109.512H68.9882L69.0001 109.524Z" fill="#C4D3DF"/>
<path d="M53.1378 105.673L52.193 105.248C51.6142 104.988 51.3544 104.303 51.6143 103.725C51.8741 103.146 52.5472 102.886 53.126 103.134H53.1496L54.0473 103.536H54.0827C54.6733 103.807 54.9331 104.48 54.6851 105.071C54.4253 105.662 53.752 105.921 53.1614 105.673H53.1378Z" fill="#C4D3DF"/>
<path d="M43.3584 99.2836C41.7403 97.3229 41.0552 94.6891 41.445 92.2442V92.2206C41.5395 91.6655 42.0592 91.2876 42.6143 91.3702C43.1576 91.4529 43.5355 91.9607 43.4646 92.5159C43.2048 94.4174 43.7717 96.4254 45.0236 97.8781C45.4134 98.3269 45.3662 99.0237 44.9174 99.4135C44.4686 99.8032 43.7716 99.756 43.3819 99.3072C43.3819 99.3072 43.3701 99.2954 43.3701 99.2836H43.3584Z" fill="#C4D3DF"/>
<path d="M41.7048 91.0514C41.8702 90.5199 42.0119 90.1655 42.1536 89.7875L42.6025 88.6419L43.5001 86.3506L45.2953 81.7679V81.7324C45.4724 81.3191 45.9213 81.1183 46.3347 81.2836C46.7362 81.4372 46.9252 81.8741 46.7953 82.2757L45.2127 86.9411L44.4213 89.2679C44.1614 90.0356 43.8781 90.8269 43.6418 91.5946L43.6182 91.6537C43.4528 92.1852 42.8977 92.4804 42.3662 92.3269C41.8347 92.1734 41.5395 91.6065 41.693 91.075C41.693 91.075 41.693 91.075 41.693 91.0632L41.7048 91.0514Z" fill="#C4D3DF"/>
<path d="M47.4567 76.2522L47.811 75.3309V75.3074C47.9527 74.9766 48.3189 74.823 48.6496 74.9411C48.9685 75.0711 49.1338 75.4137 49.0157 75.7444L48.6968 76.6773V76.701C48.5669 77.0435 48.2008 77.2324 47.8464 77.1143C47.5039 76.9962 47.315 76.6183 47.4331 76.2758V76.2522H47.4567Z" fill="#C4D3DF"/>
<path d="M52.0631 66.2719C52.9253 65.3506 54.0472 64.7246 55.2047 64.4411C55.2638 64.4175 55.3346 64.4648 55.3464 64.5239C55.3583 64.583 55.3229 64.642 55.2757 64.6656C54.189 65.0436 53.2088 65.7285 52.5001 66.6262H52.4883C52.3938 66.7679 52.2165 66.7916 52.0866 66.6853C51.9567 66.579 51.945 66.4137 52.0394 66.2837C52.0394 66.2837 52.0395 66.2719 52.0513 66.2601L52.0631 66.2719Z" fill="#C4D3DF"/>
<path d="M87.5905 57.7326H62.4095C61.1221 57.7326 60.0708 56.6931 60.0708 55.3939C60.0708 54.0946 61.1103 53.0553 62.4095 53.0553H87.5905C88.8779 53.0553 89.9291 54.0946 89.9291 55.3939C89.9291 56.6931 88.8898 57.7326 87.5905 57.7326Z" fill="#FF7805"/>
<path d="M68.1378 42.9569L71.4803 50.7167C71.7401 51.319 71.4566 52.016 70.8661 52.2758C70.1574 52.5947 69.3188 52.1104 69.2243 51.3427L68.1496 42.9569H68.1378Z" fill="#C4D3DF"/>
<path d="M81.4134 43.0159L79.0158 51.6853C78.8386 52.3112 78.189 52.6891 77.563 52.512C76.8189 52.323 76.4646 51.4254 76.8544 50.7758L81.4016 43.0277L81.4134 43.0159Z" fill="#C4D3DF"/>
<path d="M79.4173 71.9765C81 72.0592 82.4291 72.1418 83.7283 72.2245V67.3112C83.4685 67.2522 83.1614 67.1931 82.8543 67.134L78.0708 71.9176C78.5196 71.9294 78.9566 71.9529 79.4173 71.9765Z" fill="#365E7D"/>
<path d="M81.0119 66.827C79.9607 66.6734 78.8741 66.5436 77.7402 66.4255C77.1851 66.3664 76.6181 66.331 76.063 66.3074L76.2047 66.2601L75.9922 62.9884L72.6733 63.9923L72.8268 66.319C70.3229 66.508 68.3386 67.1814 66.8858 68.3625C65.1496 69.768 64.2756 71.9766 64.2756 75.0003V76.512C64.2756 79.6419 65.067 81.8624 66.6497 83.1734C66.6851 83.197 66.7205 83.2207 66.7559 83.2443L71.3622 78.638C71.2796 78.5908 71.1968 78.5435 71.1259 78.4963C70.5118 78.0238 70.2048 77.2325 70.2048 76.1459V75.3074C70.2048 74.3861 70.4056 73.6656 70.7953 73.1695C71.1851 72.6616 71.752 72.3191 72.4961 72.1419C73.2402 71.9648 74.0788 71.8703 75.0355 71.8703C75.9922 71.8703 77.0078 71.8939 78.0827 71.9411L82.8662 67.1577C82.3111 67.0514 81.7086 66.9451 81.0354 66.8506L81.0119 66.827Z" fill="#65859E"/>
<path d="M84.2953 83.0671C83.6929 81.8623 82.7836 80.9174 81.567 80.2324C80.3505 79.5474 78.8032 79.2048 76.9252 79.2048H73.8544C72.7914 79.2048 71.9647 79.0041 71.3623 78.6379L66.756 83.2443C68.3386 84.4962 70.571 85.134 73.4765 85.134H76.1222C77.1261 85.134 77.9056 85.382 78.4489 85.8663C78.9922 86.3505 79.2638 87.0593 79.2638 87.9923V89.1261C79.2638 89.9411 79.0513 90.5789 78.6379 91.0395C78.2127 91.5001 77.6222 91.819 76.8544 92.008C76.0867 92.1851 75.1654 92.2797 74.1024 92.2797C73.0394 92.2797 71.9764 92.2679 70.8307 92.2324C69.685 92.2088 68.5749 92.1616 67.5119 92.1025C66.4489 92.0435 65.4921 91.9725 64.6536 91.8899V96.8033C65.3032 96.9687 66.0119 97.1222 66.7914 97.2403C67.571 97.3584 68.4095 97.4766 69.2954 97.571C70.1812 97.6655 71.0433 97.7363 71.8937 97.7836C72.1536 97.7954 72.4135 97.7836 72.6733 97.8072V101.339H76.2048V97.7836C77.6221 97.6891 78.9095 97.4884 80.0434 97.1577C81.6497 96.6971 82.9134 95.8229 83.8228 94.5355C84.7323 93.2481 85.1811 91.382 85.1811 88.9489V87.1891C85.1811 85.6537 84.8858 84.2718 84.2835 83.0671H84.2953Z" fill="#365E7D"/>
<path d="M63.4607 53.1025C63.2008 55.1695 63.8978 56.2207 65.0671 57.7089C62.6695 57.7325 61.4174 54.4372 63.4607 53.1025Z" fill="#365E7D"/>
<path d="M67.2284 53.1025C67.4174 54.9451 67.5592 56.1026 68.3033 57.7089C66.26 57.3545 65.693 54.3545 67.2284 53.1025Z" fill="#365E7D"/>
<path d="M70.9842 53.1025C71.5275 54.7679 71.4685 56.0435 71.5157 57.7089C69.9685 56.7876 69.8621 54.4254 70.9842 53.1025Z" fill="#365E7D"/>
<path d="M74.752 53.1025C75.5552 54.6262 75.5552 56.1971 74.752 57.7089C73.9489 56.1852 73.9489 54.6143 74.752 53.1025Z" fill="#365E7D"/>
<path d="M78.5079 53.1025C79.6181 54.4254 79.5237 56.7994 77.9764 57.7089C78.0355 56.0317 77.9764 54.7561 78.5079 53.1025Z" fill="#365E7D"/>
<path d="M82.2756 53.1025C83.8229 54.3663 83.2441 57.3663 81.2008 57.7089C81.9449 56.0908 82.0749 54.9332 82.2756 53.1025Z" fill="#365E7D"/>
<path d="M86.0316 53.1025C88.0749 54.449 86.8228 57.7325 84.4252 57.7089C85.5945 56.2089 86.2914 55.1695 86.0316 53.1025Z" fill="#365E7D"/>
</svg>
