<svg width="150" height="150" viewBox="0 0 150 150" fill="none" xmlns="http://www.w3.org/2000/svg">
<path d="M128.032 21.9686L21.9685 128.032C51.2599 157.323 98.7401 157.323 128.032 128.032C157.323 98.7404 157.323 51.26 128.032 21.9686Z" fill="#1298FF"/>
<path d="M128.032 21.9686C98.7402 -7.32272 51.2599 -7.32272 21.9685 21.9686C-7.32284 51.26 -7.32284 98.7404 21.9685 128.032L128.032 21.9686Z" fill="#79C4FF"/>
<path d="M86.2559 37.5001V75.0001L116.256 37.5001H86.2559Z" fill="#D6DFE5"/>
<path d="M86.2559 75.0001H116.256V37.5001L86.2559 75.0001Z" fill="#C4D3DF"/>
<path d="M86.2559 75.0001V112.5L116.256 75.0001H86.2559Z" fill="#D6DFE5"/>
<path d="M86.2559 112.5H116.256V75.0001L86.2559 112.5Z" fill="#C4D3DF"/>
<path d="M86.2558 37.5001H33.7559V75.0001H86.2558V37.5001Z" fill="white"/>
<path d="M86.2558 75.0001H33.7559V112.5H86.2558V75.0001Z" fill="white"/>
<path d="M87.5197 36.2245H32.4685V113.776H117.52V36.2245H87.5197ZM35.0196 38.7757H84.9685V73.7245H35.0196V38.7757ZM84.9685 111.225H35.0196V76.2757H84.9685V111.225ZM114.969 111.225H87.5197V76.2757H114.969V111.225ZM87.5197 73.7245V38.7757H114.969V73.7245H87.5197Z" fill="#365E7D"/>
<path d="M41.2559 56.2443H78.7559" stroke="#AABFCC" stroke-width="4.32" stroke-miterlimit="10"/>
<path d="M41.4685 93.7443H78.9685" stroke="#FF7805" stroke-width="4.32" stroke-miterlimit="10"/>
<path d="M91.8307 57.886V55.2993H100.228V57.886H91.8307ZM94.7363 60.7914V52.3938H97.3228V60.7914H94.7363Z" fill="#294C60"/>
<path d="M101.126 63.2599V60.6734L105.591 56.1733C105.921 55.8662 106.181 55.5709 106.394 55.2875C106.606 55.0158 106.76 54.7443 106.878 54.4844C106.984 54.2246 107.031 53.9528 107.031 53.6575C107.031 53.3623 106.973 53.1024 106.866 52.9134C106.76 52.7245 106.571 52.5591 106.335 52.4646C106.098 52.3701 105.768 52.3111 105.354 52.3111H101.398V49.7363C102.012 49.6064 102.685 49.5001 103.429 49.3938C104.173 49.2875 105.024 49.2402 105.969 49.2402C107.055 49.2402 107.917 49.3938 108.543 49.6891C109.169 49.9843 109.618 50.4331 109.89 51.0119C110.15 51.5906 110.28 52.2875 110.28 53.1025C110.28 53.7284 110.197 54.2955 110.032 54.8033C109.866 55.3112 109.63 55.7836 109.311 56.2324C108.992 56.6812 108.602 57.1419 108.142 57.6025L105.402 60.3545H110.669V63.2599H101.126Z" fill="#294C60"/>
<path d="M93.2008 96.6143V94.0277H99.0119V96.6143H93.2008Z" fill="#294C60"/>
<path d="M99.756 100.76V98.1734L104.221 93.6733C104.551 93.3662 104.811 93.0709 105.024 92.7875C105.236 92.5158 105.39 92.2443 105.508 91.9844C105.614 91.7246 105.661 91.4528 105.661 91.1575C105.661 90.8623 105.602 90.6024 105.496 90.4134C105.39 90.2245 105.201 90.0591 104.965 89.9646C104.728 89.8701 104.398 89.8111 103.984 89.8111H100.028V87.2363C100.642 87.1064 101.315 87.0001 102.059 86.8938C102.803 86.7875 103.654 86.7402 104.598 86.7402C105.685 86.7402 106.547 86.8938 107.173 87.1891C107.799 87.4843 108.248 87.9331 108.52 88.5119C108.78 89.0906 108.91 89.7875 108.91 90.6025C108.91 91.2284 108.827 91.7955 108.661 92.3033C108.496 92.8112 108.26 93.2836 107.941 93.7324C107.622 94.1812 107.232 94.6419 106.772 95.1025L104.032 97.8545H109.299V100.76H99.756Z" fill="#294C60"/>
</svg>
