<svg width="150" height="150" viewBox="0 0 150 150" fill="none" xmlns="http://www.w3.org/2000/svg">
<path d="M128.032 21.9688L21.9685 128.032C51.2599 157.323 98.7401 157.323 128.032 128.032C157.323 98.7404 157.323 51.2601 128.032 21.9688Z" fill="#1298FF"/>
<path d="M128.032 21.9688C98.7402 -7.3226 51.2599 -7.3226 21.9685 21.9688C-7.32284 51.2601 -7.32284 98.7404 21.9685 128.032L128.032 21.9688Z" fill="#79C4FF"/>
<path d="M29.3386 73.8192H20.2676V76.1578H29.3386V73.8192Z" fill="#365E7D"/>
<path d="M129.626 73.8192H120.248V76.1578H129.626V73.8192Z" fill="#365E7D"/>
<path d="M15.3542 80.7287C12.1652 80.7287 9.56689 78.1302 9.56689 74.9412C9.56689 71.7523 12.1652 69.1538 15.3542 69.1538C18.5432 69.1538 21.1416 71.7523 21.1416 74.9412C21.1416 78.1302 18.5432 80.7287 15.3542 80.7287ZM15.3542 70.9018C13.1337 70.9018 11.3267 72.7089 11.3267 74.9294C11.3267 77.1499 13.1337 78.957 15.3542 78.957C17.5747 78.957 19.3818 77.1499 19.3818 74.9294C19.3818 72.7089 17.5747 70.9018 15.3542 70.9018Z" fill="white"/>
<path d="M74.9999 114.449C96.7999 114.449 114.472 96.7767 114.472 74.9767C114.472 53.1766 96.7999 35.5042 74.9999 35.5042C53.1999 35.5042 35.5275 53.1766 35.5275 74.9767C35.5275 96.7767 53.1999 114.449 74.9999 114.449Z" fill="#365E7D"/>
<path d="M114.449 74.8821C114.449 73.7955 113.563 72.9097 112.476 72.9097C112.039 72.9097 111.626 73.0632 111.307 73.3113C111.236 71.8349 111.071 70.382 110.835 68.9529C111.095 69.071 111.366 69.1656 111.661 69.1656C111.791 69.1656 111.933 69.1537 112.075 69.1183C113.138 68.8939 113.811 67.8427 113.587 66.7915C113.244 65.1971 112.807 63.6144 112.276 62.079C111.921 61.0514 110.799 60.5081 109.772 60.8624C109.358 61.0041 109.028 61.2876 108.791 61.6301C108.248 60.2719 107.634 58.9372 106.949 57.6616C107.008 57.6616 107.079 57.6853 107.138 57.6853C107.48 57.6853 107.835 57.5908 108.154 57.4018C109.087 56.8467 109.382 55.6301 108.827 54.6971C107.988 53.3034 107.055 51.9569 106.051 50.6695C105.378 49.8191 104.15 49.6656 103.287 50.3389C102.945 50.6105 102.72 50.9767 102.614 51.3782C101.669 50.268 100.654 49.2168 99.5906 48.2365C99.9922 48.142 100.358 47.9293 100.642 47.5986C101.339 46.7718 101.232 45.5317 100.405 44.8231C99.1653 43.7719 97.8425 42.7916 96.4725 41.9058C95.563 41.3152 94.3464 41.575 93.7559 42.4845C93.5197 42.8506 93.4252 43.2758 93.4488 43.6774C92.1968 42.9451 90.8977 42.2718 89.563 41.6931C89.9174 41.4805 90.2007 41.1499 90.3543 40.7365C90.7441 39.7207 90.2362 38.5868 89.2323 38.1971C87.7205 37.6065 86.1497 37.1105 84.567 36.7207C83.5158 36.4609 82.441 37.0986 82.1811 38.1498C82.0748 38.575 82.122 39.0002 82.2756 39.3782C80.8701 39.0947 79.4173 38.8939 77.9527 38.7758C78.2125 38.4569 78.3779 38.0554 78.3897 37.6184C78.437 36.5317 77.5866 35.6223 76.5 35.5751C74.8819 35.516 73.2283 35.5514 71.6102 35.6931C70.5236 35.7876 69.7205 36.7324 69.815 37.819C69.8505 38.2561 70.0393 38.6459 70.311 38.953C68.8582 39.142 67.4173 39.4017 66.0236 39.7561C66.1653 39.3781 66.189 38.9412 66.0591 38.5278C65.7402 37.4885 64.6536 36.8979 63.6142 37.205C62.0552 37.6774 60.5079 38.2443 59.0316 38.9057C58.0394 39.3427 57.5905 40.512 58.0275 41.5041C58.2047 41.9057 58.5119 42.2128 58.8662 42.4136C57.5552 43.0632 56.2913 43.7956 55.0747 44.5869C55.0747 44.1735 54.9685 43.7601 54.7087 43.4058C54.0709 42.52 52.8425 42.3192 51.9684 42.957C50.6456 43.9018 49.3819 44.9412 48.189 46.0514C47.3976 46.7837 47.3386 48.0357 48.0827 48.827C48.378 49.1459 48.7558 49.3467 49.1574 49.4176C48.1298 50.4451 47.1732 51.5436 46.2874 52.7011C46.1575 52.3113 45.9213 51.9569 45.5669 51.697C44.6811 51.0592 43.4527 51.2718 42.8267 52.1577C41.8818 53.4805 41.0079 54.886 40.2402 56.3152C39.7205 57.2719 40.0865 58.4648 41.0432 58.9845C41.3385 59.1498 41.6575 59.2206 41.9763 59.2206C42.0708 59.2206 42.1653 59.1971 42.2598 59.1853C41.622 60.4963 41.0787 61.8427 40.6062 63.2364C40.3582 62.9057 40.0157 62.6459 39.5905 62.516C38.5511 62.2089 37.4528 62.8112 37.1457 63.8506C36.685 65.4097 36.3189 67.016 36.059 68.6223C35.8818 69.6971 36.6141 70.701 37.6771 70.8781C37.7834 70.9017 37.8897 70.9018 37.996 70.9018C38.3267 70.9018 38.622 70.7955 38.9055 70.642C38.7283 72.0711 38.6339 73.5356 38.6339 75.012C38.2914 74.7758 37.8898 74.646 37.4528 74.6814C36.3662 74.7286 35.5275 75.6499 35.5747 76.7247C35.6456 78.3546 35.811 79.9845 36.0827 81.5908C36.248 82.5475 37.0748 83.2326 38.0197 83.2326C38.126 83.2326 38.2323 83.2325 38.3504 83.2089C38.7874 83.1381 39.1535 82.9255 39.4369 82.6302C39.744 84.0711 40.1338 85.4648 40.6062 86.8348C40.2047 86.7285 39.7795 86.7286 39.3662 86.894C38.3504 87.2955 37.8543 88.4294 38.2558 89.4452C38.8464 90.957 39.5432 92.4452 40.3228 93.8743C40.6771 94.5357 41.3504 94.9019 42.0473 94.9019C42.3662 94.9019 42.685 94.8309 42.9921 94.6656C43.3818 94.453 43.6536 94.1341 43.8308 93.7679C44.5867 95.0199 45.4134 96.2128 46.311 97.3585C45.8977 97.3821 45.4961 97.5357 45.1536 97.8192C44.3268 98.5278 44.2323 99.768 44.9291 100.595C45.9803 101.835 47.126 103.016 48.3189 104.114C48.6968 104.457 49.1693 104.634 49.6535 104.634C50.185 104.634 50.7165 104.422 51.1063 103.996C51.4015 103.677 51.5669 103.276 51.6024 102.862C52.7126 103.796 53.8819 104.67 55.1102 105.473C54.7323 105.626 54.3898 105.898 54.1654 106.276C53.6103 107.209 53.9173 108.414 54.8504 108.969C56.2559 109.807 57.7204 110.551 59.1968 111.201C59.4566 111.307 59.7165 111.366 59.9882 111.366C60.7441 111.366 61.4646 110.929 61.7953 110.185C61.9725 109.784 61.996 109.347 61.9016 108.945C63.248 109.465 64.6299 109.914 66.0591 110.28C65.752 110.552 65.5275 110.918 65.4449 111.343C65.2205 112.406 65.9055 113.445 66.9685 113.67C68.563 114 70.1929 114.237 71.811 114.366C71.8701 114.366 71.9173 114.366 71.9764 114.366C72.9921 114.366 73.8544 113.587 73.9371 112.559C73.9725 112.122 73.8544 111.709 73.6418 111.355C74.1024 111.366 74.5748 111.39 75.0354 111.39C76.0394 111.39 77.0315 111.343 78.0118 111.26C77.811 111.614 77.7048 112.04 77.7638 112.477C77.8938 113.469 78.7324 114.201 79.7127 114.201C79.7954 114.201 79.878 114.201 79.9607 114.189C81.5788 113.988 83.185 113.681 84.7677 113.292C85.8189 113.02 86.4568 111.957 86.1969 110.906C86.0906 110.481 85.8425 110.126 85.5236 109.866C86.9291 109.441 88.2992 108.945 89.622 108.355C89.5511 108.756 89.5866 109.181 89.7874 109.583C90.1299 110.28 90.8268 110.681 91.559 110.681C91.8543 110.681 92.1496 110.622 92.4212 110.481C93.874 109.772 95.3032 108.957 96.6615 108.059C97.5709 107.469 97.8189 106.24 97.2284 105.331C96.9804 104.965 96.6379 104.705 96.2481 104.563C97.4292 103.713 98.5631 102.792 99.6379 101.811C99.6969 102.213 99.8741 102.603 100.193 102.91C100.583 103.299 101.079 103.489 101.587 103.489C102.094 103.489 102.591 103.299 102.98 102.91C104.126 101.764 105.213 100.524 106.217 99.2482C106.89 98.386 106.736 97.1577 105.874 96.4845C105.52 96.2129 105.118 96.083 104.705 96.0711C105.543 94.89 106.323 93.6617 107.02 92.3743C107.209 92.7404 107.504 93.0475 107.894 93.2365C108.177 93.3782 108.473 93.4373 108.756 93.4373C109.488 93.4373 110.185 93.0357 110.528 92.3388C111.248 90.8743 111.874 89.3625 112.406 87.8152C112.76 86.7877 112.205 85.6656 111.177 85.3113C110.764 85.1696 110.327 85.1814 109.937 85.3113C110.35 83.9294 110.669 82.5002 110.917 81.0592C111.213 81.3427 111.591 81.5436 112.039 81.6026C112.122 81.6026 112.205 81.6145 112.287 81.6145C113.268 81.6145 114.118 80.8821 114.236 79.8899C114.437 78.2836 114.532 76.642 114.532 74.9885V74.8584L114.449 74.8821Z" fill="white"/>
<path d="M76.8425 108.638C76.122 108.638 75.5196 108.083 75.4842 107.351C75.4369 106.595 76.0156 105.957 76.7715 105.91C78.5078 105.815 80.2441 105.567 81.9213 105.189C82.6536 105.024 83.3859 105.484 83.5512 106.217C83.7166 106.949 83.2558 107.681 82.5235 107.847C80.6928 108.26 78.803 108.532 76.9133 108.638C76.8896 108.638 76.8661 108.638 76.8307 108.638H76.8425ZM67.8425 107.894C67.748 107.894 67.6417 107.882 67.5354 107.859C65.6929 107.445 63.874 106.866 62.1378 106.146C61.441 105.863 61.1102 105.059 61.3937 104.363C61.6772 103.666 62.4803 103.335 63.1772 103.618C64.7835 104.28 66.4488 104.811 68.1378 105.189C68.87 105.355 69.3307 106.087 69.1653 106.819C69.0236 107.457 68.4567 107.882 67.8425 107.882V107.894ZM90.6732 104.646C90.1889 104.646 89.7283 104.398 89.4802 103.937C89.1141 103.276 89.3504 102.449 90.0118 102.083C91.5236 101.244 92.9763 100.264 94.3345 99.1893C94.9251 98.7168 95.7756 98.8112 96.2481 99.4018C96.7205 99.9923 96.626 100.843 96.0354 101.315C94.559 102.496 92.9764 103.559 91.3346 104.469C91.122 104.587 90.8976 104.646 90.6732 104.646ZM54.8622 101.658C54.5669 101.658 54.2598 101.563 54.0118 101.362C52.5354 100.181 51.1535 98.8821 49.8898 97.4766C49.3819 96.9215 49.4291 96.0474 49.996 95.5514C50.563 95.0553 51.4134 95.1027 51.9212 95.6578C53.0787 96.9452 54.3543 98.1498 55.7125 99.2364C56.3031 99.7089 56.3976 100.559 55.9252 101.15C55.6535 101.492 55.2637 101.658 54.8622 101.658ZM101.386 95.0436C101.114 95.0436 100.842 94.9608 100.594 94.7955C99.9803 94.3585 99.8385 93.5081 100.276 92.8939C101.279 91.4766 102.177 89.9649 102.921 88.4058C103.252 87.7208 104.067 87.4372 104.74 87.768C105.413 88.0987 105.709 88.9137 105.378 89.5869C104.563 91.2877 103.594 92.9176 102.496 94.4649C102.236 94.8428 101.811 95.0436 101.386 95.0436ZM45.8622 90.4136C45.3543 90.4136 44.87 90.1301 44.6338 89.6459C43.807 87.9451 43.122 86.1734 42.6023 84.3545C42.3897 83.6341 42.815 82.8783 43.5354 82.6657C44.2559 82.4649 45.0117 82.8782 45.2243 83.5986C45.7086 85.264 46.3345 86.8939 47.0904 88.4529C47.4211 89.1262 47.1378 89.9412 46.4527 90.2719C46.2637 90.3664 46.063 90.4136 45.8622 90.4136ZM106.89 81.7444C106.819 81.7444 106.736 81.7443 106.665 81.7207C105.921 81.5908 105.425 80.894 105.543 80.1499C105.827 78.4491 105.98 76.7011 105.98 74.9648C105.98 74.2089 106.594 73.5356 107.339 73.5356C108.083 73.5356 108.697 74.079 108.697 74.8349V74.9648C108.697 76.8546 108.543 78.7562 108.224 80.6105C108.118 81.272 107.539 81.7444 106.878 81.7444H106.89ZM42.6378 76.3585C41.8819 76.3585 41.2795 75.7797 41.2795 75.0238V74.9648C41.2795 73.0987 41.433 71.2208 41.7401 69.3901C41.8582 68.646 42.555 68.138 43.3109 68.2679C44.055 68.386 44.551 69.0946 44.4329 69.8387C44.1495 71.5159 44.0078 73.2522 44.0078 74.9648C44.0078 75.7207 43.3937 76.3585 42.6496 76.3585H42.6378ZM106.051 67.2522C105.461 67.2522 104.917 66.8625 104.74 66.2719C104.256 64.6066 103.63 62.9767 102.862 61.4176C102.532 60.7444 102.815 59.9294 103.488 59.5987C104.161 59.268 104.976 59.5515 105.307 60.2247C106.134 61.9255 106.819 63.6971 107.35 65.516C107.563 66.2365 107.15 66.9923 106.417 67.2049C106.287 67.2403 106.157 67.264 106.039 67.264L106.051 67.2522ZM45.8031 62.3506C45.6023 62.3506 45.4015 62.3034 45.2125 62.2207C44.5393 61.89 44.2441 61.0868 44.5748 60.4017C45.3898 58.7009 46.3582 57.0592 47.4448 55.5238C47.8818 54.9096 48.7322 54.768 49.3464 55.1932C49.9605 55.6302 50.1023 56.4806 49.6653 57.0947C48.6613 58.5121 47.7755 60.012 47.0314 61.5828C46.7952 62.0671 46.3109 62.3624 45.8031 62.3624V62.3506ZM99.0355 54.6852C98.6575 54.6852 98.2914 54.5317 98.0197 54.2364C96.8622 52.949 95.5866 51.7561 94.2283 50.6695C93.6377 50.197 93.5433 49.3466 94.0039 48.7561C94.4764 48.1655 95.3268 48.0711 95.9173 48.5317C97.3937 49.701 98.7874 51.0121 100.039 52.4058C100.547 52.9609 100.5 53.8231 99.9331 54.331C99.6733 54.5672 99.3425 54.6852 99.0236 54.6852H99.0355ZM54.7559 51.083C54.3543 51.083 53.9645 50.9057 53.6929 50.575C53.2204 49.9845 53.3149 49.1341 53.9054 48.6616C55.3818 47.4805 56.9644 46.4175 58.6062 45.4962C59.2676 45.1301 60.0944 45.3664 60.4606 46.0278C60.8267 46.6892 60.5906 47.5159 59.9291 47.8821C58.4173 48.7207 56.9645 49.7011 55.6063 50.7877C55.3582 50.9885 55.0512 51.083 54.7559 51.083ZM87.2716 46.3939C87.0944 46.3939 86.9173 46.3585 86.752 46.2876C85.1575 45.6262 83.4802 45.1066 81.7912 44.7286C81.0589 44.5633 80.5983 43.831 80.7637 43.0987C80.929 42.3664 81.6613 41.9058 82.3936 42.0593C84.2479 42.4727 86.0669 43.0514 87.8032 43.76C88.5 44.0435 88.8307 44.8467 88.5473 45.5435C88.3347 46.075 87.8267 46.3939 87.2834 46.3939H87.2716ZM67.6889 44.7994C67.0629 44.7994 66.5078 44.3742 66.3661 43.7364C66.2007 43.0041 66.6496 42.2718 67.3937 42.1065C69.2244 41.6813 71.1141 41.4097 73.0039 41.3034C73.748 41.2443 74.3976 41.8348 74.4448 42.5908C74.4921 43.3467 73.9133 43.9844 73.1574 44.0317C71.4212 44.1262 69.685 44.3742 68.0079 44.7639C67.9016 44.7876 67.8071 44.7994 67.7008 44.7994H67.6889Z" fill="#C4D3DF"/>
<path d="M62.1968 85.2759V87.8153L64.7362 85.2759H62.1968Z" fill="#1298FF"/>
<path d="M71.4684 77.1499H72.8622L77.7991 72.2128C77.7991 72.2128 77.7283 72.2128 77.681 72.2128H71.4566V64.7837H77.5984C78.4606 64.7837 79.1929 65.0553 79.8071 65.6105C80.4095 66.1538 80.7047 67.1341 80.6693 68.5514C80.6693 68.8585 80.6457 69.1419 80.5985 69.4136L86.1969 63.827C85.8308 62.8112 85.2993 61.9491 84.5788 61.2286C83.1615 59.8113 80.9291 59.0908 77.8937 59.0436V53.2916H74.5747V59.0318H71.2559V53.2916H67.9369V59.0318H65.0551L62.1732 59.0436V64.8074H65.0551V84.9215L71.4566 78.5318V77.138L71.4684 77.1499Z" fill="#1298FF"/>
<path d="M86.1023 76.7602C85.5708 76.1224 84.9802 75.6263 84.3306 75.2483C83.681 74.8704 83.0079 74.5986 82.3228 74.4215C83.2441 74.1971 84.0354 73.7719 84.6969 73.1459C85.3583 72.5318 85.8661 71.7286 86.2322 70.7719C86.5865 69.8034 86.7756 68.6932 86.7756 67.4176C86.7756 66.0593 86.5867 64.8546 86.2087 63.8152L80.6101 69.4018C80.5038 70.1104 80.2676 70.7128 79.8779 71.1971C79.37 71.8467 78.6731 72.1774 77.8109 72.201L72.874 77.1381H78.0472C78.7677 77.1381 79.4055 77.2916 79.9488 77.6105C80.4921 77.9294 80.9291 78.3783 81.248 78.9452C81.5669 79.5239 81.7204 80.2325 81.7204 81.0593C81.7204 82.0632 81.5669 82.8782 81.2716 83.4806C80.9645 84.0829 80.5394 84.5318 79.9961 84.8152C79.4528 85.0987 78.8031 85.2522 78.0472 85.2522H71.4802V78.52L65.0787 84.9097V85.2522H64.7362L62.1968 87.7798V91.016H67.9606V96.6381H71.2795V91.0042H74.5984V96.6381H77.9173V91.0042H78.2363C80.315 91.0042 82.063 90.7208 83.4921 90.1657C84.9212 89.5987 85.996 88.6775 86.7283 87.3783C87.4606 86.0791 87.8268 84.3546 87.8268 82.1932C87.8268 81.0121 87.6733 79.9727 87.378 79.0633C87.0709 78.1538 86.6574 77.3861 86.1259 76.7484L86.1023 76.7602Z" fill="#79C4FF"/>
<path d="M126.26 50.9884H115.217C106.783 36.886 91.4409 28.1696 74.9999 28.1696C58.5589 28.1696 43.2165 36.8978 34.7834 50.9884H23.3503C23.4566 51.3782 23.5157 51.7798 23.5157 52.205C23.5157 52.5947 23.4566 52.9726 23.3739 53.327H36.1181L36.4605 52.7364C44.3975 39.0238 59.1613 30.4963 74.9999 30.4963C90.8385 30.4963 105.59 39.012 113.539 52.7364L113.882 53.327H126.236C126.153 52.9608 126.094 52.5947 126.094 52.205C126.094 51.7798 126.165 51.3782 126.26 50.9884Z" fill="#365E7D"/>
<path d="M18.6141 57.9924C15.4251 57.9924 12.8268 55.3939 12.8268 52.2049C12.8268 49.0159 15.4251 46.4175 18.6141 46.4175C21.8031 46.4175 24.4015 49.0159 24.4015 52.2049C24.4015 55.3939 21.8031 57.9924 18.6141 57.9924ZM18.6141 48.1773C16.3936 48.1773 14.5866 49.9844 14.5866 52.2049C14.5866 54.4254 16.3936 56.2325 18.6141 56.2325C20.8345 56.2325 22.6417 54.4254 22.6417 52.2049C22.6417 49.9844 20.8345 48.1773 18.6141 48.1773Z" fill="white"/>
<path d="M126.083 97.8192C126.083 97.4176 126.142 97.0397 126.236 96.6617H113.87L113.528 97.2523C105.59 110.965 90.8268 119.492 74.9882 119.492C59.1497 119.492 44.374 110.965 36.4488 97.2405L36.1063 96.6499H23.3621C23.4566 97.0279 23.5157 97.4176 23.5157 97.8192C23.5157 98.2208 23.4566 98.6105 23.3621 98.9885H34.7598C43.1929 113.091 58.5473 121.831 74.9882 121.831C91.4292 121.831 106.772 113.103 115.205 99.0121H126.236C126.142 98.6342 126.071 98.2326 126.071 97.8192H126.083Z" fill="#365E7D"/>
<path d="M18.6141 103.607C15.4251 103.607 12.8268 101.008 12.8268 97.8192C12.8268 94.6302 15.4251 92.0317 18.6141 92.0317C21.8031 92.0317 24.4015 94.6302 24.4015 97.8192C24.4015 101.008 21.8031 103.607 18.6141 103.607ZM18.6141 93.7797C16.3936 93.7797 14.5866 95.5869 14.5866 97.8074C14.5866 100.028 16.3936 101.835 18.6141 101.835C20.8345 101.835 22.6417 100.028 22.6417 97.8074C22.6417 95.5869 20.8345 93.7797 18.6141 93.7797Z" fill="white"/>
<path d="M130.996 57.9924C127.807 57.9924 125.209 55.3939 125.209 52.2049C125.209 49.0159 127.807 46.4175 130.996 46.4175C134.185 46.4175 136.783 49.0159 136.783 52.2049C136.783 55.3939 134.185 57.9924 130.996 57.9924ZM130.996 48.1773C128.776 48.1773 126.968 49.9844 126.968 52.2049C126.968 54.4254 128.776 56.2325 130.996 56.2325C133.217 56.2325 135.024 54.4254 135.024 52.2049C135.024 49.9844 133.217 48.1773 130.996 48.1773Z" fill="white"/>
<path d="M130.996 103.607C127.807 103.607 125.209 101.008 125.209 97.8192C125.209 94.6302 127.807 92.0317 130.996 92.0317C134.185 92.0317 136.783 94.6302 136.783 97.8192C136.783 101.008 134.185 103.607 130.996 103.607ZM130.996 93.7797C128.776 93.7797 126.968 95.5869 126.968 97.8074C126.968 100.028 128.776 101.835 130.996 101.835C133.217 101.835 135.024 100.028 135.024 97.8074C135.024 95.5869 133.217 93.7797 130.996 93.7797Z" fill="white"/>
<path d="M134.539 80.7287C131.35 80.7287 128.752 78.1302 128.752 74.9412C128.752 71.7523 131.35 69.1538 134.539 69.1538C137.728 69.1538 140.327 71.7523 140.327 74.9412C140.327 78.1302 137.728 80.7287 134.539 80.7287ZM134.539 70.9018C132.319 70.9018 130.512 72.7089 130.512 74.9294C130.512 77.1499 132.319 78.957 134.539 78.957C136.76 78.957 138.567 77.1499 138.567 74.9294C138.567 72.7089 136.76 70.9018 134.539 70.9018Z" fill="white"/>
</svg>
