<svg width="150" height="150" viewBox="0 0 150 150" fill="none" xmlns="http://www.w3.org/2000/svg">
<path d="M128.032 21.9687L21.9685 128.032C51.2598 157.323 98.7402 157.323 128.032 128.032C157.323 98.7402 157.323 51.26 128.032 21.9687Z" fill="#1298FF"/>
<path d="M128.032 21.9686C98.7402 -7.32277 51.2598 -7.32277 21.9685 21.9686C-7.32283 51.2599 -7.32283 98.7401 21.9685 128.031L128.032 21.9686Z" fill="#79C4FF"/>
<path d="M103.098 37.5001H46.311C43.8714 37.5001 41.8937 39.4779 41.8937 41.9175V108.083C41.8937 110.522 43.8714 112.5 46.311 112.5H103.098C105.538 112.5 107.516 110.522 107.516 108.083V41.9175C107.516 39.4779 105.538 37.5001 103.098 37.5001Z" fill="white"/>
<path d="M103.252 113.823H46.4527C43.2873 113.823 40.7125 111.248 40.7125 108.083V41.9173C40.7125 38.752 43.2873 36.1771 46.4527 36.1771H103.252C106.417 36.1771 108.992 38.752 108.992 41.9173V108.083C108.992 111.248 106.417 113.823 103.252 113.823ZM46.4527 38.8227C44.7519 38.8227 43.37 40.2047 43.37 41.9055V108.071C43.37 109.772 44.7519 111.154 46.4527 111.154H103.252C104.953 111.154 106.335 109.772 106.335 108.071V41.9055C106.335 40.2047 104.953 38.8227 103.252 38.8227H46.4527Z" fill="#365E7D"/>
<path d="M81.1417 107.339H68.6457C67.7835 107.339 67.0865 106.642 67.0865 105.78C67.0865 104.917 67.7835 104.221 68.6457 104.221H81.1417C82.0039 104.221 82.7008 104.917 82.7008 105.78C82.7008 106.642 82.0039 107.339 81.1417 107.339Z" fill="#FF7805"/>
<path d="M48.437 43.7481V98.4332L101.563 43.7481H48.437Z" fill="#D6DFE5"/>
<path d="M48.437 98.4332H101.563V43.7481L48.437 98.4332Z" fill="#C4D3DF"/>
<path d="M54.6849 60.5197C53.6928 60.5197 52.8898 59.7165 52.8898 58.7244V51.0354C52.8898 50.0433 53.6928 49.2401 54.6849 49.2401C55.6771 49.2401 56.4802 50.0433 56.4802 51.0354V58.7244C56.4802 59.7165 55.6771 60.5197 54.6849 60.5197Z" fill="white"/>
<path d="M67.6446 52.5081C68.2446 52.5081 68.7213 52.5614 69.0746 52.6681C69.4346 52.7681 69.6946 52.9481 69.8546 53.2081C70.0146 53.4681 70.0946 53.8348 70.0946 54.3081C70.0946 54.8014 69.9979 55.1781 69.8046 55.4381C69.6179 55.6914 69.3079 55.8381 68.8746 55.8781V55.9381C69.4079 55.9848 69.7813 56.1648 69.9946 56.4781C70.2079 56.7848 70.3146 57.2148 70.3146 57.7681C70.3146 58.2414 70.2313 58.6081 70.0646 58.8681C69.9046 59.1281 69.6513 59.3114 69.3046 59.4181C68.9646 59.5181 68.5179 59.5681 67.9646 59.5681C67.5179 59.5681 67.1279 59.5648 66.7946 59.5581C66.4679 59.5581 66.1646 59.5514 65.8846 59.5381C65.6046 59.5248 65.3179 59.5081 65.0246 59.4881L65.1746 58.4281C65.3346 58.4348 65.6413 58.4414 66.0946 58.4481C66.5546 58.4548 67.0879 58.4581 67.6946 58.4581C67.9746 58.4581 68.1946 58.4314 68.3546 58.3781C68.5146 58.3248 68.6246 58.2281 68.6846 58.0881C68.7513 57.9414 68.7846 57.7348 68.7846 57.4681C68.7846 57.1814 68.7513 56.9648 68.6846 56.8181C68.6179 56.6648 68.5013 56.5581 68.3346 56.4981C68.1746 56.4381 67.9513 56.4048 67.6646 56.3981H65.1646V55.4281H67.6446C67.8913 55.4214 68.0846 55.3948 68.2246 55.3481C68.3713 55.3014 68.4746 55.2114 68.5346 55.0781C68.5946 54.9448 68.6246 54.7581 68.6246 54.5181C68.6246 54.2714 68.5913 54.0848 68.5246 53.9581C68.4646 53.8248 68.3579 53.7348 68.2046 53.6881C68.0513 53.6414 67.8379 53.6181 67.5646 53.6181C67.1913 53.6181 66.8613 53.6181 66.5746 53.6181C66.2879 53.6181 66.0313 53.6214 65.8046 53.6281C65.5779 53.6281 65.3679 53.6348 65.1746 53.6481L65.0246 52.5881C65.2913 52.5614 65.5479 52.5448 65.7946 52.5381C66.0479 52.5248 66.3213 52.5181 66.6146 52.5181C66.9079 52.5114 67.2513 52.5081 67.6446 52.5081ZM66.5246 52.5881V59.4881H65.0246V52.5881H66.5246ZM72.8411 54.5481V59.4881H71.3711V54.5481H72.8411ZM72.4311 52.3681C72.7244 52.3681 72.8711 52.5181 72.8711 52.8181V53.3481C72.8711 53.6481 72.7244 53.7981 72.4311 53.7981H71.7911C71.4977 53.7981 71.3511 53.6481 71.3511 53.3481V52.8181C71.3511 52.5181 71.4977 52.3681 71.7911 52.3681H72.4311ZM76.2948 54.4181C76.8681 54.4181 77.3214 54.4714 77.6548 54.5781C77.9948 54.6848 78.2381 54.8514 78.3848 55.0781C78.5381 55.3048 78.6148 55.6081 78.6148 55.9881C78.6148 56.3548 78.5414 56.6548 78.3948 56.8881C78.2481 57.1148 78.0014 57.2814 77.6548 57.3881C77.3148 57.4948 76.8581 57.5481 76.2848 57.5481C75.7114 57.5481 75.2514 57.4948 74.9048 57.3881C74.5648 57.2814 74.3181 57.1148 74.1648 56.8881C74.0181 56.6614 73.9448 56.3614 73.9448 55.9881C73.9448 55.6148 74.0181 55.3148 74.1648 55.0881C74.3181 54.8548 74.5681 54.6848 74.9148 54.5781C75.2614 54.4714 75.7214 54.4181 76.2948 54.4181ZM76.2848 55.3281C75.9181 55.3281 75.6648 55.3781 75.5248 55.4781C75.3848 55.5714 75.3148 55.7414 75.3148 55.9881C75.3148 56.2348 75.3848 56.4081 75.5248 56.5081C75.6648 56.6081 75.9181 56.6581 76.2848 56.6581C76.6514 56.6581 76.9014 56.6081 77.0348 56.5081C77.1681 56.4081 77.2348 56.2348 77.2348 55.9881C77.2348 55.7414 77.1681 55.5714 77.0348 55.4781C76.9014 55.3781 76.6514 55.3281 76.2848 55.3281ZM79.1848 54.5481L79.1048 55.1781L77.7848 55.3481L77.4248 54.5481H79.1848ZM74.7948 57.2481L75.5348 57.3781C75.4414 57.4314 75.3748 57.5148 75.3348 57.6281C75.3014 57.7414 75.3114 57.8481 75.3648 57.9481C75.4181 58.0481 75.5348 58.1081 75.7148 58.1281L77.5348 58.3381C78.0548 58.3914 78.4214 58.5381 78.6348 58.7781C78.8481 59.0114 78.9548 59.3548 78.9548 59.8081C78.9548 60.2348 78.8681 60.5614 78.6948 60.7881C78.5214 61.0214 78.2448 61.1814 77.8648 61.2681C77.4848 61.3548 76.9781 61.3981 76.3448 61.3981C75.8248 61.3981 75.3948 61.3714 75.0548 61.3181C74.7214 61.2714 74.4548 61.1914 74.2548 61.0781C74.0614 60.9648 73.9248 60.8148 73.8448 60.6281C73.7714 60.4481 73.7348 60.2214 73.7348 59.9481C73.7348 59.7414 73.7714 59.5648 73.8448 59.4181C73.9181 59.2648 74.0414 59.1281 74.2148 59.0081C74.3948 58.8881 74.6448 58.7781 74.9648 58.6781L75.6948 58.4181L76.2248 58.6281L75.8248 58.8881C75.6581 59.0081 75.5214 59.1114 75.4148 59.1981C75.3148 59.2781 75.2414 59.3581 75.1948 59.4381C75.1548 59.5181 75.1348 59.6248 75.1348 59.7581C75.1348 59.9114 75.1681 60.0281 75.2348 60.1081C75.3014 60.1948 75.4214 60.2514 75.5948 60.2781C75.7748 60.3114 76.0181 60.3281 76.3248 60.3281C76.6448 60.3281 76.8948 60.3114 77.0748 60.2781C77.2548 60.2514 77.3781 60.1981 77.4448 60.1181C77.5181 60.0381 77.5548 59.9248 77.5548 59.7781C77.5548 59.6514 77.5281 59.5581 77.4748 59.4981C77.4281 59.4381 77.3448 59.3948 77.2248 59.3681C77.1114 59.3348 76.9514 59.3048 76.7448 59.2781L75.1948 59.1081C74.9348 59.0814 74.7314 59.0114 74.5848 58.8981C74.4381 58.7848 74.3348 58.6481 74.2748 58.4881C74.2214 58.3214 74.2081 58.1548 74.2348 57.9881C74.2614 57.8214 74.3214 57.6714 74.4148 57.5381C74.5148 57.4048 74.6414 57.3081 74.7948 57.2481Z" fill="#55778E"/>
<path d="M73.5707 65.7401C73.9605 65.7401 74.5156 65.7638 75.2243 65.7992C75.933 65.8347 76.6771 65.9645 77.4448 66.1889L77.2558 68.4567C76.8424 68.4449 76.4645 68.433 76.1219 68.4212C75.7794 68.4212 75.4015 68.4094 75.0118 68.4094H73.5707C72.8739 68.4094 72.307 68.4804 71.8582 68.6339C71.4094 68.7874 71.0668 69.0709 70.8188 69.4961C70.5708 69.9213 70.4054 70.5472 70.3227 71.374C70.24 72.2008 70.1928 73.2874 70.1928 74.622C70.1928 75.7086 70.2165 76.5945 70.2637 77.2913C70.311 77.9882 70.4173 78.5197 70.5826 78.9094C70.748 79.2992 71.0077 79.5591 71.3503 79.7126C71.6928 79.8662 72.1771 79.937 72.7913 79.937C73.5 79.937 74.0196 79.8306 74.3503 79.6062C74.681 79.3818 74.8936 79.0511 74.9881 78.5905C75.0826 78.1299 75.1299 77.5512 75.1299 76.8425C75.1299 76.1338 75.0708 75.6023 74.9408 75.2126C74.8109 74.8228 74.5866 74.5394 74.244 74.3859C73.9015 74.2323 73.4291 74.1496 72.8149 74.1496C72.3779 74.1496 71.9645 74.2086 71.5984 74.3149C71.2322 74.4212 70.8307 74.6102 70.4173 74.87C70.0039 75.1299 69.4841 75.4961 68.87 75.9685L68.7755 74.5984C69.2952 73.807 69.7913 73.2048 70.2637 72.7678C70.7362 72.3307 71.2558 72.0355 71.8227 71.8701C72.3896 71.7048 73.063 71.622 73.8543 71.622C75.0709 71.622 76.0038 71.7992 76.677 72.1417C77.3503 72.4843 77.8228 73.0394 78.0944 73.7835C78.3661 74.5276 78.5078 75.5314 78.5078 76.7716C78.5078 77.7283 78.437 78.5787 78.2835 79.311C78.1299 80.0432 77.8463 80.6575 77.433 81.1417C77.0196 81.626 76.429 81.992 75.6849 82.2401C74.9409 82.4881 73.9605 82.6063 72.744 82.6063C71.5275 82.6063 70.5826 82.4763 69.7913 82.2283C68.9999 81.9802 68.3858 81.5433 67.937 80.9409C67.4882 80.3385 67.1692 79.5 66.9802 78.437C66.7913 77.374 66.6968 76.0393 66.6968 74.433C66.6968 72.5432 66.8385 71.0196 67.122 69.874C67.4054 68.7283 67.8306 67.8543 68.3975 67.252C68.9644 66.6496 69.685 66.248 70.5472 66.0472C71.4094 65.8464 72.4251 65.7401 73.5707 65.7401Z" fill="#294C60"/>
</svg>
