<svg width="150" height="150" viewBox="0 0 150 150" fill="none" xmlns="http://www.w3.org/2000/svg">
<path d="M128.032 21.9687L21.9685 128.032C51.2598 157.323 98.7402 157.323 128.032 128.032C157.323 98.7402 157.323 51.26 128.032 21.9687Z" fill="#1298FF"/>
<path d="M128.032 21.9686C98.7402 -7.32277 51.2598 -7.32277 21.9685 21.9686C-7.32283 51.2599 -7.32283 98.7401 21.9685 128.031L128.032 21.9686Z" fill="#79C4FF"/>
<path d="M103.724 37.7953H46.937C44.4973 37.7953 42.5197 39.7732 42.5197 42.2128V108.378C42.5197 110.818 44.4973 112.795 46.937 112.795H103.724C106.164 112.795 108.142 110.818 108.142 108.378V42.2128C108.142 39.7732 106.164 37.7953 103.724 37.7953Z" fill="white"/>
<path d="M102.697 113.823H45.8976C42.7323 113.823 40.1575 111.248 40.1575 108.083V41.9173C40.1575 38.752 42.7323 36.1771 45.8976 36.1771H102.697C105.862 36.1771 108.437 38.752 108.437 41.9173V108.083C108.437 111.248 105.862 113.823 102.697 113.823ZM45.8976 38.8227C44.1968 38.8227 42.815 40.2047 42.815 41.9055V108.071C42.815 109.772 44.1968 111.154 45.8976 111.154H102.697C104.398 111.154 105.78 109.772 105.78 108.071V41.9055C105.78 40.2047 104.398 38.8227 102.697 38.8227H45.8976Z" fill="#365E7D"/>
<path d="M81.1417 107.339H68.6457C67.7835 107.339 67.0865 106.642 67.0865 105.78C67.0865 104.917 67.7835 104.221 68.6457 104.221H81.1417C82.0039 104.221 82.7008 104.917 82.7008 105.78C82.7008 106.642 82.0039 107.339 81.1417 107.339Z" fill="#FF7805"/>
<path d="M48.437 43.7481V98.4332L101.563 43.7481H48.437Z" fill="#D6DFE5"/>
<path d="M48.437 98.4332H101.563V43.7481L48.437 98.4332Z" fill="#C4D3DF"/>
<path d="M54.6849 60.5197C53.6928 60.5197 52.8898 59.7165 52.8898 58.7244V51.0354C52.8898 50.0433 53.6928 49.2401 54.6849 49.2401C55.6771 49.2401 56.4802 50.0433 56.4802 51.0354V58.7244C56.4802 59.7165 55.6771 60.5197 54.6849 60.5197Z" fill="white"/>
<path d="M60.2362 69.6855C60.2363 73.3231 61.5279 76.8426 63.8808 79.6167C66.2337 82.3909 69.4951 84.2396 73.084 84.8335C76.6728 85.4273 80.3559 84.7277 83.477 82.8593C86.5981 80.9909 88.9545 78.0751 90.1263 74.6314C91.2982 71.1877 91.2093 67.4397 89.8756 64.0555C88.5419 60.6712 86.0499 57.8703 82.8437 56.1519C79.6376 54.4336 75.9255 53.9093 72.3688 54.6726C68.8122 55.4358 65.642 57.437 63.4232 60.3196C61.3563 63.0043 60.2358 66.2973 60.2362 69.6855Z" fill="url(#paint0_linear_1_251)"/>
<path d="M60.8025 69.6856C60.8033 73.1889 62.0479 76.5782 64.3144 79.2495C66.581 81.9208 69.7223 83.7008 73.1787 84.2722C76.6351 84.8435 80.1822 84.1693 83.1879 82.3695C86.1935 80.5697 88.4627 77.7613 89.5909 74.4447C90.7192 71.128 90.6334 67.5185 89.3487 64.2592C88.064 60.9999 85.664 58.3025 82.5761 56.6477C79.4883 54.9928 75.9132 54.4879 72.4879 55.223C69.0625 55.958 66.0094 57.8853 63.8724 60.6614C61.8811 63.2481 60.8017 66.4211 60.8025 69.6856Z" fill="white"/>
<path d="M67.3033 62.4182V68.1528" stroke="#55778E" stroke-width="0.5" stroke-miterlimit="10"/>
<path d="M78.265 67.6453L72.2765 71.5986" stroke="#55778E" stroke-width="0.5" stroke-miterlimit="10"/>
<path d="M72.2765 58.8506L79.285 61.7838" stroke="#55778E" stroke-width="0.5" stroke-miterlimit="10"/>
<path d="M83.9997 68.6654L83.619 77.5871" stroke="#55778E" stroke-width="0.5" stroke-miterlimit="10"/>
<path d="M79.2851 80.2666L71.3834 76.3134" stroke="#55778E" stroke-width="0.5" stroke-miterlimit="10"/>
<path d="M67.3033 76.9526V81.9357" stroke="#55778E" stroke-width="0.5" stroke-miterlimit="10"/>
<path d="M64.3703 73.1263L60.9246 71.5987" stroke="#55778E" stroke-width="0.5" stroke-miterlimit="10"/>
<path d="M83.6189 61.2712L83.3553 57.1032" stroke="#55778E" stroke-width="0.5" stroke-miterlimit="10"/>
<path d="M85.9128 66.1178L90.1882 67.3379" stroke="#55778E" stroke-width="0.5" stroke-miterlimit="10"/>
<path d="M87.0597 66.1177L83.7458 60.3781L78.2649 61.2713V67.6453L84.1314 70.7054L87.0597 66.1177Z" fill="#294C60"/>
<path d="M63.8722 60.6613L67.2886 62.4183C68.4355 60.8907 73.1453 59.1044 73.1453 59.1044L72.6572 55.1999C69.1663 55.9017 66.0464 57.8413 63.8722 60.6613Z" fill="#294C60"/>
<path d="M73.1649 70.9592L67.1765 68.1529L63.8625 72.8724L67.3034 78.3533L73.1649 77.4602V70.9592Z" fill="#294C60"/>
<path d="M78.2649 79.4856V84.2148C80.1838 83.8625 82.0139 83.1339 83.6499 82.0709C85.2858 81.0079 86.6952 79.6316 87.7967 78.0214L83.6189 76.3083L78.2649 79.4856Z" fill="#294C60"/>
<defs>
<linearGradient id="paint0_linear_1_251" x1="75.5905" y1="85.0349" x2="75.5905" y2="54.336" gradientUnits="userSpaceOnUse">
<stop stop-color="#808080" stop-opacity="0.25"/>
<stop offset="0.54" stop-color="#808080" stop-opacity="0.12"/>
<stop offset="1" stop-color="#808080" stop-opacity="0.1"/>
</linearGradient>
</defs>
</svg>
