<svg width="150" height="150" viewBox="0 0 150 150" fill="none" xmlns="http://www.w3.org/2000/svg">
<path d="M128.031 21.9688L21.9684 128.032C51.2598 157.323 98.7401 157.323 128.031 128.032C157.323 98.7403 157.323 51.2601 128.031 21.9688Z" fill="#1298FF"/>
<path d="M128.032 21.9686C98.7402 -7.32271 51.2598 -7.32271 21.9685 21.9686C-7.32283 51.26 -7.32283 98.7402 21.9685 128.032L128.032 21.9686Z" fill="#79C4FF"/>
<path d="M103.724 37.7954H46.937C44.4973 37.7954 42.5197 39.7732 42.5197 42.2129V108.378C42.5197 110.818 44.4973 112.795 46.937 112.795H103.724C106.164 112.795 108.142 110.818 108.142 108.378V42.2129C108.142 39.7732 106.164 37.7954 103.724 37.7954Z" fill="white"/>
<path d="M102.697 113.823H45.8976C42.7323 113.823 40.1575 111.248 40.1575 108.083V41.9174C40.1575 38.7521 42.7323 36.1771 45.8976 36.1771H102.697C105.862 36.1771 108.437 38.7521 108.437 41.9174V108.083C108.437 111.248 105.862 113.823 102.697 113.823ZM45.8976 38.8228C44.1968 38.8228 42.815 40.2048 42.815 41.9056V108.071C42.815 109.772 44.1968 111.154 45.8976 111.154H102.697C104.398 111.154 105.78 109.772 105.78 108.071V41.9056C105.78 40.2048 104.398 38.8228 102.697 38.8228H45.8976Z" fill="#365E7D"/>
<path d="M81.1417 107.339H68.6457C67.7835 107.339 67.0865 106.642 67.0865 105.78C67.0865 104.917 67.7835 104.221 68.6457 104.221H81.1417C82.0039 104.221 82.7008 104.917 82.7008 105.78C82.7008 106.642 82.0039 107.339 81.1417 107.339Z" fill="#FF7805"/>
<path d="M48.437 43.7482V98.4333L101.563 43.7482H48.437Z" fill="#D6DFE5"/>
<path d="M48.437 98.4333H101.563V43.7482L48.437 98.4333Z" fill="#C4D3DF"/>
<path d="M54.6849 60.5198C53.6928 60.5198 52.8898 59.7166 52.8898 58.7245V51.0355C52.8898 50.0434 53.6928 49.2402 54.6849 49.2402C55.6771 49.2402 56.4802 50.0434 56.4802 51.0355V58.7245C56.4802 59.7166 55.6771 60.5198 54.6849 60.5198Z" fill="white"/>
<g clip-path="url(#clip0_1_433)">
<path d="M81.4436 56.823C80.4633 56.9723 79.8167 57.737 79.8612 58.7172C79.8724 59.135 79.9432 59.1653 80.9736 59.2428C81.6083 59.2942 81.7012 59.2759 81.874 59.0605C82.1185 58.7559 82.2002 58.7435 83.1537 58.8532C83.6884 58.9116 83.9839 58.9078 84.0239 58.8276C84.0505 58.7619 84 58.4982 83.9086 58.2407C83.5827 57.2869 82.4943 56.6671 81.4436 56.823ZM83.5647 58.1656C83.6092 58.2986 83.5827 58.3643 83.4922 58.411C83.3114 58.5043 83.111 58.2511 83.1721 58.0115C83.2245 57.8061 83.4733 57.9081 83.5647 58.1656Z" fill="#294C60"/>
<path d="M87.1011 59.3206C87.0631 59.3548 87.1777 59.5162 87.3601 59.6795C87.734 60.0089 88.24 60.6596 87.9713 60.4524C87.2929 59.9416 86.7222 59.5811 86.3455 59.4147C85.7829 59.1748 85.7232 59.2935 86.1906 59.7144L86.5235 60.0134L85.9356 59.948C84.8121 59.8419 84.2291 60.0236 84.9903 60.2496C85.3618 60.36 85.7974 60.7532 87.0424 62.0964C87.577 62.6737 88.0565 63.1618 88.1108 63.1779C88.1652 63.1941 88.3366 63.1722 88.4873 63.1169C89.0164 62.9555 90.347 62.7865 91.3719 62.7451C91.539 62.7401 91.5364 62.712 91.3814 62.3658L91.2127 61.9972L91.6343 61.7221L92.0651 61.4496L91.4961 61.4627L90.9383 61.4699L91.3245 61.257C91.6973 61.0584 91.7107 61.0442 91.478 61.0388C91.3447 61.0264 91.0196 61.0391 90.7441 61.0483C89.857 61.0851 89.7754 61.0609 89.2394 60.5651C88.562 59.9363 87.2644 59.178 87.1011 59.3206Z" fill="#294C60"/>
<path d="M82.7978 58.992C82.0362 58.9327 81.9859 58.9738 81.8832 59.7289C81.7186 60.9612 81.7494 61.0359 82.3502 60.9443C82.7161 60.8759 83.3486 60.5038 83.4798 60.2624C83.5456 60.1604 83.6279 59.8764 83.6692 59.6361C83.7389 59.2454 83.7315 59.1964 83.5231 59.1154C83.3936 59.0766 83.0701 59.0173 82.7978 58.992Z" fill="#294C60"/>
<path d="M80.7646 59.5019C80.5111 59.491 80.2736 59.4941 80.2396 59.5117C80.1509 59.55 80.3755 60.0621 80.5882 60.311C80.6945 60.4355 80.9296 60.6356 81.1202 60.7389L81.4534 60.9405L81.5033 60.4736C81.5394 60.2156 81.5843 59.9232 81.6128 59.8112C81.6698 59.5873 81.5071 59.5294 80.7646 59.5019Z" fill="#294C60"/>
<path d="M84.2135 60.8356C83.7601 60.8472 83.6629 60.8824 83.8228 60.9851C83.8912 61.0239 84.1242 61.1851 84.3503 61.3352L84.7661 61.6243L84.1198 61.6243C83.4622 61.63 82.6227 61.8109 82.5857 61.9559C82.5726 62.007 82.8165 62.1257 83.135 62.2206L83.6949 62.4059L83.1609 62.3109C82.5134 62.2004 81.4225 62.4073 81.5562 62.6123C81.5679 62.6433 81.8755 62.7809 82.233 62.9151L82.8729 63.1701L82.2369 63.2833C81.619 63.4018 80.9819 63.6339 80.9471 63.7703C80.9362 63.813 81.1524 63.8866 81.4228 63.9397L81.9069 64.0382L81.5977 64.1754C81.3426 64.292 81.1952 64.2939 80.7857 64.1718C80.3671 64.047 80.2878 64.0509 80.253 64.1873C80.2181 64.3237 80.3117 64.3791 81.229 64.6986C82.6949 65.2091 83.3575 65.682 84.9559 67.3606C86.1737 68.6505 87.4643 69.3106 88.7912 69.3301C89.4761 69.3325 90.4447 69.1442 90.4818 68.9993C90.5275 68.8202 90.3433 68.7745 89.9747 68.8756C89.4344 69.0356 88.6567 69.0514 87.9819 68.9328C87.4116 68.8269 87.3955 68.813 87.3612 68.5642C87.3462 68.4312 87.3573 68.196 87.3921 68.0596C87.44 67.872 87.4098 67.7987 87.2733 67.758C87.1732 67.7282 87.1 67.6697 87.1131 67.6185C87.124 67.5759 87.4465 67.1949 87.8345 66.7876L88.5342 66.042L88.9734 66.3932C89.2181 66.5854 89.7042 67.0974 90.0535 67.5319C90.3937 67.9637 90.7037 68.3222 90.7401 68.3331C90.7765 68.3439 90.9664 68.2905 91.165 68.2029L91.5241 68.0622L91.1913 67.6785C86.36 62.017 85.502 61.0822 84.9469 60.9166C84.7536 60.8682 84.422 60.8244 84.2135 60.8356Z" fill="#294C60"/>
<path d="M77.1051 59.1122C75.6118 59.0796 73.563 59.5759 72.9566 60.1085C72.5476 60.4559 72.4334 61.0603 72.6329 61.7301C72.8205 62.3682 72.8767 62.4226 74.3184 63.7167L75.4277 64.7051L74.9733 66.682C74.4966 68.7462 74.4915 68.9231 74.8247 69.3042C75.05 69.5592 75.5895 69.7203 75.9038 69.6263C76.4238 69.4717 76.4825 69.3202 77.0437 66.9245C77.3275 65.6947 77.5589 64.5526 77.5525 64.3816C77.5333 64.1036 77.4935 64.0636 76.9297 63.8014C75.59 63.1668 75.4102 63.0474 75.2727 62.7622C75.0451 62.2811 75.1956 62.0444 76.3965 60.9475C77.0189 60.3916 77.5818 59.9118 77.6603 59.8788C77.7388 59.8459 77.9613 59.8372 78.154 59.8666C78.4442 59.9063 78.5283 59.9689 78.7123 60.268C78.986 60.7253 78.9037 61.0481 78.3868 61.5041C78.1664 61.7012 77.9991 61.886 78.0203 61.9205C78.1052 62.0585 79.178 61.7778 79.4561 61.551C80.0238 61.0914 79.9393 60.3244 79.2536 59.716C78.7786 59.3019 78.1903 59.1357 77.1051 59.1122Z" fill="#294C60"/>
<path d="M90.7191 63.1071C89.9417 63.143 89.2358 63.2465 88.5419 63.4184L88.1324 63.5181L88.9243 64.4304C89.3471 64.9362 90.1437 65.8685 90.6705 66.5073C91.2085 67.1401 91.7066 67.6593 91.7773 67.6526C91.8571 67.6487 92.104 67.4912 92.3392 67.3024L92.7734 66.9511L92.6128 66.4218C92.4099 65.7874 91.4964 63.0712 91.4781 63.0657C91.4759 63.0743 91.1271 63.0903 90.7191 63.1071ZM91.4639 64.7457C91.5892 64.9497 91.4912 65.1795 91.2636 65.2225C91.0268 65.2628 90.928 65.1869 90.8498 64.9137C90.7574 64.5807 91.2759 64.4396 91.4639 64.7457Z" fill="#294C60"/>
<path d="M77.8885 59.9532C77.6584 59.9676 75.4813 61.906 75.4179 62.1552C75.3938 62.2497 75.4275 62.4263 75.4927 62.5568C75.5814 62.7497 75.9162 62.9423 77.598 63.7596C79.4562 64.6573 79.6164 64.7238 79.8596 64.6578C80.1961 64.5734 80.3547 64.2602 80.2374 63.9477C80.1293 63.6379 80.1545 63.6547 78.5324 62.8738C77.8152 62.5206 77.2103 62.2288 77.2056 62.2089C77.1986 62.1975 77.4987 61.9081 77.8804 61.5691C78.2643 61.2215 78.5933 60.8575 78.6309 60.7485C78.6856 60.5337 78.4135 60.0177 78.2192 59.9688C78.1551 59.9497 78.0092 59.943 77.8885 59.9532Z" fill="#294C60"/>
<path d="M92.2698 67.6985C92.0471 67.8737 91.6145 68.1349 91.3183 68.2882L90.7644 68.5596L91.1043 68.8567C91.4189 69.1369 91.4464 69.1451 91.7115 69.0756C92.1549 68.9664 92.5081 68.7837 92.7234 68.5598C92.8979 68.3794 92.9155 68.3103 92.8634 67.9319C92.8335 67.6997 92.7808 67.4793 92.7506 67.4423C92.709 67.4113 92.5017 67.526 92.2698 67.6985Z" fill="#294C60"/>
<path d="M80.1137 65.552C79.9268 65.6705 79.9202 65.6961 79.969 66.2336C80.1232 67.7384 79.845 69.7474 79.3768 70.5069C79.0871 70.9893 78.5397 71.3307 77.9982 71.3803C76.6049 71.5061 74.4189 71.0928 73.2194 70.4599C72.3734 70.0149 71.9037 69.5537 71.8007 69.0368C71.6999 68.5113 71.7652 68.2555 72.1343 67.7692C72.5346 67.2371 72.5407 67.1747 72.1859 67.0689C71.4943 66.8627 69.7116 67.0559 67.5558 67.5599C66.9405 67.7068 66.5551 67.7203 65.4976 67.6435C62.8038 67.4549 62.3205 67.4301 61.8947 67.4866C61.6615 67.518 60.8978 67.7857 60.2048 68.0837C57.9292 69.0566 56.6663 69.515 55.9419 69.6292L55.2378 69.7404L55.3988 69.9535C55.7208 70.3799 57.1327 70.9477 57.9381 70.9768C58.2103 70.9846 58.7051 70.811 59.7543 70.3073C60.5554 69.9315 61.5282 69.4967 61.928 69.3499C62.9558 68.9683 64.5622 68.6215 65.4509 68.5929L65.8046 68.5883L65.5243 69.5323C65.2378 70.5387 65.1936 71.287 65.3469 72.4888C65.4164 73.06 65.9326 74.4893 66.3378 75.2799L66.567 75.7244L65.1425 76.5474C63.6594 77.408 63.4659 77.5521 63.3984 77.8164C63.3527 77.9955 64.685 82.4022 64.8926 82.7394C65.0034 82.9192 65.1745 83.0161 65.8162 83.2258C66.5718 83.4878 66.6308 83.4871 66.9582 83.3553C67.4054 83.1767 67.5415 82.7586 67.2833 82.3513C67.1539 82.1292 67.0283 82.0459 66.637 81.9292L66.1548 81.7854L65.7014 80.3015C65.448 79.4919 65.2477 78.7808 65.2426 78.7242C65.2465 78.6703 66.2785 78.4642 67.5306 78.2779C68.7848 78.0831 69.9572 77.8638 70.1311 77.7964C70.5149 77.6356 71.1121 77.0614 71.404 76.5704C71.5977 76.2336 71.6169 76.1201 71.5822 75.4124C71.5641 74.985 71.4774 74.2894 71.3891 73.8685C71.2485 73.2302 71.2539 73.0942 71.3805 73.0586C71.4642 73.0376 71.5548 73.0279 71.5821 73.0361C71.664 73.0605 71.8828 74.2359 72.0098 75.3106C72.0252 75.4803 72.0568 75.4714 72.2881 75.2559C72.6925 74.8994 73.5475 74.4662 74.1267 74.3454C75.3169 74.0947 77.2872 74.2786 79.0343 74.7996C79.8078 75.0302 80.1281 75.0798 81.1103 75.1067C82.2785 75.1339 83.6947 75.0332 83.7252 74.9139C83.7361 74.8712 83.5291 74.3783 83.2623 73.8125C82.8399 72.8975 82.8046 72.7676 82.9512 72.6921C83.0978 72.6165 83.1899 72.7541 83.7165 73.8745C84.0482 74.5698 84.4581 75.3801 84.6177 75.6754L84.9205 76.2153L84.6611 76.349C84.4806 76.442 84.3756 76.585 84.3168 76.8151C84.2318 77.1476 84.2206 77.1535 83.6674 77.172C83.3137 77.1766 82.9822 77.1328 82.8067 77.053C82.3076 76.8216 81.811 77.0405 81.6847 77.535C81.6281 77.7566 82.0569 78.4166 82.367 78.5825C82.5381 78.6794 83.128 78.7085 84.3297 78.6815C87.3475 78.6364 87.3792 78.6275 87.5142 78.0989C87.5665 77.8943 87.3692 77.2483 86.5 74.8238C86.3903 74.525 86.3812 74.5223 87.198 75.4265C87.7119 75.9834 87.7443 76.0481 87.5842 76.138C87.4311 76.2391 87.4319 76.3128 87.647 76.9274C87.7757 77.3053 87.9197 77.6234 87.9539 77.6428C88.0904 77.6835 89.5912 77.2136 89.7756 77.0667C90.0186 76.8823 90.0817 76.635 89.9629 76.3335C89.9162 76.2095 89.1907 75.3693 88.3557 74.4597L86.844 72.8253L86.959 71.6852C87.1314 69.975 87.1391 70.0599 86.857 69.9758C86.2383 69.7913 85.1409 68.9502 84.3171 68.0348C83.3349 66.9345 82.2405 66.1586 81.0429 65.7098C80.4008 65.4632 80.2963 65.4504 80.1137 65.552Z" fill="#294C60"/>
</g>
<defs>
<clipPath id="clip0_1_433">
<rect width="37.7953" height="37.7953" fill="white" transform="translate(55.5118 51.9686)"/>
</clipPath>
</defs>
</svg>
