<svg width="150" height="150" viewBox="0 0 150 150" fill="none" xmlns="http://www.w3.org/2000/svg">
<path d="M128.032 21.9686L21.9685 128.032C51.2598 157.323 98.7402 157.323 128.032 128.032C157.323 98.7402 157.323 51.26 128.032 21.9686Z" fill="#1298FF"/>
<path d="M128.032 21.9686C98.7402 -7.32271 51.2598 -7.32271 21.9685 21.9686C-7.32283 51.2599 -7.32283 98.7402 21.9685 128.032L128.032 21.9686Z" fill="#79C4FF"/>
<path d="M103.394 37.5H46.6064C44.1668 37.5 42.189 39.4777 42.189 41.9173V108.083C42.189 110.522 44.1668 112.5 46.6064 112.5H103.394C105.833 112.5 107.811 110.522 107.811 108.083V41.9173C107.811 39.4777 105.833 37.5 103.394 37.5Z" fill="white"/>
<path d="M103.394 113.835H46.5945C43.4292 113.835 40.8544 111.26 40.8544 108.095V41.9292C40.8544 38.7639 43.4292 36.1891 46.5945 36.1891H103.394C106.559 36.1891 109.134 38.7639 109.134 41.9292V108.095C109.134 111.26 106.559 113.835 103.394 113.835ZM46.5945 38.8347C44.8937 38.8347 43.5118 40.2166 43.5118 41.9174V108.083C43.5118 109.784 44.8937 111.165 46.5945 111.165H103.394C105.094 111.165 106.476 109.784 106.476 108.083V41.9174C106.476 40.2166 105.094 38.8347 103.394 38.8347H46.5945Z" fill="#365E7D"/>
<path d="M81.1418 107.339H68.6457C67.7835 107.339 67.0867 106.642 67.0867 105.78C67.0867 104.917 67.7835 104.22 68.6457 104.22H81.1418C82.004 104.22 82.7008 104.917 82.7008 105.78C82.7008 106.642 82.004 107.339 81.1418 107.339Z" fill="#FF7805"/>
<path d="M48.437 43.748V98.4331L101.563 43.748H48.437Z" fill="#D6DFE5"/>
<path d="M48.437 98.4331H101.563V43.748L48.437 98.4331Z" fill="#C4D3DF"/>
<path d="M54.6851 60.5197C53.6929 60.5197 52.8898 59.7166 52.8898 58.7245V51.0355C52.8898 50.0434 53.6929 49.2402 54.6851 49.2402C55.6772 49.2402 56.4804 50.0434 56.4804 51.0355V58.7245C56.4804 59.7166 55.6772 60.5197 54.6851 60.5197Z" fill="white"/>
<path d="M75.7441 69.1418H71.4685V74.7283L76.9488 69.0826C76.5591 69.1063 76.1693 69.1299 75.7441 69.1299V69.1418Z" fill="#55778E"/>
<path d="M77.4568 84.9803H72.2599C71.4095 84.9803 70.9725 85.4056 70.9725 86.2678V92.504C70.9725 93.3189 71.3977 93.7323 72.2599 93.7323H77.4568C77.8583 93.7323 78.189 93.6497 78.437 93.4843C78.6851 93.3189 78.8031 93 78.8031 92.504V86.2678C78.8031 85.4174 78.3544 84.9803 77.4568 84.9803Z" fill="#294C60"/>
<path d="M89.7519 54.4015C88.7716 52.5235 87.3071 51.0708 85.3464 50.0314C83.3858 48.992 80.941 48.4724 78.0118 48.4724C75.2835 48.4724 72.8387 48.8031 70.6772 49.4763C68.5158 50.1495 66.6379 50.9763 65.0552 51.9566V58.618C66.8032 58.0039 68.5157 57.5196 70.1575 57.1535C71.811 56.7873 73.5117 56.5983 75.2598 56.5983C77.5393 56.5983 79.2638 57.0236 80.4213 57.8858C81.5788 58.7362 82.1693 60.2125 82.1693 62.2912V63.7086L90.2126 55.429C90.0708 55.0747 89.9291 54.7204 89.7519 54.3897V54.4015Z" fill="#55778E"/>
<path d="M82.1694 63.7087V64.2402C82.1694 66.1535 81.6142 67.4527 80.5158 68.126C79.6418 68.6575 78.437 68.9764 76.9488 69.0827L71.4685 74.7284V81.2481H78.2598V75.9921C82.7008 75.9921 85.9725 75.0118 88.0749 73.063C90.1772 71.1023 91.2283 68.2323 91.2283 64.4409V60.8386C91.2283 58.8661 90.874 57.0709 90.2126 55.4528L82.1694 63.7323V63.7087Z" fill="#294C60"/>
</svg>
