<svg width="150" height="150" viewBox="0 0 150 150" fill="none" xmlns="http://www.w3.org/2000/svg">
<path d="M128.031 21.9688L21.9684 128.032C51.2598 157.323 98.7401 157.323 128.031 128.032C157.323 98.7404 157.323 51.2601 128.031 21.9688Z" fill="#1298FF"/>
<path d="M128.032 21.9687C98.7402 -7.32259 51.2598 -7.32259 21.9685 21.9687C-7.32283 51.2601 -7.32283 98.7404 21.9685 128.032L128.032 21.9687Z" fill="#79C4FF"/>
<path d="M111.732 37.5002H53.8466V112.5H111.732V37.5002Z" fill="white"/>
<path d="M53.8111 112.5H38.2678V103.666H53.8111V112.5ZM53.8111 37.5002H38.2678V46.3349H53.8111V37.5002ZM53.8111 54.0357H38.2678V62.8703H53.8111V54.0357ZM53.8111 70.5711H38.2678V79.4057H53.8111V70.5711ZM53.8111 87.1065H38.2678V95.9412H53.8111V87.1065Z" fill="#365E7D"/>
<path d="M103.843 75.0003C103.843 86.2089 94.7598 95.2915 83.5511 95.2915V92.8822C93.4252 92.8822 101.433 84.8743 101.433 75.0003C101.433 65.1262 93.4252 57.1184 83.5511 57.1184V54.7089C94.7598 54.7089 103.843 63.7916 103.843 75.0003ZM93.5079 73.4175L89.8702 72.6026C89.5867 72.5553 89.3859 72.3073 89.4095 72.012V70.6774C89.3741 70.4294 89.5512 70.1932 89.7992 70.1578C89.8465 70.1578 89.8819 70.1578 89.9291 70.1578H91.9134C92.1615 70.1223 92.3976 70.2995 92.4331 70.5475C92.4331 70.5947 92.4331 70.6301 92.4331 70.6774V71.7049H95.8819V69.9451C95.9292 69.1774 95.6693 68.4215 95.1497 67.8545C94.5827 67.3349 93.8268 67.075 93.0591 67.1223H88.7717C88.004 67.075 87.248 67.3349 86.6811 67.8545C86.1614 68.4215 85.9016 69.1774 85.9488 69.9451V72.2837C85.8189 73.8073 86.9173 75.1656 88.4291 75.3782L92.067 76.1932C92.3505 76.2286 92.5513 76.4884 92.5276 76.7719V78.4018C92.5631 78.6499 92.3858 78.886 92.1378 78.9215C92.0905 78.9215 92.0551 78.9215 92.0079 78.9215H89.9173C89.6693 78.9569 89.4331 78.7798 89.3977 78.5317C89.3977 78.4845 89.3977 78.4491 89.3977 78.4018V77.1853H85.9488V79.1341C85.9016 79.9018 86.1614 80.6578 86.6811 81.2247C87.248 81.7444 88.004 82.0042 88.7717 81.957H93.1653C93.9331 82.0042 94.689 81.7444 95.2559 81.2247C95.7756 80.6578 96.0472 79.9018 95.9882 79.1341V76.5003C96.1181 74.9767 95.0197 73.6066 93.4961 73.4058" fill="#365E7D"/>
<path d="M63.2599 75.0003C63.2599 86.2089 72.3425 95.2915 83.5511 95.2915V54.7089C72.3425 54.7089 63.2599 63.7916 63.2599 75.0003Z" fill="#1298FF"/>
<path d="M77.445 67.2286H70.3347V81.8624H73.7834V77.327H77.445C78.2127 77.3743 78.9686 77.1144 79.5355 76.5948C80.0552 76.0278 80.3151 75.2719 80.2678 74.5042V70.0514C80.3151 69.2837 80.0552 68.5278 79.5355 67.9608C78.9686 67.4411 78.2127 67.1695 77.445 67.2286ZM76.819 73.7719C76.8544 74.0199 76.6773 74.2562 76.4292 74.2917C76.382 74.2917 76.3464 74.2917 76.2992 74.2917H73.7953V70.2641H76.2992C76.5472 70.2286 76.7835 70.4057 76.819 70.6538C76.819 70.701 76.819 70.7364 76.819 70.7837V73.7719Z" fill="white"/>
</svg>
