<svg width="150" height="150" viewBox="0 0 150 150" fill="none" xmlns="http://www.w3.org/2000/svg">
<path d="M128.032 21.9688L21.9685 128.032C51.2598 157.323 98.7402 157.323 128.032 128.032C157.323 98.7403 157.323 51.2601 128.032 21.9688Z" fill="#1298FF"/>
<path d="M128.032 21.9687C98.7402 -7.32259 51.2598 -7.32259 21.9685 21.9687C-7.32283 51.2601 -7.32283 98.7403 21.9685 128.032L128.032 21.9687Z" fill="#79C4FF"/>
<path d="M43.9001 74.7L50.6001 72.9C49.5001 68.9 49.5001 64.5 50.7001 60.2C54.3001 47.1 67.8001 39.4 80.9001 43C94.0001 46.6 101.7 60.1 98.1001 73.2C94.6001 86.3 81.0001 94 67.9001 90.4L66.1001 97.1C70.2001 98.2 74.4001 98.5 78.6001 97.9C82.6001 97.4 86.5001 96.1 90.0001 94C93.6001 92 96.6001 89.3 99.2001 86.1C101.8 82.8 103.7 79 104.8 74.9C105.9 70.8 106.2 66.6 105.6 62.4C105.1 58.4 103.8 54.5 101.7 51C99.6001 47.5 97.0001 44.4 93.8001 41.8C90.5001 39.2 86.7001 37.3 82.6001 36.2C78.5001 35.1 74.3001 34.8 70.1001 35.4C66.1001 35.9 62.2001 37.2 58.7001 39.3C55.2001 41.4 52.1001 44 49.5001 47.2C46.9001 50.5 45.0001 54.3 43.9001 58.4C42.8001 62.5 42.5001 66.7 43.1001 70.9C43.3001 72.2 43.6001 73.5 43.9001 74.7Z" fill="white"/>
<path d="M85.7 82.9001C88 81.6001 89.9 79.9001 91.5 77.9001C93.2 75.8001 94.4 73.4001 95.1 70.8001C95.8 68.2001 96 65.5001 95.6 62.9001C95.3 60.3001 94.4 57.9001 93.1 55.6001C91.8 53.3001 90.1 51.4001 88.1 49.8001C86 48.2001 83.6 47.0001 81 46.3001C78.4 45.6001 75.7 45.4001 73.1 45.8001C70.5 46.1001 68.1 47.0001 65.8 48.3001C63.5 49.6001 61.6 51.3001 60 53.3001C58.3 55.4001 57.1 57.8001 56.4 60.4001C55.7 63.0001 55.5 65.7001 55.9 68.3001C56 69.1001 56.2 69.9001 56.4 70.7001L62.5 69.1001C61.9 66.8001 61.9 64.4001 62.5 62.0001C64.5 54.7001 72 50.4001 79.3 52.4001C86.6 54.4001 90.9 61.9001 88.9 69.2001C86.9 76.5001 79.4 80.8001 72.1 78.8001L70.4 84.8001C73 85.5001 75.7 85.7001 78.3 85.3001C81 85.0001 83.4 84.2001 85.7 82.9001Z" fill="white"/>
<path d="M84.6 67.3C85.8 62.8 83.2 58.1 78.6 56.9C74.1 55.7 69.4 58.3 68.2 62.9C67.8 64.4 67.8 65.9 68.2 67.3L71.4 66.5C71.2 65.6 71.2 64.7 71.4 63.8C72.2 61 75 59.4 77.8 60.1C80.6 60.9 82.2 63.7 81.5 66.5C80.7 69.3 77.9 70.9 75.1 70.2L74.2 73.4C78.7 74.4 83.4 71.8 84.6 67.3Z" fill="white"/>
<path opacity="0.8" d="M71.7 35.0001C78.4 55.4001 76.7 78.0001 67 97.2001C76.5 99.4001 86.9 97.2001 94.8 90.3001C107.9 78.9001 109.3 59.0001 97.9 45.8001C91.1 38.0001 81.3 34.3001 71.7 35.0001Z" fill="url(#paint0_radial_3_2)"/>
<path d="M65.8 97.9001L76.4001 64.8" stroke="#FF7803" stroke-width="4.35" stroke-miterlimit="10" stroke-linecap="round" stroke-linejoin="round"/>
<path d="M76.2001 104L84.4001 115H110.1L94.7001 99C89.3001 102.2 83.0001 104 76.2001 104Z" fill="white"/>
<path d="M39.9 81.1001V115.1H61.2V101.8C51.5 98.2001 43.8 90.6001 39.9 81.1001Z" fill="#365E7D"/>
<defs>
<radialGradient id="paint0_radial_3_2" cx="0" cy="0" r="1" gradientUnits="userSpaceOnUse" gradientTransform="translate(71.2474 63.48) rotate(139.075) scale(68.2889)">
<stop stop-color="white" stop-opacity="0"/>
<stop offset="0.1398" stop-color="#DEDEDE"/>
<stop offset="0.2015" stop-color="#E4E4E4" stop-opacity="0.9282"/>
<stop offset="0.4058" stop-color="#F3F3F3" stop-opacity="0.6908"/>
<stop offset="0.6448" stop-color="#FCFCFC" stop-opacity="0.4129"/>
<stop offset="1" stop-color="white" stop-opacity="0"/>
</radialGradient>
</defs>
</svg>
